<?xml version="1.0" encoding="utf-8"?>
<!-- Generator: Adobe Illustrator 12.0.1, SVG Export Plug-In . SVG Version: 6.00 Build 51448)  -->
<!DOCTYPE svg PUBLIC "-//W3C//DTD SVG 1.1//EN" "http://www.w3.org/Graphics/SVG/1.1/DTD/svg11.dtd" [
	<!ENTITY ns_svg "http://www.w3.org/2000/svg">
	<!ENTITY ns_xlink "http://www.w3.org/1999/xlink">
]>
<svg  version="1.1"
	 id="svg4645" inkscape:version="0.45" xmlns:rdf="http://www.w3.org/1999/02/22-rdf-syntax-ns#" xmlns:dc="http://purl.org/dc/elements/1.1/" xmlns:cc="http://web.resource.org/cc/" sodipodi:version="0.32" sodipodi:docname="Flag_of_Prussia_1903-1918.svg" xmlns:inkscape="http://www.inkscape.org/namespaces/inkscape" xmlns:svg="http://www.w3.org/2000/svg" xmlns:sodipodi="http://sodipodi.sourceforge.net/DTD/sodipodi-0.dtd" sodipodi:docbase="C:\Documents and Settings\Owner\Desktop\New Folder\New Folder (2)" inkscape:output_extension="org.inkscape.output.svg.inkscape"
	 xmlns="&ns_svg;" xmlns:xlink="&ns_xlink;" width="5000" height="3000" viewBox="0 0 5000 3000"
	 overflow="visible" enable-background="new 0 0 5000 3000" xml:space="preserve">
<sodipodi:namedview  id="base" inkscape:cx="405.46944" borderopacity="1.0" guidetolerance="10.0" bordercolor="#666666" inkscape:zoom="0.50000002" inkscape:cy="257.77945" gridtolerance="10.0" inkscape:current-layer="svg4645" inkscape:pageopacity="0.0" pagecolor="#ffffff" inkscape:window-y="44" inkscape:window-x="280" objecttolerance="10.0" inkscape:window-height="712" inkscape:pageshadow="2" inkscape:window-width="744" inkscape:guide-bbox="true" showguides="true">
	</sodipodi:namedview>
<rect id="red_background" x="2056.736" y="1220" fill="#FFFFFF" width="1000" height="600"/>
<rect id="rect4672" x="2056.736" y="1220" width="1000" height="91.244"/>
<path id="path15379" fill="#F3D841" stroke="#000000" stroke-width="1.98" d="M2484.649,1559.486
	c2.571,1.587,3.353,4.879,5.565,6.863c2.206,1.622,3.59,3.922,4.939,6.168c2.086,1.387,2.723,3.912,4.435,5.635
	c1.871,1.564,3.641,3.219,4.857,5.369c2.515,2.745,4.805,5.734,7.821,7.973c2.66,2.22,2.291,6.376,5.05,8.555
	c1.905,1.821,4.284,3.163,5.674,5.482c1.443,2.551,3.676-0.796,4.813-2.01c1.777-1.424,1.486-2.884,0.571-4.712
	c-0.426-3.047-2.729-5.265-3.977-7.968c-1.467-2.136-2.575-4.488-4.236-6.49c-1.238-2.728-3.102-5.069-4.785-7.518
	c-0.812-1.949-1.604-3.943-3.189-5.436c-1.884-1.798-2.85-4.31-4.689-6.146c-0.993-2.076-2.682-3.71-3.454-5.896
	c-0.85-2.771-3.15-4.713-5.355-6.42c-2.749-2.277-4.937,0.867-7.192,2.094c-2.371,0.709-4.786,1.929-6.266,3.959l-0.273,0.271
	L2484.649,1559.486L2484.649,1559.486z"/>
<path id="path14406" sodipodi:nodetypes="csssssssssssssssssssssssssc" fill="#F3D841" stroke="#000000" stroke-width="1.98" d="
	M2407.664,1558.616c-2.025-1.013-2.748,3.618-4.35,5.22c-1.328,1.328-1.924,2.359-3.044,3.479c-1.597,1.598-3.167,1.861-4.35,3.045
	c-0.887,0.887-1.409,3.464-1.74,4.785c-0.27,1.08-11.26,14.596-11.743,16.527c-0.506,2.021-3.087,3.086-3.914,3.914
	c-1.45,1.451-1.86,2.73-3.045,3.915c-1.349,1.349,2.167,11.608,3.045,10.438c1.117-1.489,1.943-2.379,3.044-3.479
	c1.329-1.329,1.925-2.359,3.045-3.479c1.329-1.328,2.359-1.924,3.479-3.045c1.574-1.574,1.708-2.376,3.914-3.479
	c1.607-0.804,2.741-2.438,3.48-3.915c0.732-1.466,2.096-2.531,3.044-3.479c1.329-1.329,2.359-1.925,3.479-3.045
	c1.329-1.328,1.925-2.359,3.045-3.479c1.482-1.481,1.715-2.162,3.479-3.044c1.511-0.756,2.429-2.248,3.045-3.48
	c0.781-1.563,2.335-2.215,3.914-2.609c1.893-0.473,2.904-1.6,3.915-2.609c1.657-1.658,1.851-1.416,3.044-2.609
	c0.65-0.65,0-5.491,0-6.525c0-2.613-0.95-3.206-1.739-4.783c-0.687-1.373-2.943-1.824-4.35-2.176
	c-1.834-0.458-4.922,0.144-6.089,0.436C2408.962,1555.465,2408.218,1557.232,2407.664,1558.616z"/>
<path id="path26253" sodipodi:nodetypes="cscccccccccccccccccccccccccccccccccccccsccccccccccsssssccscscsccssccssssssssssssssssssssssssccsccscsssccscsccscscscsscscsscssccsssscccccsc" stroke="#000000" stroke-width="1.98" d="
	M2449.557,1364.494c-0.496,0.002-0.995,0.017-1.485,0.05c-2.353,0.159-4.63,0.726-6.683,2.228c-2.592,2.784-7.664,2.622-9.107,6.534
	c0.137,5.433,7.686,4.852,11.385,6.732c4.559,1.407,5.803,7.603,10.791,8.217c3.795,2.339,8.905,4.422,9.652,9.405
	c1.354,4.065-0.922,7.95-2.228,11.682c-1.869,3.505-4.576,6.553-8.118,8.415c-0.895,0.825-1.914,1.562-2.97,2.277
	c-1.441-0.223-2.943-0.228-4.405-0.198c-1.829,0.07-3.742-0.221-5.495,0.396c-1.094,1.815-2.422,3.669-4.652,3.267
	c-2.142-0.113-4.387,0.261-6.484-0.247c-1.864-0.772-2.882-3.586-2.476-5.445c1.183-0.883,5.01-1.422,5.742,0.198
	c2.404,0.859-0.457-2.182-1.089-2.97c-0.301-1.035-4.285-2.847-4.851-1.832c-1.916,1.034-1.273,4.971-3.564,5.495
	c-2.074,1.209-4.738-2.39-6.584-2.574c-2.253-0.276-3.517-0.067-5.741,0.446c-1.652,0.701-1.947,1.487-3.763,1.386
	c-2.135,0.612-2.935,2.652-3.812,4.505c-0.057,1.854-0.681,4.362,0.248,6.039c-0.015,1.991,1.217,3.111,3.218,2.772
	c1.703,0.45,2.956-0.599,4.652-0.099c1.384-0.126,4.704,0.538,2.426,2.178c-0.594,0.672-4.284,1.24-1.98,1.732
	c2.081,0.842,4.142-1.549,4.109-3.514c0.3-2.009-0.55-3.282-2.525-3.515c-1.817-0.779-3.837-0.326-5.643-1.04
	c-1.862-0.641-2.139-2.318-1.683-4.356c-0.375-2.193,1.951-3.484,3.86-3.465c1.815-0.168,2.478-0.477,4.307-0.198
	c2.024-0.059,2.839,2.327,4.208,3.465c1.564,1.739,2.248,4.199,1.781,6.484c-0.484,0.938-1.399,3.886-0.049,3.861
	c1.234-1.741,3.475-0.965,5.247-0.94c2.235-0.099,5.324,0.248,7.523-0.248c1.011-0.621,2.86-2.523,4.95-4.307
	s3.591-3.44,4.604-3.613c1.568-0.888,2.843-1.661,4.604-1.188c-0.991,0.984-1.747,2.158-2.079,3.663
	c-2.502,3.933-3.155,9.222-6.336,12.424c-1.516,0.887-2.11,3.764,0.445,3.366c0.365,3.938-2.952,8.046-0.544,11.731
	c4.264,2.654,10.016,0.407,14.85,1.336c7.175,0.038,14.369,0.441,21.532-0.148c0.407-0.582,0.316-1.163,0.248-1.732
	c-0.652-1.318-1.007-3.03-1.188-4.802c0.989,0.258,2.389,0.257,2.624,0.198c0.387-0.097-1.258-2.379-1.98-2.92
	c-0.421-0.316-0.47-0.542-0.792-0.644c-0.008-0.002,0.008-0.047,0-0.05c0.007-0.933,0.038-1.793,0.1-2.574
	c0.111-1.441,0.22-2.481,0.346-3.515c0.448,0.493,0.89,0.999,1.436,1.386c0.587,0.311,1.175,0.659,1.684,1.089
	c0.634,0.541,1.368,1.042,2.228,1.089c0.615,0.134,1.22-0.155,1.633-0.594c0.619-0.71,1.443-1.191,2.03-1.931
	c0.397-0.448,0.298-1.036,0.297-1.584c-0.002-0.966-0.835-0.439-1.139,0.049c-0.645,0.689-1.574,1.392-2.574,1.238
	c-0.727-0.195-1.188-0.862-1.782-1.287c-0.589-0.44-0.924-1.115-1.039-1.832c-0.201-1.232-0.404-2.509-0.347-3.762
	c2.429-3.592,4.206-7.571,6.188-11.435c0.332,0.43,3.093,3.759,3.96,5.495c0.724,1.447,3.469,2.303,4.95,2.673
	c1.727,0.432,6.08,0.544,7.87,0.544c0.563,0,2.063,1.749,2.426,1.93c0.978,0.489,0.495-2.42,0.495-3.217
	c0-2.431,2.292-3.155,4.455-2.723c2.868,0.574,2.857,1.012,3.96,3.218c0.172,0.343-0.716,1.251-1.832,2.228
	c-1.115,0.976-1.939,0.797-2.276,1.04c-0.674,0.484-0.985,1.332-1.337,1.683c-1.675,1.676-0.276,4.399,0.693,5.693
	c0.886,1.181,0.66-3.3,1.979-3.96c1.452-0.726,1.89-1.889,3.168-3.168c1.394-1.394,1.139-1.433,1.139-3.96
	c0-2.14-1.634-2.921-2.92-4.208c-0.93-0.929-3.568-0.544-4.95-0.544c-2.481,0-1.98-1.643-1.98-3.96c0-1.307-3.415-1.584-4.752-1.584
	c-3.634,0-0.726,1.897,0.792,2.277c1.367,0.342,1.256,3.447,0.693,4.01c-0.605,0.605-1.529,1.328-2.574,1.633
	s-2.2,0.184-2.723,0.198c-1.045,0.028-2.059-0.094-2.475-0.198c-1.2-0.3-4.46-3.137-4.702-4.108
	c-0.447-1.787-1.813-2.843-2.228-4.504c0.25-0.756,0.384-1.507,0.494-2.277c0.693,0.404,1.552,0.706,1.733,0.742
	c1.659,0.332,1.736,0.044,0.692-1.287c-0.039,0.071-1.304-0.773-2.228-0.99c0.136-2.418-0.162-4.902-0.198-7.375
	c-0.015-1.028,0.011-2.043,0.05-3.069c0.121,0.164,0.264,0.329,0.297,0.396c0.54,1.08,2.967,0.377,3.911,0
	c0.045,0-2.518-2.517-2.822-2.822c-0.629-0.629-0.938-1.039-1.286-1.089c0.027-1.627,0.011-3.255-0.248-4.851
	c0.049,0.011,0.101,0.049,0.148,0.049c1.413,0,1.548,0.827,3.069,1.436c1.399,0-2.186-2.007-2.524-3.366
	c-0.26-1.038-0.846-1.202-1.337-1.188c-0.364-1.693-0.768-3.395-1.287-5.049c0.219,0.042,0.459,0.05,0.693,0.05
	c1.76,0,2.064,0.15,3.613-1.089c1.493,0-2.401-1.26-3.895-1.26c-0.08,0-1.235-0.073-1.501-0.72c1.037-0.023,3.752-0.178,5.396-0.544
	c1.55-0.345,1.726-1.188,1.881-1.732c-0.387,0.2-1.141,0.471-1.881,0.594c-1.26,0.21-2.322,0-3.069,0c-1.021,0-2.047,0-3.068,0
	c-0.67-1.377-1.439-2.712-2.376-3.96c-0.218-0.308-0.426-0.631-0.644-0.941c0.337-0.062,0.685-0.148,1.039-0.148
	c1.319,0,2.146,0.066,3.366-0.544c1.075-0.538,1.479-0.736,2.97-2.228c-0.329,0.083-2.074,0.693-2.92,0.743
	c-0.847,0.049-2.797-0.198-3.564-0.198c-1.258,0-1.572,0-2.623,0c-0.271-0.376-0.52-0.766-0.792-1.138
	c0.771-0.316,1.598-0.806,2.178-1.386c0.687-0.687,2.333-1.343,3.218-2.228c0.104-0.104,1.781-2.079,1.287-1.832
	c-1.085,0.542-2.411,0.661-3.663,1.287c-1.745,0.872-5.024,0.24-6.139,0.248c-0.308-0.347-0.62-0.707-0.94-1.04
	c-3.501-2.703-7.987-3.296-12.177-4.257C2456.627,1365.113,2453.031,1364.481,2449.557,1364.494z M2489.8,1381.72
	c0.272-0.141,0.407-0.248,0.1-0.248C2489.871,1381.542,2489.826,1381.63,2489.8,1381.72z"/>
<path id="path3334" sodipodi:nodetypes="cssssssssssssssssssssssssssssc" fill="#F3D841" stroke="#000000" stroke-width="1.98" d="
	M2356.061,1603.408c-0.051,0.746,0.388,2.671,0.63,3.718c0.315,1.364,0.337,2.206,0.634,3.485c0.307,1.328,0.601,2.594,0.862,3.723
	c0.256,1.107,0.963,2.596,1.788,3.737c0.738,1.021,1.028,1.952,1.333,3.266c0.311,1.34,0.575,2.235,0.866,3.49
	c0.313,1.354,0.652,2.471,0.626,3.949c-0.016,0.93-0.026,1.877,0.183,2.783c0.018,0.074,0.435,1.632,0.415,2.786
	c-0.019,1.074,1.492,1.448,2.288,1.662c0.298,0.08,1.189,2.008,1.349,2.34c0.185,0.385,1.784,1.141,2.061,1.426
	c0.591,0.612,2.982-0.278,3.25-0.406c0.407-0.195,0.504-2.352,0.516-3.003c0.013-0.756,0.929-2.003,1.202-2.527
	c0.513-0.982-0.229-2.64-0.41-3.019c-0.446-0.932-1.2-1.714-1.813-2.348c-0.396-0.409-0.894-1.868-1.118-2.336
	c-0.398-0.834-0.65-1.617-1.349-2.34c-0.516-0.534-1.116-2.574-1.337-3.035c-0.38-0.793,0.025-2.632-0.171-3.478
	c-0.282-1.22-0.661-2.106-0.874-3.026c-0.23-0.996-0.666-1.633-0.646-2.791c0.017-0.951-0.441-2.154-0.643-3.023
	c-0.267-1.15-0.889-1.597-1.113-2.567c-0.241-1.042-1.284-1.964-1.577-2.575c-0.581-1.215-0.69-1.171-2.295-1.199
	c-1.51-0.025-2.266-0.088-3.258,0.87C2357.334,1603.09,2356.141,1603.256,2356.061,1603.408"/>
<path id="path28195" sodipodi:nodetypes="ccccccccccccsccccccc" fill="#DD0000" stroke="#000000" stroke-width="1.98" d="
	M2463.516,1399.243c-2.213-0.695-3.896-2.493-6.166-3.066c-2.082-0.922-4.392-1.038-6.63-0.889
	c-2.299-0.014-4.599-0.044-6.896,0.056c-0.584,0.309-6.941,1.053-7.572,1.107c-1.939,0.443-3.877,1.398-5.91,0.984
	c-2.099,0.438-4.228-0.107-5.63-1.748c-1.936-0.757-2.904-3.288-1.048-4.701c1.412-0.919,0.329-1.949-0.92-1.371
	c-1.851,0.446-3.45,1.785-4.258,3.502c0.125,2.229,0.227,4.847,1.997,6.45c1.764,1.434,4.089,1.925,6.315,1.775
	c0.745,0.034,3.767,0.404,4.523,0.467c1.513,0.126,3.016,0.104,4.469-0.415c2.335-1.138,5.046-0.996,7.424-2.018
	c3.462-0.925,7.08-0.626,10.617-0.746c2.453,0.218,4.793,1.092,7.187,1.589c0.97,0.935,4.341,1.052,2.616-0.823L2463.516,1399.243
	L2463.516,1399.243z"/>
<path id="path27224" sodipodi:nodetypes="cccccccccccscccccccccccc" fill="#F3D841" stroke="#000000" stroke-width="1.98" d="
	M2437.603,1394.643c-2.362-0.778-4.755-2.173-6.061-4.341c-1.374-2.056-3.088-4.162-2.981-6.781c0.057-2.51-0.066-5.032,0.164-7.532
	c0.564-2.516,3.171-3.897,5.197-5.19c1.979-1.815,4.24-0.674,5.967,0.777c1.648,0.856,2.575,2.741,3.943,4.011
	c3.788,4.328,8.082,8.185,12.722,11.578c1.607,1.038,2.88,2.497,4.483,3.571c1.933,1.813,3.827,3.498,5.476,5.598
	c1.518,2.331,1.197,5.232,1.292,7.877c-0.481,1.07-1.446,1.216-2.515,1.159s-7.555-0.878-9.712-1.563
	c-1.862-0.817-3.811-0.133-5.741-0.206c-2.069,0.041-4.172,0.04-6.213-0.23c-1.802-1.822,1.476-2.189,2.76-1.833
	c0.565,0.047,6.212-0.211,6.767-0.336c2.993-0.277,6-0.045,9-0.104c1.943-1.356,0.556-4.165-0.989-5.267
	c-0.769-0.901-4.313-4.185-5.558-4.42c-1.149-0.201-5.042-2.482-6.104-2.867c-1.131-0.293-5.684-1.029-6.796-1.39
	c-2.157-0.485-4.823,0.409-5.404,2.748C2436.865,1391.487,2437.901,1393.053,2437.603,1394.643z"/>
<rect id="rect18875" x="2456.02" y="1332.793" fill="#F3D841" stroke="#000000" stroke-width="1.9381" width="2.32" height="9.2"/>
<path id="path36964" fill="#F3D841" stroke="#000000" stroke-width="1.98" d="M2442.016,1368.321
	c-1.714-1.518-2.951-3.501-3.499-5.719c-0.986-2.214-1.771-4.592-1.522-7.051c0.046-2.853-0.274-5.78,0.33-8.578
	c0.999-1.605,2.324-3.163,4.054-3.983c1.972-1.163,4.282-0.849,6.414-1.397c2.326-0.354,4.692-0.047,7.038-0.148
	c3.835-0.01,7.67-0.037,11.504,0.044c1.694,0.872,3.742,0.871,5.313,1.926c2.045,0.368,3.61,1.604,4.451,3.506
	c1.542,2.516,1.442,5.573,1.12,8.396c-1.379,2.449-1.562,5.3-2.611,7.87c-0.801,1.647-0.726,4.212-2.641,5.009
	c-5.83-0.319-11.708-0.083-17.557-0.147c-3.877,0.033-7.766-0.117-11.634,0.092
	C2442.52,1368.192,2442.269,1368.26,2442.016,1368.321z"/>
<path id="path36966" sodipodi:nodetypes="cssssssc" fill="#DD0000" stroke="#000000" stroke-width="1.98" d="M2453.775,1343.111
	c-1.498,0-2.462-0.208-3.476,0.806c-0.66,0.66-1.743,1.613-2.404,2.274c-0.825,0.825-3.13,5.962-1.058,5.962
	c1.399,0,5.817,0.198,7.218,0.198c1.249,0,1.12-1.808,1.12-3.08c0-1.855-0.043-1.928,0.28-3.22
	C2455.856,1344.447,2455.241,1343.404,2453.775,1343.111z"/>
<path id="path36968" sodipodi:nodetypes="csssssss" fill="#DD0000" stroke="#000000" stroke-width="1.98" d="M2441.735,1345.92
	c-0.757,0.756-1.444,1.577-1.681,2.52c-0.385,1.54-0.143,2.515,0.28,3.36c0.906,1.812,2.926,0.112,2.998-0.178
	c0.153-0.611,0.796-4.215,1.6-5.449c0.804-1.234,3.152-2.276,3.152-2.909c0-0.43-2.353,0.009-3.828,0.669
	C2442.781,1344.592,2442.184,1345.471,2441.735,1345.92z"/>
<path id="path39887" sodipodi:rx="10.290609" sodipodi:type="arc" sodipodi:ry="9.9022846" sodipodi:cx="216.49112" sodipodi:cy="211.83122" fill="#718AD3" stroke="#000000" stroke-width="1.2873" d="
	M2459.943,1335.859c0.807,1.514,0.234,3.395-1.279,4.201s-3.395,0.234-4.201-1.279c-0.001-0.002-0.002-0.004-0.003-0.006
	c-0.807-1.514-0.233-3.395,1.279-4.201c1.514-0.807,3.395-0.234,4.201,1.279C2459.941,1335.855,2459.942,1335.857,2459.943,1335.859
	z"/>
<rect id="rect39889" x="2456.826" y="1334.384" fill="#F3D841" stroke="#000000" stroke-width="1.98" width="0.636" height="3.274"/>
<rect id="rect39891" x="2454.293" y="1337.445" fill="#F3D841" stroke="#000000" stroke-width="1.98" width="5.953" height="0.636"/>
<path id="path16350" sodipodi:nodetypes="cssssccccccccccscsccsscsccscccccccccccccssccsccccccsccccccsccsccscscscsccsccccccccscscccccccsssscscsscsccsccccccccscscscccccccssccscscccsccscscssccscsccccccccsscscscscscsccsccsccscccsscssscccccccccccssccsscccscsscccccssccccccsssccccccccccccccccccccccccccccccccccccccccccccccccccccccccccccccccccccccccccccsssccccccccccccccccccccccccccccccccccccccccccccccccccccccccccccccccccccccccccccsssccccccsscccccsscscccssccsscccccccccccssscsscccsccsccsccscscscscscssccccccccscsccsscscsccscccscsccsscccccccscscsccccccccsccscsscscsssscccccccscsccccccccsccscscscsccsccsccccccsccccccsccsscccccccccccccsccscssccscsccccccccccsssssccccccccsscccccscccccsccccccsssssssssssssssssssssssssssssssccsssssscscsscccsscscssssssccsssssssssssssssssssssssssssssssccccccscccccscccccssccccccccc" fill="#080808" stroke="#000000" stroke-width="1.98" d="
	M2401.393,1346.427c-0.568,0.015-1.141,0.046-1.683,0.049c-0.255-0.044-2.478,0.04-3.316,0.297
	c-0.419,0.129-1.529,0.408-2.624,0.693c-0.547,0.142-1.069,0.32-1.534,0.445c-0.465,0.125-2.926,1.542-3.168,2.03
	c-1.645,1.607-3.206,3.333-4.108,5.494c-1.455,2.284-1.308,5.081-1.337,7.673c-0.401,2.219,0.547,4.444,2.129,5.989
	c1.025,1.726,3.529,2.835,4.752,4.356c1.257,1.962,2.558,3.139,3.663,5.198c0.36,1.734,0.539,4.487-1.287,5.445
	c-2.653,0.018-5.305-0.139-7.97-0.099c-0.007-0.49-0.052-1.083-0.049-1.534c-6.195-5.906-15.187-11.292-23.909-12.375
	c-0.031-0.021-0.067-0.03-0.099-0.05c-0.521-0.443-1.205-0.86-1.336-1.584c0.087-0.418,0.091-0.935,0.445-1.237
	c0.33-0.327,0.308-0.979,0.841-1.089c0.293-0.125,1.166-0.28,0.693-0.693c-0.704-0.308-1.473-0.297-2.228-0.248
	c-0.096,0.013-0.208,0.009-0.297,0.05c-0.397,0.13-0.972,0.037-1.139,0.544c-0.501,0.967-0.908,2.01-0.842,3.119
	c0.002,0.342,0.003,0.694,0,1.04c-1.909,0.072-3.791,0.339-5.593,0.94c-4.504-0.521-16.791-4.229-22.671-3.911
	c-1.96,0.106-3.201,0.66-3.218,1.931c4.625,2.078,23.364,2.264,22.721,5.197c-6.768,0.348-35.917,4.83-42.521,6.287
	c-2.643,11.997,18.896,6.827,27.027,9.405c-1.398,0.059-2.803,0.036-4.158,0.396c-1.953,0.333-9.44,1.803-11.484,1.98
	c-4.931,0.036-9.971,0.908-14.899,1.04c-1.476,0.015-2.373,0.127-2.277,1.832c-1.556,0.719-5.268-0.054-6.93,0.297
	c-0.521-0.069-0.444,1.318,0.347,1.584c1.661,0.91,3.5,1.354,5.396,1.237c1.606-0.002,20.923-3.38,31.284-5.296
	c-8.051,5.095-20.499,7.403-28.957,12.82c-2.758,1.934-9.107,4.165-13.761,6.93c-2.327,1.382-7.383,3.843-8.217,5.544
	c-0.834,1.701,1.495,2.658,3.465,4.752c3.122,0.671,6.47,0.787,9.9,0.495c1.476-0.795,7.054-3.765,7.524-4.059
	c0.165-0.103-1.629,1.956-3.02,3.465c9.336-1.667,18.88-5.848,26.087-9.801c2.206-0.543,3.632-0.763,4.554-0.792
	c-5.344,1.801-16.788,11.35-20.146,11.831c-4.515,1.639-7.807,5.328-12.623,6.188c-2.225,0.575-4.527,2.004-6.534,3.069
	c-1.43,0.298-5.249,1.55-6.583,2.228c-1.335,0.678-0.219,1.089-0.396,2.871c-1.142,3.256-4.8,1.263-7.277,2.425
	c-1.588,0.813,0.613,3.944,1.683,2.92c2.513-0.89,5.713-1.35,8.663-3.712c3.645-1.098,35.178-19.362,38.016-21.186
	c1.69-2.006,3.994-3.396,5.989-4.9c-0.313,0.523-0.701,1.137-1.237,1.881c-2.538,3.521-9.727,10.652-12.326,12.326
	c-12.092,9.678-22.593,21.114-32.67,32.818c-2.875,0.507-14.802,12.425-15.295,14.85s9.922,4.277,14.207,2.97
	c0.711-0.52,1.82-1.166,3.069-1.881c1.11-2.58,5.631-12.864,5.989-13.811c0.155-0.41-1.44,8.005-2.227,11.583
	c2.031-1.223,4.193-2.593,6.237-4.257c1.826-1.486,3.469-3.148,5-4.752c1.289-3.148,6.75-16.187,7.177-17.375
	c0.155-0.429-1.184,6.939-2.178,12.028c0.384-0.394,0.743-0.744,1.04-0.99c4.004-3.315,8.185-6.361,11.583-10.147
	c0.416-0.844,1.571-2.222,3.118-3.861c0.234-1.166,1.991-8.881,2.079-9.553c0.029-0.222,0.483,3.681,0.792,6.633
	c4.661-4.541,10.729-9.803,13.613-11.979c-2.193,2.36-3.902,5.252-5.841,7.771c-3.925,3.135-6.221,7.669-10.246,10.692
	c-3.143,4.201-6.679,7.463-9.603,11.831c-2.19,3.719-35.999,39.723-38.165,44.352c-2.912,2.098,1.548,3.203-1.386,5.297
	c-2.429,2.231-3.764,6.586-7.128,8.117c0.393,1.107,2.557,1.59,3.416,0.99c1.718-1.199,4.453-4.207,4.851-5.692
	c1.894-1.468,3.428-3.221,4.801-5.099c1.373-1.877-0.676,0.063,0.544-1.881c1.672-4.006,31.523-39.063,34.304-43.015
	c2.762-3.23,4.821-7.025,7.821-10.098c4.291-5.238,9.214-9.884,13.464-15.147c-5.21,9.699-13.148,23.268-15.741,26.779
	c-6.911,10.351-11.503,22.009-18.859,32.125c-8.298,12.498-9.676,28.172-18.018,40.64c-0.297,5.453-12.861,30.673-13.118,33.363
	c-0.128,1.345,8.538,0.479,10.049,0.198c1.511-0.282,2.911-0.814,4.208-1.584c2.592-1.541,4.762-3.921,6.534-6.584
	c1.488-2.235,2.822-4.075,3.812-6.188c0.104-1.941,0.94-13.934,0.94-14.949c0-0.337,1.148,5.035,1.98,9.108
	c0.418-0.728,0.822-1.399,1.287-2.179c1.681-2.811,3.582-5.805,4.9-7.87c2.264-3.546,4.761-8.2,7.326-13.315
	c-0.35-4.271-1.143-14.451-1.287-15.494c-0.055-0.398,2.135,5.937,3.663,10.594c4.551-9.371,9.199-19.65,13.365-27.918
	c-0.157-1.632-0.734-9.125-0.842-9.751c-0.042-0.247,2.03,3.466,3.069,5.544c2.197-4.129,4.212-7.548,5.89-9.554
	c3.359-5.741,9.785-25.778,14.355-25.195c-3.798,6.268-5.202,14.83-9.949,20.394c-1.609,8.51-15.667,35.479-16.88,42.174
	c-3.439,8.149-8.854,15.475-10.89,24.205c-2.851,6.66-6.467,12.936-9.207,19.652c-3.428,6.761-8.799,15.865-10.395,23.413
	c-0.853,2.067,0.109,2.911,0.198,4.455s-0.713,3.822-2.524,5.347c-1.752,1.068-4.437,4.873-5.593,7.375
	c-1.157,2.501-2.06,3.698,1.534,2.92c3.242-2.385,6.274-7.123,7.623-10.791c0.675-1.833,3.984-9.056,4.802-10.741
	c1.741-3.952,8.138-19.53,10.345-23.265c3.275-5.744,28.837-72.095,31.433-78.854c2.481-5.473,6.427-14.411,9.504-21.285
	c-2.406,12.586-11.32,26.51-12.424,38.61c-3.336,11.785-13.555,22.668-9.851,35.64c-8.768,18.117-11.777,38.219-16.236,57.618
	c-0.702,4.456-2.34,11.237-4.307,17.325c-0.983,3.043-4.228,6.777-4.208,9.107s3.279,3.24,6.633,4.108
	c7.074-1.426,9.857-5.956,11.732-11.187c0.069-2.484,0.396-12.18,0.396-13.068c0-0.383,0.645,6.337,0.94,9.702
	c0.956-1.688,2.61-4.099,3.91-6.683c1.734-3.445,2.811-7.166,4.208-8.068c1.027-1.772,3.504-7.482,6.039-13.117
	c-0.332,0.229-0.667,0.425-0.94,0.544c0-0.946,1.238-28.827,1.238-30.938c0-0.802,2.272,15.22,3.168,22.572
	c1.583-3.694,2.812-7.103,2.871-9.95c0.718-5.895,3.685-11.748,5.693-17.621c0.3-0.878,0.823-2.706,1.436-4.802
	c-0.729-3.818-3.232-17.679-3.564-18.958c-0.112-0.434,3.252,6.119,5.89,11.385c0.908-2.729,1.819-5.102,2.574-6.188
	c2.063-2.97,3.997-8.793,5.692-14.454c0.134-0.448,0.306-1.061,0.445-1.534c-0.147,0.149-0.312,0.336-0.445,0.445
	c-0.184-0.611-4.541-19.032-4.95-20.395c-0.159-0.529,5.041,9.508,7.128,13.811c3.098-10.986,6.599-23.92,7.623-24.799
	c0.738-0.634,1.312-0.949,2.228-0.743c-2.53,8.846-6.528,26.983-8.366,31.235c-0.851,7.408-11.859,60.856-14.157,67.963
	c-3.016,7.43-2.829,15.461-6.484,22.671c-3.269,8.169-4.875,16.876-9.256,24.602c-0.013,5.291-9.889,10.088-4.406,13.464
	c1.563,6.107-10.551,8.382-8.365,13.267c6.924-2.322,10.844-8.755,13.612-14.949c0.993-3.453,7.732-16.84,11.979-30.492
	s6.027-27.602,6.979-31.036c0.445-1.597,18.378-85.888,18.711-87.665c0.811-1.989,2.138-4.322,2.723-6.633
	c0.053-0.209,0.108-0.436,0.148-0.644c0.666,0.47,1.196,0.099,1.188,2.326c-0.008,1.951-2.16,15.743-4.01,27.373
	c3.622-1.902,8.553-4.34,8.315-4.107c-0.695,0.682-7.95,9.263-9.404,10.939c-0.234,1.457-0.621,3.932-0.792,4.999
	c-0.769,4.781-1.731,14.95-2.476,24.106c2.741-2.282,6.1-5.041,5.94-4.801c-0.499,0.752-5.563,10.184-6.484,11.83
	c-0.379,5.539-0.627,10.164-0.446,10.84c-0.387,3.41-3.557,16.878-3.316,22.375c0.241,5.496,2.605,3.021,8.959,0.594
	c1.523-1.836,2.876-3.779,4.108-5.791c-0.279-1.585-1.436-9.283-1.634-9.95c-0.063-0.213,2.332,2.743,4.258,5.247
	c3.344-6.736,5.566-14.053,7.622-21.087c-2.131-4.142-5.669-11.069-6.138-11.831c-0.194-0.316,4.278,3.926,7.524,7.129
	c0.244-0.83,0.496-1.711,0.742-2.525c3.2-6.228,4.937-18.706,6.039-29.601c-0.032,0.026-0.067,0.075-0.099,0.099
	c-0.265-0.365-6.985-11.609-7.574-12.424c-0.206-0.285,5.172,4.205,8.218,6.881c0.62-6.92,0.979-12.436,1.386-13.959
	c0.7-2.63,0.728-5.306,1.336-7.326c0.305-1.01,0.72-1.867,1.485-2.475c0.065-0.052,0.193-0.097,0.297-0.148
	c-0.241,3.522-0.276,10.905-0.049,11.683c0.319,2.885-0.146,5.768-0.149,8.662c-0.022,2.379-1.484,13.062-1.781,16.187
	c-1.159,2.183-3.753,11.282-4.307,13.563c1.419,0.771,3.235,1.623,2.426,3.712c-0.125,2.449-1.525,4.585-2.476,6.88
	c-1.029,1.604,0.563,2.985,1.386,1.387c2.665-2.012,6.538-27.452,7.277-29.947c0.431-3.947,0.091-7.914,0.197-11.881
	c0.017-3.309-0.155-17.252-0.197-20.938c1.062-0.251,2.099-0.483,2.376-0.594c0.564-0.227,2.047,0.039,2.475,0.842
	c0.855,1.606,1.054,42.975,1.831,46.48c4.308,5.481,6.759,0.261,8.812-4.9c-0.014,0.003-0.037-0.003-0.05,0
	c-0.031-0.255-0.077-7.8-0.148-8.366c-0.019-0.15,1.098,1.896,2.079,3.813c0.751-1.55,1.516-2.6,2.376-2.525
	c0.551-2.613,1.031-5.266,1.436-7.92c-0.685-1.514-3.723-8.514-4.059-9.107c-0.107-0.189,2.516,2.215,4.702,4.257
	c0.825-6.981,1.161-14.025,0.99-20.988c-0.053-2.011-0.756-5.428,0.049-6.534c0.526-0.722,1.319-0.709,2.079-0.644
	c-0.002,2.331-0.032,4.65,0.1,6.979c1.011,2.004,0.838,4.299,1.138,6.435c-0.061,1.676,0.529,9.66,0.446,12.078
	c0.273,2.546-0.078,6.718,0.644,9.207c0.371,0.566,0.712,0.908,1.039,0.148s0.216-3.102,0.495-3.515
	c0.697-0.995,0.517-0.959,0.891-2.079c0.296-1.639-0.455-12.67-0.94-13.761c-0.355-1.21-0.223-2.196-0.099-3.515
	c-0.05-1.262-0.146-2.504-0.248-3.762c3.307,8.964,14.468,20.659,2.822,27.622c-12.607,7.752-18.361,22.055-25.592,34.105
	c-1.708,1.346-4.349,3.936-6.484,7.722c-1.068,1.894-7.901,1.663-7.871,2.673c0.016,0.505-1.3,5.953,0.446,7.029
	c1.745,1.075,6.558-2.238,7.523-2.674c6.456-1.916,13.638-13.17,16.682-7.177c7.794-4.97-0.145,8.882,5.792,10.989
	c-1.247,8.206-3.717,26.949,6.583,28.462c-3.252-9.935-5.182-23.728,0.693-33.264c6.101-9.212,10.369-24.308,12.474-31.779
	c-0.53,2.382,0.059,6.095,1.287,9.405c-0.036,0.727,0.045,1.592,0.396,2.673c0.534,6.08,0.08,12.108-0.049,17.622
	c7.579,0.886,1.527,17.909-5.396,10.939c-3.004-3.268,8.07-6.845,0.198-6.386c-5.657,0.821-6.87,7.062-2.079,9.653
	c-4.347,0.75-10.14,5.65-7.029,10.84c5.332,1.289,8.289,5.953,3.366,8.959c6.483,2.586,9.634-9.133,2.178-8.959
	c-5.813-3.163-1.036-7.094,3.416-5.841c4.229,1.017,9.096-9.728,9.603-2.179c-1.548,6.146-3.045,13.874-9.059,17.227
	c-4.063,1.287-9.496,4.529-6.93,9.504c2.426-5.516,11.641-2.433,12.87-10.098c0.448-3.018,4.503-9.319,2.723-2.475
	c-2.958,6.168-5.9,12.518-9.851,18.116c-3.032,3.554-8.643,11.697-4.455,14.949c3.729-5.969,8.259-11.706,10.444-18.612
	c0.022-3.284,4.815-8.861,2.723-2.475c-1.369,6.819-2.594,13.774-6.139,19.85c-2.498,6.097-4.325,13.34-9.949,17.275
	c-4.556,3.196-11.889-5.069-5.247-6.584c3.478,0.444,1.866,8.088,5.247,2.871c3.824-5.719-1.087-10.716-4.95-13.662
	c6.072-3.737,5.109-11.983,5.841-18.066c-1.938-5.533-9.581-9.888-14.503-5.248c-6.946,3.15-3.136,11.967,3.762,11.039
	c2.741-3.239-5.165-11.266,3.168-9.405c7.369,1.521,2.894,11.08-2.228,12.672c-5.946,1.768-15.203,2.926-13.266,11.484
	c-4.006,1.204-10.166-11.404-2.97-11.731c6.683-3.059-6.729-4.871-7.426,0.445c-4.138,3.875,5.984,14.311-3.365,10.989
	c-5.277-0.038-11.646-1.6-15.939,2.178c-5.026,4.441-2.039,13.246-9.752,15.593c-0.604,3.724,4.197,8.879-2.722,7.87
	c-3.386,2.16-0.646,6.425,1.881,2.871c3.542,0.718,6.176,3.55,9.899,0.396c3.5,0.466,10.483,3.012,5.692,7.227
	c-3.553-5.78-5.6,3.038-0.049,3.218c7.374-0.693,7.679-11.775,1.732-14.851c1.049-3.088,8.193-6.282,3.663-11.138
	c-0.78-4.871-11.831-4.889-5.644-0.445c5.117,4.56-11.401,1.167-5.741-4.504c3.039-4.574,11.803-8.25,15.146-2.277
	c1.24,5.422,1.011,11.489,3.762,16.434c1.806,5.655,10.022,4.12,12.029,7.623c-2.409,1.808-12.857,3.573-4.406,6.287
	c6.531,1.449,0.723,9.1-2.871,3.415c-1.57,6.528,11.658,7.822,12.524,0.892c1.358,2.304,5.301,7.977,6.682,1.683
	c-0.925-7.33,8.196-5.025,12.276-8.118c9.416-7.19,14.109-18.709,15.84-30.146c1.099-6.946,2.555-13.825,3.069-20.839
	c1.642,3.483-0.087,10.123,0.049,14.85c-0.646,7.841-2.394,15.519-4.207,23.166c-2.174,7.144-4.46,15.135-10.741,19.8
	c-3.362,2.054-5.948,1.499-6.881-1.782c-4.28-1.132-2.998,5.828-7.475,4.258c-1.148,3.256,6.281,5.695-0.099,8.415
	c-6.834,0.937-8.455,9.881-4.554,14.701c3.385,6.009,15.283-1.535,6.633-3.911c-5.832-0.161-0.801-5.118,2.723-3.217
	c3.275,0.934,2.766,7.938,7.969,7.178c0.46-2.016-3.417-5.248,1.535-5.594c6.812-0.29,3.2-11.191,9.504-13.612
	c4.492-2.725,4.715-13.726,6.583-14.207c0.967,6.702-2.855,12.757-6.633,17.87c-3.262,4.347-4.514,10.354-5.841,14.701
	c-7.493,1.334,4.997,3.351,8.118,3.415c2.149,0.274,3.609,3.556,4.65,5.616c0.52,1.03,1.474,3.268,2.366,3.139
	s1.723-2.624,1.995-3.139c1.09-2.061,2.6-5.342,4.749-5.616c3.121-0.064,15.611-2.081,8.118-3.415
	c-1.328-4.348-2.579-10.354-5.841-14.701c-3.777-5.113-7.601-11.168-6.634-17.87c1.869,0.481,2.091,11.482,6.584,14.207
	c6.304,2.421,2.692,13.322,9.504,13.612c4.951,0.346,1.075,3.578,1.534,5.594c5.204,0.76,4.694-6.244,7.97-7.178
	c3.523-1.901,8.555,3.056,2.723,3.217c-8.651,2.376,3.248,9.92,6.633,3.911c3.901-4.82,2.279-13.765-4.554-14.701
	c-6.38-2.72,1.05-5.159-0.099-8.415c-4.478,1.57-3.194-5.39-7.475-4.258c-0.933,3.281-3.519,3.836-6.881,1.782
	c-6.281-4.665-8.567-12.656-10.741-19.8c-1.813-7.647-3.562-15.325-4.208-23.166c0.137-4.727-1.592-11.366,0.05-14.85
	c0.514,7.014,1.971,13.893,3.069,20.839c1.729,11.437,6.424,22.955,15.84,30.146c4.079,3.093,13.201,0.788,12.275,8.118
	c1.382,6.294,5.323,0.621,6.683-1.683c0.866,6.931,14.095,5.637,12.523-0.892c-3.593,5.685-9.401-1.966-2.871-3.415
	c8.452-2.714-1.996-4.479-4.405-6.287c2.006-3.503,10.223-1.968,12.028-7.623c2.752-4.944,2.522-11.012,3.763-16.434
	c3.344-5.973,12.107-2.297,15.146,2.277c5.66,5.671-10.859,9.063-5.742,4.504c6.188-4.443-4.863-4.426-5.643,0.445
	c-4.53,4.855,2.613,8.05,3.663,11.138c-5.946,3.075-5.643,14.157,1.732,14.851c5.55-0.18,3.503-8.998-0.05-3.218
	c-4.79-4.215,2.192-6.761,5.692-7.227c3.725,3.153,6.358,0.321,9.9-0.396c2.527,3.554,5.267-0.711,1.881-2.871
	c-6.92,1.009-2.119-4.146-2.723-7.87c-7.712-2.347-4.726-11.151-9.751-15.593c-4.293-3.777-10.663-2.216-15.939-2.178
	c-9.35,3.321,0.772-7.114-3.366-10.989c-0.696-5.316-14.108-3.504-7.425-0.445c7.195,0.327,1.035,12.936-2.97,11.731
	c1.938-8.559-7.32-9.717-13.266-11.484c-5.121-1.592-9.597-11.151-2.228-12.672c8.333-1.86,0.427,6.166,3.168,9.405
	c6.897,0.928,10.708-7.889,3.762-11.039c-4.922-4.64-12.565-0.285-14.504,5.248c0.732,6.083-0.231,14.329,5.842,18.066
	c-3.863,2.946-8.775,7.943-4.95,13.662c3.38,5.217,1.769-2.427,5.247-2.871c6.641,1.515-0.692,9.78-5.247,6.584
	c-5.624-3.936-7.451-11.179-9.95-17.275c-3.544-6.075-4.769-13.03-6.138-19.85c-2.093-6.387,2.7-0.81,2.723,2.475
	c2.185,6.906,6.715,12.644,10.444,18.612c4.188-3.252-1.423-11.396-4.455-14.949c-3.95-5.599-6.893-11.948-9.851-18.116
	c-1.78-6.845,2.274-0.543,2.723,2.475c1.229,7.665,10.444,4.582,12.87,10.098c2.566-4.975-2.867-8.217-6.93-9.504
	c-6.015-3.353-7.511-11.081-9.059-17.227c0.506-7.549,5.373,3.195,9.603,2.179c4.451-1.253,9.229,2.678,3.416,5.841
	c-7.456-0.174-4.306,11.545,2.178,8.959c-4.923-3.006-1.966-7.67,3.366-8.959c3.11-5.189-2.684-10.09-7.029-10.84
	c4.791-2.592,3.577-8.832-2.079-9.653c-7.873-0.459,3.202,3.118,0.198,6.386c-6.923,6.97-12.975-10.054-5.396-10.939
	c-0.129-5.514-0.583-11.542-0.05-17.622c0.352-1.081,0.433-1.946,0.396-2.673c1.228-3.311,1.817-7.023,1.287-9.405
	c2.104,7.472,6.373,22.567,12.474,31.779c5.874,9.536,3.945,23.329,0.693,33.264c10.3-1.513,7.83-20.256,6.583-28.462
	c5.937-2.107-2.002-15.959,5.792-10.989c3.044-5.993,10.225,5.261,16.682,7.177c0.966,0.436,5.778,3.749,7.523,2.674
	c1.745-1.076,0.431-6.524,0.445-7.029c0.03-1.01-6.803-0.779-7.87-2.673c-2.136-3.786-4.776-6.376-6.484-7.722
	c-7.23-12.051-12.985-26.354-25.592-34.105c-11.646-6.963-0.484-18.658,2.821-27.622c-0.102,1.258-0.198,2.5-0.247,3.762
	c0.124,1.319,0.257,2.305-0.1,3.515c-0.484,1.091-1.235,12.122-0.94,13.761c0.375,1.12,0.194,1.084,0.892,2.079
	c0.279,0.413,0.167,2.755,0.495,3.515c0.327,0.76,0.668,0.418,1.039-0.148c0.722-2.489,0.37-6.661,0.644-9.207
	c-0.083-2.418,0.506-10.402,0.445-12.078c0.301-2.136,0.128-4.431,1.139-6.435c0.132-2.329,0.102-4.648,0.099-6.979
	c0.76-0.066,1.554-0.079,2.079,0.644c0.806,1.106,0.102,4.522,0.05,6.534c-0.172,6.963,0.165,14.007,0.99,20.988
	c2.187-2.042,4.81-4.446,4.702-4.257c-0.337,0.594-3.375,7.594-4.059,9.107c0.404,2.654,0.884,5.307,1.436,7.92
	c0.86-0.074,1.625,0.976,2.376,2.525c0.981-1.916,2.098-3.963,2.079-3.813c-0.071,0.566-0.117,8.111-0.148,8.366
	c-0.014-0.003-0.037,0.003-0.05,0c2.052,5.161,4.504,10.382,8.811,4.9c0.778-3.506,0.976-44.875,1.832-46.48
	c0.428-0.803,1.91-1.068,2.475-0.842c0.277,0.111,1.314,0.343,2.376,0.594c-0.042,3.686-0.215,17.629-0.198,20.938
	c0.106,3.967-0.232,7.934,0.198,11.881c0.738,2.495,4.611,27.936,7.276,29.947c0.823,1.599,2.416,0.217,1.387-1.387
	c-0.95-2.295-2.352-4.431-2.476-6.88c-0.81-2.089,1.007-2.94,2.426-3.712c-0.554-2.281-3.148-11.381-4.307-13.563
	c-0.297-3.125-1.759-13.808-1.782-16.187c-0.003-2.895-0.469-5.777-0.148-8.662c0.228-0.777,0.191-8.16-0.049-11.683
	c0.104,0.052,0.231,0.097,0.297,0.148c0.766,0.608,1.181,1.465,1.484,2.475c0.609,2.02,0.637,4.696,1.337,7.326
	c0.405,1.524,0.765,7.04,1.386,13.959c3.046-2.676,8.423-7.166,8.217-6.881c-0.588,0.814-7.31,12.059-7.573,12.424
	c-0.031-0.023-0.066-0.072-0.099-0.099c1.102,10.895,2.839,23.373,6.039,29.601c0.246,0.814,0.498,1.695,0.742,2.525
	c3.246-3.203,7.719-7.445,7.524-7.129c-0.469,0.762-4.008,7.689-6.139,11.831c2.056,7.034,4.279,14.351,7.623,21.087
	c1.926-2.504,4.32-5.46,4.257-5.247c-0.197,0.667-1.354,8.365-1.633,9.95c1.231,2.012,2.585,3.955,4.108,5.791
	c6.354,2.428,8.719,4.902,8.959-0.594c0.241-5.497-2.929-18.965-3.316-22.375c0.182-0.676-0.066-5.301-0.445-10.84
	c-0.922-1.646-5.985-11.078-6.484-11.83c-0.159-0.24,3.199,2.519,5.939,4.801c-0.744-9.156-1.707-19.325-2.475-24.106
	c-0.171-1.067-0.559-3.542-0.792-4.999c-1.454-1.677-8.71-10.258-9.405-10.939c-0.236-0.232,4.694,2.205,8.316,4.107
	c-1.85-11.63-4.002-25.422-4.01-27.373c-0.008-2.228,0.521-1.856,1.188-2.326c0.04,0.208,0.096,0.435,0.148,0.644
	c0.584,2.311,1.912,4.644,2.723,6.633c0.333,1.777,18.266,86.068,18.711,87.665c0.952,3.435,2.732,17.384,6.979,31.036
	c4.246,13.652,10.986,27.039,11.979,30.492c2.769,6.194,6.688,12.627,13.612,14.949c2.187-4.885-9.928-7.159-8.365-13.267
	c5.483-3.376-4.393-8.173-4.405-13.464c-4.383-7.726-5.988-16.433-9.257-24.602c-3.656-7.21-3.469-15.241-6.484-22.671
	c-2.298-7.106-13.306-60.555-14.157-67.963c-1.837-4.252-5.836-22.389-8.365-31.235c0.916-0.206,1.488,0.108,2.228,0.743
	c1.024,0.879,4.524,13.813,7.623,24.799c2.087-4.303,7.287-14.34,7.128-13.811c-0.409,1.362-4.767,19.783-4.95,20.395
	c-0.133-0.109-0.298-0.296-0.445-0.445c0.14,0.474,0.312,1.086,0.445,1.534c1.696,5.661,3.63,11.484,5.692,14.454
	c0.755,1.086,1.667,3.459,2.574,6.188c2.638-5.266,6.003-11.818,5.891-11.385c-0.332,1.279-2.835,15.14-3.564,18.958
	c0.612,2.096,1.136,3.924,1.436,4.802c2.009,5.873,4.976,11.727,5.693,17.621c0.059,2.848,1.288,6.256,2.87,9.95
	c0.896-7.353,3.168-23.374,3.168-22.572c0,2.11,1.238,29.991,1.238,30.938c-0.273-0.119-0.608-0.315-0.94-0.544
	c2.534,5.635,5.012,11.345,6.039,13.117c1.396,0.902,2.473,4.623,4.207,8.068c1.301,2.584,2.955,4.995,3.91,6.683
	c0.296-3.365,0.94-10.085,0.94-9.702c0,0.889,0.327,10.584,0.396,13.068c1.875,5.23,4.657,9.761,11.731,11.187
	c3.354-0.868,6.612-1.778,6.633-4.108s-3.224-6.064-4.207-9.107c-1.967-6.088-3.605-12.869-4.307-17.325
	c-4.459-19.399-7.468-39.501-16.236-57.618c3.704-12.972-6.515-23.855-9.851-35.64c-1.104-12.1-10.018-26.023-12.424-38.61
	c3.077,6.875,7.022,15.812,9.504,21.285c2.595,6.759,28.157,73.109,31.433,78.854c2.207,3.734,8.604,19.313,10.345,23.265
	c0.817,1.686,4.127,8.908,4.802,10.741c1.35,3.668,4.381,8.406,7.623,10.791c3.594,0.778,2.691-0.419,1.534-2.92
	c-1.156-2.502-3.841-6.307-5.593-7.375c-1.812-1.524-2.613-3.803-2.524-5.347s1.05-2.388,0.197-4.455
	c-1.596-7.548-6.967-16.652-10.395-23.413c-2.74-6.717-6.356-12.992-9.207-19.652c-2.036-8.73-7.451-16.056-10.89-24.205
	c-1.213-6.695-15.271-33.664-16.88-42.174c-4.747-5.564-6.151-14.126-9.949-20.394c4.57-0.583,10.995,19.455,14.354,25.195
	c1.678,2.005,3.693,5.424,5.891,9.554c1.039-2.078,3.111-5.791,3.069-5.544c-0.108,0.626-0.685,8.119-0.842,9.751
	c4.166,8.268,8.813,18.547,13.365,27.918c1.527-4.657,3.718-10.992,3.663-10.594c-0.145,1.043-0.938,11.223-1.287,15.494
	c2.565,5.115,5.063,9.77,7.326,13.315c1.318,2.065,3.219,5.06,4.9,7.87c0.465,0.779,0.868,1.451,1.287,2.179
	c0.831-4.073,1.979-9.445,1.979-9.108c0,1.016,0.837,13.008,0.94,14.949c0.99,2.112,2.324,3.952,3.812,6.188
	c1.772,2.663,3.942,5.043,6.534,6.584c1.296,0.77,2.696,1.302,4.207,1.584c1.511,0.281,10.177,1.146,10.049-0.198
	c-0.256-2.69-12.82-27.91-13.117-33.363c-8.342-12.468-9.721-28.142-18.019-40.64c-7.355-10.116-11.948-21.774-18.859-32.125
	c-2.593-3.512-10.53-17.081-15.741-26.779c4.251,5.263,9.174,9.909,13.465,15.147c3,3.073,5.059,6.868,7.82,10.098
	c2.781,3.952,32.632,39.009,34.304,43.015c1.221,1.943-0.828,0.004,0.545,1.881c1.372,1.878,2.907,3.631,4.801,5.099
	c0.398,1.485,3.134,4.493,4.852,5.692c0.858,0.6,3.022,0.117,3.415-0.99c-3.363-1.531-4.699-5.886-7.128-8.117
	c-2.935-2.094,1.526-3.199-1.386-5.297c-2.166-4.629-35.975-40.633-38.164-44.352c-2.925-4.368-6.461-7.629-9.604-11.831
	c-4.025-3.022-6.321-7.557-10.246-10.692c-1.939-2.52-3.648-5.412-5.842-7.771c2.884,2.176,8.952,7.438,13.613,11.979
	c0.309-2.952,0.763-6.854,0.792-6.633c0.088,0.672,1.845,8.388,2.079,9.553c1.547,1.64,2.702,3.017,3.118,3.861
	c3.398,3.786,7.578,6.833,11.583,10.147c0.297,0.246,0.654,0.596,1.039,0.99c-0.993-5.089-2.332-12.457-2.178-12.028
	c0.428,1.188,5.889,14.227,7.178,17.375c1.53,1.604,3.174,3.266,4.999,4.752c2.044,1.664,4.206,3.034,6.237,4.257
	c-0.787-3.578-2.383-11.993-2.228-11.583c0.358,0.947,4.879,11.23,5.989,13.811c1.249,0.715,2.357,1.361,3.069,1.881
	c4.283,1.307,14.699-0.545,14.206-2.97s-12.42-14.343-15.295-14.85c-10.077-11.705-20.578-23.14-32.67-32.818
	c-2.6-1.674-9.788-8.805-12.326-12.326c-0.536-0.744-0.925-1.357-1.237-1.881c1.995,1.505,4.299,2.894,5.989,4.9
	c2.839,1.824,34.371,20.088,38.017,21.186c2.949,2.363,6.149,2.822,8.662,3.712c1.07,1.024,3.271-2.107,1.684-2.92
	c-2.477-1.163-6.135,0.831-7.277-2.425c-0.177-1.782,0.939-2.193-0.396-2.871s-5.154-1.929-6.584-2.228
	c-2.006-1.064-4.309-2.494-6.533-3.069c-4.816-0.859-8.108-4.549-12.623-6.188c-3.358-0.481-14.803-10.029-20.146-11.831
	c0.922,0.029,2.349,0.249,4.555,0.792c7.205,3.953,16.75,8.134,26.086,9.801c-1.39-1.509-3.185-3.568-3.02-3.465
	c0.471,0.294,6.049,3.264,7.524,4.059c3.43,0.292,6.777,0.176,9.899-0.495c1.97-2.094,4.3-3.051,3.465-4.752
	c-0.834-1.701-5.89-4.162-8.217-5.544c-4.653-2.765-11.003-4.997-13.761-6.93c-8.459-5.417-20.906-7.725-28.958-12.82
	c10.361,1.916,29.679,5.294,31.284,5.296c1.896,0.117,3.734-0.327,5.396-1.237c0.791-0.266,0.868-1.653,0.347-1.584
	c-1.662-0.351-5.374,0.422-6.93-0.297c0.096-1.705-0.802-1.817-2.277-1.832c-4.928-0.132-9.969-1.003-14.899-1.04
	c-2.044-0.177-9.531-1.647-11.484-1.98c-1.354-0.36-2.76-0.337-4.157-0.396c8.13-2.578,29.67,2.592,27.026-9.405
	c-6.603-1.457-35.752-5.938-42.521-6.287c-0.644-2.934,18.097-3.119,22.721-5.197c-0.017-1.271-1.258-1.825-3.218-1.931
	c-5.88-0.318-18.167,3.389-22.671,3.911c-1.802-0.602-3.685-0.868-5.593-0.94c-0.003-0.346-0.002-0.697,0-1.04
	c0.065-1.108-0.341-2.151-0.842-3.119c-0.167-0.507-0.741-0.414-1.139-0.544c-0.089-0.041-0.201-0.037-0.297-0.05
	c-0.755-0.049-1.524-0.061-2.228,0.248c-0.473,0.414,0.4,0.568,0.692,0.693c0.534,0.11,0.513,0.762,0.842,1.089
	c0.354,0.303,0.358,0.819,0.445,1.237c-0.132,0.724-0.815,1.141-1.336,1.584c-0.032,0.02-0.068,0.029-0.1,0.05
	c-8.723,1.083-17.713,6.469-23.908,12.375c0.003,0.452-0.042,1.044-0.05,1.534c-2.664-0.04-5.316,0.117-7.969,0.099
	c-1.826-0.958-1.647-3.711-1.287-5.445c1.105-2.059,2.405-3.236,3.663-5.198c1.222-1.521,3.727-2.63,4.752-4.356
	c1.582-1.545,2.53-3.771,2.128-5.989c-0.029-2.592,0.119-5.389-1.336-7.673c-0.903-2.161-2.464-3.887-4.108-5.494
	c-0.242-0.487-2.703-1.904-3.168-2.03c-0.466-0.125-0.987-0.303-1.535-0.445c-1.094-0.285-2.204-0.564-2.623-0.693
	c-0.839-0.258-3.062-0.342-3.316-0.297c-0.543-0.003-1.114-0.035-1.684-0.049c-1.707-0.043-3.441,0.046-4.702,1.336
	c-1.584,1.306-8.842,5.236-9.801,7.375c-0.431,2.154-1.039,3.358-0.99,5.594c0.13,2.12-0.175,4.539,1.485,6.188
	c1.305,2.238,3.912,3.913,6.682,2.97c2.112-0.934,4.536-1.402,5.247-3.812c0.707-1.963,0.599-4.433,3.268-4.801
	c0.896,0.007,2.924-0.201,1.634-0.99c-0.438-0.168-1.144-1.692-1.832-1.782c-0.688-0.09-1.445-0.152-2.178-0.099
	c-1.465,0.105-2.723,1.965-3.119,3.02c-0.41,2.198,0.45,4.626-1.386,6.237c-1.541,2.153-4.076,0.584-5.791-0.445
	c-2.098-0.988-2.986-3.471-2.426-5.643c0.023-2.194,1.048-4.655,2.772-6.188c0.677-0.39,3.268-2.236,3.91-2.772
	c0.642-0.536,3.27-2.385,3.96-2.475c0.816-0.505,2.869-1.23,3.861-1.089c2.292,0.039,3.405-0.008,5.692-0.049
	c2.94,0.186,5.681,2.656,7.375,4.702c1.908,1.296,2.571,3.594,2.376,5.841c-0.16,0.973-0.038,2.261-0.099,3.416
	c-0.118,2.27-5.599,5.083-5.396,5.791c-1.515,2.126-3.389,3.934-5.297,5.693c-1.514,2.035-1.155,4.793-0.742,7.128
	c1.202,1.8,2.778,4.86,5.049,5.148c1.867-0.038,4.952-0.96,6.93-1.485c-0.02,0.964-0.049,1.992-0.049,3.02
	c-0.234,0.067-0.524,0.188-0.842,0.346c-0.542,0.271-2.266,2.651-2.623,3.366c-0.433,0.864-1.122,0.644-2.574,0.644
	c-0.781,0-3.942-0.432-4.307,0.297c-0.139,0.277-0.497,2.918,0.297,3.712c0.792,0.792,0.298,1.189,1.237,2.128
	c0.792,0.792,1.535,1.238,2.476,2.178c0.173,0.173,2.649,2.25,1.831,3.069c-0.432,0.432-1.063,1.515-2.128,1.931
	c-1.065,0.416-2.587,0.16-2.971,0.248c-0.767,0.175-1.508,0.346-2.276,0.346c-1.377,0-3.148-0.411-4.307-0.99
	c-1.142-0.57-1.5-1.195-2.772-1.832c-0.358-0.179-2.891-1.762-1.534-3.119c0.986-0.987,1.543-0.891,3.663-0.891
	c0.614,0,2.94-0.316,2.771-0.99c-0.11-0.443-4.398-2.228-4.9-2.228c-1.376,0-1.613-0.134-2.771,0.446
	c-1.376,0.688-1.238,1.299-1.238,3.366c0,2.007,0.521,1.98,1.238,3.416c0.624,1.248,1.08,1.377,2.128,2.426
	c0.435,0.434,2.06,1.875,2.871,2.079c1.063,0.266,2.399,0.693,3.911,0.693c1.537,0,3.065,0,4.604,0c1.249,0,2.623-0.05,3.168-1.138
	c0.178-0.355,2.92-2.429,2.92-2.772c0-1.065,0.843-3.018,0.1-3.762c-0.792-0.792-1.239-1.535-2.179-2.475
	c-0.769-0.769-2.003-1.063-2.771-1.831c-0.772-0.772-1.912-2.178,0.644-2.178c2.046,0,2.415-0.267,3.663-0.891
	c1.154-0.578,1.746-2.276,2.722-3.02c0.283,5.593,1.776,11.063,8.069,12.177c0.829,0.685,2.814-0.915,3.465,0.049
	c0.65,0.964,1.24,2.02,1.683,3.168s-1.003,2.52-1.336,3.911c-0.334,1.391,0.408,2.828,0.346,4.059
	c-0.062,1.231,3.427,2.435,3.069,3.564s-0.852,2.186-1.534,3.119c-1.366,1.865-7.108,3.207-9.95,3.712
	c-4.888,3.266-3.354,9.893-7.672,13.909c-4.241,3.946-11.125,4.128-16.533,5.445c-6.369-1.75-10.396,2.147-14.306,5.989
	c-1.955,1.921-3.881,6.982-6.039,7.475s-4.568-2.674-7.475-5.495c-3.388-2.502-16.039-2.483-21.434-1.287
	c-5.394-1.197-18.046-1.215-21.434,1.287c-2.906,2.821-5.316,5.987-7.474,5.495c-2.158-0.492-4.085-5.554-6.039-7.475
	c-3.91-3.842-7.937-7.739-14.306-5.989c-5.409-1.317-12.292-1.499-16.533-5.445c-4.317-4.017-2.785-10.644-7.673-13.909
	c-2.841-0.506-8.584-1.847-9.949-3.712c-0.683-0.933-1.177-1.989-1.534-3.119c-0.358-1.129,3.131-2.333,3.068-3.564
	c-0.062-1.231,0.681-2.668,0.347-4.059c-0.333-1.391-1.778-2.762-1.336-3.911s1.032-2.204,1.683-3.168
	c0.65-0.964,2.636,0.635,3.465-0.049c6.293-1.114,7.786-6.584,8.068-12.177c0.977,0.744,1.567,2.442,2.723,3.02
	c1.248,0.624,1.617,0.891,3.663,0.891c2.555,0,1.416,1.406,0.644,2.178c-0.769,0.769-2.003,1.063-2.772,1.831
	c-0.939,0.94-1.386,1.683-2.178,2.475c-0.744,0.744,0.1,2.697,0.1,3.762c0,0.343,2.742,2.417,2.92,2.772
	c0.545,1.088,1.919,1.138,3.168,1.138c1.538,0,3.066,0,4.604,0c1.512,0,2.848-0.427,3.911-0.693c0.812-0.203,2.437-1.645,2.87-2.079
	c1.049-1.048,1.505-1.178,2.129-2.426c0.718-1.436,1.237-1.408,1.237-3.416c0-2.066,0.139-2.678-1.237-3.366
	c-1.158-0.58-1.396-0.446-2.771-0.446c-0.502,0-4.79,1.785-4.901,2.228c-0.168,0.674,2.158,0.99,2.772,0.99
	c2.12,0,2.676-0.096,3.663,0.891c1.356,1.356-1.177,2.939-1.534,3.119c-1.272,0.636-1.632,1.261-2.772,1.832
	c-1.158,0.579-2.931,0.99-4.307,0.99c-0.769,0-1.511-0.171-2.277-0.346c-0.383-0.087-1.905,0.168-2.97-0.248
	s-1.696-1.499-2.128-1.931c-0.819-0.818,1.657-2.896,1.831-3.069c0.939-0.94,1.683-1.386,2.475-2.178
	c0.94-0.939,0.446-1.336,1.238-2.128c0.794-0.794,0.436-3.435,0.297-3.712c-0.364-0.729-3.526-0.297-4.307-0.297
	c-1.453,0-2.143,0.22-2.574-0.644c-0.357-0.715-2.081-3.095-2.623-3.366c-0.317-0.158-0.607-0.279-0.842-0.346
	c0-1.027-0.029-2.055-0.05-3.02c1.979,0.525,5.063,1.447,6.931,1.485c2.271-0.288,3.846-3.348,5.049-5.148
	c0.413-2.334,0.771-5.093-0.743-7.128c-1.907-1.759-3.781-3.567-5.296-5.693c0.203-0.708-5.277-3.521-5.396-5.791
	c-0.061-1.155,0.062-2.443-0.099-3.416c-0.195-2.247,0.467-4.545,2.376-5.841c1.693-2.046,4.435-4.516,7.375-4.702
	c2.287,0.041,3.4,0.088,5.692,0.049c0.992-0.142,3.045,0.584,3.861,1.089c0.689,0.09,3.318,1.939,3.96,2.475s3.232,2.382,3.91,2.772
	c1.725,1.532,2.748,3.993,2.772,6.188c0.56,2.172-0.328,4.655-2.426,5.643c-1.716,1.029-4.251,2.599-5.791,0.445
	c-1.836-1.61-0.976-4.039-1.387-6.237c-0.396-1.054-1.653-2.914-3.118-3.02c-0.732-0.053-1.489,0.009-2.178,0.099
	c-0.688,0.089-1.395,1.613-1.832,1.782c-1.29,0.79,0.738,0.997,1.634,0.99c2.669,0.369,2.561,2.838,3.267,4.801
	c0.711,2.41,3.136,2.877,5.247,3.812c2.771,0.943,5.377-0.731,6.683-2.97c1.66-1.649,1.355-4.067,1.485-6.188
	c0.049-2.235-0.561-3.439-0.99-5.594c-0.959-2.139-8.218-6.069-9.801-7.375C2404.835,1346.473,2403.1,1346.384,2401.393,1346.427z"
	/>
<rect id="rect49318" x="2549.476" y="1597.74" transform="matrix(-0.4695 0.8829 -0.8829 -0.4695 5175.3525 89.6505)" fill="#F3D841" stroke="#000000" stroke-width="2.0721" width="22.535" height="3.708"/>
<path id="path15377" sodipodi:rx="10.290609" sodipodi:type="arc" sodipodi:ry="9.9022846" sodipodi:cx="216.49112" sodipodi:cy="211.83122" fill="#718AD3" stroke="#000000" stroke-width="0.2499" d="
	M2573.742,1608.067c0.01,9.506-7.688,17.219-17.192,17.229c-9.506,0.01-17.22-7.688-17.229-17.193c0-0.012,0-0.023,0-0.036
	c-0.01-9.505,7.688-17.219,17.192-17.229c9.506-0.01,17.22,7.688,17.229,17.193
	C2573.742,1608.043,2573.742,1608.055,2573.742,1608.067z"/>
<path id="path3336" sodipodi:rx="10.21177" sodipodi:type="arc" sodipodi:ry="8.6800051" sodipodi:cx="-36.762375" sodipodi:cy="343.83047" fill="#F3D841" stroke="#000000" stroke-width="0.6173" d="
	M2364.529,1597.393c0.745,2.983-1.496,6.113-5.006,6.989c-3.51,0.876-6.96-0.831-7.706-3.815c0-0.001,0-0.003-0.001-0.004
	c-0.746-2.984,1.496-6.113,5.006-6.99s6.96,0.832,7.706,3.815C2364.528,1597.389,2364.529,1597.391,2364.529,1597.393z"/>
<path id="path3326" sodipodi:nodetypes="csssssssc" fill="#F3D841" stroke="#000000" stroke-width="1.98" d="M2337.503,1525.25
	c-1.064-0.249-4.971,0.89-4.66,1.541c0.479,1.002,20.593,67.686,20.576,68.695c-0.027,1.539,1.066,1.811,1.809,2.58
	c0.384,0.084,0.769,0.168,1.154,0.252c1.203,0.262,2.121-0.434,3.022-0.643c1.643-0.381,0.777-0.628,0.496-1.845
	c-0.225-0.97-0.7-1.776-0.882-2.563C2358.796,1592.311,2338.195,1526.451,2337.503,1525.25z"/>
<path id="path2311" sodipodi:nodetypes="csssssssssssssssssssssssssssssssssssssssssssssssssssssssssssssssssssssssssssc" fill="#FFFAFA" stroke="#000000" stroke-width="1.98" d="
	M2334.349,1506.895c0.676-0.459,1.791-1.337,2.807-1.572c0.801-0.186,0.5-2.064,0.516-3.002c0.023-1.341-1.662-0.135-2.084-0.037
	c-1.584,0.367-2.084-0.008-2.06-1.426c0.02-1.138,0.074-2.441,0.288-3.238c0.303-1.127,0.906-1.207,1.198-2.296
	c0.216-0.804,1.253-1.281,1.658-2.056c0.52-0.995,0.762-1.684,1.202-2.527c0.417-0.8,0.28-2.124,0.516-3.002
	c0.5-1.858,0.818,0.793,0.906,1.174c0.249,1.073,0.888,1.594,1.114,2.567c0.48,2.076,0.301,2.199,2.015,3.973
	c0.813,0.842,1.664,1.882-0.264,1.849c-1.092-0.019,0.425,2.159,0.406,3.251c-0.02,1.157-0.04,2.314-0.061,3.473
	c-0.027,1.572,0.003,2.047-0.743,2.768c-0.804,0.775-1.362,1.172-1.662,2.287c-0.164,0.611-1.599,1.235-2.108,1.354
	c-0.771,0.178-1.57,1.288-2.116,1.816c-0.878,0.848,2.383,0.736,2.767,0.742c1.462,0.025,2.027,0.039,2.295,1.199
	c0.249,1.074,0.051,3.061,0.246,3.902c0.143,0.619,2.162-0.047,2.01,0.31c-0.076,0.178,0.531,0.776-0.098,0.931
	c-0.629,0.156-2.583,0.276-2.718,0.406c-0.946,0.914-1.748-1.322-1.824-1.652c-0.222-0.96-0.863-1.502-1.589-1.881
	c-0.966-0.505-1.709-0.527-2.775-0.281c-0.716,0.166,0.594,2.764,0.637,2.945c0.036,0.157,1.831,0.287,2.032,0.708
	c0.105,0.22,0.342,0.481,0.902,0.896c0.561,0.415,0.75,0.885,0.96,1.322c0.352,0.736-0.046,2.637-0.061,3.474
	c-0.019,1.05-0.247,1.989-1.081,2.182c-0.578,0.134-2.34,0.666-2.682,0.995c-0.651,0.629-2.553,0.071-3.01-0.052
	c-0.999-0.269-1.454-1.339-2.015-1.919c-0.705-0.73-0.94-1.314-0.919-2.533c0.027-1.543,0.25-2.063,0.975-2.764
	c0.602-0.582,0.5-2.115,0.516-3.002c0.025-1.459-1.481-0.619-1.849-0.264c-0.874,0.844-1.305-0.176-1.339,1.801
	c-0.018,1.025,1.089,1.141,0.336,2.582c-0.432,0.827-1.091,1.58-1.569,2.496c-0.617,1.181-0.485,1.036-1.486,0
	c-0.529-0.549,0.935-1.191,0.731-2.072c-0.204-0.881-0.991-1.352-1.353-2.109c-0.431-0.9-0.464-1.734-0.183-2.783
	c0.154-0.572,1.54-1.258,1.881-1.588c0.657-0.635,2.196-0.527,2.799-1.109c0.016-0.016-2.868-0.281-3.238-0.289
	c-1.138-0.02-2.441-0.073-3.238-0.287c-0.922-0.248-1.352-0.945-2.295-1.199c-0.847-0.227-1.42-1.092-2.06-1.426
	c-0.716-0.373-1.125-1.4-1.589-1.881c-0.586-0.607-0.95-1.613-1.117-2.336c-0.16-0.689-1.077-1.529-1.354-2.108
	c-0.452-0.945-0.736-1.538-1.117-2.336c-0.452-0.945-0.736-1.538-1.118-2.336c-0.375-0.785-0.594-1.962-0.882-2.563
	c-0.366-0.766-0.176-1.727,0.044-2.547c0.224-0.833,1.462,0.974,2.296,1.198c0.572,0.154,1.265,1.782,1.584,2.113
	c0.467,0.483,2.351,0.272,3.238,0.288c0.789,0.014,1.941,0.831,2.296,1.198c0.689,0.715,1.281,1.02,2.06,1.426
	c0.845,0.441,0.196,2.518,0.187,2.551c-0.112,0.416-0.944,0.995-0.971,2.531c-0.016,0.9,1.666,0.783,2.292,1.431
	c0.458,0.474,2.375,0.272,3.238,0.288c0.966,0.017,0.531-1.602,0.547-2.539c0.012-0.684-0.337-1.699-0.316-2.949
	c0.011-0.607,2.188-0.725,2.889-0.712c1.179,0.021,1.025,1.423,1.353,2.108c0.477,0.997,0.692,1.447,1.117,2.336
	C2332.588,1507.775,2334.129,1506.979,2334.349,1506.895z"/>
<path id="path2313" sodipodi:rx="7.2208123" sodipodi:type="arc" sodipodi:ry="8.8454952" sodipodi:cx="101.81345" sodipodi:cy="248.9375" fill="#F3D841" stroke="#000000" stroke-width="0.5564" d="
	M2335.667,1511.602c0.946,3.383-0.48,6.738-3.186,7.495c-2.705,0.757-5.666-1.372-6.611-4.756c-0.946-3.383,0.48-6.739,3.186-7.495
	C2331.76,1506.089,2334.721,1508.218,2335.667,1511.602L2335.667,1511.602z"/>
<path id="path2315" fill="#F3D841" stroke="#000000" stroke-width="3.2076" d="M2343.032,1518.614
	c1.096,0.132,1.403,0.161,1.982-0.948c0.41-0.785,1.302-0.633,2.14-0.618c0.766,0.014-0.005,1.55-0.204,2.29
	c-0.049,0.182-1.545,0.465-1.974,0.457C2343.872,1519.775,2343.843,1519.455,2343.032,1518.614z"/>
<path id="path2320" fill="#F3D841" stroke="#000000" stroke-width="1.98" d="M2344.726,1515.367
	c-0.073-0.367,0.042-1.838,0.207-2.453c0.191-0.711,0.03-1.716,0.043-2.456c0.015-0.819,0.029-1.638,0.043-2.456
	s0.029-1.638,0.043-2.457c0.014-0.818,0.028-1.637,0.043-2.455c0.015-0.875,0.191-1.559,0.207-2.454
	c0.014-0.819,0.028-1.638,0.043-2.456c0.018-1.016,0.034-1.482,0.525-1.957c0.401-0.388,0.3,1.567,0.293,1.971
	c-0.016,0.874-0.031,1.747-0.046,2.621c-0.014,0.818-0.029,1.637-0.043,2.455c-0.017,0.982-0.034,1.965-0.051,2.948
	c-0.014,0.818-0.029,1.638-0.043,2.456c-0.016,0.928-0.032,1.855-0.049,2.783c-0.014,0.819-0.028,1.639-0.042,2.457
	C2345.876,1515.178,2346.325,1516.365,2344.726,1515.367z"/>
<path id="path2317" fill="#F3D841" stroke="#000000" stroke-width="1.98" d="M2344.279,1522.24c-0.874-0.016,0.03-1.748,0.045-2.621
	c0.015-0.818,0.029-1.637,0.043-2.456c0.011-0.61-1.082-0.565-1.623-0.847c-0.794-0.415,1.42-0.912,1.655-0.955
	c0.8-0.145,1.805,0.032,2.62,0.047c1.313,0.022,1.302-0.013,1.462,0.68c0.095,0.412-1.622,0.557-1.976,0.621
	c-0.343,0.063-0.198,1.969-0.204,2.29c-0.014,0.818-0.028,1.638-0.043,2.456C2346.235,1522.779,2345.437,1522.492,2344.279,1522.24z
	"/>
<path id="path2322" fill="#F3D841" stroke="#000000" stroke-width="3.2076" d="M2324.255,1524.511
	c-0.319-0.005-1.643-0.028-2.457-0.043c-1.002-0.018-1.311,0.05-1.33,1.124c-0.02,1.133,0.295,1.309,0.951,1.818
	c0.057,0.043,1.982-0.129,2.295-0.124c0.953,0.017,1.023-0.505,1.491-0.957C2325.945,1525.615,2324.674,1524.945,2324.255,1524.511z
	"/>
<path id="path2324" sodipodi:nodetypes="csssssssssssssssssssssssssssss" fill="#F3D841" stroke="#000000" stroke-width="1.98" d="
	M2314.896,1516.403c-0.492-0.509-0.378-1.727,0.357-1.714c0.963,0.017,0.998-0.861,1.014-1.784c0.019-1.087-0.302-1.142-0.624-1.813
	c-0.503-1.052-0.578,0.272-0.593,1.136c-0.017,0.949-0.329,1.105-0.602,1.628c-0.483,0.926-1.163-0.224-1.301-0.515
	c-0.491-1.026-0.3-0.719-0.141-1.313c0.13-0.484,0.826-0.406,0.848-1.623c0.016-0.922-0.759-1.203-1.2-1.659
	c-0.874-0.905,0.072,0.551,0.059,1.312c-0.021,1.188-0.208,1.544-1.002,1.129c-0.459-0.239-0.785-1.132-0.957-1.49
	c-0.421-0.881-1.481,0.398-1.491,0.957c-0.003,0.201,1.62,1.594,1.691,1.667c0.419,0.434-1.703,0.462-1.974,0.457
	c-0.464-0.009-1.59-0.982-1.702-1.013c-0.717-0.193,0.626,1.395,0.947,2.064c0.331,0.691,1.398,1,2.04,0.445
	c0.632-0.548,1.234-0.783,1.488-0.639c0.253,0.144,1.257,0.869,1.216,1.104c-0.041,0.234-0.304,0.517-0.513,0.718
	c-0.125,0.121-0.397,0.198-0.931,0.158s-1.331-0.197-1.525-0.201c-1.482-0.025,0.369,1.283,0.629,1.486
	c0.523,0.406,1.315,0.348,1.962,0.197c0.429-0.099,0.249-0.961,1.485-0.629c0.438,0.117,10.563,12.212,10.771,12.162
	c0.104-0.025,0.169-0.045,0.22-0.197C2325.267,1527.828,2315.311,1516.832,2314.896,1516.403z"/>
<path id="path2326" fill="#F3D841" stroke="#000000" stroke-width="1.98" d="M2330.688,1503.165
	c-0.203-0.21-0.915-1.404-1.115-1.821c-0.341-0.714,0.078-1.415,0.362-1.959c0.201-0.385,1.88-0.131,2.295-0.124
	c0.768,0.014-0.545-1.257-0.796-1.324c-0.45-0.121-1.034-0.788-1.457-1.008c-0.612-0.319-1.557-0.191-2.29-0.204
	c-1.111-0.02-1.445-0.053-1.973,0.457c-0.208,0.2-0.305,1.898-0.365,2.123c-0.196,0.73-0.621,0.78-0.848,1.623
	c-0.261,0.971-0.089,1.621,0.624,1.813c0.561,0.15,0.646-1.039,1.169-1.289c0.647-0.311,0.128,1.434,0.29,2.134
	c0.168,0.724,1.473,0.517,2.121,0.528C2329.853,1504.133,2330.216,1504.288,2330.688,1503.165z"/>
<path id="path2328" fill="#F3D841" stroke="#000000" stroke-width="1.98" d="M2328.826,1497.236
	c-0.206-0.856,0.334-1.274,0.689-1.954c0.32-0.613,0.164-1.758,0.04-2.292c-0.186-0.804-1.145-0.665-1.468-0.353
	c-0.631,0.609-1.203,0.363-1.641,0.135c-0.115-0.06-0.614-1.792-0.624-1.813c-0.191-0.399-1.129-0.838-1.457-1.008
	c-0.566-0.296,0.057,1.517,0.624,1.813c0.751,0.392-0.397,1.723-0.687,1.79c-0.934,0.216-0.88,0.408-1.813,0.624
	c-0.654,0.151-0.267,1.665-0.198,1.962c0.134,0.58,1.386,0.844,1.951,0.854c0.811,0.014,1.239,0.616,1.621,1.011
	c0.581,0.602,1.869-0.355,1.974-0.457C2328.205,1497.192,2327.929,1497.399,2328.826,1497.236z"/>
<path id="path3324" sodipodi:nodetypes="csssssssss" fill="#F3D841" stroke="#000000" stroke-width="1.98" d="M2338.604,1544.965
	c0.672,0.523-0.206,1.193,0.333,1.752c0.389,0.402,0.134,1.729,0.124,2.295c-0.007,0.389,1.175,1.762,1.374,1.865
	c0.268,0.141,2.308-0.055,2.853-0.046c1.007,0.018,1.215-1.204,1.99-1.384c0.354-0.081,0.198-1.953,0.204-2.289
	c0.01-0.58-0.995-1.217-1.398-1.635c-0.598-0.619-0.907-1.794-0.655-2.275C2343.736,1542.658,2337.903,1544.42,2338.604,1544.965z"
	/>
<path id="path3338" sodipodi:rx="6.4987311" sodipodi:type="arc" sodipodi:ry="8.4844542" sodipodi:cx="84.844543" sodipodi:cy="296.9559" fill="#F3D841" stroke="#000000" stroke-width="0.6173" d="
	M2343.699,1540.379c0.728,2.916-0.494,5.732-2.729,6.29c-2.234,0.557-4.635-1.356-5.362-4.272c-0.727-2.917,0.494-5.733,2.729-6.291
	C2340.571,1535.549,2342.972,1537.462,2343.699,1540.379z"/>
<path id="path2348" sodipodi:rx="7.2208123" sodipodi:type="arc" sodipodi:ry="8.8454952" sodipodi:cx="101.81345" sodipodi:cy="248.9375" fill="#F3D841" stroke="#000000" stroke-width="0.6927" d="
	M2341.303,1531.908c0.76,2.717-0.386,5.412-2.559,6.021c-2.173,0.607-4.551-1.103-5.311-3.82s0.386-5.413,2.559-6.021
	S2340.542,1529.19,2341.303,1531.908L2341.303,1531.908z"/>
<path id="path3320" sodipodi:rx="7.2208123" sodipodi:type="arc" sodipodi:ry="8.8454952" sodipodi:cx="101.81345" sodipodi:cy="248.9375" fill="#DD0000" stroke="#000000" stroke-width="0.8504" d="
	M2340.573,1532.111c0.619,2.214-0.314,4.41-2.084,4.904c-1.77,0.495-3.707-0.898-4.326-3.111c-0.619-2.213,0.314-4.409,2.084-4.904
	C2338.017,1528.506,2339.954,1529.898,2340.573,1532.111L2340.573,1532.111z"/>
<path id="path3322" sodipodi:rx="7.2208123" sodipodi:type="arc" sodipodi:ry="8.8454952" sodipodi:cx="101.81345" sodipodi:cy="248.9375" fill="#DD0000" stroke="#000000" stroke-width="0.6165" d="
	M2335.189,1511.734c0.854,3.054-0.434,6.082-2.875,6.766c-2.441,0.682-5.113-1.239-5.967-4.293
	c-0.854-3.053,0.434-6.082,2.875-6.764C2331.664,1506.76,2334.335,1508.682,2335.189,1511.734L2335.189,1511.734z"/>
<path id="path3357" fill="#F3D841" stroke="#000000" stroke-width="1.98" d="M2375.207,1602.59c-1.73-0.57-3.604,0.721-5.939,1.188
	c-2.157,0.432-3.621,0.41-5.148,0.792c-2.033,0.509-2.521,1.729-3.563,2.772c-0.958,0.957-0.396,4.172-0.396,5.543
	c0,1.458,1.25,4.084,1.584,4.753c1.036,2.071,2.407,1.584,4.751,1.584c2.307,0,3.818-0.127,5.148-0.792
	c1-0.5,2.529-3.109,3.168-3.961c1.112-1.482,2.147-2.543,3.168-3.563c1.396-1.396,1.509-2.473,1.98-4.356
	c0.328-1.314-2.056-3.072-2.376-4.355C2377.389,1601.414,2375.999,1602.457,2375.207,1602.59z"/>
<path id="path3359" fill="#F3D841" stroke="#000000" stroke-width="1.98" d="M2371.247,1599.422
	c-0.133-0.535-4.684-0.396-6.336-0.396c-1.121,0-1.773,3.532-1.979,4.355c-0.593,2.37-1.211,1.89-0.792,3.564
	c0.302,1.209,3.544,1.188,5.147,1.188c2.568,0,3.521,0.086,4.356-1.584c0.802-1.604,0.792-2.936,0.792-5.147
	C2372.436,1600.632,2371.644,1600.082,2371.247,1599.422z"/>
<path id="path3361" sodipodi:nodetypes="cssssssc" fill="#F3D841" stroke="#000000" stroke-width="1.98" d="M2355.804,1603.777
	c-1.643-0.821-4.104-0.396-5.94-0.396c-1.42,0-1.688,0.757-1.468,1.581c0.221,0.823,0.5,2.183,0.741,2.749
	c0.242,0.564,2.715,2.006,4.687,2.006c2.337,0,5.048,0.396,7.92,0.396c3.588,0,1.211-0.349,0-2.771
	c-1.171-2.342-3.395-2.193-5.94-3.465"/>
<path id="path3363" sodipodi:nodetypes="cssssssc" fill="#F3D841" stroke="#000000" stroke-width="1.98" d="M2362.439,1612.489
	c-0.179-0.357-2.769-1.433-3.864-1.979c-1.729-0.865-4.664-0.396-6.732-0.396c-1.571,0-1.98,2.479-1.98,3.96
	c0,1.888,2.666,2.376,4.752,2.376c1.98,0,3.96,0,5.94,0c2.513,0,1.852,0.59,2.396-1.584
	C2363.154,1614.056,2362.703,1613.281,2362.439,1612.489z"/>
<path id="path3365" sodipodi:nodetypes="csssssc" fill="#F3D841" stroke="#000000" stroke-width="1.98" d="M2366.495,1617.638
	c0.577-2.306-4.751,0-7.127,0c-3.106,0-3.768,0.204-5.544,1.979c-0.432,0.433-0.174,1.858-0.46,2.617
	c-0.286,0.758,1.987,2.058,3.007,2.315c1.021,0.258,6.008-1.438,6.978-1.632C2364.355,1622.717,2366.6,1618.16,2366.495,1617.638z"
	/>
<rect id="rect26249" x="2550.406" y="1599.31" transform="matrix(-0.4695 0.8829 -0.8829 -0.4695 5175.4746 92.655)" fill="#F3D841" stroke="#000000" stroke-width="2.0721" width="18.991" height="3.686"/>
<rect id="rect26247" x="2538.204" y="1608.284" transform="matrix(-0.8829 -0.4695 0.4695 -0.8829 4055.4028 4231.4277)" fill="#F3D841" stroke="#000000" stroke-width="1.98" width="34.095" height="3.65"/>
<path id="path46104" sodipodi:rx="1.75" sodipodi:type="arc" sodipodi:ry="2.1875" sodipodi:cx="243" sodipodi:cy="226.5625" fill="#FFFFFF" stroke="#000000" stroke-width="0.6081" d="
	M2543.205,1603.663c-0.258,0.483-0.983,0.63-1.621,0.325c-0.638-0.303-0.945-0.941-0.688-1.424c0.258-0.484,0.983-0.63,1.621-0.326
	S2543.462,1603.18,2543.205,1603.663z"/>
<path id="path4336" sodipodi:nodetypes="cssssssssssssssssssssssssssssssssssssc" fill="#F3D841" stroke="#000000" stroke-width="1.98" d="
	M2530.22,1602.133C2530.593,1602.133,2530.593,1602.133,2530.22,1602.133c-2.978,0,3.429,4.897,4.761,7.561
	c0.798,1.598,0.84-2.549,0.84-3.08c0-1.68,0-3.359,0-5.04c0-1.778,0.63-2.555,1.68-3.08c1.209-0.604,1.283,1.82,3.08,1.82
	c2.054,0,0.28,1.446,0.28,3.5c0,1.835,0.211,3.573,0.56,5.32c0.382,1.906,0.671,3.802,1.12,5.601c0.306,1.221,0,2.934,0,4.2
	c0,0.501,3.734,0.28,4.2,0.28c1.715,0,3.06,0.279,4.48,0.279c1.455,0,3.288-1.888,4.061-2.66c0.715-0.715,4.609,2.402,4.06,3.5
	c-0.596,1.193-3.833,2.993-4.479,3.641c-0.573,0.573,3.702,1.004,5.102,1.004c1.142,0,2.978-1.159,4.269-1.482
	c2.003-0.5,2.727-2.777,5.071-3.247c2.925-0.584,1.348,2.999,0.843,3.378c-1.217,0.913,1.45,0.679,1.01,2.438
	c-0.509,2.037-0.723,1.686-1.289,3.954c-0.175,0.696-3.48,1.797-4.364,1.797c-1.4,0-2.801,0-4.2,0c-1.4,0-2.801,0-4.2,0
	c-1.828,0-2.982-0.256-4.2-0.561c-1.271-0.317-1.968-1.332-3.36-1.68c-1.575-0.394-2.279-0.6-3.08-1.4
	c-0.956-0.955-2.177-1.384-3.36-1.68c-1.656-0.414-2.238-0.56-3.36-1.12c-1.212-0.606-2.251-1.686-3.36-2.24
	c-1.747-0.874-3.068-3.349-4.48-4.761c-1.348-1.348-1.742-2.977-3.08-4.76c-1.13-1.507-1.372-2.85-2.8-3.921
	c-1.074-0.805-1.706-2.625-1.96-3.64c-0.488-1.953-1.424-1.633-0.561-3.36c0.627-1.254,1.508-1.646,3.081-1.96
	C2528.581,1600.333,2529.032,1600.154,2530.22,1602.133z"/>
<path id="path4338" fill="#F3D841" stroke="#000000" stroke-width="1.98" d="M2543.101,1606.054c0.017-0.003-2.291-0.942-5.04-1.399
	c-1.457-0.243-2.999,0.099-3.921,0.56c-1.655,0.827,1.439,2.96,1.681,3.08c0.882,0.44,3.188,0,4.2,0
	C2542.292,1608.294,2541.955,1608.918,2543.101,1606.054z"/>
<path id="path27608" fill="#DAA520" stroke="#000000" stroke-width="1.98" d="M2454.896,1374.202c-0.92-0.252-2.518-1.399-3.64-1.68
	c-1.26-0.314-2.026-0.56-3.641-0.56c-0.934,0,0.846,1.823,1.681,2.24c0.623,0.312,1.443,2.328,1.68,2.8
	c0.604,1.208,0.816,1.937,1.4,2.52c1.036,1.036,0.879,1.4,2.8,1.4c1.619,0,2.669-0.074,3.641-0.56
	c0.922-0.461,1.179-2.195,1.399-3.08c0.416-1.665-1.483-1.582-2.24-1.96c-1.315-0.658-2.844-1.002-4.76-1.96"/>
<path id="path29550" stroke="#000000" stroke-width="1.98" d="M2454.407,1371.523c0,0.444,0,2.123,0,3.168c0,0.99,0,1.98,0,2.97
	c0,1.374-0.179,1.876,0.99,1.584c0.524-0.131,1.08-1.349,1.188-1.782c0.211-0.847,0.594-1.086,0.594-2.376
	c0-1.024,0.219-1.698,0-2.574C2456.941,1371.562,2455.249,1372.028,2454.407,1371.523z"/>
<path id="path36340" sodipodi:nodetypes="cccccccccssscccccc" fill="#F3D841" d="M2367.287,1404.193
	c-3.589-1.09-2.235-7.89-6.556-7.375c-3.053,0.929-8.314,2.532-5.044,6.642c0.867,7.624-0.622,15.75,2.604,22.96
	c2.316,5.018,2.984,11.04,7.26,14.974c3.21,3.471,6.468,6.93,9.576,10.471c4.328,3.039,9.173,5.333,13.226,8.753
	c5.781,3.421,12.34,5.067,18.545,7.508c2.797,1.224,5.989,0.547,8.73,1.605c1.607,0.031,4.195,0.639,6.312,0.573
	c1.059-0.033,1.999-0.235,2.64-0.761c0.642-0.526,1.188-5.977,0.368-6.963s-2.239-1.46-4.069-1.18
	c-6.254-0.141-12.539-0.975-18.344-3.434c-5.854-2.492-11.603-5.305-17.053-8.594c-6.851-4.261-12.537-10.408-15.914-17.763
	c-2.033-2.999-4.257-6.01-4.746-9.714C2362.941,1416.037,2363.594,1409.226,2367.287,1404.193z"/>
<path id="path39282" sodipodi:nodetypes="cccccccccccsssssscccccccccsssssccccccccccccccccccccccccccccccscccccccccccccccccsssc" fill="#F3D841" stroke="#F3D841" stroke-width="1.98" d="
	M2456.536,1459.336c-2.734,0.069-4.962,2.095-7.673,2.376c-2.322,1.308-2.782,4.152-3.812,6.237c-2.5,0.13-5.823-0.368-7.425,2.178
	c-1.313,2.028-3.864,3.932-2.771,6.682c0.218,2.631,2.497,5.042,5.246,4.703c2.297-0.306,4.511-2.545,5-4.604
	c-0.653-0.825-1.862,1.724-3.168,1.683c-2.811,1.868-3.684-2.222-3.268-4.307c-0.321-2.86,2.45-5.074,5.198-4.306
	c2.473-0.476,1.67,3.463,3.762,4.158c0.531,0.294,1.429,0.321,2.215,0.192c0.196-0.032,0.664-0.08,1.118-0.136
	c0.227-0.028,1.174-0.373,1.165-0.416c-0.009-0.043-0.648-0.497-0.817-0.55c-0.338-0.107-0.693-0.229-0.883-0.38
	c-0.378-0.302-0.782-0.645-1.12-0.992c-0.676-0.693-1.086-1.401-0.489-1.826c1.954,0.118,6.23-0.912,5.841,2.277
	c-0.772,2.141-1.388,4.606-2.574,6.435c-2.212,0.403-2.018,2.451-0.842,3.911c1.074,3.563-1.58,6.658-3.068,9.652
	c-0.995,2.105-0.868,5.482-3.911,5.742c-2.148-0.245-4.831,0.186-6.534-1.436c-0.789-1.971-0.84-4.691,0.298-6.534
	c1.353-1.375,5.491-2.222,5.098,0.792c0.031,0.338,0.021,0.776,0.01,1.22c-0.006,0.222-0.012,0.445-0.012,0.659
	c-0.001,0.213-0.146,1.001-0.313,1.306s-0.328,0.602-0.3,0.662c0.057,0.121,1.149-0.616,1.341-0.693
	c0.192-0.077,0.426-0.217,0.71-0.431c2.184-1.816,1.24-5.392-0.594-7.128c-1.794-1.653-4.967-1.262-6.188,0.94
	c-1.984,1.646-2.434,4.328-2.771,6.782c-0.611,2.709,1.848,4.771,4.405,4.653c2.567,0.74,5.692,0.914,7.722-1.139
	c2.251-0.833,4.064-2.317,4.158-4.801c1.081-2.739,3.726-4.631,4.307-7.574c-0.177-1.931,2.603-4.565,3.316-1.584
	c0.103,2.438,0.018,4.903,1.089,7.178c1.034,2.263,1.966,4.861,4.356,6.039c2.35,0.973,4.209,3.435,6.979,3.119
	c2.615,0.613,4.103-2.2,6.039-3.366c1.612-2.019,1.529-5.005,1.039-7.375c-1.012-2.799-4.01-2.542-6.237-3.564
	c-2.917-0.631-1.986,3.97-2.128,5.742c-0.186,0.962-0.301,4.401,0.989,3.712c0.655-2.197-1.585-6.192,1.733-6.781
	c3.148-0.201,3.768,3.438,3.514,5.841c0.326,3.253-3.002,4.194-5.593,3.762c-2.307,0.233-4.434-0.909-3.96-3.416
	c-0.244-3.208-0.151-6.5-1.337-9.554c-0.672-1.917-1.625-3.81-3.563-4.702c2.503-0.402,3.862-2.887,5.939-4.109
	c1.547-1.427,2.157-4.116,4.653-3.217c2.444-0.445,3.236-3.017,5.099-4.307c1.58-2.108,0.234-5.831-2.574-5.891
	c-1.702-0.43-5.169,0.29-3.96,2.624c1.474-0.807,4.781-1.762,4.752,1.089c0.01,2.759-3.068,4.27-5.445,3.316
	c-0.766-1.703-1.241-3.551-2.326-5.148c-1.271-1.861-2.61-3.96-4.802-4.802C2460.964,1459.747,2458.762,1459.134,2456.536,1459.336z
	 M2454.902,1462.702c2.965,0.17,6.669-0.773,8.86,1.832c1.415,1.333,1.893,5.87-0.989,5.296c-1.356-0.408-4.185-1.344-4.505-2.178
	c1.645-0.574,1.674-4.52,0.297-4.604c-1.916,1.34-2.562,4.108-4.752,4.95c-1.852-0.076-4.519,0.396-5.891-0.545
	c-0.785-2.33,1.266-5.015,3.762-4.554C2452.756,1462.82,2453.828,1462.723,2454.902,1462.702z M2456.833,1471.365
	c1.964,0.796,4.148,1.147,6.237,0.743c1.632,0.986-0.284,3.647-0.396,5.197c-0.598,2.673-3.961,3.154-5.643,1.485
	C2456.28,1476.426,2457.109,1473.816,2456.833,1471.365z M2454.605,1478.988c1.524,0,2.772,0.728,2.772,1.633
	c0,0.906-1.248,1.634-2.772,1.634s-2.771-0.728-2.771-1.634C2451.834,1479.715,2453.081,1478.988,2454.605,1478.988z"/>
<path id="path44156" sodipodi:rx="1.75" sodipodi:type="arc" sodipodi:ry="2.1875" sodipodi:cx="243" sodipodi:cy="226.5625" fill="#DD0000" stroke="#000000" stroke-width="0.6081" d="
	M2553.164,1608.869c-0.258,0.483-0.983,0.629-1.621,0.326c-0.638-0.305-0.945-0.942-0.688-1.426c0.257-0.483,0.982-0.629,1.62-0.326
	C2553.113,1607.748,2553.421,1608.386,2553.164,1608.869z"/>
<path id="path46100" sodipodi:rx="1.75" sodipodi:type="arc" sodipodi:ry="2.1875" sodipodi:cx="243" sodipodi:cy="226.5625" fill="#FFFFFF" stroke="#000000" stroke-width="0.6081" d="
	M2549.785,1607.163c-0.258,0.483-0.983,0.63-1.621,0.325c-0.637-0.303-0.945-0.941-0.688-1.424c0.257-0.484,0.982-0.63,1.62-0.326
	S2550.043,1606.68,2549.785,1607.163z"/>
<path id="path46102" sodipodi:rx="1.75" sodipodi:type="arc" sodipodi:ry="2.1875" sodipodi:cx="243" sodipodi:cy="226.5625" fill="#DD0000" stroke="#000000" stroke-width="0.6081" d="
	M2546.495,1605.203c-0.258,0.483-0.983,0.629-1.621,0.326c-0.638-0.305-0.945-0.941-0.688-1.426c0.257-0.482,0.982-0.629,1.62-0.325
	S2546.752,1604.72,2546.495,1605.203z"/>
<path id="path46106" sodipodi:rx="1.75" sodipodi:type="arc" sodipodi:ry="2.1875" sodipodi:cx="243" sodipodi:cy="226.5625" fill="#FFFFFF" stroke="#000000" stroke-width="0.6081" d="
	M2556.295,1610.523c-0.257,0.483-0.982,0.629-1.62,0.326c-0.638-0.305-0.945-0.941-0.688-1.426c0.258-0.482,0.983-0.629,1.621-0.325
	S2556.553,1610.04,2556.295,1610.523z"/>
<path id="path46108" sodipodi:rx="1.75" sodipodi:type="arc" sodipodi:ry="2.1875" sodipodi:cx="243" sodipodi:cy="226.5625" fill="#DD0000" stroke="#000000" stroke-width="0.6081" d="
	M2559.865,1612.554c-0.257,0.483-0.982,0.629-1.62,0.325c-0.638-0.303-0.946-0.941-0.688-1.425s0.983-0.629,1.621-0.325
	C2559.814,1611.432,2560.123,1612.07,2559.865,1612.554z"/>
<path id="path46110" sodipodi:rx="1.75" sodipodi:type="arc" sodipodi:ry="2.1875" sodipodi:cx="243" sodipodi:cy="226.5625" fill="#FFFFFF" stroke="#000000" stroke-width="0.6081" d="
	M2563.436,1614.373c-0.257,0.484-0.982,0.63-1.62,0.326c-0.638-0.303-0.946-0.941-0.688-1.425s0.983-0.63,1.621-0.325
	C2563.385,1613.252,2563.693,1613.891,2563.436,1614.373z"/>
<path id="path46112" sodipodi:rx="1.75" sodipodi:type="arc" sodipodi:ry="2.1875" sodipodi:cx="243" sodipodi:cy="226.5625" fill="#DD0000" stroke="#000000" stroke-width="0.6081" d="
	M2566.936,1616.193c-0.257,0.484-0.982,0.63-1.62,0.326s-0.945-0.941-0.688-1.426c0.258-0.482,0.983-0.629,1.621-0.324
	C2566.886,1615.072,2567.193,1615.711,2566.936,1616.193z"/>
<path id="path46114" sodipodi:rx="1.75" sodipodi:type="arc" sodipodi:ry="2.1875" sodipodi:cx="243" sodipodi:cy="226.5625" fill="#FFFFFF" stroke="#000000" stroke-width="0.6081" d="
	M2570.227,1618.084c-0.258,0.483-0.983,0.629-1.621,0.325s-0.945-0.941-0.688-1.425c0.258-0.483,0.983-0.629,1.621-0.326
	C2570.176,1616.963,2570.483,1617.601,2570.227,1618.084z"/>
<path id="path46116" sodipodi:rx="1.75" sodipodi:type="arc" sodipodi:ry="2.1875" sodipodi:cx="243" sodipodi:cy="226.5625" fill="#FFFFFF" stroke="#000000" stroke-width="0.6081" d="
	M2557.898,1606.646c-0.636,0.135-1.215-0.33-1.292-1.037s0.376-1.391,1.012-1.525c0.637-0.135,1.215,0.328,1.292,1.036
	C2558.988,1605.828,2558.535,1606.511,2557.898,1606.646z"/>
<path id="path46123" sodipodi:rx="1.75" sodipodi:type="arc" sodipodi:ry="2.1875" sodipodi:cx="243" sodipodi:cy="226.5625" fill="#DD0000" stroke="#000000" stroke-width="0.6081" d="
	M2559.621,1603.414c-0.636,0.136-1.215-0.328-1.292-1.036c-0.077-0.707,0.376-1.39,1.012-1.525c0.637-0.136,1.215,0.329,1.292,1.036
	C2560.711,1602.596,2560.258,1603.279,2559.621,1603.414z"/>
<path id="path46125" sodipodi:rx="1.75" sodipodi:type="arc" sodipodi:ry="2.1875" sodipodi:cx="243" sodipodi:cy="226.5625" fill="#FFFFFF" stroke="#000000" stroke-width="0.6081" d="
	M2561.371,1599.984c-0.636,0.135-1.215-0.329-1.292-1.036c-0.077-0.708,0.376-1.391,1.012-1.526
	c0.637-0.135,1.215,0.329,1.293,1.037C2562.461,1599.166,2562.008,1599.85,2561.371,1599.984z"/>
<path id="path47096" sodipodi:rx="1.75" sodipodi:type="arc" sodipodi:ry="2.1875" sodipodi:cx="243" sodipodi:cy="226.5625" fill="#DD0000" stroke="#000000" stroke-width="0.6081" d="
	M2563.122,1596.555c-0.637,0.135-1.215-0.33-1.293-1.037c-0.077-0.707,0.376-1.391,1.012-1.525c0.637-0.135,1.215,0.328,1.293,1.036
	C2564.211,1595.736,2563.758,1596.419,2563.122,1596.555z"/>
<path id="path49316" sodipodi:nodetypes="ccccccccccccc" fill="#F3D841" stroke="#000000" stroke-width="1.771" d="
	M2569.26,1587.874l-0.746,6.208l-7.729-4.109l5.209-3.997l-6.689-0.103l4.547-8.439l3.896,5.416l0.553-6.65l7.617,4.372
	l-4.856,3.958l6.402,0.166l-4.708,8.051L2569.26,1587.874z"/>
<path id="path49343" sodipodi:nodetypes="csssssssssssc" fill="#F3D841" stroke="#000000" stroke-width="1.9961" stroke-linecap="round" stroke-linejoin="round" d="
	M2365.083,1381.174c0.781-1.468,1.738-1.917,2.334-2.249c0.502-0.28,1.328-0.385,2.134,0.043c0.729,0.388,1.601,1.395,2.424,1.834
	c0.825,0.44,2.155,0.601,2.888,0.99c0.805,0.428,1.18,1.171,1.229,1.744c0.058,0.68,0.221,1.724-0.561,3.193
	c-0.78,1.469-1.948,2.396-2.988,2.883c-1.018,0.477-1.811,0.596-2.398,0.579c-0.529-0.015-1.746-0.773-2.529-1.189
	c-0.785-0.417-2.083-0.998-2.391-1.427c-0.342-0.478-0.687-1.201-0.86-2.312C2364.187,1384.13,2364.303,1382.643,2365.083,1381.174z
	"/>
<path id="path49345" sodipodi:nodetypes="csssssssssssc" fill="#F3D841" stroke="#000000" stroke-width="1.9961" stroke-linecap="round" stroke-linejoin="round" d="
	M2375.539,1390.847c1.332,0.708,1.711,1.628,1.996,2.199c0.239,0.481,0.305,1.286-0.123,2.091c-0.388,0.729-1.355,1.622-1.795,2.445
	c-0.44,0.825-0.641,2.134-1.029,2.866c-0.429,0.805-1.132,1.201-1.665,1.271c-0.633,0.083-1.607,0.283-2.939-0.425
	c-1.332-0.708-2.146-1.816-2.559-2.816c-0.402-0.979-0.482-1.75-0.444-2.327c0.035-0.52,0.784-1.74,1.201-2.523
	c0.417-0.785,1.006-2.079,1.415-2.396c0.456-0.354,1.141-0.719,2.178-0.933C2372.833,1390.083,2374.207,1390.139,2375.539,1390.847z
	"/>
<path id="path49347" sodipodi:nodetypes="csssssssssssc" fill="#F3D841" stroke="#000000" stroke-width="1.9961" stroke-linecap="round" stroke-linejoin="round" d="
	M2361.665,1383.471c-1.332-0.708-2.307-0.508-2.939-0.425c-0.533,0.07-1.237,0.466-1.665,1.271
	c-0.388,0.729-0.586,2.031-1.024,2.855c-0.438,0.826-1.411,1.724-1.8,2.457c-0.428,0.805-0.363,1.61-0.123,2.091
	c0.285,0.571,0.664,1.491,1.996,2.199c1.332,0.708,2.706,0.764,3.765,0.546c1.037-0.213,1.721-0.579,2.177-0.933
	c0.411-0.319,1.004-1.623,1.421-2.407c0.417-0.784,1.161-1.996,1.195-2.513c0.038-0.576-0.041-1.348-0.444-2.327
	C2363.812,1385.287,2362.997,1384.179,2361.665,1383.471z"/>
<path id="path49349" fill="#F3D841" stroke="#000000" stroke-width="1.9961" stroke-linecap="round" stroke-linejoin="round" d="
	M2360.924,1384.447c-1.342-0.837-3.419,0.02-3.179,1.793c-0.292,1.85-2.478,3.008-2.536,4.809c0.863,3.04,6.082,3.183,6.979,0.057
	c0.578-1.429,1.893-2.912,0.882-4.484C2362.623,1385.682,2361.866,1384.897,2360.924,1384.447z"/>
<path id="path49351" fill="#F3D841" stroke="#000000" stroke-width="1.9961" stroke-linecap="round" stroke-linejoin="round" d="
	M2368.791,1379.97c-2.295-0.124-3.411,2.728-3.29,4.706c-0.062,1.624,1.101,2.82,2.582,3.237c1.291,0.974,3.086,1.538,4.438,0.347
	c1.625-0.963,3.215-3.432,1.998-5.201c-1.713-0.905-3.885-1.064-5.14-2.754C2369.197,1380.175,2369.015,1380.019,2368.791,1379.97z"
	/>
<path id="path49389" sodipodi:nodetypes="ccccscccccccc" fill="#F3D841" stroke="#000000" stroke-width="1.5048" d="
	M2365.808,1392.735c-0.658-0.33-1.638-0.319-2.06,0.374c-0.161,0.244-1.009,1.574-1.278,1.722c-0.469,0.316-2.355,2.53-2.939,2.657
	c-0.275,0.111-0.778,0.077-1.213,0.357c-0.435,0.28-0.801,0.875-0.911,1.165c-0.042,0.587-0.009,0.895,0.338,1.314
	c0.433,0.496,4.691,2.975,6.286,3.002c0.603,0.054,1.256-0.231,1.45-0.839c0.316-0.849-0.018-1.75-0.054-2.615
	c-0.127-1.032-0.095-2.127,0.425-3.057c0.402-0.868,1.012-1.733,0.948-2.732C2366.744,1393.499,2366.4,1392.901,2365.808,1392.735z"
	/>
<path id="path49353" fill="#F3D841" stroke="#000000" stroke-width="1.9961" stroke-linecap="round" stroke-linejoin="round" d="
	M2374.792,1391.821c-1.923-0.99-4.845-0.318-5.364,2.016c-0.911,1.336-1.826,3.099-0.708,4.598c0.791,1.537,3.01,2.917,4.598,1.731
	c0.802-1.982,1.471-4.103,3.068-5.612C2376.879,1393.429,2375.743,1392.25,2374.792,1391.821z"/>
<path id="path49399" fill="#F3D841" stroke="#000000" stroke-width="1.5048" d="M2365.201,1393.755
	c-1.048-0.089-1.156,1.62-1.999,2.037c-1.166,1.288-2.483,2.692-4.178,3.051c-0.822,0.435-0.213,1.017,0.45,1.177
	c1.495,0.818,3.187,2.22,4.886,1.948c0.162-1.693-0.743-3.526,0.196-5.157c0.265-0.875,1.387-2.083,0.836-2.954
	C2365.324,1393.83,2365.277,1393.766,2365.201,1393.755z"/>
<path id="path49355" sodipodi:rx="7.3882399" sodipodi:type="arc" sodipodi:ry="10.970416" sodipodi:cx="188.88519" sodipodi:cy="200.51947" fill="#F3D841" stroke="#000000" stroke-width="0.843" stroke-linecap="round" stroke-linejoin="round" d="
	M2370.61,1394.606c-1.345,2.528-4.483,3.488-7.012,2.144c-2.528-1.344-3.488-4.483-2.144-7.011c1.344-2.528,4.483-3.488,7.012-2.144
	C2370.995,1388.939,2371.954,1392.078,2370.61,1394.606z"/>
<path id="path50379" fill="#F3D841" stroke="#000000" stroke-width="2.4272" stroke-linecap="round" stroke-linejoin="round" d="
	M2367.735,1388.301c-4.627-1.063-7.154,3.605-4.484,7.032c3.182,2.464,6.174-0.394,6.521-2.454
	C2370.092,1391.561,2369.897,1389.291,2367.735,1388.301z"/>
<path id="path50503" sodipodi:nodetypes="cccccccccssscccccc" fill="#F3D841" d="M2541.906,1404.477
	c3.589-1.09,2.236-7.889,6.557-7.374c3.053,0.929,8.314,2.531,5.045,6.642c-0.867,7.624,0.621,15.749-2.604,22.959
	c-2.316,5.019-2.984,11.04-7.26,14.974c-3.21,3.471-6.469,6.93-9.577,10.471c-4.328,3.039-9.172,5.333-13.226,8.753
	c-5.78,3.42-12.34,5.067-18.544,7.507c-2.797,1.224-5.99,0.547-8.73,1.605c-1.607,0.032-4.195,0.64-6.312,0.573
	c-1.059-0.033-1.999-0.234-2.641-0.761s-1.188-5.977-0.368-6.963c0.82-0.986,2.239-1.459,4.069-1.18
	c6.254-0.141,12.54-0.975,18.345-3.434c5.854-2.492,11.602-5.305,17.053-8.594c6.851-4.261,12.537-10.408,15.913-17.763
	c2.034-2.999,4.258-6.011,4.747-9.715C2546.253,1416.32,2545.601,1409.509,2541.906,1404.477z"/>
<path id="path50505" sodipodi:nodetypes="csssssssssssc" fill="#F3D841" stroke="#000000" stroke-width="1.9961" stroke-linecap="round" stroke-linejoin="round" d="
	M2544.11,1381.458c-0.78-1.469-1.737-1.917-2.333-2.25c-0.503-0.28-1.329-0.384-2.134,0.043c-0.729,0.388-1.601,1.395-2.425,1.835
	s-2.154,0.6-2.887,0.99c-0.806,0.428-1.181,1.171-1.229,1.744c-0.058,0.68-0.221,1.724,0.56,3.192
	c0.781,1.469,1.949,2.396,2.988,2.883c1.019,0.478,1.812,0.596,2.398,0.579c0.53-0.015,1.746-0.773,2.53-1.189
	c0.784-0.417,2.082-0.998,2.39-1.427c0.343-0.478,0.688-1.201,0.861-2.313C2545.008,1384.413,2544.892,1382.926,2544.11,1381.458z"
	/>
<path id="path50507" sodipodi:nodetypes="csssssssssssc" fill="#F3D841" stroke="#000000" stroke-width="1.9961" stroke-linecap="round" stroke-linejoin="round" d="
	M2533.655,1391.131c-1.332,0.708-1.712,1.628-1.996,2.199c-0.24,0.481-0.305,1.287,0.123,2.091c0.388,0.729,1.355,1.622,1.795,2.446
	c0.439,0.825,0.64,2.133,1.029,2.866c0.428,0.805,1.132,1.201,1.665,1.271c0.633,0.083,1.607,0.283,2.939-0.425
	c1.331-0.708,2.146-1.816,2.558-2.815c0.403-0.979,0.482-1.751,0.444-2.327c-0.034-0.52-0.784-1.74-1.2-2.524
	c-0.417-0.785-1.006-2.078-1.416-2.396c-0.456-0.354-1.14-0.72-2.177-0.933C2536.361,1390.367,2534.986,1390.422,2533.655,1391.131z
	"/>
<path id="path50509" sodipodi:nodetypes="csssssssssssc" fill="#F3D841" stroke="#000000" stroke-width="1.9961" stroke-linecap="round" stroke-linejoin="round" d="
	M2547.528,1383.754c1.332-0.708,2.307-0.508,2.939-0.425c0.533,0.07,1.237,0.466,1.665,1.271c0.388,0.729,0.587,2.031,1.023,2.856
	c0.438,0.826,1.411,1.724,1.801,2.456c0.428,0.805,0.363,1.61,0.123,2.091c-0.285,0.571-0.664,1.491-1.996,2.199
	s-2.706,0.764-3.765,0.546c-1.037-0.213-1.722-0.579-2.177-0.933c-0.412-0.319-1.005-1.623-1.421-2.406
	c-0.418-0.785-1.161-1.996-1.195-2.514c-0.038-0.576,0.041-1.348,0.444-2.327C2545.382,1385.57,2546.197,1384.462,2547.528,1383.754
	z"/>
<path id="path50511" fill="#F3D841" stroke="#000000" stroke-width="1.9961" stroke-linecap="round" stroke-linejoin="round" d="
	M2548.27,1384.731c1.342-0.838,3.419,0.02,3.18,1.792c0.292,1.851,2.477,3.008,2.535,4.809c-0.863,3.041-6.082,3.184-6.979,0.057
	c-0.578-1.429-1.894-2.912-0.883-4.484C2546.571,1385.965,2547.328,1385.18,2548.27,1384.731z"/>
<path id="path50513" fill="#F3D841" stroke="#000000" stroke-width="1.9961" stroke-linecap="round" stroke-linejoin="round" d="
	M2540.403,1380.253c2.294-0.123,3.411,2.728,3.29,4.706c0.062,1.624-1.102,2.821-2.582,3.237c-1.292,0.973-3.087,1.537-4.438,0.347
	c-1.626-0.963-3.215-3.432-1.999-5.201c1.714-0.906,3.886-1.064,5.141-2.754C2539.996,1380.458,2540.179,1380.302,2540.403,1380.253
	z"/>
<path id="path50515" sodipodi:nodetypes="ccccscccccccc" fill="#F3D841" stroke="#000000" stroke-width="1.5048" d="
	M2543.387,1393.019c0.657-0.33,1.638-0.319,2.059,0.374c0.162,0.243,1.01,1.574,1.278,1.721c0.469,0.316,2.355,2.53,2.938,2.657
	c0.275,0.111,0.778,0.077,1.213,0.357c0.436,0.28,0.802,0.875,0.912,1.165c0.042,0.586,0.009,0.894-0.338,1.314
	c-0.434,0.496-4.691,2.974-6.286,3.001c-0.603,0.054-1.256-0.231-1.451-0.839c-0.315-0.848,0.019-1.75,0.055-2.615
	c0.127-1.032,0.095-2.127-0.425-3.057c-0.403-0.868-1.013-1.733-0.948-2.732C2542.45,1393.783,2542.793,1393.185,2543.387,1393.019z
	"/>
<path id="path50517" fill="#F3D841" stroke="#000000" stroke-width="1.9961" stroke-linecap="round" stroke-linejoin="round" d="
	M2534.401,1392.104c1.924-0.99,4.846-0.318,5.364,2.016c0.912,1.336,1.827,3.099,0.709,4.598c-0.792,1.537-3.01,2.918-4.598,1.731
	c-0.802-1.981-1.472-4.103-3.069-5.611C2532.314,1393.712,2533.451,1392.534,2534.401,1392.104z"/>
<path id="path50519" fill="#F3D841" stroke="#000000" stroke-width="1.5048" d="M2543.992,1394.038
	c1.049-0.088,1.157,1.62,1.999,2.037c1.167,1.289,2.483,2.692,4.179,3.051c0.822,0.434,0.214,1.017-0.45,1.176
	c-1.494,0.819-3.187,2.22-4.887,1.949c-0.161-1.694,0.744-3.526-0.196-5.158c-0.265-0.875-1.387-2.083-0.835-2.954
	C2543.87,1394.113,2543.917,1394.049,2543.992,1394.038z"/>
<path id="path50521" sodipodi:rx="7.3882399" sodipodi:type="arc" sodipodi:ry="10.970416" sodipodi:cx="188.88519" sodipodi:cy="200.51947" fill="#F3D841" stroke="#000000" stroke-width="0.843" stroke-linecap="round" stroke-linejoin="round" d="
	M2538.584,1394.89c1.344,2.528,4.483,3.488,7.011,2.144c2.528-1.344,3.488-4.483,2.144-7.012c-1.344-2.528-4.483-3.488-7.011-2.144
	C2538.199,1389.223,2537.239,1392.362,2538.584,1394.89z"/>
<path id="path50523" fill="#F3D841" stroke="#000000" stroke-width="2.4272" stroke-linecap="round" stroke-linejoin="round" d="
	M2541.458,1388.584c4.628-1.063,7.155,3.605,4.484,7.032c-3.182,2.464-6.174-0.393-6.521-2.454
	C2539.102,1391.844,2539.297,1389.574,2541.458,1388.584z"/>
<path id="path50525" sodipodi:nodetypes="ccccccccccccc" fill="#F3D841" stroke="#000000" stroke-width="1.98" d="
	M2458.014,1331.608l0.919,2.375h-3.565l1.108-2.433l-2.425,1.242l0.021-3.904l2.437,1.203l-1.072-2.497l3.574,0.116l-0.989,2.352
	l2.334-1.165l-0.153,3.795L2458.014,1331.608z"/>
<path id="path51504" sodipodi:nodetypes="cssssssssc" fill="#F3D841" stroke="#000000" stroke-width="1.98" d="M2398.613,1580.572
	c-0.209,0.209-2.841-0.279-4.2-0.279c-1.494,0-2.987,0-4.48,0c-1.489,0-1.243,1.383-1.96,2.1c-1.044,1.043-1.54,1.699-1.54,3.641
	c0,0.967,2.267-0.141,3.22-0.141c1.4,0,2.8,0,4.2,0c1.96,0,1.891-0.49,2.8-1.4c0.856-0.855,0.959-1.379,1.681-2.1
	C2399.178,1581.547,2398.943,1582.227,2398.613,1580.572z"/>
<path id="path51506" sodipodi:nodetypes="csssssssc" fill="#F3D841" stroke="#000000" stroke-width="1.98" d="M2403.233,1574.832
	c0.229-0.23-3.225-0.84-4.341-0.84c-1.536,0-3.383,0.636-4.76,0.98c-1.049,0.262-1.72,1.719-2.24,2.239
	c-1.069,1.069-1.738,1.845-1.26,2.8c0.138,0.275,3.817,0.42,4.34,0.42c1.087,0,2.644,0.141,3.92,0.141
	c1.601,0,2.194-1.447,2.66-2.38C2402.136,1577.027,2402.674,1576.229,2403.233,1574.832z"/>
<path id="path51508" sodipodi:nodetypes="csssssssc" fill="#F3D841" stroke="#000000" stroke-width="1.98" d="M2407.293,1569.371
	c0.753-1.504-2.518-1.119-4.2-1.119c-1.399,0-2.8,0-4.2,0c-1.956,0-2.8,0.237-2.8,2.24c0,1.836-1.976,2.176-1.54,3.92
	c0.004,0.016,6.474-0.097,6.86,0c1.631,0.408,2.308,0.213,3.08-0.561c0.876-0.876,1.266-1.825,2.24-2.8
	C2407.344,1570.441,2407.293,1570.904,2407.293,1569.371z"/>
<path id="path51510" sodipodi:nodetypes="cssssssssc" fill="#F3D841" stroke="#000000" stroke-width="1.98" d="M2389.793,1585.893
	c0.021-0.021-3.06,0.06-3.78,0.42c-0.937,0.469-2.449,3.009-3.221,3.78c-0.78,0.78-0.425,1.271,0.229,1.565
	c0.652,0.295,1.603,0.395,2.012,0.395c1.402,0,1.756,1.416,4.061,0.84c1.317-0.329,1.789-1.454,2.8-1.96
	c1.388-0.694,1.105-1.806,1.82-2.521c1.321-1.32,0.594-1.593-0.7-2.239C2391.624,1585.479,2391.197,1586.174,2389.793,1585.893z"/>
<path id="path51512" sodipodi:nodetypes="csssssc" fill="#F3D841" stroke="#000000" stroke-width="1.98" d="M2387.133,1592.333
	c-1.223-0.611-2.159-0.979-4.061-0.979c-1.702,0-3.087,2.525-3.78,3.22c-1.318,1.318-0.014,3.077,1.12,3.36
	c1.221,0.305,2.934,0,4.2,0c1.9,0,0.933-0.934,1.82-1.82C2387.462,1595.083,2387.813,1593.186,2387.133,1592.333z"/>
<path id="path51514" sodipodi:nodetypes="csssssc" fill="#F3D841" stroke="#000000" stroke-width="1.98" d="M2384.052,1599.053
	c0.945-0.944-2.343-1.355-3.64-1.68c-1.208-0.302-1.725-0.619-2.521-0.42c-0.92,0.23-2.66,2.445-2.66,3.36
	c0,1.942,1.298,2.94,3.221,2.94c1.447,0,2.077-0.38,3.36-0.7C2382.47,1602.389,2384.052,1599.361,2384.052,1599.053z"/>
<path id="path51516" fill="#F3D841" stroke="#000000" stroke-width="1.98" d="M2510.339,1568.531c-0.629,0-3.002,0-4.48,0
	c-1.518,0-3.08-0.59-3.08,1.121c0,2.18,1.295,2.887,2.8,3.64c1.008,0.504,1.84,0.84,3.641,0.84c1.338,0,3.006-0.052,3.92-0.28
	c1.249-0.313-1.082-2.93-1.12-3.08C2511.887,1570.244,2510.656,1568.929,2510.339,1568.531z"/>
<path id="path51518" sodipodi:nodetypes="cssssssssssssc" fill="#F3D841" stroke="#000000" stroke-width="1.98" d="
	M2513.839,1573.992c-0.351,0-1.599,0-2.38,0c-0.747,0-1.494,0-2.24,0c-0.896,0-1.403,0.105-2.101,0.279
	c-0.46,0.115-0.279,1.363-0.279,1.82c0,1.387,0.968,2.076,1.54,3.221c0.401,0.803,1.29,1.721,1.68,2.24c0.172,0.229,2.025,0,2.38,0
	c0.228,0,1.525-0.42,2.24-0.42c0.625,0,3.033-0.373,3.36-0.701c0.55-0.549-1.45-2.199-1.68-2.66c-0.237-0.473-0.516-1.169-0.7-1.539
	c-0.386-0.771-0.529-1.219-0.98-1.82C2514.475,1574.14,2514.168,1574.123,2513.839,1573.992z"/>
<path id="path51520" fill="#F3D841" stroke="#000000" stroke-width="1.98" d="M2518.6,1580.853c-0.072-0.096-2.05,0-2.66,0
	c-0.781,0-1.46,0.14-2.24,0.14c-0.726,0-0.83,0.42-1.681,0.42c-1.394,0-0.378,0.588-0.14,1.541c0.119,0.475,0.75,1.22,0.979,1.68
	c0.309,0.615,1.06,0.879,1.54,1.119c0.598,0.299,1.48,0.297,2.101,0.421c0.856,0.171,1.924,0,2.8,0c0.943,0,1.623,0.229,1.82-0.56
	c0.158-0.635-0.621-1.521-0.84-1.961c-0.288-0.575-0.551-0.961-0.84-1.54C2519.141,1581.516,2519.168,1581.564,2518.6,1580.853z"/>
<path id="path51522" fill="#F3D841" stroke="#000000" stroke-width="1.98" d="M2521.259,1586.593c-0.459-0.919-2.052-0.14-3.08-0.14
	c-0.743,0-1.413,0.002-2.1,0.14c-0.957,0.191-1.034,0.591-0.561,1.54c0.122,0.243,0.28,0.467,0.421,0.699
	c0.432,0.721,0.611,1.592,1.119,2.101c0.515,0.515,0.597,0.999,1.4,1.4c0.672,0.335,1.773,0.14,2.521,0.14c0.793,0,1.587,0,2.38,0
	c0.873,0,1.202-0.049,1.4-0.84c0.099-0.396-1.102-1.643-1.261-1.96c-0.403-0.807-0.794-1.076-0.979-1.82
	C2522.418,1587.446,2521.611,1586.805,2521.259,1586.593z"/>
<path id="path51524" sodipodi:nodetypes="cssssssssc" fill="#F3D841" stroke="#000000" stroke-width="1.98" d="M2525.039,1592.753
	c-0.009-0.036-2.193,0-2.8,0c-0.747,0-1.493,0-2.24,0c-0.614,0-0.376,1.437-0.28,1.82c0.218,0.868,0.7,1.267,0.7,2.239
	c0,0.377,2.288,0.794,2.521,0.841c0.64,0.128,1.445,0,2.1,0c0.641,0,2.66,0.229,2.66-0.42c0-0.761-0.562-1.544-1.119-2.66
	C2526.132,1593.678,2525.563,1593.625,2525.039,1592.753z"/>
<path id="path51526" fill="#F3D841" stroke="#000000" stroke-width="1.98" d="M2527.865,1597.838
	c-0.513-0.053-2.367-0.053-3.365,0.197c-1.347,0.337-1.98-0.563-1.98,1.188c0,1.296-0.016,1.767,0.594,2.376
	c0.456,0.455,1.495,0.813,2.376,0.99c0.873,0.174,0.8,0.791,2.179,0.791c1.307,0,1.375-0.582,1.979-1.188
	c0.669-0.669-0.665-2.207-0.792-2.376C2528.5,1599.343,2528.308,1598.574,2527.865,1597.838z"/>
<path id="path51528" fill="none" stroke="#000000" stroke-width="1.98" d="M2502.72,1569.523c-0.684-0.402-1.474-1.672-2.178-2.376
	c-0.677-0.677-1.218-1.613-1.782-2.179c-0.692-0.691-1.075-1.272-1.584-1.781c-0.631-0.631-1.114-0.935-1.98-1.584
	c-0.572-0.43-1.526-2.459-1.782-2.971"/>
<path id="path51530" fill="none" stroke="#000000" stroke-width="1.98" d="M2406.453,1571.893c1.171-0.418,2.348-2.068,3.36-3.081
	c1.18-1.18,1.27-1.699,1.96-3.08c0.735-1.47,1.801-1.642,2.521-3.08c0.715-1.431,2.611-3.452,3.64-4.479
	c0.604-0.604,1.164-1.488,1.4-1.961"/>
<path id="path2478" sodipodi:nodetypes="cssc" fill="#F3D841" stroke="#000000" stroke-width="1.98" d="M2362.536,1613.183
	c1.601-0.319,3.038,0.532,3.267,0.989c0.336,0.674-2.812,1.684-3.564,1.684C2361.772,1615.855,2362.422,1613.635,2362.536,1613.183z
	"/>
<path id="path3457" fill="#F3D841" stroke="#000000" stroke-width="1.98" d="M2363.427,1608.826
	c0.367-0.129,1.199-0.803,1.484-1.089c0.169-0.169-0.543-0.543-0.792-0.792c-0.354-0.354-0.568-0.488-0.989-0.594
	c-0.52-0.13-0.588-0.507-0.892,0.099c-0.207,0.413-0.297,0.558-0.297,1.188c0,0.494,0,0.99,0,1.484c0,0.715,0.495,0.148,0.792,0
	C2362.998,1608.991,2363.068,1608.916,2363.427,1608.826z"/>
<path id="path2482" sodipodi:nodetypes="cssc" fill="#F3D841" stroke="#000000" stroke-width="1.98" d="M2361.744,1607.342
	c0.919,0-1.213,1.682-0.99,2.574c0.208,0.832,2.31,0,3.168,0C2364.929,1609.916,2362.262,1608.205,2361.744,1607.342z"/>
<path id="path2486" fill="#F3D841" stroke="#000000" stroke-width="1.98" d="M2364.516,1617.043c1.004,0,1.687-0.74,2.771-0.197
	c0.628,0.313-0.89,1.088-1.386,1.584C2364.934,1619.397,2364.727,1618.099,2364.516,1617.043z"/>
<path id="path5429" sodipodi:nodetypes="cssssc" fill="#F3D841" stroke="#000000" stroke-width="1.98" d="M2556.365,1617.065
	c0.726-0.356,3.73-2.154,3.928-2.096c0.71,0.21-0.464,1.715-0.981,2.328c-0.456,0.541-0.492,1.551-0.702,2.049
	c-0.148,0.351-1.588,0.364-2.026-0.317C2556.146,1618.348,2556.429,1617.252,2556.365,1617.065z"/>
<path id="path6400" fill="#F3D841" stroke="#000000" stroke-width="1.98" d="M2538.061,1599.334c0.06-0.196,0.886-1.166,1.26-1.541
	c0.434-0.434,0.854-0.566,1.4-0.84c0.548-0.274,1.037-0.279,1.819-0.279c1.211,0,0.881,0.424,0.141,0.979
	c-0.368,0.276-0.677,0.933-0.841,1.26c-0.235,0.472-0.674,0.815-0.979,1.12c-0.49,0.49-0.711,0.705-1.26,0.98
	C2539.179,1601.225,2538.218,1599.597,2538.061,1599.334z"/>
<path id="path8340" sodipodi:nodetypes="csssc" fill="none" stroke="#000000" stroke-width="1.98" d="M2570.039,1624.369
	c-0.906,0.28-1.003,2.33-1.979,2.574c-0.981,0.245-0.911,0.891-2.178,0.891c-0.99,0-1.387,0.298-2.376,0.298
	c-1.14,0-1.896,0.177-2.772,0.396"/>
<path id="path9313" fill="#DAA520" stroke="#000000" stroke-width="1.98" d="M2569.445,1619.717c0.438-0.236,0.742-0.594,0.99-1.09
	c0.301-0.601,0.41-0.424,0.693-0.494c0.479-0.12,0,0.989,0,1.484c0,0.506-0.006,1.014-0.1,1.386c-0.086,0.347-0.59,0.52-0.891,0.595
	c-0.217,0.054-0.91-0.613-0.99-0.693c-0.401-0.401-0.721-0.171-0.297-0.594C2569.146,1620.017,2568.977,1620.068,2569.445,1619.717z
	"/>
<path id="path10284" fill="#DAA520" stroke="#000000" stroke-width="1.98" d="M2571.228,1626.053
	c-0.061-0.201-0.106-1.118-0.198-1.485c-0.099-0.396-0.394-0.585-0.495-0.99c-0.085-0.339-0.832,0.733-0.891,0.792
	c-0.234,0.234-0.099,0.658-0.099,0.99C2569.545,1625.573,2571.023,1625.971,2571.228,1626.053z"/>
<path id="path16153" sodipodi:nodetypes="csssssc" fill="#FFFFFF" d="M2451.616,1708.435c0.493-2.098-2.743-8.627-3.459-10.536
	c-1.061-2.83,1.038-4.794,1.925-5.977c1.23-1.642,2.14-6.735,2.814-8.536c0.729-1.947-0.022,5.565-0.752,7.513
	c-0.678,1.808-2.398,3.917-2.398,6.556C2449.746,1699.344,2452.104,1705.832,2451.616,1708.435z"/>
<path id="path16155" sodipodi:nodetypes="csssssc" fill="#FFFFFF" d="M2457.589,1708.435c-0.492-2.098,2.744-8.627,3.46-10.536
	c1.06-2.83-1.039-4.794-1.925-5.977c-1.23-1.642-2.141-6.735-2.815-8.536c-0.729-1.947,0.023,5.565,0.753,7.513
	c0.677,1.808,2.398,3.917,2.398,6.556C2459.46,1699.344,2457.102,1705.832,2457.589,1708.435z"/>
<path id="path3193" stroke="#000000" stroke-width="1.584" d="M2440.134,1375.49c-1.546-1.503-2.832-2.544-4.752-1.584
	C2435.108,1374.043,2437.75,1376.443,2440.134,1375.49z"/>
<path id="path4164" sodipodi:nodetypes="cssssssc" fill="#DD0000" stroke="#000000" stroke-width="1.98" d="M2460.182,1343.111
	c1.498,0,2.462-0.208,3.477,0.806c0.66,0.66,1.742,1.613,2.404,2.274c0.824,0.825,3.13,5.962,1.058,5.962
	c-1.4,0-5.818,0.198-7.219,0.198c-1.249,0-1.12-1.808-1.12-3.08c0-1.855,0.044-1.928-0.279-3.22
	C2458.101,1344.447,2458.717,1343.404,2460.182,1343.111z"/>
<path id="path4166" sodipodi:nodetypes="csssssss" fill="#DD0000" stroke="#000000" stroke-width="1.98" d="M2472.223,1345.92
	c0.756,0.756,1.444,1.577,1.68,2.52c0.385,1.54,0.143,2.515-0.28,3.36c-0.905,1.812-2.925,0.112-2.998-0.178
	c-0.152-0.611-0.796-4.215-1.6-5.449c-0.803-1.234-3.152-2.276-3.152-2.909c0-0.43,2.354,0.009,3.828,0.669
	C2471.176,1344.592,2471.773,1345.471,2472.223,1345.92z"/>
<rect id="rect2528" x="2056.736" y="1728.757" width="1000" height="91.244"/>
</svg>
