<?xml version="1.0" encoding="utf-8"?>
<!-- Generator: Adobe Illustrator 12.0.1, SVG Export Plug-In . SVG Version: 6.00 Build 51448)  -->
<!DOCTYPE svg PUBLIC "-//W3C//DTD SVG 1.1//EN" "http://www.w3.org/Graphics/SVG/1.1/DTD/svg11.dtd" [
	<!ENTITY ns_svg "http://www.w3.org/2000/svg">
	<!ENTITY ns_xlink "http://www.w3.org/1999/xlink">
]>
<svg  version="1.1" id="Baer" xmlns="&ns_svg;" xmlns:xlink="&ns_xlink;" width="2500" height="4140" viewBox="0 0 2500 4140"
	 overflow="visible" enable-background="new 0 0 2500 4140" xml:space="preserve">
<title>Flagge von Berlin</title>
<desc>die Flagge von Berlin</desc>
<g id="Flagge">
	<rect x="1066.075" y="1857.167" fill="#FF0000" width="356" height="210"/>
	<rect x="1066.075" y="1899.167" fill="#FFFFFF" width="356" height="126"/>
</g>
<g>
	<defs>
		<rect id="XMLID_1_" x="1172.875" y="1902.667" width="72.98" height="119"/>
	</defs>
	<clipPath id="XMLID_3_">
		<use xlink:href="#XMLID_1_" />
	</clipPath>
	<path id="Koerper" clip-path="url(#XMLID_3_)" d="M1217.305,1905.886l-7.123,0.258c-0.35,0.029-0.613,0.201-0.613,0.603
		c0.029,2.525,0.525,4.161,2.364,5.481c-0.234,1.406-0.088,2.124,1.401,3.3c0.146-1.148,0.613-1.665,1.343-2.152
		c0.058,0.029,0.117,0.029,0.146,0.058c-0.088,0.517-0.088,1.062,0.029,1.377c0.292,0.804,1.723,0.833,2.102,0.258
		c0.35,0.833,1.08,0.861,1.664,0.861c0.613,0,0.905-0.43,1.109-0.832c0.35,0.287,0.701,0.603,1.022,1.004
		c1.021,1.377,1.196,3.157,1.196,4.85c-0.321,0.029-0.642,0.058-0.963,0.086v-0.689c-0.029-0.976-2.335-1.148-2.861-0.315
		c-0.583-0.632-2.394-0.517-2.394,0.488v0.315c-0.409-0.517-0.729-1.062-0.993-1.607c-0.729,0.459-1.167,0.804-1.051,2.439
		c-0.321,0.028-0.642,0.057-0.934,0.086c0.029,1.895,0.875,2.411,7.765,2.268c0.175,1.894-1.751,2.956-3.182,3.846
		c-3.736,2.095-7.677,4.391-9.809,8.237c-1.78,3.042-2.219,6.658-2.014,10.16l2.043-0.89l0.234,1.091
		c-3.678,1.722-10.393,5.223-14.801,7.232c-1.08,0.488-3.882,1.176-4.466,0.201c-2.014-3.416-3.62-5.998-5.955-8.61
		c-4.174,1.808-6.101,3.473-7.677,7.29c3.298,4.965,8.757,12.083,17.807,12.14c9.371,0.058,17.516-3.329,19.296-3.846l0.379,1.177
		c-1.197,0.517-2.248,0.89-3.503,1.292c1.635,6.314,3.532,8.782,7.94,12.628l-0.905,0.66c-0.788-0.459-2.131-1.923-2.861-2.612
		c-9.371,4.362-12.874,8.725-15.122,13.231c-2.481,5.424-2.014,11.595-0.963,17.306c0.204,0.947-0.846,1.406-1.635,1.119
		c-2.16-0.488-3.357-2.612-5.43-3.387c-0.934-0.402-2.072-0.775-3.094-0.631c-2.394,3.357-2.102,5.051-1.781,9.27
		c3.153,1.521,6.539,1.894,10.042,3.674c2.306,0.918,4.525,2.411,7.152,2.009c1.488-0.144,2.978-1.147,3.123-2.698
		c1.314-5.567,3.153-11.479,7.473-15.498c2.073-2.009,4.759-3.616,7.415-4.85c-1.051-3.961-1.839-7.921-1.751-12.054l1.285-0.057
		c0.934,15.728,5.196,19.028,12.698,26.347c0.759,0.746,0.701,2.152-0.409,2.583c-1.459,0.718-3.182,0.775-4.846,0.833
		c-0.292,4.076,0.672,8.064,2.19,9.7c4.612-0.085,9.4-3.673,12.173-7.146c1.167-1.435,2.569-2.87,3.678-4.276
		c1.372-1.75-0.117-3.788-0.525-5.396c-1.139-4.592-1.664-17.794-1.723-19.631l1.635,0.029l0.234-3.329
		c-4.875-5.941-4.087-15.24-6.101-21.238c-0.788-2.439-1.664-4.965-1.664-7.548c0-3.501,4.028-10.074,3.941-15.929
		c-0.029-2.468-1.431-5.683-1.401-7.146c0.029-4.247,2.511-3.329,2.452-12.168c-0.029-2.439-0.321-4.248-0.963-6.745
		c4.35-4.506-1.635-9.012-5.079-6.199c-2.773-0.717-3.124-1.435-8.554-1.435C1222.852,1902.757,1220.195,1903.992,1217.305,1905.886
		z M1208.897,1932.204c-8.524-2.468-14.567-3.587-17.953-6.113c-3.415-2.554-2.014-8.036-6.013-11.164
		c-3.708-0.115-5.926,1.521-7.502,3.559c6.393,9.672-2.131,12.026,26.798,28.27
		C1204.11,1937.771,1205.833,1935.906,1208.897,1932.204z M1226.559,1911.339c-0.438,0-1.226-0.229-1.459-0.545
		c-2.54-3.817-3.182-2.439-3.561-1.119c-0.321,1.176-1.723,1.205-1.314-0.373c1.022-3.875,3.795-3.33,7.24,2.038H1226.559z
		 M1234.645,1907.464c0.701-0.918,1.781-1.808,2.948-2.181c1.722-0.574,2.423,0.804,1.051,1.263
		c-1.139,0.402-2.102,1.177-2.919,1.98L1234.645,1907.464z M1212.255,1912.43c0.438,0.258,1.051,0.574,1.956,0.832
		c-0.496,0.402-0.963,0.976-1.109,1.607C1212.313,1914.324,1211.992,1913.319,1212.255,1912.43z M1216.926,1913.951
		c0,0.373-0.088,0.746-0.205,0.918c-0.292,0.459-1.372,0.43-1.605-0.201c-0.088-0.258-0.088-0.717,0.029-1.148
		C1215.729,1913.664,1216.341,1913.778,1216.926,1913.951z M1217.275,1914.037c0.789,0.229,1.548,0.488,2.219,0.918
		c-0.146,0.344-0.409,0.689-0.934,0.689c-0.467,0-0.992-0.029-1.285-0.574C1217.13,1914.783,1217.188,1914.381,1217.275,1914.037z
		 M1215.699,1921.499l-1.722,0.144c-0.087-0.804,0-1.492,0.642-1.952c0.321,0.574,0.672,1.119,1.08,1.607V1921.499z
		 M1215.991,1921.484v-0.904c0-0.947,2.043-0.89,2.073,0v0.718L1215.991,1921.484z M1218.327,1921.269v-0.804
		c0-0.947,2.365-0.89,2.365-0.029v0.632L1218.327,1921.269z"/>
	<g clip-path="url(#XMLID_3_)">
		<path id="Zunge" fill="#FF0000" d="M1207.263,1913.606c0.029,7.347,11.064,3.731,14.567,5.482
			c-0.059-0.459-0.146-0.918-0.292-1.378c-1.781-0.631-4.321-0.201-7.036-0.631c-5.459-0.861-6.13-2.382-6.13-3.502
			C1208.343,1912.401,1207.263,1912.343,1207.263,1913.606"/>
		<g id="Krallen">
			<path id="Kralle" fill="#FF0000" d="M1182.479,2002.461c0,0,1.022-0.373,3.211,0.746c1.051,0.517,1.693-1.463,0.817-1.722
				C1183.822,2000.653,1182.479,2002.461,1182.479,2002.461"/>
			<g>
				<path id="Kralle_1_" fill="#FF0000" d="M1181.749,2004.27c0,0,1.021-0.373,3.211,0.746c1.051,0.517,1.693-1.463,0.817-1.722
					C1183.092,2002.461,1181.749,2004.27,1181.749,2004.27"/>
			</g>
			<g>
				<path id="Kralle_2_" fill="#FF0000" d="M1181.194,2006.135c0,0,1.022-0.374,3.211,0.746c1.051,0.517,1.693-1.463,0.817-1.722
					C1182.537,2004.327,1181.194,2006.135,1181.194,2006.135"/>
			</g>
			<g>
				<path id="Kralle_3_" fill="#FF0000" d="M1181.136,2008.115c0,0,1.021-0.373,3.211,0.746c1.051,0.517,1.693-1.464,0.817-1.722
					C1182.479,2006.307,1181.136,2008.115,1181.136,2008.115"/>
			</g>
			<g>
				<path id="Kralle_4_" fill="#FF0000" d="M1181.399,2010.125c0,0,1.021-0.373,3.211,0.746c1.051,0.517,1.693-1.463,0.817-1.722
					C1182.742,2008.316,1181.399,2010.125,1181.399,2010.125"/>
			</g>
		</g>
		<g>
			<g id="Krallen_1_">
				<path id="Kralle_5_" fill="#FF0000" d="M1223.593,2013.592c0,0,0.87-0.732,3.441-0.41c1.227,0.135,1.129-2.046,0.17-1.989
					C1224.25,2011.331,1223.593,2013.592,1223.593,2013.592"/>
				<g>
					<path id="Kralle_6_" fill="#FF0000" d="M1223.541,2015.634c0,0,0.87-0.732,3.441-0.41c1.227,0.135,1.129-2.046,0.171-1.989
						C1224.197,2013.373,1223.541,2015.634,1223.541,2015.634"/>
				</g>
				<g>
					<path id="Kralle_7_" fill="#FF0000" d="M1223.682,2017.671c0,0,0.87-0.732,3.441-0.41c1.227,0.135,1.129-2.046,0.17-1.989
						C1224.339,2015.41,1223.682,2017.671,1223.682,2017.671"/>
				</g>
				<g>
					<path id="Kralle_8_" fill="#FF0000" d="M1224.355,2019.644c0,0,0.869-0.732,3.44-0.409c1.227,0.135,1.129-2.047,0.171-1.989
						C1225.012,2017.383,1224.355,2019.644,1224.355,2019.644"/>
				</g>
				<g transform="matrix(0.98585,-0.362747,0.362747,0.98585,152.8742,556.3228)">
					<path id="Kralle_9_" fill="#FF0000" d="M1225.355,2021.532c0,0,0.87-0.732,3.441-0.41c1.227,0.134,1.129-2.047,0.17-1.989
						C1226.012,2019.271,1225.355,2021.532,1225.355,2021.532"/>
				</g>
			</g>
			<g>
				<g id="Krallen_2_">
					<path id="Kralle_10_" fill="#FF0000" d="M1179.206,1942.487c0,0,0.95,0.619,1.583,3.663c0.319,1.443,2.19,0.268,1.799-0.78
						C1181.416,1942.12,1179.206,1942.487,1179.206,1942.487"/>
					<g>
						<path id="Kralle_11_" fill="#FF0000" d="M1177.402,1943.427c0,0,0.95,0.618,1.583,3.663c0.319,1.442,2.19,0.268,1.799-0.781
							C1179.613,1943.059,1177.402,1943.427,1177.402,1943.427"/>
					</g>
					<g>
						<path id="Kralle_12_" fill="#FF0000" d="M1175.673,1944.581c0,0,0.949,0.619,1.583,3.663c0.319,1.442,2.191,0.268,1.799-0.78
							C1177.883,1944.213,1175.673,1944.581,1175.673,1944.581"/>
					</g>
					<g>
						<path id="Kralle_13_" fill="#FF0000" d="M1174.189,1946.3c0,0,0.949,0.618,1.583,3.663c0.32,1.442,2.191,0.268,1.799-0.781
							C1176.399,1945.933,1174.189,1946.3,1174.189,1946.3"/>
					</g>
					<g transform="matrix(0.662705,0.948407,-0.717713,0.895796,2492.198,-2039.701)">
						<path id="Kralle_14_" fill="#FF0000" d="M1172.896,1948.345c0,0,0.949,0.619,1.583,3.663c0.319,1.443,2.191,0.268,1.799-0.78
							C1175.106,1947.977,1172.896,1948.345,1172.896,1948.345"/>
					</g>
				</g>
				<g id="rote_Elemente">
					<g id="Krallen_3_">
						<path id="Kralle_15_" fill="#FF0000" d="M1182.222,1912.16c0,0,0.792,0.556,1.047,2.708c0.138,1.022,1.949,0.498,1.705-0.268
							C1184.255,1912.231,1182.222,1912.16,1182.222,1912.16"/>
						<g>
							<path id="Kralle_16_" fill="#FF0000" d="M1180.497,1912.535c0,0,0.792,0.556,1.047,2.708
								c0.138,1.023,1.949,0.498,1.705-0.269C1182.529,1912.606,1180.497,1912.535,1180.497,1912.535"/>
						</g>
						<g>
							<path id="Kralle_17_" fill="#FF0000" d="M1178.816,1913.066c0,0,0.792,0.556,1.047,2.708
								c0.138,1.023,1.949,0.498,1.705-0.268C1180.849,1913.137,1178.816,1913.066,1178.816,1913.066"/>
						</g>
						<g>
							<path id="Kralle_18_" fill="#FF0000" d="M1177.297,1914.016c0,0,0.792,0.556,1.047,2.708
								c0.138,1.022,1.949,0.498,1.705-0.269C1179.33,1914.086,1177.297,1914.016,1177.297,1914.016"/>
						</g>
						<g transform="matrix(0.500922,0.739494,-0.739494,0.500922,2724.41,-1655.876)">
							<path id="Kralle_19_" fill="#FF0000" d="M1175.917,1915.213c0,0,0.792,0.556,1.047,2.708c0.138,1.022,1.95,0.498,1.705-0.269
								C1177.95,1915.284,1175.917,1915.213,1175.917,1915.213"/>
						</g>
					</g>
				</g>
			</g>
		</g>
	</g>
</g>
</svg>
