<?xml version="1.0" encoding="utf-8"?>
<!-- Generator: Adobe Illustrator 12.0.1, SVG Export Plug-In . SVG Version: 6.00 Build 51448)  -->
<!DOCTYPE svg PUBLIC "-//W3C//DTD SVG 1.1//EN" "http://www.w3.org/Graphics/SVG/1.1/DTD/svg11.dtd" [
	<!ENTITY ns_svg "http://www.w3.org/2000/svg">
	<!ENTITY ns_xlink "http://www.w3.org/1999/xlink">
]>
<svg  version="1.1" id="svg1358" xmlns:svg="http://www.w3.org/2000/svg" xmlns="&ns_svg;" xmlns:xlink="&ns_xlink;"
	 width="1000" height="600" viewBox="0 0 1000 600" overflow="visible" enable-background="new 0 0 1000 600" xml:space="preserve">
<g id="Ebene_1">
	<rect id="rect1361" x="296.667" y="300" fill="#FFFFFF" width="406.667" height="122"/>
	<rect id="rect1363" x="296.667" y="178" fill="#E60000" width="406.667" height="122"/>
	<g id="g1365">
		<path id="Schildflaeche" fill="#FFFFFF" d="M439.199,227.485c0,17.178,0,34.244,0,51.49c0,17.149-1.236,35.254,2.473,49.13
			c3.507,13.125,11.12,23.544,20.46,31.142c4.694,3.817,9.888,7.039,16.302,9.444c6.309,2.364,13.506,4.229,21.698,4.158
			c16.369-0.142,28.788-6.181,37.998-13.603c9.348-7.532,16.869-18.218,20.236-31.366c3.568-13.935,2.476-31.907,2.475-49.13
			c-0.002-17.265,0.001-34.383,0-51.602c-40.512,0-81.021,0-121.531,0C439.18,227.167,439.188,227.326,439.199,227.485z"/>
		<path id="path1368" d="M439.311,227.148c40.51,0,81.02,0,121.53,0c0.001,17.219-0.002,34.337,0,51.602
			c0.001,17.223,1.095,35.195-2.474,49.13c-3.367,13.148-10.89,23.834-20.236,31.366c-9.211,7.422-21.629,13.461-38,13.603
			c-8.19,0.071-15.388-1.794-21.698-4.158c-6.414-2.405-11.607-5.627-16.301-9.444c-9.341-7.598-16.953-18.017-20.461-31.142
			c-3.708-13.876-2.473-31.98-2.473-49.13c0-17.246,0-34.313,0-51.49C439.188,227.326,439.18,227.167,439.311,227.148z
			 M440.435,228.947c0,16.876,0,33.658,0,50.591c0,12.633-0.425,25.901,0.562,37.326c0.323,3.739,1.191,7.146,2.137,10.566
			c1.859,6.739,4.474,12.383,7.644,17.652c1.584,2.632,3.609,4.598,5.734,6.857c2.086,2.218,4.133,4.402,6.408,6.296
			c4.452,3.706,9.967,6.87,16.077,9.218c6.149,2.365,13.297,4.161,21.135,4.161c7.911,0,14.937-1.873,21.024-4.272
			c9.541-3.761,16.237-8.838,22.484-15.402c2.143-2.251,4.132-4.347,5.734-6.971c3.164-5.185,5.828-11.05,7.645-17.649
			c3.71-13.472,2.586-31.168,2.586-48.006c0-16.958,0-33.803,0-50.703c-39.687,0-79.371,0-119.057,0
			C440.416,228.628,440.425,228.787,440.435,228.947z"/>
		<path id="path1370" fill="#E60000" d="M526.664,251.095c0.617,0.717,0.758,1.978,0.675,3.035
			c-0.351,4.427-3.112,8.161-7.757,8.432c-0.403-0.445-0.745-1.18-0.338-1.687c0.405-0.504,1.576-0.352,2.023-0.449
			C524.909,259.625,527.128,255.935,526.664,251.095z M473.149,260.313c1.637,1.017,3.26,3.144,5.959,2.36
			c1.013-2.313-1.491-1.664-3.036-2.024c-1.364-0.317-2.964-2.037-3.709-3.597c-0.782-1.635-1.003-3.207-1.125-5.284
			C470.22,254.993,471.803,258.352,473.149,260.313z M506.99,235.805c0.492,1.157,2.073,1.224,3.147,1.798
			c0.491,0.476,1.676,1.84,2.023,1.687C511.761,236.88,509.44,234.078,506.99,235.805z M504.403,234.006
			c-2.454,0.692-5.579,0.716-6.407,3.036c-1.032-0.029-1.419-0.885-1.237-1.799C497.232,232.869,502.129,233.276,504.403,234.006z
			 M551.734,282.91c-2.748-2.723-5.142-6.271-7.42-10.455c-1.445-2.655-3.417-5.598-4.946-8.432
			c-0.796-1.473-1.527-3.721-3.036-2.136c2.217,0.976,2.536,4.449-0.675,4.271c0.437,0.955,1.473,1.766,1.125,3.147
			c3.386,4.326,7.217,9.769,11.129,13.94c2.443,2.604,4.62,5.663,9.332,5.284c-0.542-1.354-1.534-2.52-2.361-3.71
			c-6.076-8.751-11.16-18.619-16.414-28.105c-0.243,0.505-0.766,0.733-1.349,0.899c0.833,0.567,2.03,1.667,1.237,3.148
			c4.342,7.724,9.038,15.695,13.827,22.597c0.001-0.113-0.091-0.134-0.113-0.225C551.938,283.08,551.816,283.016,551.734,282.91z
			 M508.226,234.231c-1.535,2.309-6.711,0.344-8.319,2.473c0.642,0.424,0.944,1.194,1.799,1.35c1.214,0.222,2.512-0.699,3.597-0.899
			c-0.05-0.549-1.074-0.124-1.124-0.674c2.145-1.252,3.458,1.736,5.733,1.798c2.814,1.682,2.991,6.004,4.835,8.658
			c-1.408-0.054-1.472-1.452-2.361-2.024c1.689,4.333-1.758,8.959-0.338,12.703c-2.933-0.282-1.412-4.272-0.787-5.958
			c-0.747,0.041-1.018,1.53-1.462,2.249c0.296,3.546-2.272,5.711-1.686,9.556c-1.089,0.815-1.882,2.1-1.349,3.935
			c-0.453-0.077-0.643,0.108-1.013,0.112c0.631-1.989,1.404-5.164,0.225-7.082c0.185,3.222-0.565,6.274-1.798,8.432
			c3.063-1.542,5.978-0.14,6.857,2.474c0.472,1.405,0.487,3.773,0.562,5.396c0.297,6.543-1.046,13.505-1.687,19.561
			c-0.182,1.717-0.313,3.288-0.225,4.722c0.312,5.093,3.801,7.292,4.946,11.693c-0.736,0.118-1.088-0.43-1.686-0.112
			c-0.705,1.882-0.938,4.234-1.574,6.183c-0.453,0.342-0.524-0.473-1.125-0.337c-0.491,0.182-0.353,0.996-0.786,1.236
			c-1.466-0.932-1.309-3.32-1.574-5.396c-0.146-1.146-0.476-2.253-0.563-3.26c-2.774-1.808-3.187,2.651-3.26,5.508
			c-0.143,5.55,1.94,8.627,6.745,9.106c2.074,0.208,3.853-0.294,4.723,0.9c0.247,0.341,0.19,0.872,0.336,1.236
			c0.356,0.888,1.12,1.534,1.125,2.362c-1.238-0.045-2.306-0.438-3.598-0.451c-1.068-0.01-1.965,0.438-2.923,0.563
			c-3.018,0.391-5.865-1.743-6.295-4.385c1.886,1.428,5.587,3.212,8.544,1.798c0.766,0.096,0.896,0.83,1.799,0.788
			c-0.367-0.926-2.4-2.672-3.485-1.012c-4.793,0.109-7.015-2.354-8.206-5.846c-0.137,6.132,2.319,10.645,4.721,14.614
			c4.582,5.308,18.064,2.454,22.147,8.545c1.033,1.541,1.803,4.353,1.35,7.081c-0.629,3.786-3.082,5.986-7.42,6.296
			c2.703-1.755,5.784-3.15,5.508-7.869c-0.26-4.479-4.395-6.711-8.544-7.645c-0.079,2.956,4.373,4.55,5.284,7.084
			c0.356,0.989,0.324,2.216-0.787,2.473c-1.125-0.656-1.91-1.749-2.923-2.587c-3.059-2.528-7.027-4.337-10.792-6.294
			c-5.174-2.693-8.363-6.593-9.332-13.492c-0.298,5.497,0.837,11.198,3.373,14.504c1.969,2.566,5.893,2.362,8.656,4.384
			c0.508,0.37,1.04,0.915,0.899,1.8c-0.267,0.369-1.094,0.179-1.686,0.225c0.858,1.914,3.069,2.477,4.384,3.934
			c-8.648-1.394-12.958-7.128-16.414-13.715c-0.023,5.541-0.354,11.255,1.574,14.952c0.587,1.124,1.45,1.947,2.137,3.261
			c0.418,0.803,0.452,2.547-0.113,3.26c-0.736,0.381-1.771,0.568-2.811,0.336c-0.242,1.632-1.071,3.276-1.911,3.936
			c-0.449-0.18-0.846-0.791-1.124-1.235c-0.478-0.763-0.863-1.435-0.899-2.7c-2.371,0.615-3.951-0.771-3.148-3.034
			c0.321-0.901,1.205-1.576,1.687-2.474c2.204-4.105,2.443-10.513,2.136-16.978c-3.23,6.59-7.896,11.743-15.853,13.604
			c1.286-1.15,2.934-1.939,3.935-3.372c-0.784-0.403-1.854-0.249-1.799-1.462c0.106-2.341,5.919-2.004,7.758-3.036
			c2.746-1.542,4.235-6.944,4.609-10.679c0.17-1.702,0.074-3.095,0.113-5.06c-0.712,1.737-0.85,3.463-1.463,4.946
			c-3.606,8.738-15.825,9.159-21.248,16.302c-0.995-0.615-0.538-2.648-0.226-3.26c1.069-2.1,4.892-3.674,5.396-6.521
			c-3.456,0.381-6.604,2.128-7.869,4.832c-1.172,2.507-0.502,5.721,1.124,7.532c1.092,1.218,2.607,1.775,3.71,2.812
			c-5.059,0.063-8.418-3.186-7.87-8.544c0.255-2.492,1.862-5.388,3.822-6.632c1.854-1.179,4.583-1.623,6.858-2.025
			c2.744-0.487,5.771-0.175,8.544-1.125c4.526-1.547,6.599-6.458,7.87-11.24c0.467-1.761,0.945-3.396,0.899-5.735
			c-1.612,3.237-4.581,6.089-9.555,4.947c-0.595,0.492-0.974,1.199-1.349,1.911c0.665-0.048,0.758-0.666,1.236-0.899
			c3.664,1.514,6.7-1.25,8.432-2.699c-0.581,3.706-3.025,5.956-6.97,5.396c-0.372-0.053-0.791-0.332-1.237-0.337
			c-1.542-0.016-2.519,1.308-3.935,1.125c-0.016-0.819,0.61-1.034,0.899-1.688c0.58-1.309,0.414-3.11,2.023-3.598
			c1.047-0.314,2.161-0.045,3.036-0.111c2.234-0.17,4.61-0.867,5.621-2.586c1.794-3.055,1.26-8.294,0.225-12.367
			c-0.192,0.005-0.292-0.084-0.337-0.225c-4.385-0.482-1.92,8.202-5.06,9.106c-0.395-0.13-0.081-0.968-0.449-1.125
			c-0.687-0.05-0.275,1-0.899,1.012c-1.011-0.983,0.37-3.093-1.237-3.259c-1.029-0.107-1.269,1.327-2.698,0.674
			c-0.477-3.244,1.956-5.146,3.373-7.42c1.015-1.631,1.963-3.315,2.136-5.846c0.617-9.06-3.792-17.29-3.149-27.657
			c0.144-2.307,0.711-3.932,1.35-6.071c1.108-0.69,2.277-1.32,4.272-1.124c0.372-1.24,0.438-2.784,0.899-3.935
			c0.836-0.438,2.489-0.061,3.261-0.563c-0.939-0.484-2.793-0.055-3.935-0.336c1.188-0.797,2.948-1.026,4.61-1.35
			c-0.484-0.64-2.038-0.211-3.036-0.337c1.63-2.492,3.004-5.239,6.184-6.184c-1.659-0.516-4.267-0.08-6.297-0.224
			c1.64-2.708,7.215-1.481,8.096-4.947c0.163-0.585-0.23-1.729,0.561-1.687c0.167,0.702-0.599,2.391-0.786,3.485
			c1.557-0.392,1.298-3.574,2.923-4.271c0.271,0.626,0.104,1.695,0.337,2.361c0.528-1.687,0.859-4.157,2.137-4.722
			c0.359,0.944-0.245,1.736-0.226,2.698c1.951-1.698,0.678-6.225-0.449-7.42c0.6-0.186,1.459-0.115,2.022-0.336
			c-2.906-0.229-5.121-2.281-7.869-2.698c-1.132-0.172-1.692-0.262-2.473-0.9c0.506-2.11,3.265-1.898,5.283-2.473
			c0.458-0.13,0.896-0.582,1.35-0.675C506.37,234.036,507.375,234.38,508.226,234.231z M447.405,235.692
			c4.315,0.951,9.266,1.252,14.728,1.012c4.138-0.182,8.209-0.085,11.243,1.349c1.667,1.57,3.148,5.165,1.911,8.207
			c-0.176-1.316,0.123-3.874-1.35-4.497c0.611,2.063,0.611,4.911-0.449,6.633c-1.172,1.904-3.975,2.453-5.733,3.597
			c-0.066,0.441,0.617,0.133,0.45,0.675c0.684,11.645,6.878,17.779,18.662,18.324c0.079,0.604-0.089,0.96-0.225,1.35
			c-6.638,0.061-11.488-1.989-14.84-5.846c-3.356-3.862-5.333-10.263-4.271-16.639c3.955,1.175,4.488-4.484,0.899-4.16
			c1.612-3.155-3.393-4.584-4.159-1.911c0.139,0.647,0.284,1.289,0.449,1.911c-3.559-0.769-2.867,5.094,0.337,4.16
			c-0.147,16.074,7.178,24.675,21.248,26.532c0.854,4.833,1.05,10.809,0.563,16.639c-0.257,3.067-0.388,6.166-0.675,8.544
			c-0.251,2.091-1.141,5.597-3.71,4.497c-1.723-2.499-1.893-6.402-2.248-10.118c-0.363-3.791-0.821-7.539-1.911-10.456
			c0.326,12.916-1.543,27.184-7.982,33.727c-1.12,1.139-2.813,1.972-4.834,2.023c2.215-12.729,3.789-26.599,3.26-41.709
			c1.73,1.201,3.463-0.155,4.272-1.461c0.631,4.072-0.412,7.883-0.787,11.804c-0.753,7.873-0.864,16.115-2.474,23.273
			c0.922-0.758,0.895-2.111,1.125-3.261c1.612-8.059,1.659-18.741,2.922-27.319c0.891,0.563,1.908,0.583,2.811,0.224
			c0.889-0.353,1.243-1.238,1.799-1.348c0.21,2.057,1.009,3.933,3.598,3.259c1.349,4.32-0.04,12.092,0.449,17.427
			c0.909-4.993,1.497-12.598,0.113-17.539c1.253-1.608,3.278-3.6,2.585-6.409c-1.269,2.171-1.381,6.599-5.172,5.509
			c-0.332-0.744-0.7-1.395-0.787-2.361c-0.154-1.72,1.141-3.789-0.111-4.497c-0.672,1.29-0.793,3.733-1.912,4.721
			c-2.244,1.981-3.462-0.595-3.26-3.26c0.107-1.409,0.975-3.118,0-3.598c-1.231,1.313-1.44,4.674-3.935,4.384
			c-0.93-0.107-1.405-1.027-1.236-2.36c0.225-1.775,1.955-3.567,1.687-4.61c-0.91,0.123-1.3,1.362-2.136,2.024
			c-0.715,0.566-1.651,1.001-2.923,0.674c-0.803-1.236,0.07-2.29,0.674-3.147c0.631-0.895,1.618-1.701,1.686-2.585
			c-1.309-0.39-3.396,2.562-5.059,0.787c0.024-2.412,2.202-2.67,3.148-4.16c-0.539-0.823-4.017,1.733-4.61-0.225
			c-0.535-1.769,2.385-2.376,3.261-3.373c-1.51-0.359-3.902-0.118-4.048-1.461c-0.176-1.626,2.343-1.156,3.374-2.024
			c-0.238-0.836-1.442-0.342-2.137-0.562c-0.668-0.211-1.303-0.79-1.237-1.35c0.137-1.142,2.027-0.63,2.923-1.236
			c-0.589-0.931-2.196-0.41-2.811,0c-0.541,0.361-0.513,0.777-0.898,1.349c-1.11,1.644-2.949,3.623-4.835,5.396
			c-2.87,2.698-6.306,5.806-11.13,3.485c4.544-5.237,10.275-9.287,14.502-14.839c-4.555,1.705-14.28,4.097-15.064-2.586
			c6.337-1.383,12.539-2.901,18.1-5.06C454.535,242.803,447.73,242.487,447.405,235.692z M460.559,238.278
			c0.517,0.382,1.296,0.502,1.573,1.125c-4.419,0.309-9.064-0.558-12.366-1.349c3.565,1.545,9.396,2.321,14.278,1.461
			c-0.613-0.249-1.24-0.485-1.574-1.012c0.794-0.479,2.229-0.319,3.147-0.674C464.146,237.763,462.054,237.998,460.559,238.278z
			 M459.997,246.598c-0.013-0.137-0.033-0.266-0.225-0.225c-4.546,1.6-9.24,3.052-15.065,3.373
			C451.004,250.33,455.428,248.112,459.997,246.598z M455.949,256.378c-1.794,2.127-4.006,4.2-6.07,5.958
			c-0.717,0.61-1.538,1.082-2.024,1.798c4.049-2.734,7.542-6.024,10.456-9.894C457.292,254.722,457.081,256.011,455.949,256.378z
			 M442.908,290.105c4.118-0.291,6.48-3.542,8.657-6.071c2.811-3.266,5.728-6.651,7.757-10.455c1.358-0.822,1.962-2.581,2.585-4.16
			c0.382-0.967,1.005-1.858,0.9-2.474c-3.188,0.222-2.733-3.217-0.675-4.271c-0.46-0.139-0.783-0.416-1.349-0.45
			c-4.714,7.465-7.961,16.996-13.94,22.822c4.917-7.336,9.23-15.279,13.154-23.609c-0.114-0.373-0.338-0.636-0.337-1.125
			c0.343-0.744,0.896-1.277,1.574-1.686c-0.655-0.17-1.034-0.617-1.574-0.899C454.563,269.008,448.694,279.515,442.908,290.105z
			 M535.321,276.727c2.193,7.615,4.595,15.359,7.308,22.485c1.097,2.883,2.749,5.591,3.146,8.769
			c-2.656-4.89-4.576-10.34-6.521-15.851c-1.963-5.57-3.627-11.421-4.945-17.538c-0.988,0.565-2.659,0.319-3.598-0.113
			c0.001,4.187,1.247,7.895,2.585,11.356c3.235,8.369,5.794,17.642,9.894,25.07c2.1,3.803,4.551,7.496,9.556,7.646
			c-2.937-7.313-6.942-15.245-8.656-24.172c-0.587-3.054-0.94-6.25-1.687-9.331c-0.418-1.727-1.177-3.592-1.799-5.396
			c-1.287-3.734-2.741-6.855-4.834-9.444c-0.631,0.567-1.904-0.099-2.474,0.112C534.72,271.793,534.66,274.432,535.321,276.727z
			 M462.919,271.219c-0.007-0.069-0.017-0.134-0.112-0.113c-2.267,3.495-3.875,6.913-4.947,11.355
			c-1.456,6.028-1.936,14.015-3.709,20.012c-1.747,5.903-4.561,11.972-6.295,17.651c0.88-0.095,1.548-0.401,2.473-0.45
			c3.361-1.538,5.125-4.675,6.633-7.983c4.57-10.023,8.153-21.737,11.355-32.828c-0.551-0.89-0.333-2.629-0.113-3.71
			c-1,0.574-2.175,0.798-3.485,0.338c-2.116,10.566-5.133,20.758-8.657,29.905c-0.501,1.3-0.737,2.814-1.799,3.823
			c2.684-8.522,5.651-17.358,7.982-26.084c0.412-1.538,0.71-3.086,1.125-4.609c0.444-1.628,0.58-3.135,0.899-4.834
			c0.196-1.047,0.954-2.094,0.898-2.586C464.426,271.233,463.7,271.429,462.919,271.219z M550.385,234.343
			c-0.248,6.5-6.854,7.608-13.828,7.758c5.566,2.341,12.181,3.635,19.225,4.497c-0.619,6.311-10.824,5.346-15.853,3.261
			c4.386,5.132,10.228,9.784,15.74,14.165c-1.381,1.39-4.31,1.44-5.958,1.012c-1.867-0.484-3.669-2.067-5.285-3.485
			c-2.188-1.919-4.007-3.333-5.508-5.508c-0.74-1.074-2.118-2.587-3.936-1.574c0.389,0.889,2.662,0.074,2.924,1.237
			c0.419,1.858-2.604,0.917-3.26,2.249c1.159,0.639,3.62-0.023,3.26,2.136c-0.736,0.875-2.39,0.833-3.71,1.125
			c0.391,1.413,3.431,1.138,3.147,3.598c-1.08,1.39-3.507-0.243-4.497,0.112c0.892,1.437,4.17,2.358,2.811,4.609
			c-1.789,0.382-3.245-1.083-4.497-1.236c-0.421,1.026,1.501,1.965,2.249,3.259c0.449,0.781,0.862,2.173,0,2.698
			c-2.729,0.292-3.342-2.125-4.946-2.585c-0.248,0.575,0.396,1.321,0.786,2.024c0.656,1.179,1.577,2.759,0.675,4.609
			c-3.053,0.922-3.496-2.526-4.835-4.048c-0.99,0.308-0.179,1.422,0,2.361c0.335,1.754,0.256,3.96-0.562,5.06
			c-3.428,0.611-3.556-2.934-4.497-5.171c-1.082,0.758-0.022,2.614,0,4.159c0.019,1.26-0.261,2.139-0.899,2.923
			c-3.733,0.605-3.748-3.434-5.171-5.509c-0.516,3.101,1.386,4.76,2.81,6.295c-1.23,5.473-0.366,12.393,0.676,17.539
			c0.165-5.409-1.002-11.542-0.226-17.201c2.494,0.095,3.623-1.174,3.485-3.71c0.838,1.177,3.352,2.152,4.722,1.124
			c1.446,7.141,1.625,15.537,3.036,22.598c0.547,2.742,0.64,5.61,2.023,7.757c-2.037-10.555-3.369-22.789-4.497-34.626
			c0.617-0.121,1.335,1.469,2.585,1.573c0.679,0.057,1.214-0.291,1.688-0.449c0.351,15.126,2.048,28.905,4.945,41.484
			c-2.791,0.355-4.337-1.508-5.958-2.697c-5.674-7.892-8.549-18.583-7.87-32.829c-0.516,0.695-0.563,1.7-0.786,2.585
			c-0.96,3.795-1.467,8.038-1.688,13.042c-0.077,1.776-0.179,3.582-0.787,5.06c-0.473,0.366-1.46,0.639-2.247,0.337
			c-2.43-2.838-2.353-7.163-2.812-11.805c-0.197-2.006-0.688-4.134-0.786-6.295c-0.178-3.9-0.021-7.989,0.449-11.355
			c13.09-2.5,20.813-10.366,20.236-26.532c3.238,0.584,3.84-5.19,0-4.385c2.512-4.204-6.198-4.296-3.822,0
			c-3.768-0.122-2.234,5.778,1.35,4.272c0.422,1.565,0.713,3.053,0.562,4.947c-0.844,10.575-7.795,17.36-18.887,17.538
			c-0.128-0.397-0.124-0.925-0.226-1.349c11.506-0.786,17.608-6.976,17.988-18.887c-0.047-0.384,0.034-0.64,0.45-0.562
			c-3.476-1.767-7.407-3.09-6.857-8.657c0.054-0.554,0.171-1.037,0.449-1.574c-1.201,0.115-1.797,3.08-1.012,4.497
			c-0.027,0.29-0.193-0.155-0.45,0c-1.469-5.666,1.122-9.421,6.409-9.781c3.122-0.212,6.874-0.067,10.455-0.224
			C543.582,235.619,547.466,234.803,550.385,234.343z M546.9,237.154c0.331-0.156,1.252-0.642,0.562-0.449
			c-3.144,1.243-7.83,2.135-11.916,1.686c0.234-0.664,1.153-0.645,1.46-1.237c-1.398-0.25-3.251-0.046-4.833-0.112
			c-0.147-0.015-0.813-0.017-0.451,0.112c0.301,0,0.602,0,0.9,0c0.824,0.151,1.773,0.176,2.585,0.338
			c-0.405,0.606-1.132,0.89-1.572,1.461C538.706,239.068,543.684,238.671,546.9,237.154z M538.356,245.473
			c-0.191-0.025-0.278,0.127,0,0.112c4.15,1.515,9.43,3.551,15.064,2.474C547.729,248.269,542.95,246.721,538.356,245.473z
			 M550.723,262.562c-4.021-2.65-7.56-6.382-10.904-9.331C542.859,256.86,546.521,260.466,550.723,262.562z"/>
		<path id="path1372" fill="#FDE44A" d="M514.635,314.502c3.299,5.546,6.887,10.801,10.117,16.413
			c1.963,0.204,3.284,0.034,4.161-1.235c0.575-0.833,0.481-2.137,1.012-2.923c0.903-1.344,3.739-1.075,5.283-0.337
			c0.011,1.077-2.232,1.201-2.697,0.449c-0.573,0.102-0.935,0.415-1.462,0.563c0.104,0.553,0.578,0.745,0.338,1.349
			c-0.31,0.18-0.681,0.296-1.125,0.337c-0.113,1.049-0.683,1.643-1.237,2.249c2.572,1.843,4.989-0.893,7.308-0.898
			c1.925-0.007,2.866,1.993,5.284,1.349c-0.036,0.376-0.115,0.708-0.337,0.898c0.362,1.025,1.617,1.155,1.91,2.248
			c-1.11,1.262-2.303-0.584-2.585-1.572c-1.248,0.162-1.641-0.534-2.474-0.788c-0.041,1.372-1.976,1.409-1.911-0.111
			c-2.929,0.175-6.447,2.231-8.769,0.449c0.035,0.859,1.08,1.152,1.799,1.573c0.696,0.411,1.638,0.869,2.248,1.35
			c0.382,0.303,0.594,0.776,1.013,1.013c0.629,0.354,1.504,0.274,1.798,1.011c-0.494,0.949,0.463,2.037,0,2.587
			c-1.627,0.271-1.305-2.362-3.148-2.249c-0.411-2.024-3.042-1.829-4.047-3.26c-0.995-0.093-2.184,0.01-2.474-0.786
			c-0.861,0.147-1.485,0.452-2.36,0.561c-0.852,0.106-1.814-0.246-2.587-0.111c-1.176,0.205-2.377,2.281-3.597,0.786
			c0.58-0.92,2.018-0.98,2.361-2.135c1.51-0.065,2.903-0.246,4.271-0.451c0.755-0.603-0.186-1.727-0.787-2.697
			c-2.719-4.395-6.543-8.745-9.219-12.817C512.814,315.829,513.09,314.531,514.635,314.502z M533.41,325.069
			c0.191,0.183,0.408,0.342,0.786,0.337c0.174-0.388,1.07-0.999,0.563-1.349C534.364,324.451,533.449,324.323,533.41,325.069z
			 M542.065,332.826c0.127,0.025,0.176,0.126,0.226,0.226c0.785-0.226,1.565-0.457,1.911-1.124
			C543.479,331.114,542.037,331.634,542.065,332.826z M517.558,333.502c0.156-0.182,0.397-0.276,0.337-0.676
			c-0.087-0.023-0.13-0.092-0.113-0.224C516.274,331.967,516.225,333.452,517.558,333.502z M534.982,339.011
			c0.492,0.146,1.05,0.226,1.688,0.226C536.824,338.183,534.849,337.502,534.982,339.011z"/>
		<path id="path1374" fill="#FDE44A" d="M487.428,318.773c-2.5,3.91-6.556,8.039-9.781,12.031c-0.274,0.34-1.249,1.443-1.125,1.91
			c0.347,1.302,3.292,0.089,4.385,0.45c0.318,0.505,0.546,1.103,0.898,1.574c0.345,0.18,1.022,0.026,1.013,0.563
			c-0.671,1.104-2.314,0.031-2.811-0.45c-0.556,0.08-1.12,0.152-1.799,0.111c-0.88-1.077-3.076-0.286-4.497-0.224
			c-0.403,1.058-1.269,1.654-2.586,1.797c-0.848,1.514-1.908,2.816-3.935,3.149c-0.605,1.243-0.375,3.878-2.136,3.597
			c0.063-1.052,1.144-2.651-0.225-3.485c2.064-2.133,5.025-3.369,6.521-6.069c-1.587-0.438-3.819-0.228-5.172-0.899
			c-0.431,0.75-1.667,1.379-2.023,0.112c-1.103,0.172-1.696,0.852-2.811,1.011c-0.595,0.605-0.649,1.751-1.349,2.249
			c-2.656,0.384-1.595-1.854-0.449-2.36c0.178-0.613-0.391-0.877-0.113-1.237c0.526-0.398,0.902-0.122,1.348-0.224
			c1.38-0.316,2.324-1.738,3.598-1.8c0.944-0.047,2.398,0.599,3.486,0.898c1.088,0.301,2.153,0.854,3.485,0.563
			c-1.179-0.695-0.601-3.146-2.361-3.26c-0.199-0.325-0.042-1.009-0.337-1.237c-0.806-0.117-2.312,0.429-2.922-0.337
			c-0.621,0.13-1.497,1.019-2.024,0.224c0.163-1.11,1.452-1.096,2.024-1.798c1.575,0.674,3.743,0.753,5.059,1.688
			c0.702,1.815,2.046,6.247,4.159,3.709c0.844-1.014,1.554-2.299,2.474-3.485c2.349-3.032,5.566-7.19,7.756-9.895
			c-0.02-0.095,0.044-0.105,0.113-0.111c0.431-0.164,1.074,0.319,1.688,0.337C487.065,318.237,487.212,318.539,487.428,318.773z
			 M464.605,325.745c0.195-0.18,0.41-0.341,0.338-0.787c-0.561-0.227-1.142-0.432-1.912-0.451
			C463.238,325.238,463.791,325.624,464.605,325.745z M483.155,332.715c-0.11,0.526-0.5,0.772-1.124,0.787
			C481.496,332.785,482.595,332.334,483.155,332.715z M458.76,332.94c0.521,1.004-0.767,1.317-1.575,1.011
			C457.289,333.128,457.924,332.72,458.76,332.94z M464.718,340.472c-0.019,0.356,0.298,0.377,0.225,0.788
			c-0.618,0.28-1.175,0.625-1.798,0.899C463.036,340.965,463.668,340.508,464.718,340.472z"/>
		<path id="Rechter_Kleestengel" fill="#FDE44A" d="M532.622,243.337c0.496,0.978,0,1.927-0.337,2.698
			c3.935-1.09,3.674,4.534,0,3.485c1.095,15.313-6.078,24.264-19.675,25.633c-0.118-0.595-0.284-1.14-0.337-1.799
			c5.469-0.747,10.281-2.253,13.716-5.508c4.02-3.811,6.824-11.378,4.722-18.55c-1.517,0.68-4.213-0.235-3.26-2.698
			c0.484-0.415,1.111-0.687,2.136-0.562C528.128,244.129,530.429,241.737,532.622,243.337z"/>
		<path id="Linker_Kleestengel" fill="#FDE44A" d="M466.967,249.183c-1.673,14.05,5.747,23.602,19.337,23.946
			c0.147,0.528,0.115,1.234,0.112,1.911c-6.546,0.229-12.026-2.848-15.29-6.52c-3.208-3.61-4.828-8.772-5.396-14.278
			c-0.162-1.57-0.087-3.214,0-4.834c-2.943,1.291-4.193-3.697-0.563-3.373c-0.063-0.43-0.591-1.561-0.224-2.473
			c1.759-1.91,4.727,0.786,2.698,2.585C471.671,245.264,470.596,251.174,466.967,249.183z"/>
		<path id="path1378" fill="#E60000" d="M505.191,245.249c-0.043,0.857-0.767,1.032-1.462,1.236
			C503.886,245.742,504.063,245.02,505.191,245.249z M504.179,243.674c0.401,0.161,0.932,0.193,1.351,0.337
			c-0.146-1.691-0.921-2.753-2.362-3.148C503.571,241.734,504.1,242.481,504.179,243.674z"/>
		<path id="Schnabel" fill="#FDE44A" d="M495.972,247.272c2.887-1.382,8.413,1.552,9.894-1.461c0.483-0.982,0.268-2.557,0-3.26
			c-0.957-2.518-5.728-4.004-8.319-2.136c-1.892-1.774-6.696-1.678-7.195,1.236c-1.127-2.625,1.148-4.568,3.484-4.833
			c0.525-0.517,0.898-2.284,2.136-1.35c0.529,3.218,4.465,2.878,7.42,4.047c1.685,0.667,3.857,2.288,4.16,3.822
			c0.333,1.69-0.762,3.436-1.688,4.16C503.373,249.448,498.504,248.212,495.972,247.272z"/>
		<path id="Zunge" fill="#E60000" d="M504.742,244.461c-4.268-0.42-9.909-0.261-13.717,0.787
			C494.177,243.134,500.668,243.238,504.742,244.461z"/>
		<path id="path1382" d="M509.351,234.568c4.64,1.694,2.791,10.476,6.633,12.591c-0.562,0.3-1.614,0.11-2.248,0.338
			c0.041,2.578-1.928,5.412-1.574,7.982c0.134,0.97,0.913,1.443,1.013,2.249c-0.834,0.784-2.134,0.154-3.036-0.226
			c-1.139,1.55-2.27,5.187-0.562,6.97c-1.213-0.125-1.947,0.227-2.361,0.899c-0.458,2.104,1.258,1.896,2.361,2.698
			c0.924,0.672,1.124,1.401,1.799,2.023c10.987,0.219,18.037-6.758,17.65-17.988c-0.242-0.432-0.852-0.497-1.349-0.674
			c0.144,3.024-0.214,5.926-1.688,8.095c-0.858,1.266-2.881,2.731-3.935,3.147c-1.625,0.644-4.191,0.498-3.372-2.024
			c2.03-0.705,4.418-1.053,5.733-2.473c0.32-1.063,1.105-1.864,1.462-3.148c0.279-1.007,0.699-2.979,0.337-4.16
			c-0.152-0.495-2.108-1.963-2.585-2.473c-1.269-1.358-2.585-3.002-2.362-5.958c0.147-1.938,0.818-3.876,2.023-5.059
			c2.385-2.34,7.291-1.943,11.693-2.137c5.852-0.257,11.248-0.427,15.964-1.798c0.044,6.677-5.119,8.147-10.793,9.106
			c0.879,0.746,2.197,1.012,3.373,1.349c3.922,1.125,8.528,1.675,13.267,2.248c-0.984,5.726-8.03,6.987-14.391,5.171
			c3.859,4.723,9.103,9.035,14.391,12.705c-1.134,1.182-2.695,1.895-4.723,1.911c-4.806,0.037-7.71-3.959-10.793-5.846
			c4.962,10.066,10.523,19.532,16.64,28.443c-4.437,1.509-7.477-1.904-9.781-4.384c-1.389-1.494-2.797-2.978-4.047-4.497
			c-2.736-3.325-5.096-6.9-7.532-9.556c1.985,3.338,4.204,6.726,5.396,11.017c1.187,4.273,1.898,9.002,2.811,13.716
			c1.758,9.091,6.07,16.546,8.77,24.396c-2.354-0.241-5.01-0.521-6.521-1.798c-0.914-0.773-1.968-2.385-2.812-3.599
			c-5.934-8.536-8.987-21.468-13.041-31.704c-0.284,1.631,0.032,3.412,0.112,5.171c0.125,2.735,0.033,5.578,0.337,8.207
			c1.059,9.121,2.563,18.086,4.272,25.971c-6.916-0.521-9.799-6.434-11.917-12.254c-2.197-6.041-3.606-12.359-3.148-20.125
			c-1.865,4.617-0.752,12.214-2.473,16.976c-0.651,0.36-1.497,0.527-2.586,0.45c-3.663-3.608-2.776-11.765-4.047-17.764
			c-1.676,6.894-1.763,15.181,1.573,19.675c0.469,0.632,1.141,1.293,1.462,2.023c0.869,1.977,0.611,4.291,1.687,6.07
			c2.947,4.886,5.847,8.978,8.544,13.604c2.045,0.768,3.407-0.251,3.936-1.686c0.21-0.573,0.041-1.374,0.337-1.912
			c0.414-0.753,1.869-0.824,2.923-1.462c0.438-0.264,0.956-1.03,1.462-1.235c1.211-0.493,2.851,0.033,3.935,0.449
			c-0.936,0.228-2.222,0.102-2.587,0.899c0.129,0.812,0.951,0.558,1.013,1.237c0.134,1.503-2.646,1.684-3.71,1.125
			c-0.509,0.222-0.023,0.954,0,1.349c-0.627,0.685-1.801,0.821-1.799,2.135c1.337,0.61,2.78-0.03,4.16-0.674
			c0.542-0.254,1.204-0.84,1.799-0.788c0.629,0.056,1.351,1.107,2.022,1.349c2.531,0.914,6.435-0.735,6.858,2.025
			c-0.733-0.371-2-0.294-2.248,0.45c0.035,0.813,0.789,0.826,0.674,1.572c-0.12,0.777-1.158,1.128-2.136,0.787
			c-0.784-0.271-1.549-2.031-2.811-2.022c-1.002,0.853-2.608,0.597-3.036-0.563c-1.646,0.338-3.133,0.839-4.609,1.349
			c0.67,1.919,3.576,2.568,5.396,3.711c0.352,0.586,0.482,1.392,0.563,2.247c-0.779-0.009-0.622-0.951-1.462-0.898
			c-0.82,0.386-0.496,1.402-1.236,1.687c-1.491,0.572-2.217-2.807-3.823-2.923c-0.087-0.438-0.417-0.633-0.562-1.014
			c-1.085-0.601-2.318-1.055-3.26-1.798c-2.546-0.537-4.482-0.535-7.195-0.113c-0.608,0.869-3.654,1.767-4.048,0.226
			c-0.237-0.932,0.47-1.053,0.787-1.8c-0.145-1.21-1.409-0.095-1.573-0.336c1.184-2.965,4.999,0.307,7.757-1.125
			c-2.956-5.101-6.439-9.674-10.23-13.941c-0.307,0.631-0.73,1.144-1.799,1.012c-0.289,0.273-0.196,0.928-0.675,1.013
			c-2.661-0.302-1.996-4.519-2.586-6.971c-0.101-0.419-0.402-1.832-1.012-1.91c-1.205-0.156-1.573,3.809-1.573,4.609
			c0,2.732,0.733,7.058,3.597,8.208c2.853,1.144,6.448-0.329,7.87,1.798c0.378,0.563,0.616,1.894,1.012,2.586
			c0.511,0.893,2.039,2.235-0.112,2.474c-0.826,0.091-1.22-0.524-2.023-0.675c-2.313-0.438-5.869,0.634-8.095-0.225
			c-0.816-0.316-1.113-0.882-1.799-1.349c0.186,1.934,1.088,3.838,2.023,5.283c0.919,1.419,2.221,2.871,3.936,3.597
			c2.708,1.147,6.051,1.317,9.106,1.911c6.084,1.187,11.482,3.021,11.692,10.119c0.179,6.074-5.282,10.716-11.354,7.756
			c4.205-0.085,7.907-2.347,8.094-6.521c0.181-4.031-3.127-6.697-6.633-7.308c0.572,2.262,4.273,3.517,4.722,6.296
			c0.162,1.008-0.294,2.886-1.574,2.699c-0.909-0.134-1.764-1.617-2.585-2.36c-2.562-2.322-6.081-3.987-9.22-5.51
			c-2.335-1.133-4.597-2.239-6.184-3.598c-1.804-1.544-2.876-3.882-4.159-5.621c0.688,3.939,1.291,7.561,4.497,9.669
			c1.658,1.09,4.991,1.506,6.633,2.586c1.187,0.779,2.299,2.271,0.9,3.598c1.522,1.624,3.494,2.801,5.732,3.71
			c-9.952,0.246-14.595-5.792-18.773-11.692c-0.692,4.944,0.059,9.799,1.91,12.928c0.627,1.059,1.724,2.018,2.024,2.923
			c0.607,1.837-0.561,4.531-2.924,3.936c-0.986,1.6-1.977,3.195-2.81,4.946c-1.229-1.508-2.039-3.433-3.26-4.946
			c-1.809,0.183-2.988-1.104-2.698-3.147c0.295-2.076,2.562-3.54,3.26-6.071c1.044-3.785,0.743-7.374,1.011-11.468
			c-0.806,0.552-1.157,1.509-1.686,2.249c-3.624,5.064-8.761,9.336-17.2,9.78c2.066-1.117,4.307-2.065,5.733-3.821
			c-0.666-0.865-1.242-2.157-0.338-3.148c3.149-1.86,7.962-1.349,9.669-4.497c1.055-1.946,1.69-4.682,2.136-7.532
			c-1.085,1.633-2.531,3.661-4.272,5.171c-3.338,2.898-8.455,4.207-12.367,6.972c-0.774,0.546-1.706,1.283-2.698,2.135
			c-0.967,0.832-3.151,3.84-3.71,0.898c-0.806-4.236,3.981-5.506,5.059-8.318c-3.686,0.141-7.516,4.107-6.52,8.433
			c0.741,3.217,3.61,5.371,7.532,5.621c-4.09,2.081-8.768-0.271-10.455-3.263c-2.054-4.447-0.083-9.6,2.586-11.691
			c4.937-3.865,15.229-1.513,19.786-6.07c1.517-1.516,2.126-3.392,2.924-5.846c-1.36,0.494-3.633,1.344-5.959,1.237
			c-0.778-0.037-1.614-0.431-2.361-0.339c-1.31,0.162-2.359,1.621-3.485,0.676c0.633-0.871,0.903-1.617,1.235-2.474
			c0.503-1.29,0.633-2.879,1.912-3.485c2.42-1.15,6.968,0.032,8.544-2.474c0.85-1.35,1.231-4.646,1.124-7.083
			c-0.071-1.614-0.111-4.411-1.124-4.497c-0.443-0.037-0.955,0.541-1.124,0.899c-0.683,1.434-0.53,3.594-1.125,5.284
			c-0.424,1.204-1.121,2.111-1.911,2.811c-0.829-0.221-1.823-0.276-2.248-0.899c-3.714,4.38-7.487,8.702-11.131,13.153
			c2.293,1.071,5.699-1.252,7.42,0.451c-0.412,0.561-1.263,0.685-1.799,1.123c0.11,0.834,0.88,0.628,0.675,1.462
			c-0.28,1.144-2.902,0.749-3.373-0.113c-2.072,0.282-3.638-0.873-5.508-0.224c-1.156,0.402-1.837,1.855-3.148,2.023
			c-0.484,1.953-3.179,1.91-4.047,3.485c-0.474,0.858-0.119,1.982-0.898,2.811c-0.581,0.125-1.063,0.451-1.687,0.224
			c-0.452-0.185-0.239-1.034-0.45-1.461c-0.921,0.052-1.154,0.794-1.349,1.573c-0.589-0.985-0.257-2.619,0.225-3.484
			c0.31-0.178,0.66-0.313,1.011-0.45c1.306-2.516,4.912-2.731,5.734-5.732c-1.085-0.192-2.407-1.017-3.598-0.788
			c-0.524,0.102-0.646,0.631-1.124,0.675c-0.612,0.058-0.921-0.525-1.461-0.563c-0.536-0.034-1.667,0.489-2.024,0.787
			c-0.587,0.489-0.559,1.493-1.237,2.023c-0.701,0.327-1.856,0.246-2.474-0.111c-0.456-0.506,0.137-1.366-0.337-1.8
			c-0.572-0.484-1.036,0.575-1.349,0.337c-0.06-2.705,3.199-2.219,5.621-3.372c0.659-0.313,1.428-1.213,2.136-1.349
			c2.006-0.387,4,1.395,5.846,1.574c0.834-1.705-1.183-2.383-1.687-3.485c-1.894-0.425-3.085,0.079-4.833-0.113
			c-0.521-0.733-0.008-1.61,0.338-2.135c-0.371-0.644-1.393-1.104-2.361-0.788c0.581-0.648,1.431-1.277,2.249-1.237
			c0.568,0.03,1.007,0.632,1.573,0.899c1.686,0.8,4.128,1.251,5.847,1.687c0.854,0.603,1.069,4.729,2.585,4.723
			c0.768-0.003,2.583-2.685,3.034-3.261c2.679-3.416,5.53-7.599,7.871-10.681c-1.222-2.506,0.758-4.101,1.798-5.509
			c1.735-2.349,3.209-5.385,3.486-9.442c0.149-2.182-0.391-4.347-0.787-6.41c-0.599-3.104-0.536-5.582-1.237-8.882
			c-1.221,6.125,0.047,14.738-2.811,19.225c-3.928,2.291-4.526-3.853-4.833-7.308c-0.333-3.727-0.455-7.149-1.35-9.443
			c0.489,8.667-0.944,15.744-3.485,22.485c-1.906,5.059-4.26,9.731-10.567,10.23c2.031-12.21,3.73-25.351,3.485-39.461
			c-1.017,2.156-1.712,4.583-2.473,6.97c-2.065,6.482-3.914,13.17-6.633,19.226c-0.171,0.383-0.232,1.146-0.787,1.237
			c-1.216,3.29-3.499,7.771-6.745,9.556c-1.103,0.606-2.639,1.033-4.61,0.899c2.39-7.765,6.645-15.087,7.982-24.172
			c0.713-4.841,1.202-9.504,2.249-13.828c1.036-4.281,2.579-7.864,4.721-11.242c-3.944,4.704-7.424,11.234-12.254,15.739
			c-1.75,1.632-4.464,3.969-7.42,3.26c4.819-9.871,10.407-18.973,14.84-29.23c-3.325,2.687-9.172,8.929-14.391,4.609
			c4.149-4.694,9.366-8.321,13.042-13.491c-5.535,1.954-12.848,1.649-13.379-4.721c5.544-0.79,10.657-2.01,15.178-3.823
			c-0.554-0.56-1.455-0.458-2.137-0.563c-4.699-0.723-8.685-2.708-8.657-8.319c6.366,1.884,14.99,0.535,22.373,1.124
			c5.042,0.403,7.616,3.705,7.307,8.32c-0.243,3.636-2.568,4.759-4.609,6.971c-0.187,3.617,1.226,7.042,3.373,8.319
			c1.226,0.729,3.054,0.394,4.497,1.236c0.56,1.026-0.009,2.123-0.674,2.585c-5.86-0.655-9.122-5.001-8.432-11.467
			c-0.781-0.068-1.184,0.24-1.574,0.562c-0.561,10.486,7.727,18.24,17.65,17.763c1.838-0.088,2.78-3.02,5.623-2.136
			c0.578-0.771,0.205-2.492,0.787-3.26c-0.574-0.624-1.9-0.499-2.811-0.787c3.267-0.175,3.723-2.298,5.396-4.497
			c0.826-1.084,1.889-1.871,2.698-3.035c-2.077-1.297-5.137,0.229-5.959,1.237c0.745-2.462,2.78-3.172,5.509-4.272
			c1.712-0.69,4.913-1.703,3.597-3.935c-1.895-1.104-4.67-1.326-6.745-2.249c1.141-2.666,8.555,1.004,8.882-2.136
			c-1.636-0.591-4.181-0.533-6.072-0.45c-2.258,0.099-4.412,0.389-6.295,0.899c-2.861,0.774-4.99,2.676-7.757,3.148
			c5.278-3.068,11.629-7.333,20.237-5.284c0.334-3.223-3.993-4.433-5.846-2.473c-2.343-1.898-6.446-1.917-7.308,1.236
			c-0.178,0.559,0.434,0.909,0.225,1.124c-1.806-1.218-1.413-4.703,0.113-5.958c0.657-0.541,1.652-0.592,2.474-1.125
			c0.958-0.62,1.222-2.169,2.923-1.349c0.71-0.362,0.72-0.978,1.236-1.349c3.575-2.564,10.475,2.018,14.167-0.9
			c0.217,0.24-0.599,0.507-1.014,0.787C510.125,233.87,509.615,234.269,509.351,234.568z M496.759,235.243
			c-0.183,0.915,0.205,1.77,1.237,1.798c0.829-2.318,3.953-2.343,6.407-3.036C502.129,233.276,497.232,232.869,496.759,235.243z
			 M505.416,234.231c-0.453,0.092-0.892,0.544-1.35,0.674c-2.02,0.575-4.778,0.362-5.284,2.474c0.782,0.638,1.341,0.727,2.473,0.899
			c2.748,0.418,4.963,2.469,7.87,2.698c-0.565,0.222-1.424,0.151-2.024,0.337c1.128,1.195,2.4,5.722,0.451,7.42
			c-0.021-0.962,0.583-1.753,0.224-2.699c-1.275,0.565-1.607,3.036-2.136,4.722c-0.233-0.666-0.064-1.734-0.337-2.361
			c-1.625,0.697-1.366,3.88-2.923,4.271c0.188-1.094,0.953-2.782,0.786-3.485c-0.791-0.042-0.397,1.101-0.561,1.687
			c-0.882,3.465-6.456,2.239-8.095,4.947c2.029,0.144,4.639-0.292,6.295,0.225c-3.178,0.943-4.553,3.69-6.184,6.183
			c0.999,0.125,2.552-0.303,3.036,0.337c-1.662,0.324-3.421,0.552-4.608,1.35c1.141,0.283,2.995-0.148,3.934,0.337
			c-0.771,0.502-2.423,0.124-3.259,0.562c-0.46,1.151-0.528,2.696-0.9,3.935c-1.995-0.197-3.163,0.434-4.272,1.125
			c-0.639,2.139-1.206,3.764-1.349,6.07c-0.645,10.367,3.766,18.598,3.147,27.657c-0.172,2.531-1.12,4.215-2.137,5.846
			c-1.416,2.274-3.848,4.176-3.372,7.421c1.43,0.652,1.669-0.782,2.698-0.675c1.606,0.166,0.228,2.275,1.237,3.26
			c0.625-0.012,0.212-1.062,0.899-1.012c0.368,0.156,0.055,0.994,0.45,1.124c3.139-0.904,0.674-9.589,5.06-9.106
			c0.046,0.142,0.145,0.229,0.337,0.225c1.036,4.073,1.569,9.313-0.225,12.367c-1.01,1.721-3.386,2.418-5.622,2.586
			c-0.875,0.066-1.989-0.203-3.036,0.113c-1.609,0.485-1.442,2.287-2.023,3.596c-0.29,0.653-0.915,0.869-0.899,1.688
			c1.416,0.185,2.393-1.141,3.935-1.125c0.445,0.007,0.864,0.284,1.237,0.339c3.945,0.558,6.389-1.692,6.97-5.398
			c-1.731,1.449-4.769,4.213-8.432,2.699c-0.479,0.233-0.572,0.853-1.237,0.899c0.375-0.712,0.755-1.419,1.349-1.911
			c4.975,1.142,7.944-1.71,9.555-4.947c0.046,2.34-0.432,3.975-0.898,5.735c-1.271,4.782-3.344,9.693-7.87,11.24
			c-2.773,0.95-5.801,0.64-8.544,1.126c-2.275,0.401-5.005,0.846-6.857,2.024c-1.96,1.244-3.567,4.14-3.823,6.632
			c-0.549,5.358,2.812,8.607,7.87,8.544c-1.103-1.036-2.618-1.594-3.71-2.812c-1.626-1.812-2.296-5.025-1.124-7.532
			c1.266-2.704,4.414-4.451,7.87-4.832c-0.506,2.847-4.329,4.421-5.397,6.521c-0.313,0.613-0.771,2.645,0.225,3.26
			c5.423-7.143,17.642-7.563,21.248-16.302c0.612-1.483,0.751-3.209,1.462-4.946c-0.038,1.965,0.058,3.357-0.113,5.06
			c-0.373,3.734-1.863,9.137-4.609,10.679c-1.837,1.032-7.651,0.695-7.756,3.036c-0.056,1.213,1.014,1.059,1.798,1.462
			c-1.002,1.435-2.649,2.224-3.935,3.372c7.956-1.861,12.621-7.015,15.852-13.603c0.308,6.463,0.067,12.87-2.137,16.976
			c-0.48,0.897-1.366,1.572-1.685,2.474c-0.804,2.264,0.776,3.649,3.147,3.037c0.037,1.263,0.422,1.935,0.899,2.697
			c0.278,0.444,0.675,1.056,1.124,1.237c0.84-0.659,1.668-2.304,1.912-3.935c1.04,0.229,2.075,0.042,2.811-0.339
			c0.565-0.713,0.531-2.457,0.112-3.26c-0.686-1.313-1.549-2.137-2.136-3.261c-1.93-3.697-1.598-9.411-1.574-14.952
			c3.456,6.587,7.767,12.321,16.415,13.715c-1.316-1.456-3.525-2.02-4.386-3.934c0.593-0.046,1.42,0.146,1.688-0.225
			c0.139-0.885-0.394-1.43-0.9-1.8c-2.763-2.021-6.687-1.817-8.655-4.384c-2.537-3.306-3.673-9.007-3.374-14.504
			c0.968,6.899,4.157,10.799,9.332,13.492c3.765,1.957,7.733,3.766,10.792,6.294c1.013,0.838,1.798,1.931,2.923,2.587
			c1.111-0.257,1.144-1.482,0.787-2.473c-0.912-2.532-5.363-4.126-5.284-7.084c4.15,0.934,8.284,3.165,8.545,7.646
			c0.275,4.718-2.807,6.113-5.51,7.87c4.34-0.312,6.793-2.512,7.421-6.296c0.453-2.73-0.315-5.542-1.35-7.083
			c-4.083-6.091-17.566-3.237-22.146-8.545c-2.401-3.968-4.858-8.482-4.723-14.614c1.193,3.491,3.414,5.955,8.207,5.846
			c1.085-1.658,3.118,0.086,3.485,1.012c-0.903,0.042-1.032-0.692-1.798-0.786c-2.958,1.412-6.659-0.372-8.546-1.8
			c0.432,2.644,3.278,4.775,6.296,4.386c0.958-0.125,1.855-0.573,2.923-0.563c1.291,0.014,2.359,0.406,3.598,0.451
			c-0.005-0.826-0.769-1.475-1.124-2.362c-0.147-0.364-0.09-0.896-0.338-1.236c-0.869-1.194-2.647-0.692-4.722-0.9
			c-4.805-0.479-6.887-3.557-6.745-9.105c0.073-2.857,0.486-7.316,3.26-5.509c0.086,1.007,0.416,2.114,0.563,3.26
			c0.266,2.076,0.109,4.465,1.574,5.396c0.435-0.24,0.295-1.055,0.787-1.236c0.6-0.136,0.672,0.68,1.124,0.338
			c0.638-1.949,0.87-4.302,1.574-6.184c0.598-0.317,0.949,0.231,1.687,0.112c-1.146-4.401-4.636-6.6-4.946-11.692
			c-0.089-1.436,0.043-3.005,0.224-4.723c0.641-6.056,1.983-13.018,1.688-19.56c-0.074-1.623-0.09-3.992-0.563-5.397
			c-0.88-2.613-3.795-4.016-6.858-2.474c1.233-2.157,1.983-5.209,1.8-8.431c1.179,1.918,0.404,5.092-0.226,7.083
			c0.37-0.005,0.56-0.19,1.013-0.113c-0.533-1.834,0.26-3.119,1.349-3.935c-0.587-3.845,1.981-6.01,1.686-9.556
			c0.444-0.719,0.714-2.208,1.463-2.249c-0.625,1.687-2.147,5.676,0.787,5.958c-1.421-3.745,2.025-8.37,0.337-12.704
			c0.89,0.572,0.954,1.97,2.361,2.024c-1.845-2.653-2.02-6.975-4.835-8.657c-2.275-0.063-3.59-3.051-5.733-1.799
			c0.051,0.55,1.075,0.125,1.124,0.674c-1.085,0.201-2.383,1.122-3.598,0.9c-0.855-0.156-1.156-0.926-1.799-1.349
			c1.607-2.13,6.785-0.165,8.319-2.474C507.375,234.38,506.37,234.036,505.416,234.231z M539.368,235.805
			c-3.581,0.157-7.333,0.012-10.455,0.224c-5.287,0.36-7.878,4.115-6.409,9.781c0.257-0.155,0.423,0.29,0.45,0
			c-0.785-1.417-0.19-4.382,1.012-4.497c-0.278,0.537-0.395,1.021-0.449,1.574c-0.55,5.567,3.382,6.89,6.857,8.657
			c-0.416-0.079-0.497,0.177-0.45,0.562c-0.38,11.912-6.482,18.102-17.988,18.887c0.102,0.424,0.098,0.952,0.226,1.349
			c11.092-0.178,18.043-6.963,18.887-17.538c0.151-1.894-0.14-3.382-0.562-4.947c-3.584,1.505-5.117-4.396-1.35-4.272
			c-2.376-4.296,6.334-4.204,3.822,0c3.84-0.805,3.238,4.969,0,4.385c0.576,16.166-7.146,24.032-20.236,26.532
			c-0.471,3.366-0.626,7.455-0.449,11.355c0.098,2.161,0.589,4.289,0.786,6.295c0.459,4.642,0.382,8.967,2.812,11.805
			c0.787,0.302,1.774,0.029,2.247-0.337c0.608-1.478,0.71-3.282,0.787-5.06c0.221-5.003,0.728-9.246,1.688-13.042
			c0.223-0.885,0.271-1.89,0.786-2.585c-0.68,14.245,2.196,24.937,7.87,32.829c1.621,1.189,3.167,3.053,5.958,2.697
			c-2.897-12.579-4.595-26.358-4.945-41.484c-0.473,0.159-1.009,0.506-1.688,0.449c-1.25-0.104-1.968-1.694-2.585-1.573
			c1.128,11.837,2.46,24.071,4.497,34.626c-1.384-2.146-1.477-5.015-2.023-7.757c-1.411-7.061-1.59-15.457-3.036-22.598
			c-1.37,1.028-3.884,0.053-4.722-1.124c0.138,2.536-0.991,3.805-3.485,3.71c-0.776,5.659,0.391,11.792,0.226,17.201
			c-1.042-5.146-1.906-12.067-0.676-17.539c-1.424-1.535-3.325-3.195-2.81-6.295c1.423,2.075,1.438,6.114,5.171,5.509
			c0.639-0.784,0.918-1.664,0.899-2.923c-0.022-1.544-1.082-3.401,0-4.159c0.94,2.237,1.069,5.783,4.497,5.171
			c0.817-1.1,0.896-3.305,0.562-5.06c-0.179-0.939-0.99-2.053,0-2.361c1.341,1.522,1.782,4.969,4.835,4.048
			c0.902-1.851-0.019-3.43-0.675-4.609c-0.391-0.703-1.034-1.449-0.786-2.024c1.604,0.46,2.217,2.877,4.946,2.585
			c0.862-0.525,0.449-1.917,0-2.698c-0.748-1.294-2.67-2.232-2.249-3.259c1.252,0.153,2.706,1.618,4.497,1.236
			c1.359-2.251-1.919-3.172-2.811-4.609c0.99-0.355,3.417,1.278,4.497-0.112c0.283-2.461-2.757-2.185-3.147-3.598
			c1.32-0.291,2.974-0.25,3.71-1.125c0.36-2.16-2.101-1.497-3.26-2.136c0.655-1.331,3.679-0.391,3.26-2.249
			c-0.262-1.163-2.535-0.348-2.924-1.237c1.817-1.013,3.195,0.5,3.936,1.574c1.501,2.175,3.321,3.589,5.508,5.508
			c1.616,1.418,3.418,3.001,5.285,3.485c1.648,0.429,4.577,0.379,5.958-1.012c-5.513-4.381-11.353-9.033-15.74-14.165
			c5.028,2.085,15.233,3.051,15.853-3.261c-7.044-0.862-13.658-2.156-19.225-4.497c6.972-0.15,13.58-1.257,13.828-7.758
			C547.466,234.803,543.582,235.619,539.368,235.805z M506.99,235.805c0.492,1.157,2.073,1.224,3.147,1.798
			c0.491,0.476,1.676,1.84,2.023,1.687C511.761,236.88,509.44,234.078,506.99,235.805z M505.865,247.497
			c0.926-0.725,2.02-2.47,1.688-4.16c-0.304-1.535-2.477-3.157-4.16-3.823c-2.955-1.168-6.891-0.829-7.421-4.047
			c-1.237-0.935-1.609,0.833-2.135,1.349c-2.336,0.266-4.612,2.209-3.485,4.834c0.499-2.914,5.304-3.01,7.194-1.236
			c2.592-1.869,7.363-0.382,8.32,2.136c0.268,0.704,0.482,2.278,0,3.26c-1.481,3.013-7.006,0.08-9.893,1.462
			C498.504,248.212,503.373,249.448,505.865,247.497z M461.233,243.225c-5.563,2.158-11.764,3.676-18.1,5.06
			c0.783,6.682,10.508,4.291,15.064,2.585c-4.228,5.554-9.958,9.603-14.502,14.84c4.825,2.32,8.261-0.787,11.13-3.485
			c1.885-1.773,3.724-3.752,4.834-5.396c0.387-0.572,0.359-0.988,0.9-1.35c0.613-0.41,2.221-0.93,2.81,0
			c-0.897,0.606-2.785,0.095-2.922,1.237c-0.067,0.56,0.569,1.138,1.236,1.348c0.694,0.22,1.898-0.274,2.137,0.563
			c-1.031,0.868-3.549,0.398-3.373,2.023c0.145,1.343,2.538,1.103,4.046,1.461c-0.875,0.996-3.794,1.604-3.26,3.373
			c0.592,1.959,4.071-0.597,4.609,0.226c-0.945,1.49-3.123,1.747-3.148,4.159c1.663,1.775,3.75-1.177,5.06-0.787
			c-0.069,0.884-1.055,1.691-1.687,2.586c-0.605,0.858-1.478,1.912-0.675,3.147c1.273,0.327,2.208-0.109,2.923-0.674
			c0.835-0.662,1.225-1.901,2.136-2.024c0.268,1.043-1.461,2.835-1.687,4.61c-0.169,1.333,0.306,2.252,1.236,2.36
			c2.495,0.289,2.704-3.072,3.935-4.385c0.975,0.48,0.107,2.19,0,3.598c-0.202,2.665,1.017,5.241,3.26,3.259
			c1.118-0.987,1.24-3.431,1.911-4.722c1.253,0.708-0.042,2.777,0.113,4.498c0.087,0.965,0.455,1.617,0.787,2.361
			c3.791,1.09,3.904-3.338,5.171-5.509c0.692,2.808-1.332,4.801-2.585,6.408c1.384,4.94,0.797,12.546-0.112,17.538
			c-0.488-5.333,0.9-13.105-0.45-17.425c-2.587,0.673-3.387-1.204-3.597-3.261c-0.556,0.11-0.909,0.996-1.799,1.35
			c-0.903,0.357-1.921,0.339-2.811-0.225c-1.264,8.578-1.31,19.261-2.922,27.319c-0.23,1.148-0.203,2.502-1.125,3.261
			c1.609-7.159,1.72-15.4,2.473-23.272c0.375-3.922,1.417-7.733,0.788-11.805c-0.81,1.307-2.543,2.663-4.272,1.461
			c0.528,15.111-1.045,28.98-3.26,41.71c2.021-0.052,3.713-0.886,4.833-2.024c6.439-6.544,8.308-20.811,7.982-33.727
			c1.09,2.917,1.548,6.666,1.912,10.456c0.354,3.716,0.524,7.619,2.248,10.119c2.568,1.098,3.458-2.407,3.71-4.498
			c0.287-2.379,0.418-5.478,0.674-8.544c0.488-5.83,0.291-11.806-0.562-16.639c-14.071-1.857-21.397-10.458-21.248-26.532
			c-3.204,0.934-3.896-4.929-0.337-4.16c-0.166-0.622-0.311-1.263-0.45-1.91c0.767-2.674,5.771-1.245,4.16,1.91
			c3.588-0.324,3.055,5.335-0.899,4.16c-1.063,6.375,0.916,12.777,4.271,16.638c3.352,3.858,8.203,5.907,14.84,5.846
			c0.137-0.388,0.304-0.745,0.225-1.348c-11.783-0.546-17.978-6.68-18.662-18.326c0.167-0.542-0.516-0.232-0.45-0.674
			c1.759-1.145,4.561-1.693,5.733-3.597c1.06-1.722,1.06-4.57,0.45-6.633c1.472,0.622,1.173,3.18,1.349,4.496
			c1.236-3.042-0.244-6.637-1.911-8.207c-3.034-1.434-7.105-1.531-11.242-1.349c-5.463,0.24-10.413-0.061-14.728-1.012
			C447.73,242.487,454.535,242.803,461.233,243.225z M503.279,236.479c-0.624,0.012-0.834,0.439-1.349,0.562
			c-0.435-0.015-0.443-0.456-0.787-0.562C500.88,237.894,503.797,237.519,503.279,236.479z M504.179,243.674
			c0.401,0.161,0.932,0.193,1.351,0.337c-0.146-1.691-0.921-2.753-2.362-3.148C503.571,241.734,504.1,242.481,504.179,243.674z
			 M529.587,246.036c-1.024-0.125-1.65,0.147-2.136,0.562c-0.953,2.463,1.743,3.378,3.26,2.699
			c2.104,7.171-0.702,14.739-4.722,18.549c-3.435,3.256-8.246,4.762-13.716,5.508c0.053,0.66,0.219,1.205,0.338,1.799
			c13.596-1.368,20.769-10.319,19.674-25.632c3.674,1.048,3.936-4.576,0-3.485c0.337-0.771,0.834-1.721,0.338-2.699
			C530.429,241.737,528.128,244.129,529.587,246.036z M467.642,246.148c2.028-1.8-0.939-4.497-2.698-2.586
			c-0.368,0.913,0.161,2.043,0.224,2.474c-3.631-0.325-2.381,4.663,0.562,3.373c-0.087,1.62-0.162,3.264,0,4.834
			c0.569,5.506,2.187,10.667,5.396,14.277c3.265,3.673,8.744,6.75,15.29,6.521c0.003-0.678,0.036-1.384-0.112-1.911
			c-13.59-0.344-21.01-9.897-19.337-23.946C470.596,251.174,471.671,245.264,467.642,246.148z M491.025,245.249
			c3.809-1.048,9.45-1.208,13.717-0.787C500.668,243.238,494.177,243.134,491.025,245.249z M503.729,246.485
			c0.695-0.204,1.419-0.379,1.462-1.236C504.063,245.02,503.886,245.742,503.729,246.485z M521.268,260.426
			c-0.447,0.098-1.618-0.055-2.023,0.449c-0.407,0.507-0.065,1.242,0.338,1.687c4.644-0.271,7.406-4.005,7.757-8.432
			c0.083-1.057-0.058-2.318-0.675-3.035C527.128,255.935,524.909,259.625,521.268,260.426z M473.149,260.313
			c1.637,1.017,3.26,3.144,5.959,2.36c1.013-2.313-1.491-1.664-3.036-2.024c-1.364-0.317-2.964-2.037-3.709-3.597
			c-0.782-1.635-1.003-3.207-1.125-5.284C470.22,254.993,471.803,258.352,473.149,260.313z M551.734,282.91
			c-2.748-2.723-5.142-6.271-7.42-10.455c-1.445-2.655-3.417-5.598-4.946-8.432c-0.796-1.473-1.527-3.721-3.036-2.136
			c2.217,0.976,2.536,4.449-0.675,4.271c0.437,0.955,1.473,1.766,1.125,3.147c3.386,4.326,7.217,9.769,11.129,13.94
			c2.443,2.604,4.62,5.663,9.332,5.284c-0.542-1.354-1.534-2.52-2.361-3.71c-6.076-8.751-11.16-18.619-16.414-28.105
			c-0.243,0.505-0.766,0.733-1.349,0.899c0.833,0.567,2.03,1.667,1.237,3.148c4.342,7.724,9.038,15.695,13.827,22.597
			c0.001-0.113-0.091-0.134-0.113-0.225C551.938,283.08,551.816,283.016,551.734,282.91z M442.908,290.105
			c4.118-0.291,6.48-3.542,8.657-6.071c2.811-3.266,5.728-6.651,7.757-10.455c1.358-0.822,1.962-2.581,2.585-4.16
			c0.382-0.967,1.005-1.858,0.9-2.474c-3.188,0.222-2.733-3.217-0.675-4.271c-0.46-0.139-0.783-0.416-1.349-0.45
			c-4.714,7.465-7.961,16.996-13.94,22.822c4.917-7.336,9.23-15.279,13.154-23.609c-0.114-0.373-0.338-0.636-0.337-1.125
			c0.343-0.744,0.896-1.277,1.574-1.686c-0.655-0.17-1.034-0.617-1.574-0.899C454.563,269.008,448.694,279.515,442.908,290.105z
			 M535.321,276.727c2.193,7.615,4.595,15.359,7.308,22.485c1.097,2.883,2.749,5.591,3.146,8.769
			c-2.656-4.89-4.576-10.34-6.521-15.851c-1.963-5.57-3.627-11.421-4.945-17.538c-0.988,0.565-2.659,0.319-3.598-0.113
			c0.001,4.187,1.247,7.895,2.585,11.356c3.235,8.369,5.794,17.642,9.894,25.07c2.1,3.803,4.551,7.496,9.556,7.646
			c-2.937-7.313-6.942-15.245-8.656-24.172c-0.587-3.054-0.94-6.25-1.687-9.331c-0.418-1.727-1.177-3.592-1.799-5.396
			c-1.287-3.734-2.741-6.855-4.834-9.444c-0.631,0.567-1.904-0.099-2.474,0.112C534.72,271.793,534.66,274.432,535.321,276.727z
			 M462.919,271.219c-0.007-0.069-0.017-0.134-0.112-0.113c-2.267,3.495-3.875,6.913-4.947,11.355
			c-1.456,6.028-1.936,14.015-3.709,20.012c-1.747,5.903-4.561,11.972-6.295,17.651c0.88-0.095,1.548-0.401,2.473-0.45
			c3.361-1.538,5.125-4.675,6.633-7.983c4.57-10.023,8.153-21.737,11.355-32.828c-0.551-0.89-0.333-2.629-0.113-3.71
			c-1,0.574-2.175,0.798-3.485,0.338c-2.116,10.566-5.133,20.758-8.657,29.905c-0.501,1.3-0.737,2.814-1.799,3.823
			c2.684-8.522,5.651-17.358,7.982-26.084c0.412-1.538,0.71-3.086,1.125-4.609c0.444-1.628,0.58-3.135,0.899-4.834
			c0.196-1.047,0.954-2.094,0.898-2.586C464.426,271.233,463.7,271.429,462.919,271.219z M512.725,317.313
			c2.675,4.071,6.498,8.424,9.218,12.816c0.601,0.971,1.541,2.096,0.787,2.697c-1.369,0.207-2.763,0.387-4.272,0.45
			c-0.343,1.156-1.781,1.217-2.36,2.136c1.219,1.495,2.421-0.581,3.598-0.786c0.771-0.135,1.733,0.218,2.586,0.113
			c0.874-0.108,1.499-0.415,2.36-0.563c0.289,0.798,1.478,0.694,2.473,0.786c1.005,1.431,3.637,1.236,4.047,3.262
			c1.844-0.115,1.522,2.518,3.149,2.247c0.462-0.548-0.493-1.638,0-2.586c-0.295-0.737-1.169-0.658-1.799-1.012
			c-0.419-0.235-0.63-0.708-1.013-1.013c-0.61-0.48-1.551-0.938-2.248-1.348c-0.719-0.423-1.764-0.715-1.799-1.574
			c2.321,1.782,5.84-0.275,8.769-0.45c-0.064,1.522,1.87,1.484,1.911,0.113c0.833,0.253,1.226,0.948,2.474,0.786
			c0.282,0.988,1.476,2.834,2.586,1.574c-0.294-1.095-1.549-1.225-1.911-2.249c0.222-0.19,0.301-0.521,0.337-0.899
			c-2.418,0.646-3.359-1.354-5.284-1.349c-2.317,0.007-4.734,2.743-7.308,0.899c0.556-0.607,1.124-1.199,1.237-2.248
			c0.444-0.043,0.816-0.159,1.125-0.338c0.24-0.604-0.233-0.798-0.338-1.35c0.527-0.146,0.89-0.459,1.462-0.562
			c0.465,0.751,2.708,0.627,2.697-0.45c-1.543-0.738-4.38-1.007-5.283,0.337c-0.529,0.786-0.437,2.091-1.012,2.923
			c-0.877,1.27-2.198,1.439-4.159,1.236c-3.232-5.612-6.82-10.868-10.119-16.413C513.09,314.531,512.814,315.829,512.725,317.313z
			 M486.979,317.874c-0.612-0.018-1.255-0.5-1.687-0.337c-0.068,0.007-0.132,0.017-0.112,0.112c-2.19,2.704-5.408,6.862-7.757,9.896
			c-0.919,1.185-1.629,2.47-2.473,3.483c-2.114,2.54-3.458-1.892-4.16-3.709c-1.316-0.933-3.484-1.014-5.059-1.688
			c-0.572,0.702-1.861,0.688-2.024,1.798c0.528,0.796,1.403-0.094,2.024-0.224c0.609,0.766,2.117,0.22,2.923,0.339
			c0.295,0.229,0.137,0.911,0.337,1.235c1.76,0.113,1.182,2.565,2.361,3.26c-1.331,0.292-2.397-0.261-3.485-0.563
			c-1.086-0.299-2.541-0.943-3.485-0.897c-1.274,0.061-2.219,1.483-3.598,1.799c-0.447,0.102-0.823-0.175-1.349,0.224
			c-0.278,0.36,0.291,0.624,0.113,1.237c-1.146,0.507-2.206,2.744,0.45,2.36c0.699-0.498,0.754-1.644,1.35-2.247
			c1.114-0.161,1.708-0.841,2.81-1.013c0.356,1.268,1.592,0.639,2.024-0.112c1.352,0.672,3.583,0.464,5.171,0.9
			c-1.495,2.701-4.457,3.936-6.521,6.07c1.37,0.832,0.289,2.432,0.225,3.485c1.761,0.279,1.53-2.355,2.136-3.599
			c2.027-0.333,3.086-1.635,3.935-3.146c1.318-0.146,2.184-0.741,2.586-1.8c1.421-0.063,3.616-0.854,4.497,0.224
			c0.679,0.043,1.242-0.03,1.798-0.111c0.498,0.483,2.141,1.556,2.811,0.45c0.01-0.536-0.667-0.383-1.012-0.563
			c-0.354-0.472-0.581-1.067-0.899-1.574c-1.092-0.361-4.038,0.853-4.386-0.45c-0.123-0.465,0.85-1.57,1.125-1.91
			c3.225-3.992,7.281-8.121,9.78-12.03C487.212,318.539,487.065,318.237,486.979,317.874z M533.41,325.069
			c0.191,0.183,0.408,0.342,0.786,0.337c0.174-0.388,1.07-0.999,0.563-1.349C534.364,324.451,533.449,324.323,533.41,325.069z
			 M464.605,325.745c0.195-0.18,0.41-0.341,0.338-0.787c-0.561-0.227-1.142-0.432-1.912-0.451
			C463.238,325.238,463.791,325.624,464.605,325.745z M542.065,332.826c0.127,0.025,0.176,0.126,0.226,0.226
			c0.785-0.226,1.565-0.457,1.911-1.124C543.479,331.114,542.037,331.634,542.065,332.826z M517.558,333.502
			c0.156-0.182,0.397-0.276,0.337-0.676c-0.087-0.023-0.13-0.092-0.113-0.224C516.274,331.967,516.225,333.452,517.558,333.502z
			 M482.032,333.502c0.623-0.015,1.013-0.261,1.124-0.787C482.595,332.334,481.496,332.785,482.032,333.502z M457.185,333.951
			c0.808,0.307,2.096-0.007,1.575-1.012C457.924,332.72,457.289,333.128,457.185,333.951z M534.982,339.011
			c0.492,0.146,1.05,0.226,1.688,0.226C536.824,338.183,534.849,337.502,534.982,339.011z M463.144,342.159
			c0.625-0.277,1.182-0.619,1.799-0.899c0.073-0.411-0.244-0.432-0.225-0.788C463.668,340.508,463.036,340.965,463.144,342.159z
			 M533.635,238.952c0.44-0.571,1.167-0.855,1.572-1.461c-0.811-0.162-1.761-0.187-2.585-0.337c-0.299,0-0.6,0-0.9,0
			c-0.362-0.129,0.304-0.128,0.451-0.113c1.584,0.066,3.436-0.137,4.833,0.113c-0.307,0.592-1.226,0.572-1.46,1.236
			c4.086,0.449,8.772-0.443,11.916-1.686c0.69-0.192-0.23,0.294-0.562,0.45C543.684,238.671,538.706,239.068,533.635,238.952z
			 M538.356,245.473c-0.191-0.025-0.278,0.127,0,0.112c4.15,1.515,9.43,3.551,15.064,2.474
			C547.729,248.269,542.95,246.721,538.356,245.473z M550.723,262.562c-4.021-2.65-7.56-6.382-10.904-9.331
			C542.859,256.86,546.521,260.466,550.723,262.562z M465.617,237.828c-0.918,0.355-2.353,0.195-3.147,0.675
			c0.334,0.526,0.961,0.763,1.574,1.012c-4.881,0.859-10.713,0.083-14.278-1.461c3.302,0.791,7.947,1.658,12.366,1.349
			c-0.277-0.623-1.056-0.742-1.573-1.124C462.054,237.998,464.146,237.763,465.617,237.828z M459.997,246.598
			c-0.013-0.137-0.033-0.266-0.225-0.225c-4.546,1.6-9.24,3.052-15.065,3.373C451.004,250.33,455.428,248.112,459.997,246.598z
			 M458.311,254.243c-2.915,3.869-6.407,7.16-10.456,9.893c0.486-0.716,1.307-1.188,2.024-1.798
			c2.064-1.758,4.276-3.832,6.071-5.958C457.081,256.011,457.292,254.722,458.311,254.243z"/>
		<path id="path1384" d="M536.782,255.816c-0.152,0.48-1.353,0.403-1.8,0.225C535.065,255.31,536.351,255.616,536.782,255.816z
			 M534.421,259.638c0.714-0.073,1.723,0.148,2.249-0.112C536.029,259.445,534.716,258.718,534.421,259.638z M533.746,263.574
			c0.841,0.137,1.539,0.878,2.474,0.562c-0.581-0.617-1.692-0.705-2.474-1.124C533.746,263.199,533.746,263.386,533.746,263.574z
			 M532.173,267.284c1.083,0.229,1.717,0.906,2.81,1.124c-0.692-0.805-1.818-1.178-2.81-1.687
			C532.173,266.909,532.173,267.096,532.173,267.284z M529.925,270.881c1,0.388,1.613,1.758,2.697,1.686
			c-0.797-0.964-1.569-1.952-2.697-2.585C529.659,270.246,529.942,270.534,529.925,270.881z M528.8,276.84
			c-0.566-1.383-0.956-2.941-2.136-3.71C527.17,274.572,527.675,276.015,528.8,276.84z M523.517,280.099
			c-0.097-1.328-0.568-3.254-1.35-4.271C522.168,277.269,522.883,278.921,523.517,280.099z M517.895,281.785
			c-0.098-1.551-0.586-2.71-0.787-4.159c-0.187,0-0.374,0-0.562,0C516.82,279.187,516.966,280.879,517.895,281.785z
			 M463.257,256.941c-0.401-0.349-1.752,0.253-1.799-0.45C462.017,256.397,463.238,256.169,463.257,256.941z M461.683,260.65
			c0.823-0.076,1.817,0.019,2.249-0.45C463.268,259.599,462.07,260.243,461.683,260.65z M462.245,265.035
			c1.06-0.252,2.494-0.13,2.699-1.237C464.08,264.247,462.745,264.223,462.245,265.035z M463.706,269.082
			c1.108,0.085,2.484-0.506,2.811-1.574C465.425,267.878,464.571,268.485,463.706,269.082z M466.292,273.354
			c1.084-0.202,2.582-1.529,2.586-2.81C467.793,271.258,467.086,272.351,466.292,273.354z M470.227,277.402
			c0.741-0.124,0.865-1.121,1.124-1.687c0.311-0.676,0.67-1.367,0.899-2.024c-0.144-0.006-0.156-0.144-0.337-0.112
			C471.276,274.779,470.632,275.971,470.227,277.402z M475.735,280.549c0.351-1.379,1.138-2.902,1.125-4.272
			c-0.113,0-0.226,0-0.337,0C476.22,277.517,475.53,279.548,475.735,280.549z M481.47,282.011c0.586-1.137,0.923-2.524,0.899-4.272
			c-0.113,0-0.225,0-0.337,0C481.749,278.994,481.3,280.68,481.47,282.011z M499.794,307.756c0.281,1.72,0.484,3.942,0.226,5.847
			C499.459,312.085,499.454,309.529,499.794,307.756z M499.682,326.757c-0.673-5.661-1.24-11.428-2.023-16.977
			c-0.192,4.241,0.375,7.973,1.011,12.141c0.494,3.232,0.809,6.658,1.012,10.007c0.383,6.314,0.011,12.846,0.338,19.224
			c0.037,0.714,0.086,1.485,0.45,2.25c-1.261-15.201,1.22-29.879,2.024-43.734C501.959,315.767,501.813,322.255,499.682,326.757z
			 M506.765,256.041c0.298,0.005-0.107,1.679,0.337,1.911c0.199,0.032,0.35-0.529,0.451-0.224c-0.104,0.571-0.395,0.955-0.451,1.573
			C506.17,258.751,506.729,257.153,506.765,256.041z M504.179,265.26c0.06-0.917,0.759-1.789,0.675-2.473
			c-0.313,0.173-0.308,0.667-0.675,0.787c-0.31-0.365,0.092-1.441-0.225-1.799C503.567,262.637,503.07,264.797,504.179,265.26z
			 M498.558,274.028c0.113-0.673,0.488-1.084,0.337-2.022c-0.573-0.124,0.123,1.022-0.45,0.899
			c-1.281-1.076-0.267-4.555-0.674-5.958C497.631,269.251,496.794,272.865,498.558,274.028z M496.759,270.993
			c-0.065-0.753-0.838-0.536-1.237-0.899c-0.725-0.659-0.56-1.593-0.787-2.81C494.377,269.158,494.756,271.121,496.759,270.993z
			 M501.594,273.017c0.024-0.087,0.093-0.131,0.224-0.112c0.089-0.424,0.197-0.953,0-1.349c-0.473-0.173-0.018,0.582-0.336,0.563
			c-1.003-0.536-0.969-2.105-1.35-3.261C500.256,270.607,500.042,272.696,501.594,273.017z M499.232,284.147
			c1.814-0.212,2.021-4.011,2.023-6.071c-0.532,1.357-0.464,5.604-2.249,5.508c-1.688-0.09-1.698-4.017-2.135-5.508
			C497.007,280.446,497.104,284.396,499.232,284.147z M503.055,287.183c0.278,2.219-0.635,5.477,0.338,7.42
			c1.713,0.308,2.49-1.838,3.034-3.036c0.641-1.407,1.123-2.778,1.35-3.935c0.096,3.057-1.382,5.513-2.81,7.42
			c-1.275,0.732-2.137-0.244-2.586-1.012c-0.952,1.114-1.243,3.099-2.923,3.148c-1.902,0.057-2.319-2.399-3.036-4.047
			c-0.8,0.821-0.403,2.325-1.912,2.36c-2.342,0.057-3.213-5.318-3.821-7.194c0.61,1.098,0.941,2.305,1.573,3.71
			c0.413,0.916,1.223,2.945,2.249,2.923c1.938-0.042,1.271-5.507,1.237-7.42c0.629,3.494,1.24,7.005,3.373,8.994
			C502.359,295.331,502.246,290.796,503.055,287.183z M502.38,297.638c0.646,1.506-1.041,4.693,0.787,5.509
			c2.146-0.626,2.187-3.36,3.036-5.284c0.028,2.77-1.225,6.889-4.386,5.734c-0.402,0.683-0.775,1.397-1.349,1.911
			c-0.719,0.13-1.023,0.02-1.799,0c-0.554-0.608-0.995-1.328-1.349-2.136c-2.148,2.534-4.002-2.244-4.272-4.61
			c0.793,1.466,1.041,4.84,2.923,4.61c1.895-0.233,0.4-3.57,0.674-5.51c0.544,2.065,0.74,7.124,3.26,6.858
			C501.971,304.504,501.691,299.36,502.38,297.638z M502.155,265.709c-0.098,2.01,0.062,4.632,1.462,5.508
			c0.636,0.232,0.558-0.622,0.899-0.337c0.281,0.364-0.111,0.804-0.338,1.011C502.004,271.394,501.894,268.276,502.155,265.709z
			 M490.914,276.614c0.598,1.763,1.003,4.565,1.798,6.072c0.176,0.331,0.737,1.184,1.237,1.124c1.155-0.139,1.5-4.055,1.574-5.509
			c0.022-0.439-0.016-0.993,0-1.461c0.8,2.469,0.673,6.521,2.249,8.207c0.607,0.65,1.326,0.8,2.136,0.225
			c1.913-1.358,2.375-5.227,2.699-8.319c0.354,1.507-0.257,5.556,1.124,6.745c2.304-0.731,2.42-3.649,2.811-6.295
			c0.504,1.37,0.043,3.705,1.013,4.609c1.84-0.895,2.092-3.379,2.585-5.621c0.235,1.194-0.645,6.722-2.473,6.408
			c-0.769-0.132-0.558-1.354-1.238-1.799c-0.306,2.319-2.909,5.441-4.046,1.799c-1.24,1.271-1.239,3.783-3.936,3.598
			c-1.472-1.039-1.934-3.088-2.81-4.722c-0.466,0.846-0.76,1.863-1.125,2.811c-1.953,0.438-2.26-1.598-2.81-2.924
			c-0.642,0.183-0.74,0.911-1.237,1.238c-2.106-0.854-1.942-3.979-2.136-6.746c0.515,2.333,0.448,5.249,2.249,6.295
			C491.682,281.228,490.927,278.339,490.914,276.614z M497.096,290.442c0.886,1.251,0.96,3.313,2.137,4.272
			c1.519-0.582,1.591-2.607,2.136-4.16c-0.001,1.889-0.358,4.941-2.585,4.61C497.968,293.842,497.474,292.201,497.096,290.442z
			 M501.594,298.537c-0.067-0.556,0.329,0.117,0,0.112c-0.172,1.812-0.509,4.437-1.912,4.61c-1.576,0.194-1.729-2.721-2.136-4.273
			c0.695,1.179,0.786,2.961,2.023,3.598C500.675,301.666,500.985,299.952,501.594,298.537z"/>
		<path id="Auge" fill="#FFFFFF" d="M501.144,236.479c0.343,0.106,0.353,0.546,0.787,0.562c0.514-0.122,0.725-0.549,1.349-0.562
			C503.797,237.519,500.88,237.894,501.144,236.479z"/>
	</g>
</g>
</svg>
