<?xml version="1.0" encoding="utf-8"?>
<!-- Generator: Adobe Illustrator 12.0.1, SVG Export Plug-In . SVG Version: 6.00 Build 51448)  -->
<!DOCTYPE svg PUBLIC "-//W3C//DTD SVG 1.1//EN" "http://www.w3.org/Graphics/SVG/1.1/DTD/svg11.dtd" [
	<!ENTITY ns_svg "http://www.w3.org/2000/svg">
	<!ENTITY ns_xlink "http://www.w3.org/1999/xlink">
]>
<svg  version="1.1"
	 id="svg908" inkscape:version="0.39" sodipodi:docbase="/home/scarlet" sodipodi:docname="china.svg" sodipodi:version="0.32" xmlns:inkscape="http://www.inkscape.org/namespaces/inkscape" xmlns:dc="http://purl.org/dc/elements/1.1/" xmlns:sodipodi="http://sodipodi.sourceforge.net/DTD/sodipodi-0.dtd" xmlns:rdf="http://www.w3.org/1999/02/22-rdf-syntax-ns#" xmlns:cc="http://web.resource.org/cc/"
	 xmlns="&ns_svg;" xmlns:xlink="&ns_xlink;" width="612" height="792" viewBox="0 0 612 792"
	 overflow="visible" enable-background="new 0 0 612 792" xml:space="preserve">
<sodipodi:namedview  inkscape:window-y="25" inkscape:window-x="0" inkscape:window-width="1014" inkscape:window-height="715" inkscape:pageshadow="2" inkscape:pageopacity="0.0" inkscape:guide-bbox="true" inkscape:zoom="1.3985119" inkscape:cx="297.63779" inkscape:cy="198.42520" showguides="true" pagecolor="#ffffff" bordercolor="#666666" borderopacity="1.0" id="base">
	</sodipodi:namedview>
<rect id="rect2138" x="-136.667" y="101.222" fill="#FECD21" width="881.427" height="587.616"/>
<path id="path930" fill="#E5170F" stroke="#000000" d="M130.583,377.049c-9.964-7.326-19.927-19.633-26.667-21.978
	c-6.74-2.345-21.978-7.326-32.234-7.033c-10.256,0.293-22.271,0.586-22.563,4.103c-0.293,3.517,3.81,6.447,9.377,6.74
	c5.568,0.292,16.997-0.586,23.736,1.758c6.74,2.344,14.066,7.619,17.583,13.187c3.517,5.567,9.377,19.047,9.377,19.047l15.531-2.93
	L130.583,377.049z"/>
<g id="g2132">
	<path id="path2109" fill="#FFFFFF" stroke="#838287" d="M514.671,588.85c-7.744-25.348,4.93-29.572,4.93-29.572l14.084,5.631
		C533.685,564.908,516.786,577.584,514.671,588.85z"/>
	<path id="path2110" fill="#FFFFFF" stroke="#838287" d="M543.542,604.342c-14.787-4.928-17.604-20.42-11.971-22.533
		c5.633-2.111,12.676,2.113,12.676,2.113S539.317,590.965,543.542,604.342z"/>
	<path id="path2111" fill="#FFFFFF" stroke="#838287" d="M576.638,606.453c-9.857,2.818-23.238,2.113-21.125-10.561
		C557.624,583.219,568.892,605.047,576.638,606.453z"/>
	<path id="path2112" fill="#FFFFFF" stroke="#838287" d="M582.271,588.85c2.816,11.971,9.154,9.154,14.082,8.451
		c4.93-0.705,9.154-8.451,9.154-8.451s-10.561,2.818-14.785,0C586.495,586.033,582.271,588.85,582.271,588.85z"/>
	<path id="path2113" fill="#FFFFFF" stroke="#838287" d="M604.099,542.377c7.043,10.561,4.225,14.082,0.705,16.193
		c-3.521,2.113,9.154,1.41,8.449-9.152s-4.225-16.195-4.225-16.195L604.099,542.377z"/>
</g>
<g id="g2126">
	<path id="path2104" fill="#FFFFFF" stroke="#838287" d="M306.244,548.713c-9.859-11.266-4.93-23.236,0-23.941
		c4.929-0.703,4.929,10.564,4.929,10.564s-5.634,0.703-5.634,6.336C305.539,547.307,306.244,548.713,306.244,548.713z"/>
	<path id="path2105" fill="#FFFFFF" stroke="#838287" d="M315.397,576.176c-7.746-6.338-9.153-16.898-5.634-19.717
		c3.521-2.816,10.563-4.225,10.563-4.225l7.041,9.154C327.368,561.389,313.989,564.908,315.397,576.176z"/>
	<path id="path2106" fill="#FFFFFF" stroke="#838287" d="M309.764,512.098c2.113-15.49,16.196-19.715,17.604-14.787
		c1.408,4.93,4.929,9.859,4.929,9.859l-7.745,5.631C324.552,512.801,314.692,505.762,309.764,512.098z"/>
	<path id="path2107" fill="#FFFFFF" stroke="#838287" d="M344.269,492.383c12.674-2.818,16.195-5.635,18.307,0.703
		c2.113,6.338,0.705,18.309,0.705,18.309l-6.338-2.818C356.942,508.576,355.534,491.678,344.269,492.383z"/>
	<path id="path2108" fill="#FFFFFF" stroke="#838287" d="M361.167,578.994c19.717-2.818,19.014-10.564,19.014-10.564l5.633,10.564
		C385.813,578.994,371.026,586.033,361.167,578.994z"/>
</g>
<g id="g2120">
	<path id="path2094" fill="#FFFFFF" stroke="#838287" d="M21.063,463.513c-0.705-7.745-9.858-11.267-14.083-11.267
		c-4.225,0-7.042,5.634-7.042,5.634s4.225,3.521,8.45,5.633C12.613,465.625,21.063,463.513,21.063,463.513z"/>
	<path id="path2095" fill="#FFFFFF" stroke="#838287" d="M-4.991,476.891c-3.521-7.744-8.45-9.857-14.083-9.857
		c-5.633,0-8.45,7.041-8.45,7.041s7.042,2.113,10.562,2.113C-13.44,476.188-4.991,476.891-4.991,476.891z"/>
	<path id="path2096" fill="#FFFFFF" stroke="#838287" d="M-30.34,499.424c-8.45-2.113-11.267,6.338-12.675,9.859
		c-1.408,3.518,2.113,10.561,2.113,10.561l7.042-8.449h9.154L-30.34,499.424z"/>
	<path id="path2097" fill="#FFFFFF" stroke="#838287" d="M41.483,464.922c4.226-6.338-0.704-14.084-0.704-14.084
		s11.971,4.225,11.266,13.379c-0.704,9.154-3.521,14.082-3.521,14.082L41.483,464.922z"/>
	<path id="path2098" fill="#FFFFFF" stroke="#838287" d="M3.459,564.908c8.45-1.406,8.45-2.113,11.971-5.631
		c3.521-3.521,3.521-7.746,3.521-7.746l6.338,5.633c0,0-0.704,7.041-6.338,8.449C13.317,567.021,8.388,569.135,3.459,564.908z"/>
</g>
<g id="g2114">
	<path id="path2099" fill="#FFFFFF" stroke="#838287" d="M154.147,615.609c-10.562-16.195-4.225-22.533-0.705-23.238
		c3.521-0.703,7.746,5.633,7.746,5.633S152.035,605.75,154.147,615.609z"/>
	<path id="path2100" fill="#FFFFFF" stroke="#838287" d="M163.301,638.844c-11.267-10.561-6.337-22.531,0.704-22.531
		c7.042,0,11.971,5.633,5.634,11.971C163.301,634.619,163.301,632.508,163.301,638.844z"/>
	<path id="path2101" fill="#FFFFFF" stroke="#838287" d="M195.692,652.223c-8.45-9.152-8.45-17.604-8.45-17.604l-11.267,0.705
		c0,0-2.816,11.266,3.521,14.084C185.834,652.223,191.467,650.111,195.692,652.223z"/>
	<path id="path2102" fill="#FFFFFF" stroke="#838287" d="M242.166,626.875c4.929-4.227,4.929-8.451,4.929-11.971
		s-4.929-11.971-4.929-11.971l7.042-2.816c0,0,5.634,11.971,3.52,17.604C250.615,623.354,246.391,624.762,242.166,626.875z"/>
	<path id="path2103" fill="#FFFFFF" stroke="#838287" d="M159.077,575.473c-4.929-2.818-11.267,9.152-11.267,9.152
		s-2.112-11.266,2.112-14.787c4.225-3.521,11.97-3.521,14.083-0.703c2.113,2.816,2.817,9.152,2.817,9.152L159.077,575.473z"/>
</g>
<path id="path1629" fill="#007137" stroke="#006025" d="M557.353,522.615c-1.004-11.047,2.008-19.082,4.52-21.09
	s5.523-7.031,5.523-7.031s3.516,8.035,2.512,10.043c-1.004,2.01,4.018-3.514,7.031-4.518c3.012-1.006,4.52-4.02,4.52-4.02
	s-1.508,7.031-1.508,11.049s-0.502,6.527-0.502,6.527s3.516-4.518,5.525-4.518c2.008,0,0,10.043-2.01,12.553
	c-2.008,2.514-15.064,12.055-15.064,12.055L557.353,522.615z"/>
<path id="path1628" fill="#007137" stroke="#006025" d="M391.632,543.207c8.035,7.533,11.549,6.023,12.053,9.541
	c0.502,3.514,0.502,8.035,0.502,8.035s7.029-7.533,10.545-7.533s8.035,5.02,8.035,5.02s-3.516-7.027-3.516-10.043
	c0-3.012,9.041-1.004,9.041-1.004s-1.006-4.016-7.031-5.02c-6.027-1.004-16.07-2.514-16.07-2.514L391.632,543.207z"/>
<path id="path1627" fill="#007137" stroke="#006025" d="M239.47,570.324c8.035,3.012,18.581,3.514,18.581,3.514s0-6.023,0-9.039
	c0-3.012,8.035-7.031,8.035-7.031s-8.035-7.529-11.551-7.027s-6.528,4.016-6.528,4.016s-1.004-2.008-1.004-6.027
	c0-4.016,0.502-7.027,0.502-7.027s-2.512,4.518-5.022,7.529c-2.511,3.016-12.053,8.035-12.053,8.035L239.47,570.324z"/>
<path id="path1626" fill="#007137" stroke="#006025" d="M53.159,556.764c-1.507,6.529,0.502,17.576,0.502,17.576
	s2.511-0.502,4.52-1.506s2.511-4.016,2.511-4.016s1.004,6.025,4.018,8.537c3.013,2.51,3.516,6.025,3.516,6.025
	s3.515-2.512,4.017-8.033c0.503-5.525,0-9.043,0-9.043s2.009,3.016,5.022,2.514c3.013-0.502,6.528,0,6.528,0s0-4.521-3.516-6.529
	c-3.515-2.008-10.044-6.027-10.044-6.027L53.159,556.764z"/>
<path id="path1616" sodipodi:nodetypes="cccccccccccccccccccccccc" fill="#00386A" stroke="#000000" d="M116.688,284.112
	c0.438-6.126,11.158-17.066,11.596-26.693c0.438-9.627-10.283-20.786-18.379-27.568c-8.095-6.783-28.224-16.628-28.224-43.978
	c0-27.349-8.314-38.07-14.441-44.416c-6.125-6.345-17.941-7.658-17.941-7.658s8.533,7.658,13.346,16.848
	c4.814,9.189,10.065,17.94,9.627,37.632c-0.438,19.691,8.095,31.506,11.159,35.007c3.063,3.501,18.597,17.066,22.755,20.786
	c4.157,3.72,8.314,8.752,7.657,12.034c-0.656,3.282-5.47,7.876-7.439,7.876s-37.633,41.353-37.852,43.978
	c-0.219,2.625-3.063,15.315-18.816,15.097c-15.753-0.219-33.914-10.064-44.635-9.846c-10.721,0.219-47.041,18.16-56.23,17.941
	c-9.189-0.219-18.379-2.625-22.755-4.594c-4.376-1.97-14.44-8.971-14.44-8.971s4.813,7.658,9.627,10.94s6.564,8.095,27.131,7.22
	s36.32-13.565,56.012-13.565c19.692,0,22.317,14.878,46.166,13.784c23.849-1.094,28.225-18.816,29.975-19.254
	C82.337,316.275,116.25,290.238,116.688,284.112z"/>
<path id="path1610" fill="#FFFFFF" stroke="#6A6D6B" stroke-width="1.125" d="M196.81,419.833c5.86,6.446,9.377,14.065,9.963,16.995
	c0.586,2.932,0,7.034,0,7.034s-1.758-6.446-5.274-5.275c-3.517,1.173-2.93,0.586-2.93,0.586s1.758,9.964,1.172,12.308
	c-0.586,2.345-2.344-1.758-2.344-1.758l0.586,11.135c0,0-2.93-2.344-5.274-3.516s-5.861-0.586-5.861-0.586s1.758,9.377,1.172,12.893
	c-0.586,3.518-2.93,8.791-2.93,8.791l-4.689-4.688l-2.93-5.861v21.098c0,0-4.688-5.273-9.377-5.861
	c-4.689-0.584-11.722-0.584-11.722-0.584s5.275,4.688,8.791,6.445c3.517,1.758,5.861,2.344,5.861,2.344s-4.689,5.275-6.447,8.791
	c-1.758,3.518-6.447,4.104-6.447,4.104s8.791,0,12.894-3.518c4.103-3.516,6.447-7.617,6.447-7.617s2.93,8.205,4.103,10.549
	c1.172,2.346,3.517,3.516,3.517,3.516s0-11.135,2.344-16.996c2.345-5.859,7.619-9.377,7.619-9.377s1.172,4.104,4.103,7.619
	c2.93,3.518,7.619,8.205,7.619,8.205s-0.586-13.48,0.586-19.34c1.172-5.861,5.86-11.135,5.86-11.135s0,5.859,4.688,8.205
	c4.689,2.344,6.447,3.516,6.447,3.516s-2.344-12.893-0.586-18.754c1.758-5.86,5.274-7.619,5.274-7.619s1.172,4.104,6.447,5.861
	s8.205,1.758,8.205,1.758s-2.93-6.447-1.758-12.307c1.172-5.861,3.517-15.824,3.517-15.824s3.517,7.618,8.791,8.204
	c5.275,0.587,6.447,0.587,6.447,0.587s-1.172-8.205-1.172-15.824s3.517-11.136,3.517-11.136s2.93,8.791,6.447,10.55
	c3.517,1.758,8.791,3.516,8.791,3.516s-1.757-8.791-0.585-16.41c1.172-7.618,5.275-14.065,7.032-11.135
	c1.758,2.931,2.345,9.377,5.275,11.721c2.93,2.346,5.275,4.689,5.275,4.689s-2.93-5.861,0.585-14.652
	c3.517-8.791,8.205-12.894,8.205-12.894s0.586,11.136,2.932,14.066c2.343,2.931,6.445,7.032,6.445,7.032s-1.172-8.205,1.173-14.652
	c2.344-6.447,9.963-11.721,9.963-11.721s-2.344,10.549-2.344,14.652c0,4.102,3.517,8.205,3.517,8.205s4.688-11.722,7.032-17.583
	c2.345-5.861,11.723-11.135,11.723-11.135s-1.172,6.447-0.588,9.377c0.588,2.931,1.174,15.238,3.518,13.48s5.275-9.377,7.619-14.066
	s11.721-5.861,11.721-5.861l-1.172,19.927c0,0,3.518-7.033,10.549-10.549c7.035-3.517,10.551-1.758,10.551-1.758l-0.586,18.755
	c0,0,9.377-5.275,15.824-7.033c6.445-1.758,11.721-1.758,11.721-1.758s-8.791,3.516-10.549,8.791c-1.76,5.274-0.586,5.86-0.586,5.86
	s8.791-3.517,14.064-2.931c5.275,0.586,10.549,1.172,10.549,1.172s-7.031,5.861-6.445,9.964s1.758,7.032,1.758,7.032
	s5.275-3.516,8.791-5.273c3.518-1.759,6.447-3.518,8.791-1.759c2.346,1.759-2.93,8.204-4.102,10.55
	c-1.172,2.344-2.93,5.859-2.93,5.859s3.514-2.344,8.205-1.758c4.688,0.586,11.135,2.346,11.135,2.346s-1.174,5.273-2.932,9.377
	c-1.758,4.102-3.516,8.791-3.516,8.791l15.238-4.689c0,0,0,7.619-0.588,10.55c-0.584,2.931-2.93,7.618-2.93,7.618
	s5.275-1.172,8.205-2.93s6.447-3.517,6.447-3.517s1.172,5.274,1.172,8.79c0,3.518,0,4.689,0,4.689s5.275-7.619,4.104-11.721
	c-1.172-4.104,0.584-7.619,0.584-7.619s7.621,5.274,10.551,7.619c2.93,2.344,5.861,4.688,5.861,4.688s0-8.205-1.76-11.721
	c-1.758-3.517-4.688-9.377-4.688-9.377s6.447,3.516,9.963,4.688c3.518,1.173,8.205,1.173,8.205,1.173s-6.447-5.86-6.447-11.136
	c0-5.273,1.76-9.377,1.76-9.377s4.102,2.93,8.789,2.93c4.689,0,5.275-0.586,5.275-0.586l-6.447-11.721c0,0,9.965-2.931,15.238-4.103
	c5.275-1.173,12.309-4.688,12.309-4.688s-18.754,90.842-60.951,83.221c-42.199-7.619-59.195-81.463-117.217-83.807
	c-58.021-2.345-148.276,123.074-192.817,118.385c-44.542-4.688-35.165-39.852-29.304-56.262
	c5.861-16.41,45.128-57.436,45.128-57.436L196.81,419.833z"/>
<path id="path931" fill="#FEFEFE" d="M87.8,319.614l-5.274,11.429l7.033-0.879l-1.465,6.447l7.619-1.172l-4.395,5.861l9.083-2.345
	l-2.051,5.274l5.861-3.223l-1.465,5.861l6.74-3.224l-4.103,4.396l4.982-0.879l0.586,7.033l8.205-2.638L87.8,319.614z"/>
<path id="path932" fill="#FEFEFE" d="M49.412,368.258l6.154-9.963l2.051,6.447l3.809-3.516l2.344,3.809l4.396-3.809l2.637,4.103
	l5.568-3.81l2.052,4.689c0,0,2.344-4.982,3.516-3.224c1.172,1.758,2.345,5.274,2.345,5.274l5.567-3.517l0.293,6.154l-7.912,3.809
	L49.412,368.258z"/>
<path id="path920" sodipodi:nodetypes="cccccccccccccccccccccccccccccccccccccccccccccccccccccccccccccccccccccccccccccccccccccccccccccccccccccccccccccccccccccccccccccccccccccccccccccccccccccccccccccccccccccccccccccccccccccccccccccccccccccccccccccccccccccccccccccccccccccccccccccccccccccccccccccccccccccccccccccccccccccccccssccccccccccccccccccccccccccccccccccccccccccccccccccccccccccccccccc" fill="#00386A" stroke="#000000" d="
	M46.685,361.084c-2.844,3.72-3.282,7.876-3.501,10.721c-0.219,2.844,1.094,8.095,0,10.94c-1.094,2.844-4.157,6.125-7.22,7.438
	c-3.063,1.313,6.345,3.72,8.971,3.063c2.625-0.657,11.815-3.282,11.815-3.282s-0.875,5.908-2.407,7.001
	c-1.532,1.094-6.564,3.501-6.564,3.501s9.408,0.656,12.69-0.876c3.282-1.531,7.658-6.125,7.658-6.125s-0.656,5.689,0.657,7.876
	c1.312,2.188,3.5,5.47,3.5,5.47s3.938-3.063,4.595-4.156c0.656-1.094,2.844-7.002,2.844-7.002s2.407,7.658,1.97,10.721
	c-0.438,3.063-5.688,8.096-5.688,8.096s8.095-3.063,10.064-5.032c1.969-1.97,5.033-5.688,5.033-5.688s0,7.439,0.437,9.408
	c0.438,1.969,0.438,8.096,0.438,8.096s5.47-2.408,6.783-3.282c1.313-0.876,2.844-6.126,2.844-6.126s-0.438,7,0.656,9.189
	c1.094,2.188,4.813,5.469,4.813,5.469s2.407-2.406,3.72-5.031c1.313-2.627,3.063-6.564,3.063-6.564s2.407,6.127,4.375,7.439
	c1.969,1.313,5.688,3.501,5.688,3.501s2.188-1.97,2.845-3.72c0.656-1.751,2.188-8.096,2.188-8.096s1.094,6.126,3.063,8.752
	c1.969,2.625,6.126,2.844,6.126,2.844s-1.313-7.22,0.219-7.877c1.532-0.656,6.345,0.657,8.095,2.626
	c1.75,1.97,5.032,4.376,5.032,4.376s0.876-3.938,1.97-6.782s2.625-8.533,2.625-8.533s0.657,6.563,0.657,8.533
	s-0.875,14.44-26.474,29.537c-25.6,15.097-43.541,36.538-45.072,46.165c-1.532,9.627-0.875,12.252-0.875,12.252
	s-9.626,1.094-13.784,5.471c-4.157,4.375-4.157,14.223-4.157,14.223s-11.815-1.314-21.005-5.473
	c-9.189-4.154-15.535-5.25-15.535-5.25s-1.094-4.377-2.188-5.471c-1.094-1.092-3.5-1.092-3.5-1.092s9.408-11.598,14.003-17.504
	c4.595-5.908,12.69-13.566,12.472-15.535c-0.219-1.969-7.439-11.595-9.189-10.939c-1.75,0.658-11.378,17.066-13.347,19.254
	c-1.97,2.188-4.813,9.627-7.439,9.846c-2.626,0.219-1.313-11.814-0.875-17.941c0.438-6.125,0.875-13.564-0.438-13.783
	s-8.971,1.094-10.721,2.189c-1.75,1.094-0.219,24.941-0.656,26.035s-7.439-0.438-10.284-4.594c-2.844-4.158-3.5-10.504-5.25-10.941
	c-1.75-0.438-10.065,1.313-10.503,3.502c-0.437,2.188,5.689,15.096,7.221,17.502c1.531,2.406,12.909,12.033,12.909,13.348
	c0,1.311-8.315,1.094-11.377-0.221c-3.063-1.311-18.161-10.283-19.911-9.625c-1.75,0.656-4.375,10.721-3.282,12.031
	c1.094,1.314,11.596,3.064,14.44,4.814c2.845,1.752,8.315,8.533,10.94,8.533c2.626,0,14.222-1.531,15.535-0.654
	c1.313,0.873,4.813,4.375,4.595,5.906c-0.218,1.531,0.875,11.158,0.219,16.189c-0.656,5.033,5.688,8.971,7.439,10.064
	c1.75,1.096,7.001,3.064,7.22,1.314c0.219-1.752-5.47-8.973-5.033-14.66c0.438-5.688,6.345-14.223,7.658-14.223
	s8.533,13.566,13.347,18.162c4.813,4.594,8.751,13.564,22.536,13.564c13.784,0,17.284-5.906,19.035-5.906
	c1.75,0,19.691,1.311,21.879,1.311c2.188,0,16.848,11.16,46.823,9.848c29.975-1.314,31.507-5.908,31.507-5.908
	s7.657,4.377,11.158,12.035c3.5,7.658,5.47,19.254,2.407,21.223c-3.063,1.969-14.878-8.533-21.223-12.691
	c-6.345-4.156-11.815-11.158-13.128-10.5c-1.313,0.654-6.345,5.248-6.564,7.438c-0.218,2.189,23.192,17.285,22.537,18.596
	c-0.657,1.314-13.785-3.938-19.036-3.938c-5.25,0-8.532,6.564-8.97,8.754c-0.437,2.188,5.908,6.125,7.439,5.906
	c1.531-0.219,5.907-3.938,11.377-3.938c5.47,0,12.252,3.938,12.034,6.346c-0.219,2.406-3.938,5.469-7.658,5.688
	c-3.719,0.219-10.283,1.313-11.814,2.408c-1.532,1.092-0.657,12.25,2.188,12.033c2.844-0.221,12.252-8.096,14.659-7.879
	c2.407,0.221,5.689-0.875,5.689,0.439c0,1.313-10.065,7.875-10.94,11.158c-0.875,3.281,1.75,6.127,5.251,8.096
	c3.5,1.969,1.75,0.217,5.47-0.877c3.72-1.092,19.472-24.723,21.223-25.16c1.75-0.438,14.44-0.438,17.722-0.656
	c3.282-0.219,8.533-6.127,12.034-6.127s4.376,4.377,5.47,4.814c1.093,0.438,8.314-6.346,8.314-9.189
	c0-2.846-2.625-6.564-5.689-6.127c-3.063,0.438-6.345,4.813-10.064,4.813c-3.719,0-19.035,0.656-19.911-1.313
	c-0.875-1.969,8.533-17.504,12.252-19.91s16.848-7.875,17.066-11.814s0.219-6.564-4.376-10.502
	c-4.595-3.938-12.033-15.533-12.033-19.691s7.219-5.908,13.783-12.473c6.563-6.564,72.86-85.328,103.709-84.016
	c30.852,1.313,52.293,17.504,61.482,29.975s7.221,7.439,6.344,9.627c-0.875,2.188-13.127,5.689-17.283,10.721
	c-4.158,5.031-6.127,21.441-6.783,24.943c-0.656,3.5-15.754,12.689-19.91,12.689s-7.877,1.75-7.658,0s3.063-10.941,2.188-20.566
	c-0.875-9.627-0.875-16.41-3.721-16.191c-2.842,0.219-4.813,4.156-5.031,6.344c-0.219,2.189,0,24.068-1.313,24.725
	s-24.287-25.598-26.037-25.162c-1.75,0.438-7.221,8.314-7.002,10.504c0.221,2.186,21.443,19.033,21.225,20.348
	c-0.219,1.313-8.972,1.092-12.69,0.438c-3.721-0.656-14.659-6.563-17.942-6.563c-3.281,0-4.595,5.906-4.375,8.313
	c0.219,2.408,1.75,6.563,6.564,7.002c4.813,0.438,25.379-0.877,25.379,1.092c0,1.971-3.063,6.127-9.845,8.096
	c-6.784,1.973-12.69,2.189-14.66,2.627c-1.969,0.438-1.312,1.969-1.312,4.156c0,2.189,2.406,3.939,6.345,4.814
	c3.938,0.875,13.783-0.219,15.972-0.875c2.188-0.656,14.66-8.533,18.379-8.314c3.721,0.219,4.813,3.719,5.908,6.781
	c1.094,3.064,2.844,8.754,7.002,9.848c4.156,1.094,10.938,1.752,10.719,3.5c-0.217,1.752,0.658,8.096,5.033,7.658
	c4.377-0.438,7.439-3.5,7.658-7.221c0.219-3.719-10.721-6.127-14.66-11.158c-3.938-5.033-7.658-9.189-6.781-12.689
	c0.875-3.502,25.381-2.627,29.318-2.406c3.938,0.217,12.91,2.188,14.221,0.436c1.313-1.75,11.379-19.035,15.535-21.004
	c4.158-1.969,12.908-0.875,14.879-2.188c1.969-1.313-1.094-6.346,8.75-5.471c9.846,0.877,33.258,2.188,40.041,5.471
	c6.783,3.281,20.785,6.127,30.193,7.219c9.408,1.096,22.537,4.814,29.1,12.691c6.564,7.877,6.346,11.377,5.252,13.566
	c-1.094,2.186-15.973,1.531-20.348,1.311c-4.377-0.217-17.506-0.656-17.941,5.252c-0.438,5.908,4.813,9.191,8.533,8.314
	c3.719-0.875,3.719-4.156,9.188-4.156c5.471,0,18.379-3.063,18.598-1.094s-5.688,9.846-8.531,11.158
	c-2.846,1.313-13.127,1.969-13.785,6.127c-0.656,4.156,3.939,7.658,7.221,7.438c3.281-0.217,11.377-9.844,13.564-11.158
	c2.189-1.313,5.471-5.033,7.002-4.596c1.533,0.438,0.438,8.973-1.313,12.254c-1.75,3.283-3.063,10.064-3.063,10.064
	s0.438,3.939,4.594,3.719c4.156-0.219,7.877-4.375,8.971-8.094c1.094-3.721,0.438-21.443,2.625-22.1
	c2.189-0.656,5.471,3.063,7.439,7.877c1.969,4.813,2.188,14.441,6.564,14.223c4.375-0.221,8.533-8.096,8.096-13.348
	c-0.438-5.25-12.473-13.127-12.91-17.502c-0.436-4.379,31.945-21.662,32.164-25.164c0.219-3.5-5.471-8.094-8.096-8.531
	s-25.818,21.879-29.537,20.785c-3.721-1.094,2.406-27.35-2.189-30.412c-4.594-3.064-8.531,1.748-13.564-0.875
	c-5.033-2.627-2.844-12.691-14.002-23.193s-16.848-0.656-16.848-4.158c0-3.5,10.721-22.971,14.439-33.473
	c3.721-10.504,4.814-33.695,16.191-37.195c11.379-3.502,17.723,3.063,26.037,3.281s15.535-2.844,15.535-2.844
	s-12.473,0.437-16.848-0.219c-4.377-0.657-10.064-5.033-10.064-5.033s17.285,2.844,25.162,2.844c7.875,0,29.535-1.969,29.535-1.969
	s-20.566-1.094-27.785-1.313c-7.221-0.219-9.627-3.72-9.189-4.813c0.436-1.095,21.66,2.407,29.975,2.188s29.975-5.908,29.975-5.908
	s-19.473,2.845-26.256,2.845s-16.627-3.72-21.004-3.938s-7.439-1.094-6.783-2.844c0.656-1.751,8.314-3.064,11.596-3.064
	c3.283,0,15.973,2.846,19.912,2.626c3.938-0.219,21.004-1.094,29.537-4.157c8.533-3.063,14.877-6.783,14.877-6.783
	s-15.314,4.158-19.471,3.939c-4.158-0.219-14.225-2.188-17.725-1.969c-3.5,0.218-8.096-0.657-7.877-3.063s12.691,2.625,33.695-7.438
	c21.004-10.065,31.068-22.537,31.068-22.537s-17.721,11.159-25.816,14.66c-8.096,3.5-9.627,3.938-10.723,1.75
	c-1.094-2.188,9.191-10.065,14.004-14.66c4.814-4.594,11.596-13.784,14.877-15.753c3.283-1.969,15.975-8.752,15.975-8.752
	s-13.129-0.218-19.035,3.063c-5.908,3.282-17.943,16.41-19.693,15.316c-1.75-1.094,1.094-9.846,5.252-14.003
	c4.156-4.158,14.002-10.065,19.035-14.66s5.033-11.159,5.033-11.159s-4.596,6.126-7.439,8.314
	c-2.846,2.188-8.533,3.719-11.596,5.907c-3.064,2.188-6.566,8.096-7.877,7.439c-1.314-0.656,1.531-9.627,4.375-14.222
	c2.844-4.594,7.658-11.377,12.91-16.409c5.25-5.033,15.533-12.69,15.533-12.69s-10.939,3.063-15.314,5.469
	c-4.377,2.407-12.473,10.065-14.879,13.347c-2.406,3.282-5.908,11.596-7.439,10.502c-1.531-1.094,2.188-11.596,4.596-18.598
	c2.406-7.002,5.25-15.315,9.846-19.473c4.594-4.157,12.908-9.408,12.033-9.408s-14.441,3.501-20.568,9.408
	c-6.125,5.908-14.221,26.256-15.752,25.818c-1.531-0.437-0.656-11.815,0.656-16.628s6.127-20.129,6.127-20.129
	s-8.971,12.69-11.158,18.16c-2.189,5.47-8.752,25.162-9.629,28.881c-0.875,3.719-2.188,9.626-2.188,9.626s-1.75-7.876-1.094-14.222
	c0.656-6.345,7.658-28.88,7.658-28.88s-8.314,13.565-10.283,20.129c-1.971,6.564-5.471,22.755-7.002,27.788
	c-1.531,5.032-1.75,8.095-2.846,7.876c-1.092-0.219-2.842-10.939,0-21.223c2.846-10.283,8.754-24.505,8.754-24.505
	s-7.877,7.658-10.064,12.471c-2.189,4.813-4.158,16.191-5.689,21.004s-1.75,20.786-3.063,21.442
	c-1.314,0.657-2.406-15.315-1.969-19.035c0.436-3.72,5.688-22.974,5.688-22.974s-8.096,20.786-8.314,24.943
	c-0.219,4.157-2.625,27.349-4.156,28.224s-1.752-15.097-1.531-19.911c0.219-4.813,3.938-24.067,3.938-24.067
	s-6.127,16.847-7.658,22.317s-2.625,29.318-4.596,29.756c-1.969,0.438-2.842-16.41-2.188-21.223
	c0.656-4.813,3.502-23.411,3.502-23.411s-5.689,13.784-7.221,21.004s-1.531,25.162-3.063,25.38
	c-1.531,0.218-4.158-10.065-3.721-15.097c0.438-5.033,6.127-22.755,6.127-22.755s-8.096,18.817-9.846,22.537
	c-1.75,3.719-2.188,14.002-3.719,13.565c-1.531-0.438-2.846-4.814-2.408-8.533c0.438-3.72,4.596-19.473,4.596-19.473
	s-8.314,12.91-10.066,18.379c-1.75,5.47-0.654,14.222-2.406,14.222c-1.75,0-3.5-5.907-3.281-9.408
	c0.219-3.5,3.063-15.315,3.063-15.315s-5.469,11.596-6.125,15.753c-0.656,4.157-0.219,10.721-1.531,10.721
	c-1.314,0-2.846-6.783-2.627-10.94s0-14.222,0-14.222s-2.844,14.878-3.281,17.941c-0.438,3.063,1.531,13.127-0.219,13.346
	s-4.377-3.501-5.908-7.22s-3.281-11.159-3.281-11.159s-1.094,11.596-1.969,16.191c-0.877,4.595,3.281,10.283,2.406,11.158
	s-4.814,1.094-8.752-1.969s-5.689-3.938-5.689-3.938s4.158,12.689,5.252,16.41c1.094,3.719,5.25,6.564,5.25,9.627
	s-6.563,18.16-18.816,37.633c-12.252,19.473-17.283,34.787-34.568,35.662c-17.285,0.877-22.537-5.906-29.1-12.033
	c-6.564-6.125-29.975-46.603-64.326-61.918c-34.352-15.316-74.853-1.058-98.021,11.814c-36.701,20.391-72.902,89.996-121.432,94.082
	c-11.795,0.992-24.287-12.033-23.193-18.379c1.094-6.346,5.033-16.41,24.724-35.006c19.692-18.599,24.067-30.852,26.037-37.196
	s-1.313-18.599-1.313-18.599s3.063,0.438,4.157,2.189c1.094,1.75,3.063,3.938,3.063,3.938s1.532-3.5,1.532-6.782
	s-4.376-17.066-4.376-17.066s26.037,6.563,27.787,6.126c1.75-0.438,15.535-10.502,15.535-10.502s-6.345,1.75-10.065,0.875
	c-3.719-0.875-10.283-8.971-10.283-8.971s6.563,2.625,10.501,2.845c3.939,0.218,10.94-7.877,10.94-7.877s-9.627,0.219-13.564,0.219
	c-3.939,0-12.253-1.532-12.253-1.532s8.534-2.188,12.253-3.72s11.814-9.189,11.814-9.189l-16.19-7.658c0,0,6.563-5.47,8.971-8.751
	c2.406-3.282,4.595-5.688,4.595-5.688s-6.345,0.656-12.471-0.219c-6.126-0.875-10.065-4.157-10.065-4.157s3.938,0.438,8.095-1.313
	c4.157-1.75,6.783-4.813,6.783-4.813s-9.408-3.938-13.128-3.938s-9.846,3.063-9.846,3.063s7.439-7.876,7.658-11.159
	c0.219-3.282-0.875-9.408-0.875-9.408s-0.438,7.877-2.188,9.627c-1.75,1.751-4.595,3.063-5.47,3.063c-0.875,0,1.75-3.72,0.875-8.096
	c-0.875-4.376-8.752-11.377-8.752-11.377s3.501,8.752,3.283,12.253c-0.219,3.5-8.315,18.816-15.098,17.941
	c-6.782-0.875-14.222-24.287-24.724-24.943c-10.502-0.657-8.971,3.063-8.971,3.063s-1.313-7.876-3.282-10.283
	c-1.969-2.407-5.032-5.47-5.032-5.47s-0.723,9.342-0.723,12.405c0,3.063-2.313,10.435-2.313,10.435l-3.966,8.886
	c0,0-7.876-7.22-14.659-19.911c-6.783-12.69-8.314-11.815-7.877-17.941c0.438-6.125-8.314-20.129-10.283-20.129
	c-1.97,0-2.845-5.251-5.689-9.408c-2.844-4.157-10.284-6.126-10.284-6.126s5.908,6.126,5.908,10.94s0,5.47-1.531,6.564
	c-1.532,1.094-14.222-0.656-14.003,1.094c0.219,1.75,6.564,6.782,6.564,8.751s-5.251,1.969-9.189,3.5
	c-3.938,1.532-7.439,6.126-7.439,7.22c0,1.095,6.345,4.376,5.908,7.002c-0.438,2.625-12.253,9.189-12.909,11.596
	s5.032,0.219,4.814,2.844c-0.219,2.625,10.283,9.189,12.034,8.752c1.75-0.438,4.813-0.438,5.47,0.875
	c0.656,1.313-0.219,4.595,0.437,7.22c0.657,2.625,6.783,10.065,10.503,13.128c3.719,3.063,30.631,13.565,29.318,32.163
	c-1.313,18.598-11.596,15.098-14.66,14.66c-3.063-0.438-19.691-19.692-34.132-19.91c-14.44-0.219-14.66,2.844-21.004,2.407
	C50.404,368.086,51.06,367.867,46.685,361.084z"/>
<path id="path928" fill="#FFFFFF" d="M159.887,349.797c-10.256,9.67-9.084,7.033-13.773,7.033c-4.688,0-8.205-4.103-9.67-6.153
	c-1.465-2.051-1.172-3.81-2.93-4.103c-1.758-0.293-4.103,0.293-4.103,0.293s-0.293-4.103,1.172-6.447
	c1.465-2.344,4.981-5.275,9.083-5.275s9.084,4.103,9.964,7.033c0.879,2.93,0.879,7.033,2.93,7.033S159.887,349.797,159.887,349.797z
	"/>
<path id="path937" fill="none" stroke="#FFFFFF" stroke-width="2.5" d="M456.44,509.5c16.996,7.033,50.402,12.309,60.951,14.652
	c10.549,2.346,29.305,3.516,37.51,15.238c8.205,11.721,6.445,17.582,6.445,17.582"/>
<path id="path938" fill="none" stroke="#FFFFFF" stroke-width="2.5" d="M519.735,563.42c13.48-2.932,33.994-3.516,33.994-3.516"/>
<path id="path939" fill="none" stroke="#FFFFFF" stroke-width="2.5" d="M538.491,585.691c10.549-5.275,21.684-20.512,21.684-20.512"
	/>
<path id="path940" fill="none" stroke="#FFFFFF" stroke-width="2.5" d="M560.763,595.654c3.516-15.238,4.688-36.924,4.688-36.924"/>
<path id="path941" fill="none" stroke="#FFFFFF" stroke-width="2.5" d="M568.38,557.559c16.412,14.066,18.17,30.477,18.17,30.477"/>
<path id="path942" fill="none" stroke="#FFFFFF" stroke-width="2.5" d="M572.483,552.285c21.098-5.275,30.475-16.998,30.475-16.998"
	/>
<path id="path944" fill="none" stroke="#FFFFFF" stroke-width="2.5" d="M537.319,419.246c9.963-33.992,30.475-35.164,38.096-37.508
	c7.617-2.344,39.852-9.377,45.713-14.065c5.859-4.688,18.168-13.479,24.029-22.857c5.859-9.377,8.205-14.065,8.205-14.065
	s-1.172,22.857-5.861,32.82s-22.271,24.029-32.234,27.546c-9.963,3.516-26.959,8.791-36.336,10.548
	c-9.379,1.759-15.824,3.518-22.271,10.55s-23.443,59.778-23.443,59.778"/>
<path id="path945" sodipodi:nodetypes="cccc" fill="none" stroke="#FFFFFF" stroke-width="2.5" d="M414.243,487.816
	c-21.098,3.516-16.996,15.238-20.512,24.615c-3.518,9.377-4.104,13.479-12.309,16.996c-8.205,3.516-16.996,5.273-16.996,5.273"/>
<path id="path946" fill="none" stroke="#FFFFFF" stroke-width="2.5" d="M416.587,486.059c2.344,15.238,22.271,26.373,22.271,26.373"
	/>
<path id="path947" fill="none" stroke="#FFFFFF" stroke-width="2.5" d="M430.067,479.611c-0.586,14.066,16.996,33.404,16.996,33.404
	"/>
<path id="path948" fill="none" stroke="#FFFFFF" stroke-width="2.5" d="M323.987,501.297c11.721,11.135,31.063,30.477,31.063,30.477
	"/>
<path id="path949" fill="none" stroke="#FFFFFF" stroke-width="2.5" d="M359.153,493.678c1.758,19.926,2.342,31.063,0,36.336
	c-2.346,5.273-2.346,5.273-2.346,5.273"/>
<path id="path950" fill="none" stroke="#FFFFFF" stroke-width="2.5" d="M315.196,554.043c16.996-1.758,20.512-2.932,24.615-6.447
	c4.102-3.518,14.066-8.791,14.066-8.791"/>
<path id="path951" fill="none" stroke="#FFFFFF" stroke-width="2.5" d="M360.325,539.391c5.273,22.857,20.512,27.547,20.512,27.547"
	/>
<path id="path952" fill="none" stroke="#FFFFFF" stroke-width="2.5" d="M307.577,526.498c19.341,7.031,38.096,7.619,38.096,7.619"/>
<path id="path955" fill="none" stroke="#FFFFFF" stroke-width="2.5" d="M163.989,569.867c9.963,11.723,31.648,24.615,31.648,24.615"
	/>
<path id="path956" fill="none" stroke="#FFFFFF" stroke-width="2.5" d="M154.026,593.311c23.443,4.102,27.546,5.859,35.165,5.859
	c7.619,0,10.549-1.172,10.549-1.172"/>
<path id="path957" fill="none" stroke="#FFFFFF" stroke-width="2.5" d="M240.765,603.859c-12.894,1.76-28.718-1.172-28.718-1.172"/>
<path id="path958" fill="none" stroke="#FFFFFF" stroke-width="2.5" d="M178.055,633.162c8.205-7.619,16.41-16.408,19.926-20.514
	c3.517-4.102,1.758-8.203,1.758-8.203"/>
<path id="path959" fill="none" stroke="#FFFFFF" stroke-width="2.5" d="M165.748,619.098c14.651-1.758,21.098-4.689,24.615-8.207
	c3.516-3.516,7.033-8.203,7.033-8.203"/>
<path id="path922" fill="none" stroke="#FFFFFF" stroke-width="2.5" d="M144.063,313.46c6.447,2.051,12.307-5.275,16.41-4.396
	c4.103,0.879,5.275,10.549,9.67,13.772c4.396,3.224,4.688,4.396,7.619,4.982c2.93,0.586,5.86-0.293,5.86-0.293
	s-4.981,6.74-7.326,8.498c-2.344,1.758-7.912,0.879-9.67,4.396c-1.758,3.517-4.103,6.447-4.103,6.447s3.809-5.567,6.447-5.275
	c2.637,0.293,12.601,7.326,15.531,10.843c2.93,3.517,4.981,6.153,4.981,6.153s-5.567-0.586-9.963,0.293
	c-4.395,0.879-8.791,3.223-13.187,2.93s-8.791-1.465-8.791-1.465s5.568,7.62,7.326,11.722c1.758,4.103-0.293,5.861,1.172,8.205
	c1.465,2.344,3.223,2.637,3.223,2.637s-11.428-0.293-17.289-0.879c-5.861-0.586-16.117-3.517-16.117-3.517
	s4.396,11.428,4.103,17.875c-0.293,6.447-0.586,14.358-0.586,14.358s-5.275-2.344-13.187-5.86s-9.377-1.465-15.238-6.153
	c-5.86-4.688-0.586-3.224-11.721-12.015c-11.136-8.791-21.392-9.67-25.202-9.67c-3.81,0-9.377,1.465-12.307,0.586
	c-2.931-0.879-7.912-6.447-7.912-6.447"/>
<path id="path923" fill="none" stroke="#FFFFFF" stroke-width="2.5" d="M97.763,279.468c-0.586-8.206,4.396-7.326,6.74-7.912
	s7.033,3.517,7.033,7.033c0,3.517-7.619,4.982-7.619,4.982s5.567,2.344,6.153,4.981c0.586,2.638,1.172,7.912,2.052,9.084
	c0.879,1.172,3.223,3.517,3.223,3.517"/>
<path id="path925" fill="none" stroke="#FFFFFF" stroke-width="2.5" d="M103.624,321.958c7.033-9.084,15.825-10.549,15.825-10.549"
	/>
<path id="path926" fill="none" stroke="#FFFFFF" stroke-width="2.5" d="M111.829,329.577c1.465-9.377,11.721-12.307,11.721-12.307"
	/>
<path id="path927" fill="none" stroke="#FFFFFF" stroke-width="2.5" d="M122.378,333.387c0.879-10.257,9.67-10.257,9.67-10.257"/>
<path id="path935" fill="none" stroke="#FFFFFF" stroke-width="2.5" d="M163.989,417.488c-9.963,18.754-16.996,25.201-24.029,30.477
	c-7.033,5.274-38.681,17.582-45.128,58.021c-6.447,40.436,38.681,51.572,49.23,52.16c10.549,0.584,31.648-2.348,31.648-2.348"/>
<path id="path936" fill="none" stroke="#FFFFFF" stroke-width="2.5" d="M234.905,522.98c15.824-14.652,75.602-86.152,111.354-86.738
	s63.295,26.374,69.156,36.924c5.861,10.549,9.963,15.822,9.963,15.822"/>
<path id="path953" fill="none" stroke="#FFFFFF" stroke-width="2.5" d="M229.63,503.641c-7.033,20.512-5.861,29.889-5.275,35.164
	c0.586,5.273,14.065,21.684,13.48,25.787c-0.586,4.102-10.55,10.549-15.824,18.754s-7.619,15.824-7.619,15.824"/>
<path id="path954" fill="none" stroke="#FFFFFF" stroke-width="2.5" d="M178.055,534.701c3.517,14.066,12.308,19.928,15.824,24.615
	c3.517,4.689,11.136,13.48,10.549,21.1c-0.586,7.619-2.93,15.238-2.93,15.238"/>
<path id="path960" fill="none" stroke="#FFFFFF" stroke-width="2.5" d="M87.214,508.328c-19.927,8.205-15.824,21.1-19.341,24.029
	s-9.963-4.689-22.856-9.377c-12.894-4.689-18.755-6.447-18.755-6.447"/>
<path id="path933" fill="#FFFFFF" d="M181.278,376.17c7.033,2.931,13.187,12.308,16.117,15.824
	c2.93,3.517,12.894,12.602,24.322,16.41c11.429,3.81,18.755,9.963,32.234,9.963c13.48,0,17.875-1.172,17.582-8.205
	c-0.292-7.032-4.396-11.428-6.739-11.428c-2.345,0-0.587,2.93-4.689,2.93c-4.103,0-11.429,1.759-16.703-1.172
	c-5.275-2.93-19.341-10.256-26.96-16.703c-7.619-6.447-10.256-13.187-23.442-14.066C179.813,368.844,180.692,372.068,181.278,376.17
	z"/>
<path id="path929" fill="#FFFFFF" d="M148.458,324.009c0,0-3.516,2.638-7.912,0.293c-4.396-2.344-5.568-6.447-5.274-11.135
	c0.292-4.688,2.93-6.154,6.739-6.447c3.81-0.293,7.912,3.223,7.326,6.74C148.751,316.977,145.235,321.08,148.458,324.009z"/>
<path id="path924" fill="none" stroke="#FFFFFF" stroke-width="2.5" d="M108.313,337.196c-9.67-3.809-14.359-8.791-16.996-12.014
	c-2.638-3.224-5.275-7.912-6.154-13.48c-0.879-5.567,0-8.498,1.172-11.135c1.172-2.638,3.224-2.931,3.224-2.931"/>
<path id="path1611" sodipodi:ry="36.612179" sodipodi:cx="99.941353" sodipodi:type="arc" sodipodi:rx="38.591217" sodipodi:cy="110.64559" fill="#E6170F" d="
	M27.48,233.168c0-23.475-19.176-42.505-42.83-42.505c-23.654,0-42.83,19.03-42.83,42.505c0,23.475,19.176,42.505,42.83,42.505
	C8.305,275.674,27.48,256.643,27.48,233.168z"/>
<path id="path1612" sodipodi:ry="36.612179" sodipodi:cx="99.941353" sodipodi:type="arc" sodipodi:rx="38.591217" sodipodi:cy="110.64559" fill="#E6170F" d="
	M145.868,343.35c0-2.921-2.12-5.29-4.735-5.29s-4.735,2.369-4.735,5.29c0,2.921,2.12,5.29,4.735,5.29
	S145.868,346.271,145.868,343.35z"/>
<path id="path1613" sodipodi:ry="36.612179" sodipodi:cx="99.941353" sodipodi:type="arc" sodipodi:rx="38.591217" sodipodi:cy="110.64559" fill="#E6170F" d="
	M147.04,316.098c0-2.921-2.121-5.29-4.735-5.29c-2.616,0-4.735,2.369-4.735,5.29c0,2.921,2.12,5.29,4.735,5.29
	C144.919,321.387,147.04,319.019,147.04,316.098z"/>
<path id="path1614" sodipodi:ry="36.612179" sodipodi:cx="99.941353" sodipodi:type="arc" sodipodi:rx="38.591217" sodipodi:cy="110.64559" fill="#FFFFFF" d="
	M97.224,306.427c0-2.112-1.595-3.824-3.563-3.824s-3.563,1.712-3.563,3.824c0,2.112,1.595,3.824,3.563,3.824
	S97.224,308.54,97.224,306.427z"/>
<path id="path1615" sodipodi:ry="36.612179" sodipodi:cx="99.941353" sodipodi:type="arc" sodipodi:rx="38.591217" sodipodi:cy="110.64559" fill="#FFFFFF" d="
	M107.187,282.691c0-2.112-1.595-3.824-3.563-3.824c-1.968,0-3.563,1.712-3.563,3.824s1.595,3.825,3.563,3.825
	C105.592,286.516,107.187,284.804,107.187,282.691z"/>
<path id="path1617" fill="none" stroke="#FFFFFF" stroke-width="1.25" d="M615.071,359.096c-1.963-20.608,9.814-54.957,9.814-54.957
	"/>
<path id="path1618" fill="none" stroke="#FFFFFF" stroke-width="1.25" d="M625.866,355.171c0-28.46,9.814-56.92,9.814-56.92"/>
<path id="path1619" fill="none" stroke="#FFFFFF" stroke-width="1.25" d="M636.663,341.432
	c-0.982-22.572,15.701-57.902,15.701-57.902"/>
<path id="path1620" fill="none" stroke="#FFFFFF" stroke-width="1.25" d="M650.401,328.674c0.98-19.627,24.535-48.088,24.535-48.088
	"/>
<path id="path1621" fill="none" stroke="#FFFFFF" stroke-width="1.25" d="M557.353,413.644c14.564-5.021,17.074-4.52,22.096-3.013
	c5.023,1.507,16.07,5.021,16.07,5.021"/>
<path id="path1622" fill="none" stroke="#FFFFFF" stroke-width="1.25" d="M571.917,403.098c14.061,0,18.078,5.022,23.1,5.022
	s14.061-1.507,18.078-0.503c4.018,1.005,6.529,2.01,6.529,2.01"/>
<path id="path1623" fill="none" stroke="#FFFFFF" stroke-width="1.25" d="M611.589,395.063c7.029,3.515,14.563,5.022,20.086,4.519
	c5.525-0.502,20.59-3.012,20.59-3.012"/>
<path id="path1624" fill="none" stroke="#FFFFFF" stroke-width="1.25" d="M635.692,382.006c7.533,3.013,30.131-4.52,30.131-4.52"/>
<path id="path1625" fill="none" stroke="#FFFFFF" stroke-width="1.25" d="M648.247,372.967
	c11.551-3.014,21.594-17.577,21.594-17.577"/>
<path id="path934" fill="#FFFFFF" d="M192.414,340.712c0-7.325,7.62-5.86,11.136-4.395c3.517,1.465,12.601,5.861,19.048,7.912
	c6.446,2.051,20.219,8.206,28.424,9.67c8.205,1.465,17.875,0.586,21.684,2.052c3.811,1.465,7.033,6.739,5.861,11.135
	c-1.173,4.396-5.861,7.033-16.118,6.74c-10.256-0.293-24.614-6.74-38.68-12.894c-14.066-6.153-16.997-4.395-23.15-8.205
	C194.465,348.917,191.828,348.332,192.414,340.712z"/>
<path id="path1630" fill="none" stroke="#FFFFFF" stroke-width="2.5" d="M154.519,324.187c4.75-3.325,5.7-4.275,7.759-3.8
	c2.058,0.475,5.7,3.483,5.7,3.483"/>
<path id="path1631" fill="none" stroke="#FFFFFF" stroke-width="2.5" d="M154.202,330.361c8.551-4.908,12.826,0.951,12.826,0.951"/>
<path id="path1632" fill="none" stroke="#FFFFFF" stroke-width="2.5" d="M153.411,337.328c4.591-3.008,13.617,1.9,13.617,1.9"/>
<path id="path1633" fill="none" stroke="#FFFFFF" stroke-width="2.5" d="M156.894,342.237c7.284-0.792,10.609,6.175,10.609,6.175"/>
<g id="g1979">
	<path id="path1655" fill="none" stroke="#FFFFFF" stroke-width="0.5" d="M209.466,503c7.005,9.477,17.306,19.365,17.306,19.365"/>
	<path id="path1659" fill="none" stroke="#FFFFFF" stroke-width="0.5" d="M244.08,467.975c5.357,14.834,17.307,23.898,17.307,23.898
		"/>
	<path id="path1660" fill="none" stroke="#FFFFFF" stroke-width="0.5" d="M253.144,460.146
		c7.417,16.893,15.659,26.371,15.659,26.371"/>
	<path id="path1661" fill="none" stroke="#FFFFFF" stroke-width="0.5" d="M258.913,453.553c5.357,9.891,17.307,25.135,17.307,25.135
		"/>
	<path id="path1662" fill="none" stroke="#FFFFFF" stroke-width="0.5" d="M265.095,446.549
		c21.014,26.783,16.482,26.371,16.482,26.371"/>
	<path id="path1663" fill="none" stroke="#FFFFFF" stroke-width="0.5" d="M270.863,439.131
		c8.242,11.125,17.307,26.785,17.307,26.785"/>
	<path id="path1673" fill="none" stroke="#FFFFFF" stroke-width="0.5" d="M372.644,440.779c16.895-5.77,20.191-23.076,20.191-23.076
		"/>
	<path id="path1674" fill="none" stroke="#FFFFFF" stroke-width="0.5" d="M358.222,407.814
		c15.244,20.191,19.779,32.965,19.779,32.965"/>
	<path id="path1711" fill="none" stroke="#FFFFFF" stroke-width="0.5" d="M285.698,471.684c2.472-29.256,9.066-46.975,9.066-46.975"
		/>
	<path id="path1712" fill="none" stroke="#FFFFFF" stroke-width="0.5" d="M304.24,419.352c-2.06,22.252-1.648,35.438-1.648,35.438"
		/>
	<path id="path1713" fill="none" stroke="#FFFFFF" stroke-width="0.5" d="M318.663,412.347c-2.885,15.246-4.533,31.729-4.533,31.729
		"/>
	<path id="path1714" fill="none" stroke="#FFFFFF" stroke-width="0.5" d="M326.079,436.658c7.418-16.895,9.066-26.371,9.066-26.371"
		/>
	<path id="path1715" fill="none" stroke="#FFFFFF" stroke-width="0.5" d="M344.622,408.227c-2.059,17.719-2.059,25.548-2.059,25.548
		"/>
	<path id="path1716" fill="none" stroke="#FFFFFF" stroke-width="0.5" d="M359.87,409.463c-2.885,16.07-6.594,25.959-6.594,25.959"
		/>
	<path id="path1717" fill="none" stroke="#FFFFFF" stroke-width="0.5" d="M383.769,443.252c9.066-5.77,20.604-17.307,20.604-17.307"
		/>
	<path id="path1718" fill="none" stroke="#FFFFFF" stroke-width="0.5" d="M393.245,448.608
		c21.016-12.774,23.488-14.423,23.488-14.423"/>
	<path id="path1719" fill="none" stroke="#FFFFFF" stroke-width="0.5" d="M399.429,454.789c23.074-4.944,27.607-9.478,27.607-9.478"
		/>
	<path id="path1721" fill="none" stroke="#FFFFFF" stroke-width="0.5" d="M413.851,471.271c17.717-2.061,30.08-5.355,30.08-5.355"/>
	<path id="path1743" fill="none" stroke="#FFFFFF" stroke-width="0.5" d="M37.636,535.553c2.884-11.949,2.472-14.01,2.472-14.01"/>
	<path id="path1744" fill="none" stroke="#FFFFFF" stroke-width="0.5" d="M41.757,538.848c8.241-13.598,8.241-11.949,8.241-11.949"
		/>
	<path id="path1745" fill="none" stroke="#FFFFFF" stroke-width="0.5" d="M52.882,529.371
		c14.422,29.256,15.247,27.197,15.247,27.197"/>
	<path id="path1746" fill="none" stroke="#FFFFFF" stroke-width="0.5" d="M64.832,529.783c11.95,24.311,14.834,23.898,14.834,23.898
		"/>
	<path id="path1747" fill="none" stroke="#FFFFFF" stroke-width="0.5" d="M70.601,522.365c25.548,23.9,27.196,30.494,27.196,30.494"
		/>
	<path id="path1748" fill="none" stroke="#FFFFFF" stroke-width="0.5" d="M54.942,555.332
		c24.724-11.125,31.317-27.195,31.317-27.195"/>
	<path id="path1749" fill="none" stroke="#FFFFFF" stroke-width="0.5" d="M71.425,556.979c12.774-8.652,20.603-19.777,20.603-19.777
		"/>
	<path id="path1750" fill="none" stroke="#FFFFFF" stroke-width="0.5" d="M47.113,544.207c34.613-25.961,35.025-23.9,35.025-23.9"/>
	<path id="path1664" fill="none" stroke="#FFFFFF" stroke-width="0.5" d="M279.929,432.126c4.945,9.478,17.719,25.96,17.719,25.96"
		/>
	<path id="path1665" fill="none" stroke="#FFFFFF" stroke-width="0.5" d="M289.406,426.357
		c7.004,10.713,19.779,25.547,19.779,25.547"/>
	<path id="path1666" fill="none" stroke="#FFFFFF" stroke-width="0.5" d="M297.647,420.588
		c10.301,16.895,16.895,24.313,16.895,24.313"/>
	<path id="path1667" fill="none" stroke="#FFFFFF" stroke-width="0.5" d="M311.245,416.467c9.064,11.95,14.01,23.076,14.01,23.076"
		/>
	<path id="path1668" fill="none" stroke="#FFFFFF" stroke-width="0.5" d="M324.844,411.935c9.89,21.016,11.95,25.136,11.95,25.136"
		/>
	<path id="path1669" fill="none" stroke="#FFFFFF" stroke-width="0.5" d="M334.321,408.639c8.652,15.658,14.01,27.607,14.01,27.607"
		/>
	<path id="path1670" fill="none" stroke="#FFFFFF" stroke-width="0.5" d="M347.507,409.051
		c9.066,23.899,11.949,26.783,11.949,26.783"/>
	<path id="path1671" fill="none" stroke="#FFFFFF" stroke-width="0.5" d="M362.753,435.01c12.361-16.482,16.07-21.839,16.07-21.839"
		/>
	<path id="path1672" fill="none" stroke="#FFFFFF" stroke-width="0.5" d="M379.235,413.994
		c16.07,37.086,21.428,42.855,21.428,42.855"/>
	<path id="path1675" fill="none" stroke="#FFFFFF" stroke-width="0.5" d="M393.245,418.939
		c25.549,34.201,30.494,58.924,30.494,58.924"/>
	<path id="path1676" fill="none" stroke="#FFFFFF" stroke-width="0.5" d="M412.202,428.83
		c22.662,32.965,33.787,72.934,40.381,77.877c6.594,4.947,14.422,9.479,14.422,9.479"/>
	<path id="path1695" fill="none" stroke="#FFFFFF" stroke-width="0.5" d="M436.925,493.934c63.459-4.119,88.594-4.945,88.594-4.945"
		/>
	<path id="path1696" fill="none" stroke="#FFFFFF" stroke-width="0.5" d="M440.222,499.703c64.281,0.824,105.076,0,105.076,0"/>
	<path id="path1697" fill="none" stroke="#FFFFFF" stroke-width="0.5" d="M453.407,509.592c59.338-0.822,50.684,0.412,65.93,0.412
		s34.203,0.824,34.203,0.824"/>
	<path id="path1720" fill="none" stroke="#FFFFFF" stroke-width="0.5" d="M408.493,464.268c40.793-9.891,31.729-6.182,31.729-6.182"
		/>
	<path id="path1723" fill="none" stroke="#FFFFFF" stroke-width="0.5" d="M426.622,486.93c16.07-7.006,31.318-6.594,31.318-6.594"/>
	<path id="path1677" fill="none" stroke="#FFFFFF" stroke-width="0.5" d="M451.759,474.156
		c11.949,23.898,22.664,40.793,22.664,40.793"/>
	<path id="path1678" fill="none" stroke="#FFFFFF" stroke-width="0.5" d="M476.483,490.227c11.125,23.486,19.779,28.02,19.779,28.02
		"/>
	<path id="path1679" fill="none" stroke="#FFFFFF" stroke-width="0.5" d="M490.493,485.281
		c9.064,22.664,23.488,37.908,23.488,37.908"/>
	<path id="path1680" fill="none" stroke="#FFFFFF" stroke-width="0.5" d="M499.97,479.1c20.191,34.201,30.494,48.211,30.494,48.211"
		/>
	<path id="path1681" fill="none" stroke="#FFFFFF" stroke-width="0.5" d="M509.448,468.799
		c20.191,35.438,42.854,56.451,44.502,63.045c1.648,6.592,2.061,8.242,2.061,8.242"/>
	<path id="path1684" fill="none" stroke="#FFFFFF" stroke-width="0.5" d="M525.931,439.543c6.594,7.006,13.186,15.246,13.186,15.246
		"/>
	<path id="path1724" fill="none" stroke="#FFFFFF" stroke-width="0.5" d="M505.739,474.156c13.186,1.236,26.785,1.236,26.785,1.236"
		/>
	<path id="path1725" fill="none" stroke="#FFFFFF" stroke-width="0.5" d="M512.745,460.559c21.428-3.297,24.311-2.061,24.311-2.061"
		/>
	<path id="path1726" fill="none" stroke="#FFFFFF" stroke-width="0.5" d="M522.222,444.076c14.422-0.412,21.84-5.357,21.84-5.357"/>
	<path id="path1727" fill="none" stroke="#FFFFFF" stroke-width="0.5" d="M530.052,428.417c13.186-0.411,17.719-1.647,17.719-1.647"
		/>
	<path id="path1682" fill="none" stroke="#FFFFFF" stroke-width="0.5" d="M546.122,498.055
		c3.297,11.949,20.602,34.613,21.838,41.619c1.238,7.004,0.824,11.537,0.824,11.537"/>
	<path id="path1698" fill="none" stroke="#FFFFFF" stroke-width="0.5" d="M479.778,518.246c60.162-1.236,50.686,0.41,58.102,1.234
		c7.418,0.826,32.965,2.063,32.965,2.063"/>
	<path id="path1732" fill="none" stroke="#FFFFFF" stroke-width="0.5" d="M548.595,530.607c20.189,4.531,24.311,7.416,24.311,7.416"
		/>
	<path id="path1683" fill="none" stroke="#FFFFFF" stroke-width="0.5" d="M517.276,454.789
		c6.594,10.715,15.248,19.367,15.248,19.367"/>
	<path id="path1685" fill="none" stroke="#FFFFFF" stroke-width="0.5" d="M533.761,423.885c7.828,11.949,8.652,13.598,8.652,13.598"
		/>
	<path id="path1734" fill="none" stroke="#FFFFFF" stroke-width="0.5" d="M403.96,491.461
		c15.246,28.846,25.137,30.904,25.137,30.904"/>
	<path id="path1739" fill="none" stroke="#FFFFFF" stroke-width="0.5" d="M371.407,532.668c11.949,9.477,12.361,6.592,12.361,6.592"
		/>
	<path id="path1740" fill="none" stroke="#FFFFFF" stroke-width="0.5" d="M382.532,540.498c5.357-7.83,34.615-43.268,34.615-43.268"
		/>
	<path id="path1742" fill="none" stroke="#FFFFFF" stroke-width="0.5" d="M409.317,541.32c9.477-7.828,25.547-28.02,25.547-28.02"/>
	<path id="path1735" fill="none" stroke="#FFFFFF" stroke-width="0.5" d="M395.306,506.707c10.715,5.77,25.549,23.076,25.549,23.076
		"/>
	<path id="path1737" fill="none" stroke="#FFFFFF" stroke-width="0.5" d="M387.478,525.662
		c11.125,10.715,22.252,19.367,22.252,19.367"/>
	<path id="path1738" fill="none" stroke="#FFFFFF" stroke-width="0.5" d="M381.71,528.959c8.24,9.889,11.949,14.01,11.949,14.01"/>
	<path id="path1736" fill="none" stroke="#FFFFFF" stroke-width="0.5" d="M391.187,521.131c16.07,11.949,22.252,16.07,22.252,16.07"
		/>
	<path id="path1741" fill="none" stroke="#FFFFFF" stroke-width="0.5" d="M394.483,540.086
		c19.777-12.361,32.139-32.555,32.139-32.555"/>
	<path id="path1688" fill="none" stroke="#FFFFFF" stroke-width="0.5" d="M543.649,409.463c5.355,4.12,8.242,9.064,8.242,9.064"/>
	<path id="path1728" fill="none" stroke="#FFFFFF" stroke-width="0.5" d="M550.243,397.513c19.365,2.06,37.084-5.357,48.623-8.653
		c11.537-3.296,26.371-6.181,26.371-6.181"/>
	<path id="path1729" fill="none" stroke="#FFFFFF" stroke-width="0.5" d="M559.308,389.684
		c22.252-2.473,47.799-12.774,54.805-12.774c7.004,0,25.135-6.181,25.135-6.181"/>
	<path id="path1730" fill="none" stroke="#FFFFFF" stroke-width="0.5" d="M624.825,365.784c5.357-0.824,18.955-1.648,18.955-1.648
		l1.236-1.236"/>
	<path id="path1731" fill="none" stroke="#FFFFFF" stroke-width="0.5" d="M635.95,355.895c9.891,0.412,12.363-2.885,12.363-2.885"/>
	<path id="path1686" fill="none" stroke="#FFFFFF" stroke-width="0.5" d="M560.956,389.684c3.297,10.713,4.121,11.949,4.121,11.949"
		/>
	<path id="path1687" fill="none" stroke="#FFFFFF" stroke-width="0.5" d="M548.183,399.572c7.416,9.066,7.416,9.066,7.416,9.066"/>
	<path id="path1689" fill="none" stroke="#FFFFFF" stroke-width="0.5" d="M570.433,384.326c3.297,11.538,7.418,16.07,7.418,16.07"/>
	<path id="path1690" fill="none" stroke="#FFFFFF" stroke-width="0.5" d="M583.62,379.382c4.531,11.95,5.768,16.07,5.768,16.07"/>
	<path id="path1691" fill="none" stroke="#FFFFFF" stroke-width="0.5" d="M594.333,376.497c8.654,13.598,9.064,14.422,9.064,14.422
		l0.412,1.236"/>
	<path id="path1692" fill="none" stroke="#FFFFFF" stroke-width="0.5" d="M605.046,373.201c11.951,15.659,10.303,14.01,10.303,14.01
		"/>
	<path id="path1693" fill="none" stroke="#FFFFFF" stroke-width="0.5" d="M617.819,367.844c7.418,7.417,10.715,11.538,10.715,11.538
		"/>
	<path id="path1694" fill="none" stroke="#FFFFFF" stroke-width="0.5" d="M631.419,361.251c8.24,4.533,9.477,6.181,9.477,6.181"/>
	<path id="path1635" fill="none" stroke="#FFFFFF" stroke-width="0.5" d="M200.813,413.171c-4.12-5.356-10.302-4.944-16.482-8.653
		s-13.186-16.07-13.186-16.07"/>
	<path id="path1636" fill="none" stroke="#FFFFFF" stroke-width="0.5" d="M172.38,389.271c10.714,25.547,8.241,39.97,8.241,39.97"/>
	<path id="path1637" fill="none" stroke="#FFFFFF" stroke-width="0.5" d="M164.963,417.703c11.125-2.061,11.125,11.95,13.186,16.482
		c2.06,4.533,5.769,16.483,5.769,16.483"/>
	<path id="path1638" fill="none" stroke="#FFFFFF" stroke-width="0.5" d="M159.194,429.653c0,0,5.769,16.896,8.241,21.427
		c2.473,4.533,5.769,11.126,5.769,11.126"/>
	<path id="path1639" fill="none" stroke="#FFFFFF" stroke-width="0.5" d="M150.129,439.955c-0.413,13.186,9.889,33.789,9.889,33.789
		"/>
	<path id="path1640" fill="none" stroke="#FFFFFF" stroke-width="0.5" d="M139.416,450.256c1.236,9.891,10.301,34.613,10.301,34.613
		"/>
	<path id="path1641" fill="none" stroke="#FFFFFF" stroke-width="0.5" d="M129.114,458.91c3.297,29.668,27.196,96.834,27.196,96.834
		"/>
	<path id="path1642" fill="none" stroke="#FFFFFF" stroke-width="0.5" d="M119.224,465.504
		c0.413,25.133,24.312,89.828,24.312,89.828"/>
	<path id="path1643" fill="none" stroke="#FFFFFF" stroke-width="0.5" d="M108.099,478.275
		c2.884,31.316,17.307,72.521,17.307,72.521"/>
	<path id="path1644" fill="none" stroke="#FFFFFF" stroke-width="0.5" d="M97.797,493.523c2.884,27.195,12.361,46.975,12.361,46.975
		"/>
	<path id="path1645" fill="none" stroke="#FFFFFF" stroke-width="0.5" d="M197.517,417.703
		c-7.417,5.357-98.071,72.523-98.071,72.523"/>
	<path id="path1646" fill="none" stroke="#FFFFFF" stroke-width="0.5" d="M190.923,442.016
		c-43.679,30.08-91.066,62.221-92.302,64.691c-1.236,2.473-1.236,2.885-1.236,2.885"/>
	<path id="path1647" fill="none" stroke="#FFFFFF" stroke-width="0.5" d="M97.385,517.834c6.593-1.648,51.508-32.141,51.508-32.141"
		/>
	<path id="path1648" fill="none" stroke="#FFFFFF" stroke-width="0.5" d="M103.154,531.02c7.829-2.061,43.267-23.9,43.267-23.9"/>
	<path id="path1649" fill="none" stroke="#FFFFFF" stroke-width="0.5" d="M113.868,545.854c18.955-9.477,45.739-28.02,45.739-28.02"
		/>
	<path id="path1650" fill="none" stroke="#FFFFFF" stroke-width="0.5" d="M129.114,554.506c11.538-7.002,49.036-35.85,49.036-35.85"
		/>
	<path id="path1651" fill="none" stroke="#FFFFFF" stroke-width="0.5" d="M153.837,556.568
		c16.071-10.715,15.247-11.127,15.247-11.127"/>
	<path id="path1652" fill="none" stroke="#FFFFFF" stroke-width="0.5" d="M177.325,519.48c7.005,7.83,14.422,32.143,19.367,37.088
		c4.944,4.943,20.603,29.668,20.603,29.668"/>
	<path id="path1653" fill="none" stroke="#FFFFFF" stroke-width="0.5" d="M191.335,517.422c4.121,9.477,32.553,53.568,32.553,53.568
		"/>
	<path id="path1654" fill="none" stroke="#FFFFFF" stroke-width="0.5" d="M200.401,511.24c5.356,9.891,24.724,31.316,24.724,31.316"
		/>
	<path id="path1656" fill="none" stroke="#FFFFFF" stroke-width="0.5" d="M224.3,489.814c4.533,11.537,13.598,26.783,13.598,26.783"
		/>
	<path id="path1657" fill="none" stroke="#FFFFFF" stroke-width="0.5" d="M230.893,485.693
		c5.769,10.301,14.835,22.252,14.835,22.252"/>
	<path id="path1658" fill="none" stroke="#FFFFFF" stroke-width="0.5" d="M236.662,476.627
		c14.834,22.664,16.482,25.137,16.482,25.137"/>
	<path id="path1699" fill="none" stroke="#FFFFFF" stroke-width="0.5" d="M194.632,515.773
		c-7.005,14.01-11.538,21.016-11.538,21.016"/>
	<path id="path1700" fill="none" stroke="#FFFFFF" stroke-width="0.5" d="M204.521,507.119
		c-5.769,28.846-12.774,40.385-12.774,40.385"/>
	<path id="path1701" fill="none" stroke="#FFFFFF" stroke-width="0.5" d="M197.104,557.391
		c16.895-44.502,20.603-61.809,20.603-61.809"/>
	<path id="path1702" fill="none" stroke="#FFFFFF" stroke-width="0.5" d="M202.049,568.105
		c18.955-18.543,24.312-61.398,24.312-61.398"/>
	<path id="path1703" fill="none" stroke="#FFFFFF" stroke-width="0.5" d="M205.757,578.408c11.538-17.309,16.483-31.73,16.483-31.73
		"/>
	<path id="path1704" fill="none" stroke="#FFFFFF" stroke-width="0.5" d="M212.351,582.939
		c15.659-19.777,19.367-29.668,19.367-29.668"/>
	<path id="path1705" fill="none" stroke="#FFFFFF" stroke-width="0.5" d="M232.13,482.396c-4.945,22.664-5.357,23.486-5.357,23.486"
		/>
	<path id="path1706" fill="none" stroke="#FFFFFF" stroke-width="0.5" d="M241.607,517.834c9.477-35.025,2.884-48.211,2.884-48.211"
		/>
	<path id="path1707" fill="none" stroke="#FFFFFF" stroke-width="0.5" d="M253.557,500.115c7.004-36.672,5.356-48.211,5.356-48.211"
		/>
	<path id="path1709" fill="none" stroke="#FFFFFF" stroke-width="0.5" d="M265.507,489.814c0.824-9.479,5.356-48.623,5.356-48.623"
		/>
	<path id="path1710" fill="none" stroke="#FFFFFF" stroke-width="0.5" d="M282.813,433.361c-7.004,37.498-8.653,48.211-8.653,48.211
		"/>
	<path id="path1751" sodipodi:nodetypes="cc" fill="none" stroke="#FFFFFF" stroke-width="0.5" d="M157.974,518.035
		c1.581,11.527,7.093,27.063,11.313,35.939"/>
</g>
<path id="path2093" sodipodi:nodetypes="cc" fill="none" stroke="#FFFFFF" stroke-width="2.5" d="M85.141,503.648
	c1.408,35.912,19.012,48.586,19.012,48.586"/>
<path id="path961" fill="none" stroke="#FFFFFF" stroke-width="2.5" d="M24.503,521.223c1.172,13.479-3.516,16.41-4.688,21.098
	c-1.172,4.689,3.517,9.965,3.517,9.965"/>
<path id="path962" fill="none" stroke="#FFFFFF" stroke-width="2.5" d="M-32.932,503.055c20.513,5.273,17.583,9.377,23.443,9.961
	c5.861,0.588,21.685,0.588,21.685,0.588"/>
<path id="path963" fill="none" stroke="#FFFFFF" stroke-width="2.5" d="M-9.488,474.924c2.93,16.408,20.512,29.889,20.512,29.889"/>
<path id="path964" fill="none" stroke="#FFFFFF" stroke-width="2.5" d="M15.126,465.547c-2.93,19.34,1.758,36.334,1.758,36.334"/>
<path id="path965" fill="none" stroke="#FFFFFF" stroke-width="2.5" d="M23.917,502.469c17.583-14.066,23.443-29.303,23.443-29.303"
	/>
<path id="path1753" fill="none" stroke="#FFFFFF" stroke-width="2.5" d="M180.965,555.434
	c-17.999-23.293-11.646-35.996-11.646-35.996"/>
</svg>
