<?xml version="1.0" encoding="UTF-8" standalone="no"?>
<svg
   xmlns:dc="http://purl.org/dc/elements/1.1/"
   xmlns:cc="http://web.resource.org/cc/"
   xmlns:rdf="http://www.w3.org/1999/02/22-rdf-syntax-ns#"
   xmlns:svg="http://www.w3.org/2000/svg"
   xmlns="http://www.w3.org/2000/svg"
   xmlns:sodipodi="http://inkscape.sourceforge.net/DTD/sodipodi-0.dtd"
   xmlns:inkscape="http://www.inkscape.org/namespaces/inkscape"
   width="600"
   height="700"
   viewBox="0 0 600 600"
   style="fill:#000000; stroke:none"
   id="svg1409"
   sodipodi:version="0.32"
   inkscape:version="0.43"
   sodipodi:docname="Croix_recroisetée_au_pied_fiché.svg"
   sodipodi:docbase="/Users/fabriceantoine/Desktop/blason/gabarit/croix"
   version="1.0">
  <metadata
     id="metadata1420">
    <rdf:RDF>
      <cc:Work
         rdf:about="">
        <dc:format>image/svg+xml</dc:format>
        <dc:type
           rdf:resource="http://purl.org/dc/dcmitype/StillImage" />
        <cc:license
           rdf:resource="http://web.resource.org/cc/PublicDomain" />
        <dc:title>Croix recroisetée au pied fiché</dc:title>
      </cc:Work>
      <cc:License
         rdf:about="http://web.resource.org/cc/PublicDomain">
        <cc:permits
           rdf:resource="http://web.resource.org/cc/Reproduction" />
        <cc:permits
           rdf:resource="http://web.resource.org/cc/Distribution" />
        <cc:permits
           rdf:resource="http://web.resource.org/cc/DerivativeWorks" />
      </cc:License>
    </rdf:RDF>
  </metadata>
  <defs
     id="defs1418" />
  <sodipodi:namedview
     guidetolerance="10.0"
     gridtolerance="10.0"
     objecttolerance="10.0"
     inkscape:window-height="950"
     inkscape:window-width="1117"
     inkscape:pageshadow="2"
     inkscape:pageopacity="0.0"
     borderopacity="1.0"
     bordercolor="#666666"
     pagecolor="#ffffff"
     id="base"
     inkscape:zoom="0.99405745"
     inkscape:cx="300"
     inkscape:cy="410.04337"
     inkscape:window-x="0"
     inkscape:window-y="22"
     inkscape:current-layer="svg1409" />
  <title
     id="title1411">Heraldic Cross Crosslet</title>
  <desc
     id="desc1413">Heraldic Cross Crosslet</desc>
  <path
     d="M 325,504.06139 L 300,626.93054 L 275,504.06139 L 275,403.37641 L 275,273.37641 L 145,273.37641 L 145,348.37641 L 95,348.37641 L 95,273.37641 L 20,273.37641 L 20,223.37641 L 95,223.37641 L 95,148.37641 L 145,148.37641 L 145,223.37641 L 275,223.37641 L 275,93.37641 L 200,93.37641 L 200,43.37641 L 275,43.37641 L 275,-31.62359 L 325,-31.62359 L 325,43.37641 L 400,43.37641 L 400,93.37641 L 325,93.37641 L 325,223.37641 L 455,223.37641 L 455,148.37641 L 505,148.37641 L 505,223.37641 L 580,223.37641 L 580,273.37641 L 505,273.37641 L 505,348.37641 L 455,348.37641 L 455,273.37641 L 325,273.37641 L 325,403.37641 L 325,504.06139 z "
     id="path1415"
     sodipodi:nodetypes="cccccccccccccccccccccccccccccccccccccccc"
     style="fill:#000000;fill-opacity:1;stroke:#000000;stroke-opacity:1;stroke-width:2;stroke-miterlimit:4;stroke-dasharray:none" />
</svg>
