<?xml version="1.0" encoding="UTF-8" standalone="no"?>
<!-- Created with Inkscape (http://www.inkscape.org/) -->
<svg
   xmlns:svg="http://www.w3.org/2000/svg"
   xmlns="http://www.w3.org/2000/svg"
   version="1.0"
   width="250"
   height="300"
   viewBox="0 0 71.795 90.182"
   id="svg11048"
   xml:space="preserve"><defs
   id="defs11066" />
	
		<g
   id="g6401"><path
     d="M 29.738807,62.945549 C 27.048864,69.296762 23.723375,71.867796 20.495142,74.988617 C 24.113573,75.005135 27.720185,74.310276 31.457904,71.174666 C 31.521566,80.8496 32.915917,84.156878 36.27701,87.407444 C 39.599973,84.258477 41.135507,80.860295 41.124297,71.174666 C 44.862015,74.310279 48.459235,75.005138 52.077665,74.988617 C 48.849666,71.868025 45.533231,69.295734 42.843394,62.945549 L 29.738807,62.945549 z "
     style="fill:#fcef3c;fill-opacity:1;fill-rule:evenodd;stroke:black;stroke-width:0.90182;stroke-linecap:butt;stroke-linejoin:miter;stroke-miterlimit:4;stroke-dasharray:none;stroke-opacity:1"
     id="path1914" /><rect
     width="29.158859"
     height="4.7715344"
     x="21.706974"
     y="58.178268"
     style="color:black;fill:#fcef3c;fill-opacity:1;fill-rule:nonzero;stroke:black;stroke-width:0.90182;stroke-linecap:butt;stroke-linejoin:miter;marker:none;marker-start:none;marker-mid:none;marker-end:none;stroke-miterlimit:4;stroke-dasharray:none;stroke-dashoffset:0;stroke-opacity:1;visibility:visible;display:inline;overflow:visible"
     id="rect2782" /><path
     d="M 126.28125,7.9375 C 91.339572,45.032066 77.889524,87.763056 105.65625,141.28125 C 111.99786,157.53971 116.99469,174.3258 115.96875,193.53125 L 136.59375,193.53125 C 135.56781,174.3258 140.56463,157.53971 146.90625,141.28125 C 174.67298,87.763061 161.22293,45.032066 126.28125,7.9375 z "
     transform="matrix(0.300607,0,0,0.300607,-1.678333,0)"
     style="fill:#fcef3c;fill-opacity:1;fill-rule:evenodd;stroke:black;stroke-width:2.99999666;stroke-linecap:butt;stroke-linejoin:miter;stroke-miterlimit:4;stroke-dasharray:none;stroke-opacity:1"
     id="path1993" /><path
     d="M 52.25,100 C 17.014691,100.84534 -6.4773133,160.01799 67.46875,188.875 C 43.029039,141.00056 88.364495,158.74296 94.34375,193.53125 L 111.875,193.53125 C 102.19567,122.87043 74.822961,99.458446 52.25,100 z "
     transform="matrix(0.300607,0,0,0.300607,-1.678333,0)"
     style="fill:#fcef3c;fill-opacity:1;fill-rule:evenodd;stroke:black;stroke-width:2.99999666;stroke-linecap:butt;stroke-linejoin:miter;stroke-miterlimit:4;stroke-dasharray:none;stroke-opacity:1"
     id="path1881" /><path
     d="M 198.96875,100 C 176.66733,100.41761 150.20435,124.28444 140.71875,193.53125 L 158.21875,193.53125 C 164.19831,158.74296 209.56471,141.00056 185.125,188.875 C 260.01909,159.64802 234.94647,99.326296 198.96875,100 z "
     transform="matrix(0.300607,0,0,0.300607,-1.678333,0)"
     style="fill:#fcef3c;fill-opacity:1;fill-rule:evenodd;stroke:black;stroke-width:2.99999666;stroke-linecap:butt;stroke-linejoin:miter;stroke-miterlimit:4;stroke-dasharray:none;stroke-opacity:1"
     id="path2776" /></g>
	</svg>