<?xml version="1.0" standalone="no"?>
<!DOCTYPE svg PUBLIC "-//W3C//DTD SVG 1.0//EN" "http://www.w3.org/TR/2001/REC-SVG-20010904/DTD/svg10.dtd">
<svg  width="600" height="600" viewBox="0 0 600 600">
<title>Heraldic Cross Flory</title>
<desc>Heraldic Cross Flory</desc>
<rect x="0" y="0" width="600" height="600" style="fill:#ffffff; stroke:none"/>
<g transform="scale(0.15,0.15)" style="fill:#000000; stroke:none">
<path d="M1778.9,3200
C1778.9,3266.79,1724.75,3320.93,1657.97,3320.93
C1591.18,3320.93,1537.04,3266.79,1537.04,3200
C1485.93,3242.08,1456.32,3304.81,1456.32,3371.02
C1456.32,3493.35,1555.49,3592.53,1677.83,3592.53
C1729.19,3592.53,1778.96,3574.68,1818.61,3542.03
C1818.61,3671.64,1887.76,3791.4,2000,3856.21
C2112.24,3791.4,2181.39,3671.64,2181.39,3542.03
C2221.04,3574.68,2270.81,3592.53,2322.17,3592.53
C2444.51,3592.53,2543.68,3493.35,2543.68,3371.02
C2543.68,3304.81,2514.07,3242.08,2462.96,3200
C2462.96,3266.79,2408.82,3320.93,2342.03,3320.93
C2275.25,3320.93,2221.1,3266.79,2221.1,3200
V2221.1
H3200
C3266.79,2221.1,3320.93,2275.25,3320.93,2342.03
C3320.93,2408.82,3266.79,2462.96,3200,2462.96
C3242.08,2514.07,3304.81,2543.68,3371.02,2543.68
C3493.35,2543.68,3592.53,2444.51,3592.53,2322.17
C3592.53,2270.81,3574.68,2221.04,3542.03,2181.39
C3671.64,2181.39,3791.4,2112.24,3856.21,2000
C3791.4,1887.76,3671.64,1818.61,3542.03,1818.61
C3574.68,1778.96,3592.53,1729.19,3592.53,1677.83
C3592.53,1555.49,3493.35,1456.32,3371.02,1456.32
C3304.81,1456.32,3242.08,1485.93,3200,1537.04
C3266.79,1537.04,3320.93,1591.18,3320.93,1657.97
C3320.93,1724.75,3266.79,1778.9,3200,1778.9
H2221.1
V800
C2221.1,733.214,2275.25,679.073,2342.03,679.073
C2408.82,679.073,2462.96,733.214,2462.96,800
C2514.07,757.922,2543.68,695.188,2543.68,628.984
C2543.68,506.648,2444.51,407.475,2322.17,407.475
C2270.81,407.475,2221.04,425.324,2181.39,457.969
C2181.39,328.36,2112.24,208.597,2000,143.793
C1887.76,208.597,1818.61,328.36,1818.61,457.969
C1778.96,425.324,1729.19,407.475,1677.83,407.475
C1555.49,407.475,1456.32,506.648,1456.32,628.984
C1456.32,695.188,1485.93,757.922,1537.04,800
C1537.04,733.214,1591.18,679.073,1657.97,679.073
C1724.75,679.073,1778.9,733.214,1778.9,800
V1778.9
H800
C733.214,1778.9,679.073,1724.75,679.073,1657.97
C679.073,1591.18,733.214,1537.04,800,1537.04
C757.922,1485.93,695.188,1456.32,628.984,1456.32
C506.648,1456.32,407.475,1555.49,407.475,1677.83
C407.475,1729.19,425.324,1778.96,457.969,1818.61
C328.36,1818.61,208.597,1887.76,143.793,2000
C208.597,2112.24,328.36,2181.39,457.969,2181.39
C425.324,2221.04,407.475,2270.81,407.475,2322.17
C407.475,2444.51,506.648,2543.68,628.984,2543.68
C695.188,2543.68,757.922,2514.07,800,2462.96
C733.214,2462.96,679.073,2408.82,679.073,2342.03
C679.073,2275.25,733.214,2221.1,800,2221.1
H1778.9Z"/>
</g>
</svg>
