<?xml version="1.0" encoding="utf-8"?>
<!-- Generator: Adobe Illustrator 12.0.1, SVG Export Plug-In . SVG Version: 6.00 Build 51448)  -->
<!DOCTYPE svg PUBLIC "-//W3C//DTD SVG 1.1//EN" "http://www.w3.org/Graphics/SVG/1.1/DTD/svg11.dtd" [
	<!ENTITY ns_svg "http://www.w3.org/2000/svg">
	<!ENTITY ns_xlink "http://www.w3.org/1999/xlink">
]>
<svg  version="1.1" id="Layer_1" xmlns:odm="http://product.corel.com/CGS/11/cddns/" xmlns="&ns_svg;" xmlns:xlink="&ns_xlink;"
	 width="3544" height="3544" viewBox="0 0 3544 3544" overflow="visible" enable-background="new 0 0 3544 3544"
	 xml:space="preserve">
<g id="Ebene_1">
	<g>
		<path fill="none" stroke="#363D42" stroke-width="244" d="M1751.663,1604.012l17.146-8.954l-24.196-15.813"/>
		<rect x="1433.5" y="1433.5" fill="#DD0000" width="675" height="675"/>
		<rect x="1495.608" y="1493.894" fill="#FFCE00" width="549.64" height="553.069"/>
		<path fill="#DD0000" d="M1719.084,1832.822l-40.39,75.826c-11.622,22.29-46.295-6.287-51.439,15.813
			c-5.334,23.814,27.244,8.383,38.294,8.383c0.762,0-13.908,14.67-18.29,19.242c-10.288,9.907,15.241,24.195,25.529-2.096
			c8.192-21.338,6.478,10.669,9.526,16.575c5.334,10.479,15.051,10.288,17.909-0.762c3.239-13.527-15.051-36.39,2.858-48.392
			c6.858-4.572,40.961,2.286,34.483-17.146c-3.239-9.907-18.48-0.381-27.053-0.381c-0.572,0,1.714-7.621,2.857-9.336
			c6.859-10.669,18.29-25.147,23.814-35.816C1752.996,1822.535,1733.754,1828.44,1719.084,1832.822L1719.084,1832.822
			L1719.084,1832.822L1719.084,1832.822z"/>
		<path fill="#DD0000" d="M1813.58,1840.634c18.1-25.72,32.77,37.913,35.437,42.676c8.573,13.146,11.812,29.34,26.291,34.483
			c7.812,2.477,54.106-18.671,39.438,13.336c-4.764,10.098-41.343,0.381-27.054,11.24c4.382,3.43,10.098,1.715,10.098,9.717
			c0,22.862-23.243-3.239-25.339-5.525c-9.526-13.146-0.952,6.859-5.906,19.433c-2.667,6.669-15.051,3.43-16.385-0.571
			c-2.857-8.954,4.954-43.247-12.192-50.677c-7.24-2.858-30.482,4.572-30.482-5.145c0-26.862,37.912,2.286,27.243-19.242
			c-3.048-6.097-37.15-52.582-21.147-49.915l0,0l0,0V1840.634z"/>
		<path fill="#2B2828" d="M1797.577,1913.792c5.906-0.571,16.193,0.19,16.193-6.097c0,0-0.381-5.524-0.762-5.524
			c-9.335-2.858-13.526,5.905-15.432,11.431l0,0V1913.792z"/>
		<path fill="#2B2828" d="M1746.9,1912.84c-5.525-0.572-15.813,0.381-15.813-6.097l0.381-5.335
			C1740.994,1898.551,1745.185,1907.124,1746.9,1912.84L1746.9,1912.84L1746.9,1912.84L1746.9,1912.84z"/>
		<path fill="#2B2828" d="M1924.651,1928.462c-4.191,0.571-14.288,3.048-16.003-3.048c0,0,0.762-4.382,1.143-4.573
			C1916.269,1916.078,1921.794,1923.318,1924.651,1928.462L1924.651,1928.462L1924.651,1928.462z"/>
		<path fill="#2B2828" d="M1620.206,1938.369c4.382-0.763,12.574,0.571,12.574-6.097c0,0,0-5.335-0.19-5.335
			c-7.811-2.857-11.05,5.525-12.384,11.241l0,0V1938.369z"/>
		<path fill="#2B2828" d="M1899.122,1970.376c-3.429-0.763-9.525-5.906-9.525-13.527l4.572-4.763
			C1899.885,1948.656,1897.979,1963.326,1899.122,1970.376L1899.122,1970.376L1899.122,1970.376z"/>
		<path fill="#2B2828" d="M1646.307,1974.758c3.048-0.763,9.335-5.906,9.335-13.718l-4.572-4.572
			C1645.164,1953.038,1647.069,1968.089,1646.307,1974.758L1646.307,1974.758L1646.307,1974.758z"/>
		<path fill="#2B2828" d="M1851.874,1980.854c3.811-0.571,11.05-5.715,11.05-13.336c0,0-5.144-4.572-5.524-4.953
			C1850.922,1959.135,1853.018,1973.995,1851.874,1980.854L1851.874,1980.854z"/>
		<path fill="#2B2828" d="M1698.318,1981.426c-3.81-0.953-10.859-6.097-10.859-13.718l5.144-4.572
			C1699.271,1959.707,1696.984,1974.566,1698.318,1981.426L1698.318,1981.426z"/>
		<path fill="#131516" d="M1801.197,1544c8.001-2.667-4.191-4.001,16.574,39.437c13.337,29.149-5.524,69.729-2.857,83.637
			c27.435,6.097,45.724-4.001,56.584-30.673c3.048-14.669-44.01-21.147-18.671-51.63c18.671-22.481,36.389,4.573,50.105,10.288
			c11.24,4.763,10.479,0.381,26.673,3.429c-5.145,6.478-25.721,2.096-17.338,8.002c34.675,25.338,23.243,36.579,114.691,102.879
			c-38.294,25.91-74.683-22.862-107.261-53.726c6.287,18.29,78.302,108.023,105.736,136.792
			c-56.393,19.813-93.543-77.16-120.025-104.213c2.286,37.15,85.161,146.316,104.594,168.798
			c-39.818,41.342-132.98-160.606-127.837-145.174c-1.905,20.195,58.87,142.697,96.974,195.279
			c-58.87,24.576-91.448-128.599-123.455-164.416c9.145,73.158,60.013,140.03,53.345,141.553
			c-43.057,9.336-44.391-43.247-87.447-136.981c-18.289-18.861-28.006,69.729,15.432,90.876
			c-1.905-1.144-35.055-7.621-28.768,24.386c0,9.907-12.003-22.671-13.718-24.576c-6.858-7.812-4.572,81.922,3.62,102.879
			c6.478,16.193,35.437,28.768,30.102,29.148c-22.29,0.953-41.532,7.621-54.487,24.768l0,0l0,0l-0.953,0.571v-0.762
			c-11.812-14.67-30.101-23.434-56.202-25.148c-5.525-0.381,24.577-12.955,30.864-28.958c8.383-21.147,10.669-110.69,4.001-103.069
			c-1.715,1.904-14.098,34.674-14.098,24.767c6.287-31.816-27.815-25.339-29.721-24.386c44.581-20.957,34.674-109.547,16.003-90.686
			c-44.2,93.734-45.724,145.935-90.305,136.791c-6.478-1.333,46.105-68.205,55.25-141.363
			c-32.959,35.437-66.681,188.611-126.884,164.035c39.056-52.583,101.354-175.275,99.45-194.898
			c5.334-15.432-90.305,186.325-131.266,144.792c20.004-22.29,105.165-131.456,107.451-168.607
			c-27.434,26.863-65.538,123.835-123.455,104.403c28.387-29.148,102.308-118.882,108.976-137.171
			c-33.722,31.054-70.872,80.017-110.309,53.916c93.925-66.49,82.113-77.73,117.93-102.879c8.192-5.906-12.765-1.333-17.909-8.192
			c16.385-2.858,15.813,1.333,27.625-3.43c14.098-5.715,32.007-32.578,51.439-10.288c25.91,30.483-22.481,36.77-19.242,52.011
			c10.859,26.482,32.578,33.912,60.965,28.006c15.813-4,12.574-13.717,32.769-37.151c12.955-14.86-29.911-74.11-17.909-74.492
			c16.575-0.953,36.77-3.81,52.773-8.764l0,0l0,0L1801.197,1544z"/>
		<path fill="#DD0000" d="M1717.37,1587.056c-7.24-18.29,5.144-36.579,26.863-34.102c21.147,2.667,25.72,29.911,27.053,47.819
			c1.143,12.002,0.953,22.1-12.574,22.1c-3.43,0.381-8.573,0.762-12.765,0.762c-13.717,0-26.672-16.003-26.292-21.719
			c4.191,1.524,20.195,5.144,25.339,5.144c3.239,0,14.289,0.381,16.956-2.477c-3.811-3.62-11.431-3.62-16.385-3.62
			c-5.144,0-15.622-1.143-21.719-1.524c-5.906-0.381-19.052-5.144-21.719-8.383c0,0,10.288,1.714,17.527,1.143
			c5.906,0,12.765-1.143,19.052-1.143c15.813,0,18.861,0,7.43-8.192c-5.334-4-21.719,3.048-27.435,6.668L1717.37,1587.056
			L1717.37,1587.056z"/>
		<path fill="#FEFEFE" d="M1760.617,1563.051c6.478,0,14.67,0.762,20.957-0.19c0.382,0,2.096-1.333,2.668-1.333
			c0.571,0-1.715,4.953-1.715,5.144c-1.715,2.858-13.146,12.384-15.432,10.098
			C1765.189,1574.673,1760.236,1565.718,1760.617,1563.051L1760.617,1563.051L1760.617,1563.051L1760.617,1563.051z"/>
		<path fill="#131516" d="M1763.284,1562.289c10.098,8.192,0,12.574,5.144,9.526c4.954-2.477,2.857-8.192,2.667-10.288
			L1763.284,1562.289z"/>
	</g>
</g>
</svg>
