<?xml version="1.0" encoding="UTF-8" standalone="no"?>
<!-- Created with Inkscape (http://www.inkscape.org/) -->
<svg
   xmlns:dc="http://purl.org/dc/elements/1.1/"
   xmlns:cc="http://web.resource.org/cc/"
   xmlns:rdf="http://www.w3.org/1999/02/22-rdf-syntax-ns#"
   xmlns:svg="http://www.w3.org/2000/svg"
   xmlns="http://www.w3.org/2000/svg"
   xmlns:sodipodi="http://sodipodi.sourceforge.net/DTD/sodipodi-0.dtd"
   xmlns:inkscape="http://www.inkscape.org/namespaces/inkscape"
   width="392.11597"
   height="234.21429"
   id="svg2"
   sodipodi:version="0.32"
   inkscape:version="0.45.1"
   sodipodi:docbase="C:\Documents and Settings\Barry Reston\Desktop"
   sodipodi:docname="Lionrampant.svg"
   version="1.0"
   inkscape:output_extension="org.inkscape.output.svg.inkscape">
  <defs
     id="defs4" />
  <sodipodi:namedview
     id="base"
     pagecolor="#ffffff"
     bordercolor="#666666"
     borderopacity="1.0"
     gridtolerance="10000"
     guidetolerance="10"
     objecttolerance="10"
     inkscape:pageopacity="0.0"
     inkscape:pageshadow="2"
     inkscape:zoom="2.5479336"
     inkscape:cx="241.94277"
     inkscape:cy="117.96174"
     inkscape:document-units="px"
     inkscape:current-layer="layer1"
     inkscape:window-width="1152"
     inkscape:window-height="842"
     inkscape:window-x="0"
     inkscape:window-y="0"
     showguides="true"
     inkscape:guide-bbox="true"
     width="384px"
     height="240px">
    <sodipodi:guide
       orientation="vertical"
       position="-217.40763"
       id="guide5656" />
  </sodipodi:namedview>
  <metadata
     id="metadata7">
    <rdf:RDF>
      <cc:Work
         rdf:about="">
        <dc:format>image/svg+xml</dc:format>
        <dc:type
           rdf:resource="http://purl.org/dc/dcmitype/StillImage" />
      </cc:Work>
    </rdf:RDF>
  </metadata>
  <g
     inkscape:label="Layer 1"
     inkscape:groupmode="layer"
     id="layer1"
     transform="translate(-22.09551,-247.5335)">
    <rect
       style="fill:#fff001;fill-opacity:1;fill-rule:nonzero;stroke:none;stroke-width:1;stroke-linecap:round;stroke-linejoin:miter;stroke-miterlimit:4;stroke-dasharray:none;stroke-dashoffset:0;stroke-opacity:1"
       id="rect5773"
       width="391.11597"
       height="233.21429"
       x="22.595512"
       y="248.03346" />
    <path
       style="fill:#c61414;fill-opacity:1;fill-rule:evenodd;stroke:black;stroke-width:1;stroke-linecap:butt;stroke-linejoin:miter;stroke-miterlimit:4;stroke-dasharray:none;stroke-opacity:1"
       d="M 52.686191,276.68453 L 52.686191,452.59667 L 383.62085,452.59667 L 383.62085,276.68453 L 52.686191,276.68453 z M 60.366219,281.11696 L 69.883906,281.11696 C 68.268297,285.55219 64.428412,286.27896 60.366219,281.11696 z M 70.646708,281.11696 L 117.17762,281.11696 C 112.81579,288.45917 115.46781,299.45654 129.50381,292.5097 C 128.15513,297.76922 127.03662,301.44933 133.43917,308.68115 C 139.84174,301.44933 138.70587,297.76921 137.3572,292.5097 C 151.39319,299.45654 154.04521,288.45917 149.68338,281.11696 L 215.92579,281.11696 C 215.50723,286.14819 211.53371,287.39913 208.12441,286.46705 C 209.44137,289.41506 212.25569,290.26115 215.75243,288.78715 C 215.02583,291.41768 216.06311,294.86826 218.23153,296.68242 C 220.39997,294.86826 221.45458,291.41768 220.72798,288.78715 C 224.22472,290.26115 227.03904,289.41507 228.356,286.46705 C 224.94633,287.39922 220.95514,286.14951 220.53728,281.11696 L 286.62366,281.11696 C 282.26183,288.45917 284.91386,299.45654 298.94984,292.5097 C 297.60117,297.76921 296.46533,301.44933 302.86787,308.68115 C 309.27042,301.44933 308.15192,297.76922 306.80323,292.5097 C 320.83923,299.45654 323.49124,288.45917 319.12942,281.11696 L 365.66033,281.11696 C 364.56609,284.00505 363.58484,287.5238 368.72888,288.14652 C 366.35264,289.49347 364.66527,292.65554 364.86286,295.41848 C 367.62936,295.61581 370.79548,293.93061 372.14415,291.55742 C 372.76767,296.69487 376.29094,295.71487 379.18273,294.62203 L 379.18273,348.39989 C 371.8311,344.04366 360.8196,346.69228 367.77537,360.71028 C 362.50911,359.36334 358.82426,358.24625 351.58317,364.6406 C 358.82427,371.03495 362.5091,369.91787 367.77537,368.57092 C 360.81962,382.58893 371.83111,385.23754 379.18273,380.88131 L 379.18273,434.65918 C 376.29093,433.56634 372.76767,432.58633 372.14415,437.72379 C 370.79547,435.35059 367.62936,433.66539 364.86286,433.86272 C 364.66526,436.62567 366.35264,439.78773 368.72888,441.13468 C 363.58482,441.7574 364.56609,445.27615 365.66033,448.16424 L 319.12942,448.16424 C 323.49125,440.82204 320.83923,429.82467 306.80323,436.77151 C 308.15191,431.51201 309.27042,427.83188 302.86787,420.60006 C 296.46531,427.83189 297.60117,431.51199 298.94984,436.77151 C 284.91385,429.82467 282.26183,440.82204 286.62366,448.16424 L 220.38125,448.16424 C 220.79981,443.13302 224.77332,441.88208 228.18263,442.81416 C 226.86567,439.86614 224.05136,439.02004 220.55461,440.49406 C 221.28121,437.86352 220.24394,434.41294 218.07551,432.59879 C 215.90707,434.41295 214.85247,437.8635 215.57906,440.49406 C 212.08232,439.02005 209.26801,439.86615 207.95105,442.81416 C 211.36071,441.88198 215.3519,443.1317 215.76976,448.16424 L 149.68338,448.16424 C 154.04521,440.82204 151.3932,429.82467 137.3572,436.77151 C 138.70587,431.51199 139.84173,427.83189 133.43917,420.60006 C 127.03662,427.83188 128.15513,431.51201 129.50381,436.77151 C 115.46781,429.82467 112.81579,440.82204 117.17762,448.16424 L 70.646708,448.16424 C 71.740948,445.27615 72.722211,441.7574 67.578164,441.13468 C 69.954405,439.78773 71.641768,436.62567 71.444182,433.86272 C 68.67768,433.66539 65.511569,435.35059 64.162892,437.72379 C 63.539372,432.58633 60.016106,433.56634 57.124311,434.65918 L 57.124311,380.88131 C 64.475939,385.23754 75.487421,382.58893 68.531666,368.57092 C 73.797928,369.91787 77.482766,371.03495 84.72387,364.6406 C 77.482766,358.24625 73.797928,359.36334 68.531666,360.71028 C 75.487426,346.69228 64.47594,344.04366 57.124311,348.39989 L 57.124311,294.62203 C 60.016106,295.71487 63.539372,296.69487 64.162892,291.55742 C 65.511569,293.93061 68.67768,295.61581 71.444182,295.41848 C 71.641768,292.65554 69.954405,289.49347 67.578164,288.14652 C 72.722211,287.5238 71.740948,284.00505 70.646708,281.11696 z M 123.34938,281.11696 L 130.7867,281.11696 C 130.08475,291.92656 119.60749,287.45095 123.34938,281.11696 z M 136.0743,281.11696 L 143.51162,281.11696 C 147.25352,287.45095 136.77625,291.92656 136.0743,281.11696 z M 292.79542,281.11696 L 300.23274,281.11696 C 299.53079,291.92656 289.05351,287.45095 292.79542,281.11696 z M 305.52034,281.11696 L 312.95766,281.11696 C 316.69955,287.45095 306.22229,291.92656 305.52034,281.11696 z M 366.42313,281.11696 L 375.94082,281.11696 C 371.87863,286.27896 368.03874,285.55219 366.42313,281.11696 z M 57.124311,284.35471 C 62.29293,288.4117 61.565222,292.24667 57.124311,293.8602 L 57.124311,284.35471 z M 379.18273,284.35471 L 379.18273,293.8602 C 374.74182,292.24667 374.01411,288.4117 379.18273,284.35471 z M 59.707435,353.76729 C 64.44766,353.63649 66.394451,361.39095 57.124311,361.99153 L 57.124311,354.56375 C 58.034339,354.02751 58.913307,353.78921 59.707435,353.76729 z M 376.59961,353.76729 C 377.39373,353.78921 378.2727,354.02751 379.18273,354.56375 L 379.18273,361.99153 C 369.91259,361.39095 371.85938,353.63649 376.59961,353.76729 z M 57.124311,367.28967 C 67.947471,367.99086 63.466379,378.45453 57.124311,374.71746 L 57.124311,367.28967 z M 379.18273,367.28967 L 379.18273,374.71746 C 372.84066,378.45453 368.35958,367.99086 379.18273,367.28967 z M 57.124311,435.421 C 61.565222,437.03454 62.29293,440.8695 57.124311,444.92649 L 57.124311,435.421 z M 379.18273,435.421 L 379.18273,444.92649 C 374.0141,440.8695 374.74182,437.03454 379.18273,435.421 z M 126.05386,441.61948 C 128.15147,441.4977 130.46949,443.27935 130.7867,448.16424 L 123.34938,448.16424 C 121.29846,444.6926 123.50974,441.76719 126.05386,441.61948 z M 140.80714,441.61948 C 143.35126,441.76719 145.56255,444.6926 143.51162,448.16424 L 136.0743,448.16424 C 136.39152,443.27935 138.70953,441.4977 140.80714,441.61948 z M 295.4999,441.61948 C 297.59751,441.4977 299.91552,443.27935 300.23274,448.16424 L 292.79542,448.16424 C 290.7445,444.6926 292.95578,441.76719 295.4999,441.61948 z M 310.25318,441.61948 C 312.7973,441.76719 315.00858,444.6926 312.95766,448.16424 L 305.52034,448.16424 C 305.83755,443.27935 308.15557,441.4977 310.25318,441.61948 z M 65.844523,444.54558 C 67.603422,444.54716 69.044386,445.85956 69.883906,448.16424 L 60.366219,448.16424 C 62.317567,445.68459 64.218529,444.54411 65.844523,444.54558 z M 370.46252,444.54558 C 372.08851,444.54411 373.98947,445.68459 375.94082,448.16424 L 366.42313,448.16424 C 367.26266,445.85956 368.70362,444.54716 370.46252,444.54558 z "
       id="path5630" />
    <path
       style="opacity:0.95999995;fill:#c61414;fill-opacity:1;fill-rule:evenodd;stroke:black;stroke-width:1;stroke-linecap:butt;stroke-linejoin:miter;stroke-miterlimit:4;stroke-dasharray:none;stroke-opacity:1"
       d="M 218.16219,251.95987 C 216.63173,253.16033 214.54014,254.02239 214.79893,257.43115 C 203.83007,253.69577 200.9689,261.76767 204.32774,266.71156 L 135.74491,266.71156 C 136.63779,262.64638 140.25869,261.64806 143.39027,262.50421 C 142.07331,259.55619 139.24166,258.72742 135.74491,260.20142 C 136.47151,257.57089 135.43424,254.12031 133.26581,252.30615 C 131.09738,254.12031 130.0601,257.57089 130.7867,260.20142 C 127.28996,258.72742 124.47564,259.55619 123.15868,262.50421 C 126.29026,261.64806 129.89383,262.64637 130.7867,266.71156 L 48.646808,266.71156 C 48.753745,260.63337 56.339961,259.1413 56.690901,266.67693 C 62.776153,253.43355 46.183818,250.05912 43.549905,262.1233 C 40.779752,257.45183 38.352406,255.16297 29.386061,253.41426 C 31.137015,262.36912 33.428811,264.79335 38.106273,267.55995 C 26.026609,270.1905 29.405367,286.76156 42.665748,280.68411 C 35.120449,280.33362 36.614431,272.75712 42.700421,272.65032 L 42.700421,362.16467 C 38.630024,361.27295 37.630426,357.67399 38.487674,354.54643 C 35.535876,355.86171 34.706035,358.67241 36.181932,362.16467 C 33.548019,361.43901 30.09302,362.47495 28.276531,364.6406 C 30.09302,366.80626 33.548019,367.8422 36.181932,367.11653 C 34.706035,370.60879 35.535875,373.4195 38.487674,374.73477 C 37.630426,371.60721 38.630023,368.00826 42.700421,367.11653 L 42.700421,456.63088 C 36.614431,456.52408 35.120449,448.94759 42.665748,448.5971 C 29.405367,442.51965 26.02661,459.09071 38.106273,461.72125 C 33.428811,464.48785 31.137016,466.91209 29.386061,475.86694 C 38.352406,474.11823 40.779753,471.82938 43.549905,467.15791 C 46.183818,479.22209 62.776154,475.84767 56.690901,462.60428 C 56.339961,470.1399 48.753741,468.64783 48.646808,462.56965 L 130.7867,462.56965 C 129.89383,466.63482 126.29026,467.63313 123.15868,466.77699 C 124.47564,469.72501 127.28996,470.5538 130.7867,469.07978 C 130.0601,471.71032 131.09738,475.16089 133.26581,476.97505 C 135.43424,475.16089 136.47151,471.71033 135.74491,469.07978 C 139.24166,470.55379 142.07331,469.72499 143.39027,466.77699 C 140.25869,467.63315 136.63779,466.63482 135.74491,462.56965 L 204.32774,462.56965 C 200.9689,467.51354 203.83006,475.58544 214.79893,471.85005 C 214.54014,475.25881 216.61439,476.12088 218.14485,477.32133 C 219.67532,476.12088 221.7669,475.25882 221.50811,471.85005 C 232.47698,475.58544 235.33814,467.51354 231.9793,462.56965 L 300.56213,462.56965 C 299.66926,466.63482 296.04835,467.63315 292.91677,466.77699 C 294.23373,469.72499 297.06538,470.55379 300.56213,469.07978 C 299.83554,471.71033 300.8728,475.16089 303.04123,476.97505 C 305.20967,475.16089 306.24694,471.71032 305.52034,469.07978 C 309.01709,470.5538 311.8314,469.72501 313.14836,466.77699 C 310.01678,467.63313 306.41321,466.63482 305.52034,462.56965 L 387.66023,462.56965 C 387.5533,468.64783 379.96708,470.1399 379.61614,462.60428 C 373.53088,475.84767 390.12322,479.22209 392.75714,467.15791 C 395.52728,471.82938 397.95463,474.11823 406.92098,475.86694 C 405.17002,466.91209 402.87823,464.48785 398.20077,461.72125 C 410.28043,459.09071 406.90167,442.51965 393.64129,448.5971 C 401.1866,448.94759 399.69261,456.52408 393.60662,456.63088 L 393.60662,367.11653 C 397.67701,368.00826 398.67661,371.60721 397.81937,374.73477 C 400.77117,373.4195 401.60102,370.60879 400.12511,367.11653 C 402.75902,367.8422 406.21403,366.80626 408.03051,364.6406 C 406.21402,362.47495 402.75904,361.43901 400.12511,362.16467 C 401.60101,358.67241 400.77115,355.86171 397.81937,354.54643 C 398.67662,357.67399 397.67702,361.27295 393.60662,362.16467 L 393.60662,272.65032 C 399.69261,272.75712 401.18658,280.33362 393.64129,280.68411 C 406.90167,286.76156 410.28044,270.1905 398.20077,267.55995 C 402.87823,264.79335 405.17003,262.36912 406.92098,253.41426 C 397.95463,255.16297 395.52729,257.45183 392.75714,262.1233 C 390.12322,250.05912 373.53089,253.43355 379.61614,266.67693 C 379.96708,259.1413 387.55331,260.63337 387.66023,266.71156 L 305.52034,266.71156 C 306.41322,262.64637 310.01679,261.64806 313.14836,262.50421 C 311.8314,259.55619 309.0171,258.72742 305.52034,260.20142 C 306.24694,257.57089 305.20968,254.12031 303.04123,252.30615 C 300.8728,254.12031 299.83555,257.57089 300.56213,260.20142 C 297.06538,258.72742 294.23373,259.55619 292.91677,262.50421 C 296.04835,261.64806 299.66926,262.64638 300.56213,266.71156 L 231.9793,266.71156 C 235.33814,261.76767 232.47698,253.69576 221.50811,257.43115 C 221.76689,254.02239 219.69265,253.16032 218.16219,251.95987 z M 210.53417,263.30066 C 212.43003,263.18185 214.49637,264.0971 215.00696,266.71156 L 207.27493,266.71156 C 206.4284,264.91345 208.36212,263.43679 210.53417,263.30066 z M 225.25278,263.30066 C 227.61321,263.21553 229.94438,264.77381 229.03212,266.71156 L 221.30008,266.71156 C 221.76524,264.32972 223.51106,263.36348 225.25278,263.30066 z M 48.248071,272.2521 L 388.05897,272.2521 L 388.05897,457.02911 L 48.248071,457.02911 L 48.248071,272.2521 z M 207.27493,462.56965 L 215.00696,462.56965 C 213.91141,468.17942 205.68952,465.93722 207.27493,462.56965 z M 221.30008,462.56965 L 229.03212,462.56965 C 230.61751,465.93721 222.39563,468.17942 221.30008,462.56965 z "
       id="path5634" />
    <g
       id="g13890"
       style="stroke-width:1.80372131;stroke-miterlimit:4;stroke-dasharray:none"
       transform="matrix(0.554765,0,0,0.554054,10.14265,110.6761)">
      <path
         sodipodi:nodetypes="cccc"
         id="path8484"
         d="M 291.51895,367.8708 L 288.91692,360.93943 C 286.11602,363.77198 281.27371,363.95134 276.97447,362.20466 C 279.98816,369.29261 287.22492,368.99304 291.51895,367.8708 z "
         style="fill:#1c8298;fill-opacity:1;fill-rule:evenodd;stroke:black;stroke-width:1.80372131;stroke-linecap:butt;stroke-linejoin:miter;stroke-miterlimit:4;stroke-dasharray:none;stroke-opacity:1" />
      <path
         sodipodi:nodetypes="cccc"
         id="path8482"
         d="M 309.51675,337.83123 L 301.81184,338.01753 C 303.55551,334.32185 301.96979,329.71828 298.70343,326.3524 C 306.71068,326.49241 309.0498,333.38432 309.51675,337.83123 z "
         style="fill:#1c8298;fill-opacity:1;fill-rule:evenodd;stroke:black;stroke-width:1.80372131;stroke-linecap:butt;stroke-linejoin:miter;stroke-miterlimit:4;stroke-dasharray:none;stroke-opacity:1" />
      <path
         sodipodi:nodetypes="csssscccccsccccccssccssc"
         id="path8486"
         d="M 296.875,355.21875 C 292.89248,360.75694 290.14198,355.95567 286.84375,361.09375 C 286.15088,362.17313 288.33079,362.75806 289.28125,364.15625 C 290.29279,365.64425 290.42987,370.26474 291.375,369.3125 C 297.67394,362.9662 297.3514,362.43064 302.5625,365.375 C 307.42893,368.12461 307.33682,377.84847 309.71875,382.28125 C 310.06267,377.56533 312.10751,376.34783 312.76376,378.80877 C 313.42001,381.26971 311.57626,390.0744 312.48251,392.40252 C 314.91513,388.48641 316.25,387.84375 316.25,387.84375 C 316.25,387.84375 313.63539,401.5043 314.84633,403.4418 C 316.68169,398.3025 319.98367,396.98136 321.09375,395.59375 C 322.20383,394.20614 317.11271,405.49232 318.31135,410.93692 C 321.53374,404.55751 323.4375,403.65625 323.4375,403.65625 C 323.4375,403.65625 321.19531,412.88476 322.68692,417.88188 C 324.59482,412.33318 326.21245,412.54387 326.90625,411.15625 C 325.44927,421.91021 339.68751,432.53126 339.6875,432.53125 L 365.34375,410.46875 C 352.65463,400.61343 341.62563,400.03269 333.3125,377.15625 C 330.50578,369.4326 321.66121,360.011 313.40625,354.5625 C 303.2602,347.86583 314.40543,341.11168 309.4375,336 C 309.05153,335.80168 308.79671,335.7391 308.5625,335.75 C 307.85986,335.7827 307.51489,336.49408 305.71875,336.5 C 303.19796,336.50832 300.05477,334.76 300.46875,337.84375 C 300.95327,341.45292 300.45343,344.16569 302.0625,346.1875"
         style="fill:#ca2412;fill-opacity:1;fill-rule:evenodd;stroke:black;stroke-width:1.80372131;stroke-linecap:butt;stroke-linejoin:miter;stroke-miterlimit:4;stroke-dasharray:none;stroke-opacity:1" />
      <path
         style="fill:#1c8298;fill-opacity:1;fill-rule:evenodd;stroke:black;stroke-width:1.80372131;stroke-linecap:butt;stroke-linejoin:miter;stroke-miterlimit:4;stroke-dasharray:none;stroke-opacity:1"
         d="M 296.22287,334.98681 L 291.3812,340.9952 C 290.29038,337.05712 287.34984,335.19011 282.67833,334.77164 C 288.09518,329.13352 292.96685,331.92229 296.22287,334.98681 z "
         id="path8488"
         sodipodi:nodetypes="cccc" />
      <path
         sodipodi:nodetypes="csssc"
         id="path8490"
         d="M 303.6535,347.99911 C 298.84358,343.29231 303.89575,337.99544 295.98779,333.59695 C 294.1117,332.55344 295.01661,336.39017 293.52305,337.94701 C 292.20395,339.322 287.92629,340.69019 289.9544,342.09152 C 294.35225,345.13021 295.0333,344.55183 299.22066,350.84395"
         style="fill:#ca2412;fill-opacity:1;fill-rule:evenodd;stroke:black;stroke-width:1.80372131;stroke-linecap:butt;stroke-linejoin:miter;stroke-miterlimit:4;stroke-dasharray:none;stroke-opacity:1" />
      <path
         style="fill:#1c8298;fill-opacity:1;fill-rule:evenodd;stroke:black;stroke-width:1.80372131;stroke-linecap:butt;stroke-linejoin:miter;stroke-miterlimit:4;stroke-dasharray:none;stroke-opacity:1"
         d="M 288.70025,341.55178 L 286.61662,348.97195 C 283.59559,346.22026 278.72934,346.38478 274.55294,348.5192 C 277.03725,340.90581 284.31217,340.69281 288.70025,341.55178 z "
         id="path8492"
         sodipodi:nodetypes="cccc" />
      <path
         style="fill:#ca2412;fill-opacity:1;fill-rule:evenodd;stroke:black;stroke-width:1.80372131;stroke-linecap:butt;stroke-linejoin:miter;stroke-miterlimit:4;stroke-dasharray:none;stroke-opacity:1"
         d="M 300.98251,350.10673 C 296.74058,347.93373 287.71096,337.17672 286.42812,339.95078 C 285.52705,341.89931 286.88352,343.28718 286.50353,344.91428 C 286.07021,346.76977 283.9893,349.58051 286.08536,350.87799 C 288.68726,352.48858 291.76834,346.28244 296.86224,355.22149"
         id="path8494"
         sodipodi:nodetypes="csssc" />
    </g>
    <g
       id="g10292"
       style="stroke-width:1.80372131;stroke-miterlimit:4;stroke-dasharray:none"
       transform="matrix(0.554765,0,0,0.554054,10.14265,110.6761)">
      <path
         sodipodi:nodetypes="cccc"
         id="path8465"
         d="M 276.13406,451.11148 L 274.33017,458.60456 C 271.20806,455.9681 266.35142,456.31501 262.25798,458.60456 C 264.45503,450.90334 271.71684,450.41767 276.13406,451.11148 z "
         style="fill:#1c8298;fill-opacity:1;fill-rule:evenodd;stroke:black;stroke-width:1.80372131;stroke-linecap:butt;stroke-linejoin:miter;stroke-miterlimit:4;stroke-dasharray:none;stroke-opacity:1" />
      <path
         style="fill:#1c8298;fill-opacity:1;fill-rule:evenodd;stroke:black;stroke-width:1.80372131;stroke-linecap:butt;stroke-linejoin:miter;stroke-miterlimit:4;stroke-dasharray:none;stroke-opacity:1"
         d="M 268.68329,467.38598 L 272.70869,473.95838 C 268.6369,474.30335 265.44945,477.98404 264.17565,482.49799 C 260.28092,475.50036 265.07027,470.02021 268.68329,467.38598 z "
         id="path8467"
         sodipodi:nodetypes="cccc" />
      <path
         sodipodi:nodetypes="cccc"
         id="path8469"
         d="M 282.43597,476.84877 L 288.82729,481.15591 C 285.26649,483.1607 283.89544,487.8327 284.61128,492.46798 C 278.16225,487.71975 280.24322,480.74555 282.43597,476.84877 z "
         style="fill:#1c8298;fill-opacity:1;fill-rule:evenodd;stroke:black;stroke-width:1.80372131;stroke-linecap:butt;stroke-linejoin:miter;stroke-miterlimit:4;stroke-dasharray:none;stroke-opacity:1" />
      <path
         sodipodi:nodetypes="cssssscssscssssccccccccccccccccccsccc"
         id="path7564"
         d="M 362.99835,407.40181 C 332.42471,429.27977 320.27644,436.5208 300.83349,450.83395 C 296.85388,453.76358 290.36841,455.89594 285.70857,455.41306 C 281.44146,454.97087 275.74945,447.03845 272.66505,449.37697 C 271.28189,450.42565 273.29247,451.68395 273.15698,454.29523 C 273.0215,456.90651 269.65295,457.94366 271.48558,459.22899 C 274.39251,461.26777 280.01937,459.87653 283.00273,460.40845 C 277.47542,464.2475 265.0953,464.9212 264.89443,467.97092 C 264.75335,470.11306 268.42225,469.92646 269.33479,471.43994 C 270.31865,473.0717 270.32621,476.42629 272.4569,475.18649 C 276.71219,472.71042 279.55683,465.86638 286.81865,465.82013 C 287.25806,473.22071 280.32068,475.51573 280.01937,478.86365 C 279.9044,480.14109 284.04181,478.80209 285.43104,479.76559 C 286.90953,480.791 288.45963,484.32094 289.24696,483.23461 C 292.11366,479.27929 288.66311,467.7076 296.53191,464.29376 C 300.6794,462.49439 298.28954,474.46955 299.16836,479.41869 C 302.77614,476.04218 305.62074,471.8331 307.49401,465.95889 C 308.48846,467.90154 308.71973,469.84419 308.6041,471.78684 C 310.29236,468.91912 310.80115,466.05139 311.37932,463.18367 C 311.37932,463.18367 313.53011,466.86083 313.59949,468.7341 C 314.9871,467.41587 315.26462,459.85341 315.26462,459.85341 C 315.26462,459.85341 316.37471,465.40385 319.98249,466.93022 C 319.56621,464.43252 320.53753,459.02085 320.53753,459.02085 C 320.53753,459.02085 324.35346,466.51394 329.97327,467.3465 C 327.12867,464.22438 326.64301,458.18828 326.64301,458.18828 C 326.64301,458.18828 331.77716,463.66934 333.85857,464.29376 C 332.05468,459.85341 334.96866,456.80067 334.96866,456.80067 C 334.96866,456.80067 337.05007,461.24101 342.87802,461.3104 C 338.92334,458.25766 339.96405,455.69059 339.96405,455.69059 C 339.96405,455.69059 346.41643,459.99217 349.67731,459.85341 C 348.08156,455.9681 353.00757,455.13554 353.00757,455.13554 C 353.00757,455.13554 354.95022,457.21695 354.18703,460.54722 C 356.96225,458.25766 361.88826,452.36033 361.88826,452.36033 C 364.89475,457.79513 371.21415,466.88974 381.11531,468.06632 C 387.02393,468.76845 392.49659,467.49681 399.00679,472.68878 L 392.97069,405.45916 L 362.99835,407.40181 z "
         style="fill:#ca2412;fill-opacity:1;fill-rule:evenodd;stroke:black;stroke-width:1.80372131;stroke-linecap:butt;stroke-linejoin:miter;stroke-miterlimit:4;stroke-dasharray:none;stroke-opacity:1" />
    </g>
    <g
       id="g10298"
       style="stroke-width:1.80372131;stroke-miterlimit:4;stroke-dasharray:none"
       transform="matrix(0.554765,0,0,0.554054,10.14265,110.6761)">
      <path
         style="fill:#1c8298;fill-opacity:1;fill-rule:evenodd;stroke:black;stroke-width:1.80372131;stroke-linecap:butt;stroke-linejoin:miter;stroke-miterlimit:4;stroke-dasharray:none;stroke-opacity:1"
         d="M 315.11745,507.74975 L 310.04223,513.54997 C 308.50019,509.76572 304.0372,507.81916 299.34873,507.94759 C 304.8688,502.14547 311.52668,505.08528 315.11745,507.74975 z "
         id="path8471"
         sodipodi:nodetypes="cccc" />
      <path
         style="fill:#1c8298;fill-opacity:1;fill-rule:evenodd;stroke:black;stroke-width:1.80372131;stroke-linecap:butt;stroke-linejoin:miter;stroke-miterlimit:4;stroke-dasharray:none;stroke-opacity:1"
         d="M 313.37669,535.23662 L 318.83234,540.68054 C 314.95529,541.97162 312.72083,546.29766 312.54216,550.98448 C 307.11372,545.09654 310.48294,538.64532 313.37669,535.23662 z "
         id="path8477"
         sodipodi:nodetypes="cccc" />
      <path
         sodipodi:nodetypes="csssscccccccccsccsssccccccccccssssc"
         id="path8457"
         d="M 319.3125,528.25 C 318.97588,535.65596 313.63615,529.5285 309.65625,536.78125 C 309.03923,537.9057 313.93786,536.58405 315.21875,537.6875 C 316.58196,538.86182 317.69817,543.24589 318.71875,542.375 C 325.66039,536.45148 320.8414,529.99567 326.78125,530.9375 C 330.54033,531.53355 329.61631,539.71483 334.60693,542.33429 C 334.86162,538.14814 336.5733,537.0841 338.5625,535.1875 C 340.74083,539.49293 342.64163,543.45145 347.17889,546.23051 C 347.36668,542.97363 348.66457,540.54932 350.65625,538.125 C 350.65625,538.125 356.09002,548.6946 358.96875,549.90625 C 358.65598,546.19189 363.28125,538.53125 363.28125,538.53125 C 363.28125,538.53125 366.30237,544.06391 367.29616,546.65195 C 368.949,545.25985 373.06938,539.4418 373.06938,539.4418 C 380.07396,541.72944 384.58084,540.20115 386.3125,534.09375 C 362.20978,542.37301 366.63161,506.3762 386.29874,506.82684 C 392.80477,506.97644 399.21875,508.15625 399.21875,508.15625 L 400.3125,478.875 C 400.3125,478.875 390.33407,479.78591 383.19065,479.15625 C 375.80315,478.50508 379.4094,475.45455 371.25315,474.96875 C 362.92954,474.46873 355.08382,486.84343 349.24742,485.46933 C 344.61568,484.37884 337.4556,482.42132 343.5625,471.21875 C 336.99419,475.68139 333.75615,479.93588 338.84375,487.3125 C 333.25038,487.11209 327.10197,484.41398 323.3125,478.59375 C 324.90617,488.12412 329.62196,493.14476 339.125,493.03125 C 336.50869,498.46625 332.85167,501.9586 325.65625,501.21875 C 332.83218,505.23793 336.40033,503.84544 343.4375,496.625 C 343.62423,499.04855 342.83964,501.33333 341.5,503.6875 C 344.875,502.79224 348.25,502.38265 351.625,502.875 C 349.91267,510.0409 356.31784,515.056 356.0625,521.875 L 330.9375,520.9375 C 324.73079,520.79862 323.40897,517.70557 319.5625,515.03125 C 316.89136,513.17409 317.46821,503.77797 314.15625,505.78125 C 312.67106,506.6796 313.83386,508.62484 312.1875,510.65625 C 310.60031,512.61463 306.86204,510.28574 308.0625,513.15625 C 309.4675,516.51584 312.26491,517.90282 314.34375,519.4375"
         style="fill:#ca2412;fill-opacity:1;fill-rule:evenodd;stroke:black;stroke-width:1.80372131;stroke-linecap:butt;stroke-linejoin:miter;stroke-miterlimit:4;stroke-dasharray:none;stroke-opacity:1" />
      <path
         sodipodi:nodetypes="cccc"
         id="path8473"
         d="M 307.59392,513.06691 L 306.47995,520.70245 C 303.53826,517.86611 300.05691,517.75365 295.82159,519.76865 C 297.6191,512.15947 303.232,512.08371 307.59392,513.06691 z "
         style="fill:#1c8298;fill-opacity:1;fill-rule:evenodd;stroke:black;stroke-width:1.80372131;stroke-linecap:butt;stroke-linejoin:miter;stroke-miterlimit:4;stroke-dasharray:none;stroke-opacity:1" />
      <path
         style="fill:#ca2412;fill-opacity:1;fill-rule:evenodd;stroke:black;stroke-width:1.80372131;stroke-linecap:butt;stroke-linejoin:miter;stroke-miterlimit:4;stroke-dasharray:none;stroke-opacity:1"
         d="M 319.75673,521.93928 C 313.39217,519.75257 313.15918,511.69428 304.12878,511.11574 C 301.9864,510.97849 305.67893,514.70072 304.99816,516.74792 C 304.39691,518.55599 301.59831,521.01666 304.03157,521.41185 C 309.30797,522.26879 309.89755,522.73095 316.38025,526.61673"
         id="path8459"
         sodipodi:nodetypes="csssc" />
      <path
         sodipodi:nodetypes="cccc"
         id="path8475"
         d="M 304.73225,521.2581 L 304.64669,528.96479 C 301.01481,527.09187 296.35817,528.51424 292.87919,531.65985 C 293.30152,523.66252 300.27164,521.56793 304.73225,521.2581 z "
         style="fill:#1c8298;fill-opacity:1;fill-rule:evenodd;stroke:black;stroke-width:1.80372131;stroke-linecap:butt;stroke-linejoin:miter;stroke-miterlimit:4;stroke-dasharray:none;stroke-opacity:1" />
      <path
         sodipodi:nodetypes="csssc"
         id="path8453"
         d="M 318.12343,524.4583 C 313.36986,523.91728 302.92979,516.49383 302.41122,519.50584 C 302.04698,521.6215 303.35636,523.13768 303.41187,524.80764 C 303.47518,526.71201 301.21209,530.4678 303.28063,531.80872 C 305.41251,533.19069 305.62677,527.99974 319.306,528.26189"
         style="fill:#ca2412;fill-opacity:1;fill-rule:evenodd;stroke:black;stroke-width:1.80372131;stroke-linecap:butt;stroke-linejoin:miter;stroke-miterlimit:4;stroke-dasharray:none;stroke-opacity:1" />
    </g>
    <path
       sodipodi:nodetypes="cccc"
       id="path8496"
       d="M 237.49893,422.4449 L 238.06693,426.67724 C 235.92358,425.93977 233.48061,427.09076 231.82167,429.09273 C 231.41537,424.67419 235.07479,422.97027 237.49893,422.4449 z "
       style="fill:#1c8298;fill-opacity:1;fill-rule:evenodd;stroke:black;stroke-width:1;stroke-linecap:butt;stroke-linejoin:miter;stroke-miterlimit:4;stroke-dasharray:none;stroke-opacity:1" />
    <path
       sodipodi:nodetypes="cccc"
       id="path8498"
       d="M 254.57603,427.7558 L 250.8526,429.85489 C 252.73393,431.11807 253.28735,433.75856 252.68825,436.28737 C 256.46293,433.94719 255.61784,430.00408 254.57603,427.7558 z "
       style="fill:#1c8298;fill-opacity:1;fill-rule:evenodd;stroke:black;stroke-width:1;stroke-linecap:butt;stroke-linejoin:miter;stroke-miterlimit:4;stroke-dasharray:none;stroke-opacity:1" />
    <path
       style="fill:#ca2412;fill-opacity:1;fill-rule:evenodd;stroke:black;stroke-width:1;stroke-linecap:butt;stroke-linejoin:miter;stroke-miterlimit:4;stroke-dasharray:none;stroke-opacity:1"
       d="M 242.74521,425.2922 C 241.40109,425.78979 239.37444,428.50047 237.38826,428.13173 C 235.69123,427.81668 237.7973,425.91247 237.37093,424.58232 C 236.92865,423.20256 236.36553,422.65193 236.40009,421.69085 C 236.47717,419.54766 240.62066,422.20922 242.29447,421.53502 C 244.70477,420.56414 244.31666,420.31788 245.36683,417.62932 C 246.35841,415.09073 248.24098,415.49126 248.50742,412.27193 C 248.77387,409.05261 246.39413,404.32917 246.39413,404.32917 C 242.3663,410.91065 238.29999,410.38064 234.92649,406.50631 C 234.92649,406.50631 232.38833,411.51099 238.2756,413.89455 C 235.65661,416.0859 231.84061,411.73519 231.84061,411.73519 C 231.84061,411.73519 231.0148,414.39818 231.65929,417.19536 C 229.30159,416.57134 228.87609,410.31543 228.87609,410.31543 C 227.60057,410.93632 226.9024,413.17172 226.55064,415.17647 C 224.89023,411.1845 226.69389,406.73125 232.11561,404.66131 C 232.13909,399.99739 226.65165,393.008 226.79747,388.70907 C 227.09921,379.97237 233.78458,376.00531 222.30559,364.84837 L 224.4553,339.70817 C 233.76984,347.64614 240.96888,362.11919 242.93591,366.30276 C 253.64029,389.06936 273.28475,371.37587 268.55912,361.22971 C 264.313,352.11307 251.18092,356.23579 260.1683,362.77067 C 254.37559,365.96124 253.09505,360.31206 253.09505,360.31206 C 253.09505,360.31206 248.59459,361.69659 251.32673,369.83486 C 243.39719,364.01922 250.62914,357.34609 250.62914,357.34609 C 250.62914,357.34609 245.33558,356.45879 246.47254,351.15285 C 248.26383,354.41914 252.71365,354.9966 252.71365,354.9966 C 252.95525,352.61408 254.81342,351.92294 256.09425,351.30868 C 256.09425,351.30868 251.71035,344.13189 258.7429,342.0467 C 255.57565,347.88024 259.74492,350.19469 259.74492,350.19469 C 263.66082,350.65604 267.11484,352.46281 269.18323,356.53756 C 269.18323,356.53757 269.04329,344.30964 256.7877,335.39694 C 243.12381,325.46006 242.77891,306.9314 252.40159,298.34458 C 253.51566,297.35043 256.56754,295.7201 260.31861,295.64357 C 265.57078,295.10574 268.1273,292.28027 268.02169,289.42777 C 271.49564,292.11071 267.94058,295.95792 267.94058,295.95792 C 271.1873,298.18913 272.04766,302.18859 274.40912,303.80474 C 277.14154,304.22009 279.60721,304.16578 281.41303,301.95212 C 281.12106,304.31363 279.09705,307.4055 276.53419,306.69176 C 276.88181,308.82893 276.72907,310.96609 274.95975,312.44976 C 275.54681,314.30783 276.21084,316.3581 279.03031,316.87076 C 276.05487,319.61268 273.31036,317.35735 272.18243,314.25632 C 272.18243,314.25632 267.3908,319.79772 270.1062,325.21588 C 264.81571,326.09807 265.64661,316.24745 265.64661,316.24745 C 265.64661,316.24745 264.82614,321.39405 265.60733,324.40862 C 261.35871,322.93524 260.61894,317.47756 263.09958,313.75595 C 264.5875,311.52369 268.21207,306.38424 268.21207,306.38424 C 268.21207,306.38424 264.18772,310.39122 262.08993,313.13963 C 260.45403,309.27627 261.7629,305.22223 263.32353,301.96324 C 263.74691,301.07911 263.06982,297.89996 259.74634,298.07692 C 257.66284,298.18786 246.35396,306.13201 251.55211,321.25125 C 253.62991,327.29474 263.86924,334.41429 271.41963,345.00631 C 278.02666,354.27496 275.00499,373.04523 266.79081,378.99406 C 260.24312,383.736 249.0302,382.44259 244.39217,379.44423 C 243.83406,383.98021 244.23614,388.51687 244.23614,388.51687 C 246.91746,393.64581 254.64095,392.12455 258.78488,385.75978 C 257.98748,390.35735 259.34549,391.87968 262.47404,391.9797 C 259.53843,394.22282 261.49103,398.19575 266.25338,398.59372 C 265.23742,401.12958 262.45093,400.12891 260.5497,400.89651 C 260.5497,400.89651 260.65426,402.75302 264.64109,403.06078 C 264.39405,404.36801 259.56153,406.1254 259.56153,406.1254 C 259.56153,406.1254 259.89126,408.05283 264.10367,409.20732 C 263.35089,410.36181 258.24396,411.66594 258.24396,411.66594 C 258.24396,411.66594 259.01803,413.12576 262.4047,413.43198 C 262.01936,415.42959 254.23925,416.42734 254.23925,416.42734 C 254.23925,416.42734 257.91454,419.02168 259.86038,419.46384 C 257.26442,421.52049 252.93902,420.96365 252.93902,420.96365 C 252.58849,421.76495 252.88798,421.11061 252.67897,423.16256 C 252.24908,427.3831 256.65826,425.28675 256.18093,428.84161 C 256.082,429.57836 254.29711,429.03379 253.33776,429.30909 C 252.43632,429.56777 251.67595,432.88747 250.84131,432.18325 C 247.33542,429.22517 251.67946,428.06014 248.34487,425.6558"
       id="path11197"
       sodipodi:nodetypes="cssssssccccccccsccssccccccccccssccccccccccccsccsssssccccccccccccccssssc" />
    <path
       style="fill:#1c8298;fill-opacity:1;fill-rule:evenodd;stroke:black;stroke-width:1;stroke-linecap:butt;stroke-linejoin:miter;stroke-miterlimit:4;stroke-dasharray:none;stroke-opacity:1"
       d="M 236.56931,429.96038 L 239.44569,432.51224 C 237.46177,432.96452 236.46515,434.3865 236.14894,436.70462 C 233.47003,433.87472 234.96978,431.51182 236.56931,429.96038 z "
       id="path8502"
       sodipodi:nodetypes="cccc" />
    <path
       sodipodi:nodetypes="csssc"
       id="path8504"
       d="M 242.21784,424.4883 C 239.26839,426.77428 237.19518,426.41478 235.28255,430.30094 C 234.89858,431.0811 236.68614,430.44018 237.42925,431.3772 C 238.08556,432.20477 238.45378,434.09512 239.37682,433.08733 C 241.37839,430.90198 242.10656,427.40511 245.88041,425.58018"
       style="fill:#ca2412;fill-opacity:1;fill-rule:evenodd;stroke:black;stroke-width:1;stroke-linecap:butt;stroke-linejoin:miter;stroke-miterlimit:4;stroke-dasharray:none;stroke-opacity:1" />
    <path
       style="fill:#1c8298;fill-opacity:1;fill-rule:evenodd;stroke:black;stroke-width:1;stroke-linecap:butt;stroke-linejoin:miter;stroke-miterlimit:4;stroke-dasharray:none;stroke-opacity:1"
       d="M 240.17108,431.67931 L 243.88787,433.79009 C 242.00255,435.04736 241.44083,437.68609 242.03195,440.21678 C 238.26466,437.86474 239.12218,433.92431 240.17108,431.67931 z "
       id="path8506"
       sodipodi:nodetypes="cccc" />
    <path
       style="fill:#ca2412;fill-opacity:1;fill-rule:evenodd;stroke:black;stroke-width:1;stroke-linecap:butt;stroke-linejoin:miter;stroke-miterlimit:4;stroke-dasharray:none;stroke-opacity:1"
       d="M 245.31964,425.19954 C 243.62361,427.23847 237.64486,431.64366 238.88502,432.79841 C 239.75612,433.6095 240.97323,432.69411 241.76509,433.17536 C 242.6681,433.72415 243.06881,435.37508 244.31988,434.82344 C 245.60925,434.2549 242.76503,429.23538 248.35347,425.66576"
       id="path8508"
       sodipodi:nodetypes="csssc" />
    <path
       style="fill:#ca2412;fill-opacity:1;fill-rule:evenodd;stroke:black;stroke-width:1;stroke-linecap:butt;stroke-linejoin:miter;stroke-miterlimit:4;stroke-dasharray:none;stroke-opacity:1"
       d="M 232.4599,393.44441 C 234.92324,398.13415 238.54129,397.59598 238.54129,397.59598"
       id="path11199" />
    <path
       style="fill:#ca2412;fill-opacity:1;fill-rule:evenodd;stroke:black;stroke-width:1;stroke-linecap:butt;stroke-linejoin:miter;stroke-miterlimit:4;stroke-dasharray:none;stroke-opacity:1"
       d="M 248.93354,395.59707 C 250.93501,396.44276 253.86024,394.05945 253.86024,394.05945 L 253.86024,399.21048"
       id="path11201" />
    <rect
       style="fill:#ca2412;fill-opacity:1;fill-rule:nonzero;stroke:none;stroke-width:1;stroke-linecap:round;stroke-linejoin:miter;stroke-miterlimit:4;stroke-dasharray:none;stroke-dashoffset:0;stroke-opacity:1"
       id="rect11205"
       width="6.9129648"
       height="28.866808"
       x="219.27345"
       y="337.17432" />
    <path
       sodipodi:nodetypes="cccc"
       id="path14804"
       d="M 211.13653,324.86657 C 211.13653,324.86657 211.77599,320.96683 212.5939,320.89155 C 212.16263,323.01458 213.98477,325.63858 213.98477,325.63858 L 211.13653,324.86657 z "
       style="fill:#ca2412;fill-opacity:1;fill-rule:evenodd;stroke:black;stroke-width:1;stroke-linecap:butt;stroke-linejoin:miter;stroke-miterlimit:4;stroke-dasharray:none;stroke-opacity:1" />
    <path
       style="fill:#1c8298;fill-opacity:1;fill-rule:evenodd;stroke:black;stroke-width:1;stroke-linecap:butt;stroke-linejoin:miter;stroke-miterlimit:4;stroke-dasharray:none;stroke-opacity:1"
       d="M 221.68274,318.29323 C 203.12102,318.72402 203.77535,314.96813 204.24685,309.87476 C 200.369,310.47059 200.81284,320.44918 206.44077,320.56122 C 211.64727,320.66487 221.37483,320.56122 221.37483,320.56122 L 221.68274,318.29323 z "
       id="path14806"
       sodipodi:nodetypes="ccscc" />
    <path
       style="fill:#ca2412;fill-opacity:1;fill-rule:evenodd;stroke:black;stroke-width:1;stroke-linecap:butt;stroke-linejoin:miter;stroke-miterlimit:4;stroke-dasharray:none;stroke-opacity:1"
       d="M 210.59767,313.60349 C 210.59767,313.60349 211.42521,318.58153 212.48368,318.67763 C 211.92557,315.96758 213.98477,313.79569 213.98477,313.79569 L 210.59767,313.60349 z "
       id="path14802"
       sodipodi:nodetypes="cccc" />
    <path
       style="fill:#ca2412;fill-opacity:1;fill-rule:evenodd;stroke:black;stroke-width:1;stroke-linecap:butt;stroke-linejoin:miter;stroke-miterlimit:4;stroke-dasharray:none;stroke-opacity:1"
       d="M 197.06501,336.6849 C 199.52023,342.85765 208.16931,339.58427 213.72146,341.03395 L 231.57543,338.20707 L 239.21197,341.14494 C 238.49072,336.65093 239.34044,330.61851 239.28064,326.00996 C 239.20409,320.1112 238.6648,316.24607 238.6648,316.24607 C 238.59222,314.03531 237.69005,311.98595 236.31109,310.645 C 236.31109,310.645 239.6451,309.29951 238.76056,307.22012 C 237.60387,308.56561 233.69831,308.90537 233.69831,308.90537 C 234.20635,306.09661 231.50285,303.34222 227.92843,302.16436 C 227.92843,302.16436 229.73833,299.17438 227.11194,298.14148 C 226.3907,300.20728 223.68267,302.43617 223.68267,302.43617 C 223.68267,302.43617 220.12573,301.97312 217.15072,303.74088 C 216.02318,304.41088 214.47583,305.61594 211.53539,305.86068 C 210.48951,305.94854 208.8109,305.76755 208.4959,306.26876 C 208.28906,306.59789 207.67942,306.32313 208.50952,308.13071 C 209.08723,309.38869 208.9858,312.90106 208.65921,314.34169 C 208.65921,314.34169 209.85371,315.14265 212.90497,314.88532 C 215.96682,314.62709 220.53917,314.40963 220.53917,314.40963 C 220.53917,314.40963 218.51411,316.05541 219.83154,318.48687 C 222.78052,323.9295 214.62867,326.73647 209.9656,323.42032 C 210.60064,325.75793 210.0926,327.17137 208.44147,328.47608 C 212.90496,327.08077 217.74949,328.45796 221.34206,326.57337 C 221.34206,326.57337 223.74518,332.20556 217.20516,331.52042 C 213.31321,331.11269 203.7932,337.6841 197.06501,336.6849 z "
       id="path14798"
       sodipodi:nodetypes="ccccscccccccsssscscscccsc" />
    <path
       style="fill:#ca2412;fill-opacity:1;fill-rule:evenodd;stroke:black;stroke-width:1;stroke-linecap:butt;stroke-linejoin:miter;stroke-miterlimit:4;stroke-dasharray:none;stroke-opacity:1"
       d="M 238.6648,316.24607 C 238.94762,318.48968 239.60573,320.98245 242.76278,320.55294 C 238.53842,326.43577 235.1482,320.67075 233.79904,318.93771"
       id="path12989"
       sodipodi:nodetypes="ccc" />
    <path
       style="fill:#ca2412;fill-opacity:1;fill-rule:evenodd;stroke:black;stroke-width:1;stroke-linecap:butt;stroke-linejoin:miter;stroke-miterlimit:4;stroke-dasharray:none;stroke-opacity:1"
       d="M 239.28064,326.00996 C 239.56346,328.25357 241.06834,331.24607 244.22539,330.81656 C 240.1165,335.46929 235.76404,330.43464 234.41488,328.7016"
       id="path14789" />
    <path
       style="fill:black;fill-opacity:1;fill-rule:nonzero;stroke:black;stroke-width:1;stroke-linecap:round;stroke-linejoin:miter;stroke-miterlimit:4;stroke-dasharray:none;stroke-dashoffset:0;stroke-opacity:1"
       d="M 220.37631,307.46683 C 220.37631,308.18057 219.3757,308.75983 218.14282,308.75983 C 216.90993,308.75983 215.90933,308.18057 215.90933,307.46683 C 215.90933,306.7531 217.6351,305.91523 218.86798,305.91523 C 220.10086,305.91523 220.43432,306.37956 220.37631,307.46683 z "
       id="path14808"
       sodipodi:nodetypes="csssc" />
    <path
       sodipodi:nodetypes="ccc"
       id="path14811"
       d="M 235.16223,334.35154 C 235.44505,336.59515 239.29781,341.58655 242.45486,341.15705 C 237.80712,344.88721 230.06755,340.54449 228.71838,338.81145"
       style="fill:#ca2412;fill-opacity:1;fill-rule:evenodd;stroke:black;stroke-width:1;stroke-linecap:butt;stroke-linejoin:miter;stroke-miterlimit:4;stroke-dasharray:none;stroke-opacity:1" />
    <path
       style="fill:#ca2412;fill-opacity:1;fill-rule:evenodd;stroke:black;stroke-width:1;stroke-linecap:butt;stroke-linejoin:miter;stroke-miterlimit:4;stroke-dasharray:none;stroke-opacity:1"
       d="M 218.52657,334.09228 C 214.58137,334.57278 211.42504,334.7819 207.71575,337.81139 C 204.46817,340.46379 198.21119,342.43659 195.08627,348.81498 C 200.43278,347.69573 208.63469,340.4734 208.63469,340.4734 C 208.63469,340.4734 206.08474,345.37456 202.28387,347.85397 C 205.98851,348.642 212.67612,342.70294 212.67612,342.70294 C 212.67612,342.70294 212.15651,348.58434 209.28902,350.62169 C 211.50218,353.65849 216.60208,346.85452 216.60208,346.85452 C 216.60208,346.85452 215.15872,351.21751 211.82935,355.46519 C 218.04546,357.02203 220.83597,344.77874 220.83597,344.77874 C 220.83597,344.77874 221.16313,351.60192 219.14241,355.08078 C 225.66644,355.48441 224.76193,343.62552 224.76193,343.62552 C 224.76193,343.62552 224.97362,357.09891 229.99655,355.61895 C 228.39922,352.83202 226.99434,345.39378 226.99434,345.39378 C 226.99434,345.39378 229.82334,355.96492 235.30814,354.15822 C 231.70934,349.73756 232.58499,341.34792 232.99875,339.78147 C 232.10387,342.21283 234.57684,353.46629 240.65823,347.89241 C 236.84774,346.96984 237.0017,340.24276 237.0017,340.24276"
       id="path14813"
       sodipodi:nodetypes="cscccccccccccccccc" />
  </g>
</svg>
