<?xml version="1.0" standalone="no"?>
<!DOCTYPE svg PUBLIC "-//W3C//DTD SVG 1.0//EN" "http://www.w3.org/TR/2001/REC-SVG-20010904/DTD/svg10.dtd">
<svg width="595" height="595" viewBox="0 0 595 595">
<title>Heraldic Cross Moline</title>
<desc>Heraldic Cross Moline</desc>
<rect x="0" y="0" width="595" height="595" style="fill:#ffffff; stroke:none"/>
<g transform="translate(-52.5,-52.5) scale(0.175,0.175)" style="fill:#000000; stroke:none">
<path d="M1778.9,3200
C1778.9,3322.11,1679.9,3421.1,1557.79,3421.1
C1603.4,3500.1,1687.68,3548.76,1778.89,3548.76
C1870.11,3548.76,1954.39,3500.1,2000,3421.1
C2045.61,3500.1,2129.89,3548.76,2221.1,3548.76
C2312.32,3548.76,2396.6,3500.1,2442.21,3421.1
C2320.1,3421.1,2221.1,3322.11,2221.1,3200
V2221.1
H3200
C3322.11,2221.1,3421.1,2320.1,3421.1,2442.21
C3500.1,2396.6,3548.76,2312.32,3548.76,2221.11
C3548.76,2129.89,3500.1,2045.61,3421.1,2000
C3500.1,1954.39,3548.76,1870.11,3548.76,1778.9
C3548.76,1687.68,3500.1,1603.4,3421.1,1557.79
C3421.1,1679.9,3322.11,1778.9,3200,1778.9
H2221.1
V800
C2221.1,677.887,2320.1,578.895,2442.21,578.895
C2396.6,499.902,2312.32,451.24,2221.1,451.24
C2129.89,451.24,2045.61,499.902,2000,578.895
C1954.39,499.902,1870.11,451.24,1778.89,451.24
C1687.68,451.24,1603.4,499.902,1557.79,578.895
C1679.9,578.895,1778.9,677.887,1778.9,800
V1778.9
H800
C677.887,1778.9,578.895,1679.9,578.895,1557.79
C499.902,1603.4,451.24,1687.68,451.24,1778.9
C451.24,1870.11,499.902,1954.39,578.895,2000
C499.902,2045.61,451.24,2129.89,451.24,2221.11
C451.24,2312.32,499.902,2396.6,578.895,2442.21
C578.895,2320.1,677.887,2221.1,800,2221.1
H1778.9Z"/>
</g>
</svg>
