<?xml version="1.0" encoding="utf-8"?>
<!-- Generator: Adobe Illustrator 12.0.1, SVG Export Plug-In . SVG Version: 6.00 Build 51448)  -->
<!DOCTYPE svg PUBLIC "-//W3C//DTD SVG 1.1//EN" "http://www.w3.org/Graphics/SVG/1.1/DTD/svg11.dtd" [
	<!ENTITY ns_svg "http://www.w3.org/2000/svg">
	<!ENTITY ns_xlink "http://www.w3.org/1999/xlink">
]>
<svg  version="1.1"
	 id="svg2" xmlns:sodipodi="http://inkscape.sourceforge.net/DTD/sodipodi-0.dtd" xmlns:dc="http://purl.org/dc/elements/1.1/" inkscape:version="0.43" sodipodi:docname="MadeiraFlag.svg" xmlns:rdf="http://www.w3.org/1999/02/22-rdf-syntax-ns#" xmlns:inkscape="http://www.inkscape.org/namespaces/inkscape" xmlns:svg="http://www.w3.org/2000/svg" xmlns:cc="http://web.resource.org/cc/" sodipodi:version="0.32" sodipodi:docbase="C:\Documents and Settings\Nuno\Desktop"
	 xmlns="&ns_svg;" xmlns:xlink="&ns_xlink;" width="612" height="792" viewBox="0 0 612 792"
	 overflow="visible" enable-background="new 0 0 612 792" xml:space="preserve">
<sodipodi:namedview  id="base" inkscape:cx="162.19763" borderopacity="1.0" inkscape:cy="252.49136" inkscape:window-width="813" inkscape:current-layer="layer1" inkscape:window-x="165" inkscape:window-y="127" pagecolor="#ffffff" bordercolor="#666666" inkscape:zoom="0.65447727" inkscape:window-height="540" inkscape:pageopacity="0.0" inkscape:pageshadow="2" inkscape:document-units="px">
	</sodipodi:namedview>
<g id="layer1" inkscape:label="Layer 1" inkscape:groupmode="layer">
	<g id="g3950" transform="translate(142.0981,-296.4198)">
		<rect id="rect2200" x="96.29" y="562.946" fill="#FFCA13" width="135.73" height="267.976"/>
		<path id="path1317" fill="#004B8F" d="M-36.123,696.933V562.947H30.87h66.993v133.987v133.987H30.87h-66.994V696.933z"/>
		<path id="path1323" fill="#004B8F" d="M231.85,696.933V562.947h66.994h66.993v133.987v133.987h-66.993H231.85V696.933z"/>
		<path id="path1321" fill="#C00000" d="M112.602,757.595c0-0.167,7.989-2.891,17.753-6.055l17.753-5.752v-15.383v-15.384h-15.382
			h-15.383l-5.888,17.921l-5.888,17.921l-0.175-26.63c-0.096-14.646-0.096-38.613,0-53.26l0.175-26.63l5.888,17.921l5.888,17.921
			h15.383h15.382v-15.383V649.42l-17.92-5.888l-17.921-5.888l26.63-0.175c14.646-0.097,38.613-0.097,53.26,0l26.63,0.175
			l-17.921,5.888l-17.921,5.888v15.383v15.383h15.384h15.383l5.887-17.921l5.888-17.921l0.176,26.63
			c0.096,14.646,0.096,38.613,0,53.26l-0.176,26.63l-5.888-17.921l-5.887-17.921h-15.383h-15.384v15.384v15.383l17.754,5.752
			c9.764,3.164,17.753,5.888,17.753,6.055s-23.816,0.303-52.925,0.303S112.602,757.762,112.602,757.595z"/>
		<path id="path1319" fill="#FFFFFF" d="M173.566,725.741v-20.099h20.099h20.098v-8.039v-8.039h-20.098h-20.099v-20.098v-20.098
			h-8.039h-8.039v20.098v20.098H137.39h-20.098v8.039v8.039h20.098h20.098v20.099v20.098h8.039h8.039V725.741z"/>
	</g>
</g>
</svg>
