<?xml version="1.0" encoding="utf-8"?>
<!-- Generator: Adobe Illustrator 12.0.1, SVG Export Plug-In . SVG Version: 6.00 Build 51448)  -->
<!DOCTYPE svg PUBLIC "-//W3C//DTD SVG 1.1//EN" "http://www.w3.org/Graphics/SVG/1.1/DTD/svg11.dtd" [
	<!ENTITY ns_svg "http://www.w3.org/2000/svg">
	<!ENTITY ns_xlink "http://www.w3.org/1999/xlink">
]>
<svg  version="1.1" id="svg9205" xmlns:svg="http://www.w3.org/2000/svg" xmlns="&ns_svg;" xmlns:xlink="&ns_xlink;"
	 width="612" height="792" viewBox="0 0 612 792" overflow="visible" enable-background="new 0 0 612 792" xml:space="preserve">
<path id="path9214" fill="#FF0000" d="M286.134-49.96C280.93-21.127,174.245,67.08,172.158,101
	c-1.043,16.96-2.625,27.069,2.667,44.986c5.292,17.917,12.121,27.645,30.583,27.738c71.361,0.368-2.474-54.261,33.784-55.121
	c3.385-0.081,5.986,0.473,8.001,1.956c5.21,4.064,6.509,15.928,7.468,46.586c1.156,36.947,0.95,77.864,0.534,120.021
	c-42.529,0.313-84.593,0.103-120.733-4.089c-42.392-4.917-60.976-37.485-53.876-68.635c0.179-0.784,0.457-1.528,0.889-2.134
	c0.312-0.41,0.822-0.915,1.245-1.244c11.193-8.276,57.638,9.13,70.59,13.513c-0.522-18.787-42.538-68.944-76.458-66.856
	s-70.503,48.443-59.21,79.125c11.319,30.753,40.31,33.11,40.363,42.674c0.051,10.455-28.453,6.956-46.764,7.646
	c-13.33,0.502-9.681-20.083-33.25-19.025c-26.3,1.18-40.158,41.977-68.99,48.364c28.833,6.387,42.69,47.362,68.99,48.542
	c23.569,1.058,19.92-19.527,33.25-19.025c18.312,0.689,46.815-2.809,46.764,7.646c-0.053,9.564-29.044,11.921-40.363,42.675
	c-11.293,30.682,25.29,77.037,59.21,79.125c33.92,2.087,75.936-48.069,76.458-66.856c-12.953,4.383-59.397,21.789-70.59,13.514
	c-0.422-0.33-0.933-0.835-1.245-1.245c-0.432-0.604-0.71-1.349-0.889-2.134c-7.099-31.149,11.485-63.717,53.876-68.634
	c33.455-3.881,71.932-4.455,121.266-4.268c0.689,8.546,1.5,4.723,0.889,33.784c-0.467,22.202-40.244,63.63-61.344,64.011
	c1.06,10.736,88.432,517.158,91.75,525.071c3.289-7.913,88.912-514.335,89.972-525.071c-21.1-0.381-60.877-41.809-61.344-64.011
	c-0.608-28.889,0.025-25.258,0.711-33.606c29.926-0.451,77.192-0.548,117.177,4.09c42.392,4.917,60.975,37.484,53.876,68.634
	c-0.083,0.362-0.218,0.744-0.355,1.067c-0.147,0.316-0.334,0.787-0.533,1.066c-8.384,11.017-58.324-7.696-71.836-12.269
	c0.522,18.787,42.538,68.943,76.459,66.856c33.92-2.088,70.503-48.443,59.21-79.125c-11.319-30.754-40.31-33.11-40.362-42.675
	c-0.052-10.455,28.274-6.956,46.586-7.646c13.33-0.502,9.859,20.083,33.428,19.025c26.301-1.18,40.157-42.154,68.99-48.542
	c-28.833-6.388-42.689-47.185-68.99-48.364c-23.568-1.057-20.098,19.527-33.428,19.025c-15.736-0.592-38.973,1.823-45.164-4.089
	c-0.908-0.938-1.429-2.168-1.422-3.556c0.053-9.564,29.043-11.921,40.362-42.674c11.293-30.682-25.29-77.038-59.21-79.125
	c-33.921-2.087-75.937,48.07-76.459,66.856c13.512-4.572,63.452-23.285,71.836-12.269c0.432,0.605,0.71,1.35,0.889,2.134
	c7.099,31.149-11.484,63.718-53.876,68.635c-34.909,4.049-75.421,4.524-116.466,4.267c-0.417-42.219-0.802-83.2,0.355-120.199
	c1.336-42.655,3.269-48.836,15.647-48.542c36.258,0.86-37.755,55.488,33.606,55.121c18.462-0.094,25.29-9.821,30.583-27.738
	c5.292-17.917,3.889-28.025,2.845-44.986C398.022,67.08,291.338-21.127,286.134-49.96z"/>
</svg>
