<?xml version="1.0" encoding="UTF-8" standalone="no"?>
<!-- Created with Inkscape (http://www.inkscape.org/) -->
<svg
   xmlns:svg="http://www.w3.org/2000/svg"
   xmlns="http://www.w3.org/2000/svg"
   xmlns:xlink="http://www.w3.org/1999/xlink"
   version="1.0"
   width="450"
   height="300"
   id="svg2">
  <defs
     id="defs4" />
  <g
     id="layer1">
    <rect
       width="450"
       height="300"
       x="0"
       y="0"
       style="fill:#cf142b;fill-opacity:1;fill-rule:nonzero;stroke:none;stroke-width:5;stroke-miterlimit:4;stroke-dasharray:none;stroke-opacity:1"
       id="rect1527" />
    <g
       transform="matrix(1.140706,0,0,1.147717,82.02367,3.079479)"
       id="g7250">
      <g
         transform="translate(-0.88555,0)"
         id="g7246">
        <path
           d="M 58.145912,44.270176 C 183.00841,-2.1575674 243.15344,58.690914 243.15344,58.690914 C 209.03608,53.063309 192.505,77.332357 192.505,77.332357 C 180.54634,70.29785 175.54055,66.212482 175.54055,66.212482 C 181.19121,64.029426 184.535,54.061044 175.68972,49.27514 C 167.11525,44.635763 158.91943,55.322507 162.43248,61.68058 C 114.93082,44.520228 65.753221,60.095801 66.235594,60.449541 L 53.573483,56.228837 L 58.145912,44.270176 z "
           style="fill:#ffffff;fill-opacity:1;fill-rule:evenodd;stroke:#000000;stroke-width:0.69999999;stroke-linecap:butt;stroke-linejoin:miter;stroke-miterlimit:4;stroke-dasharray:none;stroke-opacity:1"
           id="path1351" />
        <path
           d="M 54.452795,55.236142 C 124.79786,30.263644 178.43598,35.451592 210.61884,62.270649 C 210.61884,62.270649 217.65334,59.456846 217.65334,59.456846 C 188.81187,34.836073 146.60483,24.284313 79.425294,43.980932 C 57.758357,50.333542 54.452795,52.774065 54.452795,52.774065 L 54.452795,55.236142 z "
           style="fill:#96877d;fill-opacity:1;fill-rule:evenodd;stroke:none;stroke-width:0.69999999;stroke-linecap:butt;stroke-linejoin:miter;stroke-miterlimit:4;stroke-dasharray:none;stroke-opacity:1"
           id="path1355" />
      </g>
      <g
         style="fill:#f7e017;fill-opacity:1;stroke:#000000;stroke-width:0.69999999;stroke-miterlimit:4;stroke-dasharray:none;stroke-opacity:1"
         id="g4609">
        <path
           d="M 51.695906,48.082189 C 51.695906,48.082189 47.028154,48.449561 44.573919,49.869698 C 42.119683,51.289836 41.878964,53.762739 41.878964,53.762739 C 41.878964,53.762739 36.94559,53.384401 34.934058,54.848404 C 32.922526,56.312407 33.832834,59.618749 33.832834,59.618749 C 33.832834,59.618749 29.682492,58.587916 28.011287,59.574884 C 26.340083,60.561852 27.148017,63.566621 27.148017,63.566621 C 27.148017,63.566621 22.245081,62.184867 20.441065,63.698218 C 18.63705,65.211568 19.931955,69.620025 19.931955,69.620025 C 19.931955,69.620025 15.161829,68.369865 13.402084,69.751621 C 11.642339,71.133376 12.892975,75.147046 12.892975,75.147046 C 12.892975,75.147046 5.6890422,79.348195 9.5505665,82.998926 C 16.245391,87.526962 19.467117,79.204582 19.467117,79.204582 C 19.467117,79.204582 24.469663,79.588403 26.550367,78.393075 C 28.631072,77.197747 28.852424,75.125114 28.852424,75.125114 C 28.852424,75.125114 32.881023,75.46507 35.050267,74.138146 C 37.219513,72.811222 37.529405,69.817419 37.529405,69.817419 C 37.529405,69.817419 41.20384,70.94695 43.018924,70.058677 C 44.834008,69.170406 44.789737,66.264334 44.789737,66.264334 C 44.789737,66.264334 48.419902,66.798941 50.190715,65.929861 C 51.961527,65.060781 51.872987,62.788013 51.872987,62.788013 C 51.872987,62.788013 54.440664,63.410351 56.742721,62.629002 C 59.044777,61.847652 61.081212,59.662614 61.081212,59.662614 L 51.695906,48.082189 z "
           style="fill:#f7e017;fill-opacity:1;fill-rule:evenodd;stroke:#000000;stroke-width:0.69999999;stroke-linecap:butt;stroke-linejoin:miter;stroke-miterlimit:4;stroke-dasharray:none;stroke-opacity:1"
           id="path4582" />
        <g
           transform="translate(-0.866815,-4.263375)"
           style="fill:#f7e017;fill-opacity:1;stroke:#000000;stroke-width:0.69999999;stroke-miterlimit:4;stroke-dasharray:none;stroke-opacity:1"
           id="g4552">
          <path
             d="M 52.579114,22.840078 C 50.591657,22.842701 48.534831,23.328868 46.891614,24.340078 C 42.319185,27.153881 38.478853,35.141303 52.899589,55.541372 C 52.982025,55.665025 61.012301,65.490935 61.891614,66.590078 C 63.298524,68.348704 69.274585,81.025622 68.922864,85.246328 C 68.922864,85.246328 66.873738,82.585557 63.356486,82.585554 C 59.839221,82.585554 58.099584,83.69243 58.803035,87.561413 C 59.50649,91.430391 68.225435,93.31013 72.797864,90.496328 C 77.370294,87.682525 81.593604,79.958895 67.172864,59.558828 C 67.086307,59.428992 58.667504,49.33338 57.797864,48.246328 C 56.396458,46.494572 50.465365,33.922192 50.766614,29.652578 C 50.934985,29.858882 53.703026,32.623913 57.110364,32.623914 C 60.627617,32.623914 61.372435,30.4291 60.668986,26.560121 C 60.218338,24.081557 56.121972,22.835402 52.579114,22.840078 z "
             style="fill:#f7e017;fill-opacity:1;fill-rule:evenodd;stroke:#000000;stroke-width:0.69999999;stroke-linecap:butt;stroke-linejoin:miter;stroke-miterlimit:4;stroke-dasharray:none;stroke-opacity:1"
             id="path3656" />
          <rect
             width="13.531547"
             height="13.535523"
             x="-76.459862"
             y="38.033287"
             transform="matrix(-0.981564,-0.191134,-0.19205,0.981385,0,0)"
             style="fill:#f7e017;fill-opacity:1;fill-rule:nonzero;stroke:#000000;stroke-width:0.70000058;stroke-miterlimit:4;stroke-dasharray:none;stroke-opacity:1"
             id="rect3661" />
          <path
             d="M 52.725962 52.496395 A 5.7824464 2.5492506 0 1 1  41.161069,52.496395 A 5.7824464 2.5492506 0 1 1  52.725962 52.496395 z"
             transform="matrix(-0.599406,-0.623745,-0.623143,0.598653,120.6561,55.14159)"
             style="fill:#f7e017;fill-opacity:1;fill-rule:nonzero;stroke:#000000;stroke-width:0.80963093;stroke-miterlimit:4;stroke-dasharray:none;stroke-opacity:1"
             id="path4544" />
        </g>
        <path
           d="M 13.038415,75.347081 L 19.496177,79.41206"
           style="fill:#f7e017;fill-opacity:1;fill-rule:evenodd;stroke:#000000;stroke-width:0.69999999;stroke-linecap:butt;stroke-linejoin:miter;stroke-miterlimit:4;stroke-dasharray:none;stroke-opacity:1"
           id="path4591" />
        <path
           d="M 20.048344,69.641613 L 28.841477,75.269218"
           style="fill:#f7e017;fill-opacity:1;fill-rule:evenodd;stroke:#000000;stroke-width:0.69999999;stroke-linecap:butt;stroke-linejoin:miter;stroke-miterlimit:4;stroke-dasharray:none;stroke-opacity:1"
           id="path4593" />
        <path
           d="M 26.906988,63.701055 L 37.458748,69.954565"
           style="fill:#f7e017;fill-opacity:1;fill-rule:evenodd;stroke:#000000;stroke-width:0.69999999;stroke-linecap:butt;stroke-linejoin:miter;stroke-miterlimit:4;stroke-dasharray:none;stroke-opacity:1"
           id="path4595" />
        <path
           d="M 33.941494,59.655237 L 44.493254,66.086564"
           style="fill:#f7e017;fill-opacity:1;fill-rule:evenodd;stroke:#000000;stroke-width:0.69999999;stroke-linecap:butt;stroke-linejoin:miter;stroke-miterlimit:4;stroke-dasharray:none;stroke-opacity:1"
           id="path4597" />
        <path
           d="M 41.695404,53.705274 L 52.039396,62.891668"
           style="fill:#f7e017;fill-opacity:1;fill-rule:evenodd;stroke:#000000;stroke-width:0.69999999;stroke-linecap:butt;stroke-linejoin:miter;stroke-miterlimit:4;stroke-dasharray:none;stroke-opacity:1"
           id="path4599" />
        <path
           d="M 51.703623,32.886316 C 46.076018,29.89665 46.779469,28.313886 46.779469,28.313886"
           style="fill:#f7e017;fill-opacity:1;fill-rule:evenodd;stroke:#000000;stroke-width:0.69999999;stroke-linecap:butt;stroke-linejoin:miter;stroke-miterlimit:4;stroke-dasharray:none;stroke-opacity:1"
           id="path4601" />
        <path
           d="M 54.341563,39.569097 C 50.120859,40.624273 47.658782,37.986333 47.658782,37.986333"
           style="fill:#f7e017;fill-opacity:1;fill-rule:evenodd;stroke:#000000;stroke-width:0.69999999;stroke-linecap:butt;stroke-linejoin:miter;stroke-miterlimit:4;stroke-dasharray:none;stroke-opacity:1"
           id="path4603" />
        <path
           d="M 66.54995,73.811023 C 72.177555,76.800689 71.474104,78.383453 71.474104,78.383453"
           style="fill:#f7e017;fill-opacity:1;fill-rule:evenodd;stroke:#000000;stroke-width:0.69999999;stroke-linecap:butt;stroke-linejoin:miter;stroke-miterlimit:4;stroke-dasharray:none;stroke-opacity:1"
           id="path4605" />
        <path
           d="M 63.91201,67.128242 C 68.132714,66.073066 70.594791,68.711006 70.594791,68.711006"
           style="fill:#f7e017;fill-opacity:1;fill-rule:evenodd;stroke:#000000;stroke-width:0.69999999;stroke-linecap:butt;stroke-linejoin:miter;stroke-miterlimit:4;stroke-dasharray:none;stroke-opacity:1"
           id="path4607" />
      </g>
    </g>
    <use
       transform="translate(2.900661e-7,86.0002)"
       id="use2402"
       x="0"
       y="0"
       width="450"
       height="300"
       xlink:href="#g7250" />
    <use
       transform="translate(2.900661e-7,172.0004)"
       id="use2406"
       x="0"
       y="0"
       width="450"
       height="300"
       xlink:href="#g7250" />
  </g>
</svg>
