<?xml version="1.0" encoding="utf-8"?>
<!-- Generator: Adobe Illustrator 12.0.1, SVG Export Plug-In . SVG Version: 6.00 Build 51448)  -->
<!DOCTYPE svg PUBLIC "-//W3C//DTD SVG 1.1//EN" "http://www.w3.org/Graphics/SVG/1.1/DTD/svg11.dtd" [
	<!ENTITY ns_svg "http://www.w3.org/2000/svg">
	<!ENTITY ns_xlink "http://www.w3.org/1999/xlink">
]>
<svg  version="1.1"
	 id="svg797" xmlns:sodipodi="http://inkscape.sourceforge.net/DTD/sodipodi-0.dtd" xmlns:dc="http://purl.org/dc/elements/1.1/" inkscape:version="0.43" sodipodi:docname="Flag_of_Barbados.svg" xmlns:rdf="http://www.w3.org/1999/02/22-rdf-syntax-ns#" xmlns:inkscape="http://www.inkscape.org/namespaces/inkscape" xmlns:svg="http://www.w3.org/2000/svg" xmlns:cc="http://web.resource.org/cc/" sodipodi:version="0.32" sodipodi:docbase="C:\Documents and Settings\David Nelson\Archives\Svg"
	 xmlns="&ns_svg;" xmlns:xlink="&ns_xlink;" width="612" height="792" viewBox="0 0 612 792"
	 overflow="visible" enable-background="new 0 0 612 792" xml:space="preserve">
<sodipodi:namedview  id="base" showguides="true" gridspacingy="15px" gridspacingx="15px" inkscape:cx="375.00018" showgrid="true" inkscape:cy="250.00012" inkscape:window-width="756" inkscape:current-layer="svg797" inkscape:window-x="82" inkscape:window-y="304" snaptogrid="true" inkscape:zoom="0.74599964" inkscape:window-height="540" inkscape:grid-points="true" inkscape:guide-bbox="true" gridtolerance="3px">
	</sodipodi:namedview>
<rect id="rect807" x="133" y="267.333" fill="#00267F" width="110.667" height="221.333"/>
<rect id="rect808" x="354.333" y="267.333" fill="#00267F" width="110.667" height="221.333"/>
<rect id="rect809" x="243.667" y="267.333" fill="#FFC726" width="110.666" height="221.333"/>
<g id="g8472">
	<path id="path806" sodipodi:nodetypes="cccccccccccccccc" d="M299,431.619h-5.682c-0.082-7.021,0.083-22.076,0-29.098
		c-4.543,0-15.531,2.677-20.075,2.677c0.08-25.161-9.692-46.367-21.354-64.342c-0.701-0.902-0.243-1.29,0.535-1.09
		c8.801,1.375,17.856,5.995,24.059,12.41c0.724,0.888-3.844-0.972-4.253-1.025c-3.397-1.018,1.013,4.785,1.259,6.311
		c3.481,11.123,6.521,21.9,7.636,34.699c0.001,0.89,0.142,1.538,0.563,1.581l11.631-1.729V350.77
		c-2.727-0.072-6.989,0.647-9.425,1.453c7.848-7.828,11.509-18.032,15.106-27.842C299,326.841,299,431.619,299,431.619z"/>
	<g>
		<path id="path806_1_" sodipodi:nodetypes="cccccccccccccccc" d="M299,431.619h5.682c0.082-7.021-0.083-22.076,0-29.098
			c4.543,0,15.531,2.677,20.075,2.677c-0.08-25.161,9.692-46.367,21.354-64.342c0.701-0.902,0.243-1.29-0.535-1.09
			c-8.801,1.375-17.856,5.995-24.059,12.41c-0.724,0.888,3.844-0.972,4.253-1.025c3.397-1.018-1.013,4.785-1.259,6.311
			c-3.481,11.123-6.521,21.9-7.636,34.699c-0.001,0.89-0.142,1.538-0.563,1.581l-11.631-1.729V350.77
			c2.727-0.072,6.989,0.647,9.425,1.453c-7.848-7.828-11.509-18.032-15.106-27.842C299,326.841,299,431.619,299,431.619z"/>
	</g>
</g>
</svg>
