<?xml version="1.0" encoding="UTF-8" standalone="no"?>
<!-- Created with Inkscape (http://www.inkscape.org/) -->
<svg
   xmlns:dc="http://purl.org/dc/elements/1.1/"
   xmlns:cc="http://web.resource.org/cc/"
   xmlns:rdf="http://www.w3.org/1999/02/22-rdf-syntax-ns#"
   xmlns:svg="http://www.w3.org/2000/svg"
   xmlns="http://www.w3.org/2000/svg"
   xmlns:sodipodi="http://sodipodi.sourceforge.net/DTD/sodipodi-0.dtd"
   xmlns:inkscape="http://www.inkscape.org/namespaces/inkscape"
   width="439.62"
   height="300"
   id="svg7409"
   sodipodi:version="0.32"
   inkscape:version="0.44"
   version="1.0"
   sodipodi:docbase="C:\Documents and Settings\Zachary\My Documents\My Pictures\SVG"
   sodipodi:docname="Lozenge flag of Monaco.svg">
  <defs
     id="defs7411" />
  <sodipodi:namedview
     id="base"
     pagecolor="#ffffff"
     bordercolor="#666666"
     borderopacity="1.0"
     inkscape:pageopacity="0.0"
     inkscape:pageshadow="2"
     inkscape:zoom="0.9899087"
     inkscape:cx="179.09128"
     inkscape:cy="123.03748"
     inkscape:document-units="px"
     inkscape:current-layer="layer1"
     inkscape:window-width="853"
     inkscape:window-height="573"
     inkscape:window-x="51"
     inkscape:window-y="117"
     width="439.62px"
     height="300px" />
  <metadata
     id="metadata7414">
    <rdf:RDF>
      <cc:Work
         rdf:about="">
        <dc:format>image/svg+xml</dc:format>
        <dc:type
           rdf:resource="http://purl.org/dc/dcmitype/StillImage" />
      </cc:Work>
    </rdf:RDF>
  </metadata>
  <g
     inkscape:label="Layer 1"
     inkscape:groupmode="layer"
     id="layer1">
    <rect
       style="fill:white;fill-opacity:1;fill-rule:evenodd;stroke:none;stroke-width:1;stroke-linecap:round;stroke-linejoin:bevel;stroke-miterlimit:4;stroke-dasharray:none;stroke-dashoffset:0.99999998;stroke-opacity:1"
       id="rect10951"
       width="439.61899"
       height="300"
       x="0"
       y="0" />
    <path
       style="fill:#ce1126;fill-opacity:1;stroke:#ce1126;stroke-width:0.84060228;stroke-opacity:1"
       d="M 145.15533,50.078333 L 120.9319,99.736376 L 96.70846,50.078333 L 120.9319,0.42028954 L 145.15533,50.078333 z "
       class="fil3 str0"
       id="21607424" />
    <path
       style="fill:#ce1126;fill-opacity:1;stroke:#ce1126;stroke-width:0.84060228;stroke-opacity:1"
       d="M 193.6022,50.078333 L 169.37877,99.736376 L 145.15533,50.078333 L 169.37877,0.42028954 L 193.6022,50.078333 z "
       class="fil3 str0"
       id="21607336" />
    <path
       style="fill:#ce1126;fill-opacity:1;stroke:#ce1126;stroke-width:0.84060228;stroke-opacity:1"
       d="M 48.261589,50.078333 L 72.485025,99.736376 L 96.70846,50.078333 L 72.485025,0.42028954 L 48.261589,50.078333 z "
       class="fil3 str0"
       id="21607160" />
    <path
       style="fill:#ce1126;fill-opacity:1;stroke:#ce1126;stroke-width:0.84060228;stroke-opacity:1"
       d="M 0.42030339,50.078333 L 24.643739,99.736376 L 48.867175,50.078333 L 24.643739,0.42028954 L 0.42030339,50.078333 z "
       class="fil3 str0"
       id="21607072" />
    <path
       style="fill:#ce1126;fill-opacity:1;stroke:#ce1126;stroke-width:0.84060228;stroke-opacity:1"
       d="M 145.15533,150.00001 L 120.9319,199.65805 L 96.70846,150.00001 L 120.9319,99.736376 L 145.15533,150.00001 z "
       class="fil3 str0"
       id="21606984" />
    <path
       style="fill:#ce1126;fill-opacity:1;stroke:#ce1126;stroke-width:0.84060228;stroke-opacity:1"
       d="M 193.6022,150.00001 L 169.37877,199.65805 L 145.15533,150.00001 L 169.37877,99.736376 L 193.6022,150.00001 z "
       class="fil3 str0"
       id="21606896" />
    <path
       style="fill:#ce1126;fill-opacity:1;stroke:#ce1126;stroke-width:0.84060228;stroke-opacity:1"
       d="M 48.261589,150.00001 L 72.485025,199.65805 L 96.70846,150.00001 L 72.485025,99.736376 L 48.261589,150.00001 z "
       class="fil3 str0"
       id="21606720" />
    <path
       style="fill:#ce1126;fill-opacity:1;stroke:#ce1126;stroke-width:0.84060228;stroke-opacity:1"
       d="M 0.42030339,150.00001 L 24.643739,199.65805 L 48.867175,150.00001 L 24.643739,99.736376 L 0.42030339,150.00001 z "
       class="fil3 str0"
       id="21606632" />
    <path
       style="fill:#ce1126;fill-opacity:1;stroke:#ce1126;stroke-width:0.84060228;stroke-opacity:1"
       d="M 145.15533,249.31609 L 120.9319,299.57972 L 96.70846,249.31609 L 120.9319,199.65805 L 145.15533,249.31609 z "
       class="fil3 str0"
       id="21606544" />
    <path
       style="fill:#ce1126;fill-opacity:1;stroke:#ce1126;stroke-width:0.84060228;stroke-opacity:1"
       d="M 193.6022,249.31609 L 169.37877,299.57972 L 145.15533,249.31609 L 169.37877,199.65805 L 193.6022,249.31609 z "
       class="fil3 str0"
       id="21606456" />
    <path
       style="fill:#ce1126;fill-opacity:1;stroke:#ce1126;stroke-width:0.84060228;stroke-opacity:1"
       d="M 48.261589,249.31609 L 72.485025,299.57972 L 96.70846,249.31609 L 72.485025,199.65805 L 48.261589,249.31609 z "
       class="fil3 str0"
       id="21606280" />
    <path
       style="fill:#ce1126;fill-opacity:1;stroke:#ce1126;stroke-width:0.84060228;stroke-opacity:1"
       d="M 0.42030339,249.31609 L 24.643739,299.57972 L 48.867175,249.31609 L 24.643739,199.65805 L 0.42030339,249.31609 z "
       class="fil3 str0"
       id="21699936" />
    <path
       style="fill:#ce1126;fill-opacity:1;stroke:#ce1126;stroke-width:0.84060228;stroke-opacity:1"
       d="M 242.04907,50.078333 L 217.82564,99.736376 L 193.6022,50.078333 L 217.82564,0.42028954 L 242.04907,50.078333 z "
       class="fil3 str0"
       id="21607248" />
    <path
       style="fill:#ce1126;fill-opacity:1;stroke:#ce1126;stroke-width:0.84060228;stroke-opacity:1"
       d="M 242.04907,150.00001 L 217.82564,199.65805 L 193.6022,150.00001 L 217.82564,99.736376 L 242.04907,150.00001 z "
       class="fil3 str0"
       id="21606808" />
    <path
       style="fill:#ce1126;fill-opacity:1;stroke:#ce1126;stroke-width:0.84060228;stroke-opacity:1"
       d="M 242.04907,249.31609 L 217.82564,299.57972 L 193.6022,249.31609 L 217.82564,199.65805 L 242.04907,249.31609 z "
       class="fil3 str0"
       id="21606368" />
    <path
       id="path3501"
       class="fil3 str0"
       d="M 291.33654,50.078333 L 267.11311,99.736376 L 242.88967,50.078333 L 267.11311,0.42028954 L 291.33654,50.078333 z "
       style="fill:#ce1126;fill-opacity:1;stroke:#ce1126;stroke-width:0.84060228;stroke-opacity:1" />
    <path
       id="path3503"
       class="fil3 str0"
       d="M 291.33654,150.00001 L 267.11311,199.65805 L 242.88967,150.00001 L 267.11311,99.736376 L 291.33654,150.00001 z "
       style="fill:#ce1126;fill-opacity:1;stroke:#ce1126;stroke-width:0.84060228;stroke-opacity:1" />
    <path
       id="path3505"
       class="fil3 str0"
       d="M 291.33654,249.31609 L 267.11311,299.57972 L 242.88967,249.31609 L 267.11311,199.65805 L 291.33654,249.31609 z "
       style="fill:#ce1126;fill-opacity:1;stroke:#ce1126;stroke-width:0.84060228;stroke-opacity:1" />
    <path
       id="path3521"
       class="fil3 str0"
       d="M 340.62401,50.078309 L 316.40058,99.736352 L 292.17714,50.078309 L 316.40058,0.4202655 L 340.62401,50.078309 z "
       style="fill:#ce1126;fill-opacity:1;stroke:#ce1126;stroke-width:0.84060228;stroke-opacity:1" />
    <path
       id="path3523"
       class="fil3 str0"
       d="M 340.62401,149.99999 L 316.40058,199.65803 L 292.17714,149.99999 L 316.40058,99.736352 L 340.62401,149.99999 z "
       style="fill:#ce1126;fill-opacity:1;stroke:#ce1126;stroke-width:0.84060228;stroke-opacity:1" />
    <path
       id="path3525"
       class="fil3 str0"
       d="M 340.62401,249.31607 L 316.40058,299.5797 L 292.17714,249.31607 L 316.40058,199.65803 L 340.62401,249.31607 z "
       style="fill:#ce1126;fill-opacity:1;stroke:#ce1126;stroke-width:0.84060228;stroke-opacity:1" />
    <path
       style="fill:#ce1126;fill-opacity:1;stroke:#ce1126;stroke-width:0.84060228;stroke-opacity:1"
       d="M 389.91147,50.078309 L 365.68804,99.736352 L 341.4646,50.078309 L 365.68804,0.4202655 L 389.91147,50.078309 z "
       class="fil3 str0"
       id="path3529" />
    <path
       style="fill:#ce1126;fill-opacity:1;stroke:#ce1126;stroke-width:0.84060228;stroke-opacity:1"
       d="M 389.91147,149.99999 L 365.68804,199.65803 L 341.4646,149.99999 L 365.68804,99.736352 L 389.91147,149.99999 z "
       class="fil3 str0"
       id="path3531" />
    <path
       style="fill:#ce1126;fill-opacity:1;stroke:#ce1126;stroke-width:0.84060228;stroke-opacity:1"
       d="M 389.91147,249.31607 L 365.68804,299.5797 L 341.4646,249.31607 L 365.68804,199.65803 L 389.91147,249.31607 z "
       class="fil3 str0"
       id="path3533" />
    <path
       id="path3545"
       class="fil3 str0"
       d="M 439.19897,50.078307 L 414.97554,99.73635 L 390.7521,50.078307 L 414.97554,0.42026354 L 439.19897,50.078307 z "
       style="fill:#ce1126;fill-opacity:1;stroke:#ce1126;stroke-width:0.84060228;stroke-opacity:1" />
    <path
       id="path3547"
       class="fil3 str0"
       d="M 439.19897,149.99998 L 414.97554,199.65802 L 390.7521,149.99998 L 414.97554,99.73635 L 439.19897,149.99998 z "
       style="fill:#ce1126;fill-opacity:1;stroke:#ce1126;stroke-width:0.84060228;stroke-opacity:1" />
    <path
       id="path3549"
       class="fil3 str0"
       d="M 439.19897,249.31606 L 414.97554,299.5797 L 390.7521,249.31606 L 414.97554,199.65802 L 439.19897,249.31606 z "
       style="fill:#ce1126;fill-opacity:1;stroke:#ce1126;stroke-width:0.84060228;stroke-opacity:1" />
  </g>
</svg>
